<svg xmlns="http://www.w3.org/2000/svg" width="359.226" height="60.077" viewBox="0 0 359.226 60.077"><defs><style>.a{fill:#f26722;}.b{fill:#488fcc;}.c{fill:#4790cd;}</style></defs><path class="a" d="M258.7,55.521a12.55,12.55,0,0,0,.183-2.1q.015-16.347,0-32.693c0-2.492.426-2.916,2.858-2.922h4.247a1.86,1.86,0,0,1,2.117,2c-.128,12.862.586,25.746-.317,38.582-.852,11.991-10.609,20.21-22.382,19.437a21.185,21.185,0,0,1-20.15-22.285C225.7,41.7,239.456,31.767,252.09,36.2c.23.083.462.164.692.256,5.21,2.068,5.8,2.926,5.8,8.434,0,1.046,0,2.094-.013,3.139-1.608,1.433-2.155,1.491-3.772.077a11.877,11.877,0,0,0-11.491-2.822,10.773,10.773,0,0,0-7.88,10.2,16.472,16.472,0,0,0,.232,4.411,11.592,11.592,0,0,0,17.874,6.2,12.676,12.676,0,0,0,4.343-7.188C258.168,57.8,258.384,57,258.7,55.521Z" transform="translate(-179.553 -17.81)"/><path class="a" d="M20.765,123.57c.7,5.693,6.762,10.483,12.832,10.136,5.866-.337,9.94-3.676,12.14-9.951.895-2.556,1.536-2.809,3.834-1.542.053.03.1.07.155.1,4.174,2.315,4.174,2.315,2.313,6.8-3.706,8.945-11.288,13.691-20.985,13.126A21.3,21.3,0,1,1,44.847,104.1a26.538,26.538,0,0,1,6.26,7.684c.426.731.411,1.08-.36,1.578-8.049,5.22-16.065,10.494-24.1,15.733-1.22.794-2.2.426-2.926-.8-.946-1.58-1.9-3.152-2.858-4.726-.213-1.2.76-1.587,1.491-2.081,4.545-3.052,9.107-6.079,13.661-9.118a8.547,8.547,0,0,0,.765-.513c.447-.373,1.259-.52,1.137-1.278-.094-.594-.752-.805-1.259-.971-3.521-1.146-7.043-1.308-10.317.66a11.313,11.313,0,0,0-5.621,9.987C20.7,121.359,20.889,122.462,20.765,123.57Z" transform="translate(-10.724 -82.227)"/><path class="b" d="M694.84,51.35c-1.3-1-2.194-1.753-3.152-2.413a13.161,13.161,0,0,0-15.942.6,13.866,13.866,0,0,0-3.372,16.334,13.171,13.171,0,0,0,14.27,7.212c5.559-.993,9.045-4.656,10.353-10.862a26.482,26.482,0,0,0,.541-5.5c0-10.841.03-21.682-.038-32.523,0-1.561.451-2.079,1.968-1.917,1.578.173,3.621-.639,4.639.311s.317,3.041.317,4.615c.013,11.024.1,22.052-.077,33.074a19.757,19.757,0,0,1-16.027,19.452c-10.786,2.187-21.511-4.581-23.839-15.047C661.988,53.463,668.43,42.69,679.167,40.2a17.419,17.419,0,0,1,14.57,2.822,2.219,2.219,0,0,1,1.127,2.111C694.774,47.08,694.84,49.029,694.84,51.35Z" transform="translate(-524.82 -21.202)"/><path class="a" d="M499.395,118.15c-.213,3.6.449,8.059-.334,12.451-1.7,9.6-9.371,15.358-19.122,14.47-9.98-.912-16.206-7.723-16.376-18.131-.117-7.077,0-14.157-.034-21.237,0-1.732.822-2.443,2.488-2.407,1.416.032,2.833,0,4.247,0,1.97.021,2.511.552,2.515,2.509v19.207a15.573,15.573,0,0,0,.982,5.783,7.635,7.635,0,0,0,8.053,5.182,8.526,8.526,0,0,0,7.851-6.2,17.754,17.754,0,0,0,.488-4.575q-.019-9.6,0-19.2c0-2.158.541-2.686,2.728-2.7q1.94-.013,3.878,0c2.155.015,2.624.469,2.63,2.579C499.395,109.7,499.395,113.517,499.395,118.15Z" transform="translate(-367.073 -85.084)"/><path class="b" d="M1509.859,124.4a19.609,19.609,0,0,1,14.734-18.713,19.947,19.947,0,0,1,22.906,9.946c.426.773.351,1.12-.377,1.593q-11.533,7.48-23.024,15.032c-.654.426-.969.426-1.457-.264-2.818-3.985-2.852-3.987,1.139-6.679,4.641-3.131,9.278-6.272,13.978-9.312,1.24-.8,1.086-1.237.1-2.077-5.352-4.528-14.244-3.195-18.427,2.79-5.493,7.868-1.174,19.569,8.113,21.98,7.088,1.84,13.8-1.861,16.77-9.252,1.127-2.8,1.048-2.622,3.774-1.416,1.994.882,1.961,1.93,1.3,3.651-3.452,9.031-9.831,13.631-19.169,13.695a20.373,20.373,0,0,1-19.039-12.76A21.173,21.173,0,0,1,1509.859,124.4Z" transform="translate(-1190.565 -86.444)"/><path class="b" d="M1329.729,108.345c3.518,0,3.514,0,4.641,3.274q4.409,12.8,8.843,25.6c.3.871.347,2.309,1.491,2.277,1.088-.034,1.129-1.444,1.442-2.343,3.169-9.039,6.343-18.076,9.438-27.138.426-1.25.948-1.823,2.315-1.7a32.444,32.444,0,0,0,4.245,0c1.116-.051,1.222.375.886,1.308-4.032,11.214-8,22.451-12.082,33.651-1.491,4.106-4.428,5.467-8.645,4.368a4.737,4.737,0,0,1-3.148-2.89c-1.672-3.689-2.85-7.578-4.228-11.384q-4.153-11.527-8.268-23.07c-.692-1.936-.688-1.938,1.406-1.945Z" transform="translate(-1046.061 -89.025)"/><path class="b" d="M1127.666,73.831c0-6.219.034-12.436-.028-18.653-.015-1.291.347-1.768,1.649-1.636,1.638.168,3.766-.671,4.807.332s.275,3.148.33,4.788c.06,1.785.073,3.574,0,5.354-.049,1.084.354,1.352,1.376,1.333,3.195-.055,6.4.013,9.6-.038,1.035-.017,1.512.136,1.531,1.372.072,4.773.124,4.771-4.628,4.773-2.215,0-4.432.019-6.647,0-.826-.013-1.242.213-1.22,1.144.151,6.456-.313,12.924.266,19.382.332,3.665,1.838,5.112,5.435,5.582a31.951,31.951,0,0,0,5.523.236c.978-.038,1.223.334,1.259,1.278.183,4.771.213,4.754-4.588,4.777a23.768,23.768,0,0,1-7.821-1.046c-4.345-1.467-6.577-4.558-6.737-10.13-.181-6.272-.043-12.555-.043-18.832Z" transform="translate(-889.753 -45.798)"/><path class="b" d="M996.228,147.242c-6.815.564-12.4-1.9-16.9-6.96-5.774-6.5-5.5-17.678.354-24.849,4.243-5.195,9.8-6.911,16.159-6.9h.922c4.988,0,4.96,0,4.686,5.024-.049.914-.347,1.118-1.188,1.12a38.082,38.082,0,0,0-6.816.307c-6.941,1.248-11.371,6.513-11.19,13.431.181,6.96,4.673,11.695,11.814,12.551a42.943,42.943,0,0,0,6.077.232c.912-.021,1.259.2,1.3,1.21.192,4.839.228,4.839-4.669,4.839Z" transform="translate(-769.735 -89.208)"/><path class="c" d="M903.872,127.28c0-5.908.032-11.818-.026-17.727-.013-1.246.266-1.8,1.619-1.68a25.028,25.028,0,0,0,3.874,0c1.131-.075,1.491.315,1.465,1.455-.064,3.755-.023,7.51-.023,11.265,0,8.125-.03,16.251.03,24.374,0,1.34-.275,1.945-1.7,1.757-1.685-.213-3.944.754-4.922-.413-.831-.995-.292-3.165-.3-4.816C903.861,136.76,903.872,132.021,903.872,127.28Z" transform="translate(-713.527 -88.679)"/><path class="c" d="M1267.144,127.344c0,5.908-.058,11.818.041,17.725.023,1.519-.473,1.9-1.864,1.776a29.767,29.767,0,0,0-3.874,0c-.939.043-1.289-.258-1.278-1.246q.041-18.189,0-36.373c0-1.02.407-1.254,1.316-1.22a40.3,40.3,0,0,0,4.245,0c1.152-.079,1.457.322,1.448,1.45C1267.117,115.4,1267.144,121.374,1267.144,127.344Z" transform="translate(-994.057 -88.787)"/><path class="c" d="M1257.729,32.38a5.043,5.043,0,0,1-.024,10.087,5.044,5.044,0,0,1,.024-10.087Z" transform="translate(-988.203 -29.277)"/><path class="c" d="M901.522,42.407a5.02,5.02,0,1,1,3.557-1.54A5.052,5.052,0,0,1,901.522,42.407Z" transform="translate(-707.745 -29.217)"/></svg>