<svg id="job" xmlns="http://www.w3.org/2000/svg" width="191.916" height="205.629" viewBox="0 0 191.916 205.629">
  <path id="Path_3432" data-name="Path 3432" d="M49.61,47.984c.46,0,.922,0,1.371-.038a23.548,23.548,0,0,0,8.457-2.108A23.9,23.9,0,0,0,80.42,58.264c.477,0,.955,0,1.435-.044a23.887,23.887,0,0,0,19.6-12.382,23.524,23.524,0,0,0,9.788,2.146c.48,0,.959-.014,1.439-.041a23.556,23.556,0,0,0,8.459-2.108,23.9,23.9,0,0,0,20.967,12.429c.475,0,.955,0,1.435-.044a23.82,23.82,0,0,0,16.522-8.006,24.167,24.167,0,0,0,3.084-4.372,23.6,23.6,0,0,0,9.788,2.141c.478,0,.963,0,1.442-.041A23.99,23.99,0,1,0,152.011,12.4a23.959,23.959,0,0,0-19.713,0,23.958,23.958,0,0,0-41.974,0,23.963,23.963,0,0,0-19.715,0,23.984,23.984,0,1,0-21,35.58ZM171.98,6.889a17.127,17.127,0,1,1-6.415,32.522,23.926,23.926,0,0,0-7.482-23.06c-.1-.086-.2-.158-.3-.24A16.975,16.975,0,0,1,171.98,6.889ZM141.136,17.171c.344-.02.686-.031,1.029-.031a17.2,17.2,0,1,1-1.029.031ZM110.294,6.889a17.113,17.113,0,0,1,16.188,9.253,23.69,23.69,0,0,0-8.293,19.552,24.25,24.25,0,0,0,.541,3.77,16.763,16.763,0,0,1-6.437,1.669,16.939,16.939,0,0,1-8.42-1.69A23.928,23.928,0,0,0,96.4,16.352c-.1-.086-.2-.158-.3-.24a16.975,16.975,0,0,1,14.2-9.223ZM79.45,17.171c.342-.02.686-.031,1.028-.031a17.2,17.2,0,1,1-1.028.031ZM36.81,12.6A17.108,17.108,0,0,1,64.8,16.13,23.688,23.688,0,0,0,56.5,35.68a24.412,24.412,0,0,0,.541,3.77,16.733,16.733,0,0,1-6.432,1.669A17.134,17.134,0,0,1,36.81,12.6Zm0,0" transform="translate(-15.34 0.001)" fill="#004e92"/>
  <path id="Path_3433" data-name="Path 3433" d="M10.288,184.525H30.852a10.281,10.281,0,0,0,10.28,10.282H54.84v34.322l-3.379-3.376a11.777,11.777,0,0,0-8.478-3.53,12,12,0,0,0-9.069,4.113,12.336,12.336,0,0,0,.954,16.726l8.04,8.04a176.3,176.3,0,0,1,18.2,22.277,33.549,33.549,0,0,0,27.142,13.957h7.712a3.642,3.642,0,0,0,.428-.085,3.64,3.64,0,0,0,.428.085,33.45,33.45,0,0,0,33.414-33.414V217.082a11.954,11.954,0,0,0-18.951-9.733,11.905,11.905,0,0,0-17.136-3.426,11.846,11.846,0,0,0-15.319-4.487v-4.629H89.112a10.221,10.221,0,0,0,6.854-2.673,10.215,10.215,0,0,0,6.854,2.673H150.8a10.281,10.281,0,0,0,10.282-10.282h20.562a10.282,10.282,0,0,0,10.282-10.28V163.963a27.448,27.448,0,0,0-27.418-27.416H150.8a27.331,27.331,0,0,0-21.329,10.282h-5.32a27.331,27.331,0,0,0-21.329-10.282H89.112a27.323,27.323,0,0,0-21.328,10.282H62.458a27.318,27.318,0,0,0-21.326-10.282H27.424A27.448,27.448,0,0,0,.008,163.963v10.282a10.281,10.281,0,0,0,10.28,10.28Zm73.683,20.564a5.113,5.113,0,0,1,5.141,5.139V232.5a3.427,3.427,0,0,0,6.854,0V213.656a5.14,5.14,0,1,1,10.28,0V232.5a3.427,3.427,0,0,0,6.854,0V217.082a5.141,5.141,0,0,1,10.282,0v36.841a26.589,26.589,0,0,1-26.56,26.56,3.621,3.621,0,0,0-.428.086,3.622,3.622,0,0,0-.428-.086H88.254A26.666,26.666,0,0,1,66.664,269.4a181.931,181.931,0,0,0-18.921-23.13l-8.04-8.04a5.538,5.538,0,0,1-.631-7.384,5.239,5.239,0,0,1,7.51-.271l3.4,3.4a6.854,6.854,0,0,0,11.713-4.846V176.507a5.516,5.516,0,0,1,4.741-5.69,5.176,5.176,0,0,1,4.043,1.5,5.113,5.113,0,0,1,1.5,3.64v56.547a3.427,3.427,0,0,0,6.854,0V210.228a5.14,5.14,0,0,1,5.141-5.139Zm5.141-17.136H78.83V175.958a11.917,11.917,0,0,0-3.506-8.489,12.054,12.054,0,0,0-9.339-3.506A12.308,12.308,0,0,0,54.84,176.507v11.446H41.132a3.427,3.427,0,0,1-3.426-3.428v-10.28a20.582,20.582,0,0,1,20.562-20.562H71.976a20.582,20.582,0,0,1,20.562,20.562v10.28a3.428,3.428,0,0,1-3.426,3.428Zm65.114-3.428a3.427,3.427,0,0,1-3.428,3.428H102.82a3.427,3.427,0,0,1-3.428-3.428v-10.28a20.586,20.586,0,0,1,20.562-20.562h13.71a20.586,20.586,0,0,1,20.562,20.562Zm10.28-41.124a20.584,20.584,0,0,1,20.564,20.562v10.282a3.428,3.428,0,0,1-3.428,3.426H161.08v-3.426a27.456,27.456,0,0,0-22.321-26.923A20.521,20.521,0,0,1,150.8,143.4Zm-61.686,0a20.521,20.521,0,0,1,12.039,3.92A27.487,27.487,0,0,0,95.966,161a27.489,27.489,0,0,0-18.89-13.681,20.5,20.5,0,0,1,12.036-3.92ZM6.862,163.963A20.582,20.582,0,0,1,27.424,143.4H41.132a20.508,20.508,0,0,1,12.036,3.92,27.45,27.45,0,0,0-22.316,26.923v3.426H10.288a3.427,3.427,0,0,1-3.426-3.426Zm0,0" transform="translate(-0.008 -81.708)" fill="#004e92"/>
  <path id="Path_3434" data-name="Path 3434" d="M208.235,467.667h13.708a3.427,3.427,0,1,0,0-6.854H208.235a3.427,3.427,0,0,0,0,6.854Zm0,0" transform="translate(-122.559 -275.746)" fill="#004e92"/>
</svg>
