<svg id="Group_2041" data-name="Group 2041" xmlns="http://www.w3.org/2000/svg" width="192.037" height="218.797" viewBox="0 0 192.037 218.797">
  <g id="Group_2040" data-name="Group 2040">
    <path id="Path_3410" data-name="Path 3410" d="M516.03,228.2a6.04,6.04,0,1,1-6.038-6.038,6.038,6.038,0,0,1,6.038,6.038Zm0,0" transform="translate(-435.981 -209.858)" fill="#004e92"/>
    <path id="Path_3411" data-name="Path 3411" d="M626.157,249.844h-42.51V239.269a19.634,19.634,0,1,0-39.269,0v10.575h-42.51A11.878,11.878,0,0,0,490,261.71V426.564a11.878,11.878,0,0,0,11.866,11.866H626.157a11.881,11.881,0,0,0,11.867-11.866V360.755a3.236,3.236,0,1,0-6.472,0v65.809a5.4,5.4,0,0,1-5.395,5.395H501.868a5.4,5.4,0,0,1-5.395-5.395V261.71a5.4,5.4,0,0,1,5.395-5.395H626.157a5.4,5.4,0,0,1,5.395,5.395V345.7a3.236,3.236,0,1,0,6.472,0V261.71a11.881,11.881,0,0,0-11.867-11.867ZM550.85,239.269a13.163,13.163,0,1,1,26.326,0v10.575H550.85Zm0,0" transform="translate(-490.002 -219.634)" fill="#004e92"/>
    <path id="Path_3412" data-name="Path 3412" d="M560.433,232.386H501.739a3.236,3.236,0,1,0,0,6.472h58.689a3.236,3.236,0,1,0,.005-6.472Zm0,0" transform="translate(-457.075 -170.242)" fill="#004e92"/>
    <path id="Path_3413" data-name="Path 3413" d="M496.067,283.745a3.233,3.233,0,0,0-3.231,3.236V386.4a3.237,3.237,0,0,0,3.231,3.241H610a3.238,3.238,0,0,0,3.236-3.241V231.9A3.234,3.234,0,0,0,610,228.667H496.067a3.233,3.233,0,0,0-3.231,3.236v39.956a3.236,3.236,0,1,0,6.472,0v-36.72H606.764V383.16H499.308V286.981a3.238,3.238,0,0,0-3.241-3.236Zm0,0" transform="translate(-479.025 -184.646)" fill="#004e92"/>
    <path id="Path_3414" data-name="Path 3414" d="M496.112,240.227v17.261a3.234,3.234,0,0,0,3.236,3.236h17.7a3.234,3.234,0,0,0,3.236-3.236V240.227a3.234,3.234,0,0,0-3.236-3.236h-17.7a3.234,3.234,0,0,0-3.236,3.236Zm6.477,3.236H513.8v10.789H502.589Zm0,0" transform="translate(-466.336 -152.405)" fill="#004e92"/>
    <path id="Path_3415" data-name="Path 3415" d="M558.021,237.079H505.37a3.238,3.238,0,0,0,0,6.477h52.651a3.238,3.238,0,0,0,0-6.477Zm0,0" transform="translate(-443.011 -152.064)" fill="#004e92"/>
    <path id="Path_3416" data-name="Path 3416" d="M505.37,247h31.072a3.236,3.236,0,0,0,0-6.472H505.37a3.236,3.236,0,1,0,0,6.472Zm0,0" transform="translate(-443.011 -138.686)" fill="#004e92"/>
    <path id="Path_3417" data-name="Path 3417" d="M496.112,265.369a3.238,3.238,0,0,0,3.236,3.241h17.7a3.238,3.238,0,0,0,3.236-3.241V248.108a3.237,3.237,0,0,0-3.236-3.236h-17.7a3.237,3.237,0,0,0-3.236,3.236Zm6.477-14.02H513.8v10.789H502.589Zm0,0" transform="translate(-466.336 -121.879)" fill="#004e92"/>
    <path id="Path_3418" data-name="Path 3418" d="M558.021,244.961H505.37a3.236,3.236,0,1,0,0,6.472h52.651a3.236,3.236,0,1,0,0-6.472Zm0,0" transform="translate(-443.011 -121.535)" fill="#004e92"/>
    <path id="Path_3419" data-name="Path 3419" d="M505.37,254.89h31.072a3.238,3.238,0,0,0,0-6.477H505.37a3.238,3.238,0,0,0,0,6.477Zm0,0" transform="translate(-443.011 -108.16)" fill="#004e92"/>
    <path id="Path_3420" data-name="Path 3420" d="M496.112,273.251a3.234,3.234,0,0,0,3.236,3.236h17.7a3.234,3.234,0,0,0,3.236-3.236V255.99a3.234,3.234,0,0,0-3.236-3.236h-17.7a3.234,3.234,0,0,0-3.236,3.236Zm6.477-14.025H513.8v10.79H502.589Zm0,0" transform="translate(-466.336 -91.35)" fill="#004e92"/>
    <path id="Path_3421" data-name="Path 3421" d="M561.257,256.078a3.24,3.24,0,0,0-3.236-3.236H505.37a3.238,3.238,0,0,0,0,6.477h52.651a3.242,3.242,0,0,0,3.236-3.241Zm0,0" transform="translate(-443.011 -91.009)" fill="#004e92"/>
    <path id="Path_3422" data-name="Path 3422" d="M505.37,256.3a3.236,3.236,0,1,0,0,6.472h31.072a3.236,3.236,0,0,0,0-6.472Zm0,0" transform="translate(-443.011 -77.631)" fill="#004e92"/>
    <path id="Path_3423" data-name="Path 3423" d="M545.423,225.833H532.479a9.722,9.722,0,0,0-9.712,9.708V379.683a3.23,3.23,0,0,0,.721,2.037l12.949,15.965a3.236,3.236,0,0,0,5.029,0l12.944-15.965a3.2,3.2,0,0,0,.721-2.037V284.956a3.236,3.236,0,0,0-6.472,0v93.577l-9.713,11.979-9.7-11.979V256.905h6.472V379.683a3.236,3.236,0,0,0,6.472,0V256.905h6.472v12.983a3.236,3.236,0,0,0,6.472,0V235.541a9.718,9.718,0,0,0-9.708-9.708Zm-16.18,24.6V235.541a3.237,3.237,0,0,1,3.236-3.236h12.944a3.241,3.241,0,0,1,3.241,3.236v14.888Zm0,0" transform="translate(-363.093 -195.623)" fill="#004e92"/>
  </g>
</svg>
