<svg xmlns="http://www.w3.org/2000/svg" viewBox="0 0 654.36 795.57"><defs><style>.cls-1{fill:#008e6b;}.cls-13,.cls-14,.cls-16,.cls-17,.cls-18,.cls-2,.cls-5,.cls-6{fill:none;}.cls-2{stroke:#00372a;stroke-width:2.62px;}.cls-16,.cls-17,.cls-18,.cls-2,.cls-6{stroke-miterlimit:10;}.cls-3{fill:#fcd4c5;}.cls-4{fill:#eb9d76;}.cls-5{stroke:#e06b47;stroke-width:2.45px;}.cls-13,.cls-14,.cls-5{stroke-linecap:round;stroke-linejoin:round;}.cls-6{stroke:#f58879;stroke-width:2.46px;}.cls-7{fill:#fff;}.cls-8{fill:#f58879;}.cls-9{fill:#f36f59;}.cls-10{fill:#f58872;}.cls-11{fill:#351815;}.cls-12{fill:#ef7f56;}.cls-13{stroke:#1d0e0f;stroke-width:2.72px;}.cls-14{stroke:#351815;stroke-width:11.79px;}.cls-15{fill:#160d0d;}.cls-16,.cls-17,.cls-18{stroke:#fff;}.cls-16{stroke-width:2.72px;}.cls-17{stroke-width:2.59px;}.cls-18{stroke-width:2.64px;}</style></defs><title>Asset 10</title><g id="Layer_2" data-name="Layer 2"><g id="Layer_1-2" data-name="Layer 1"><path class="cls-1" d="M477.22,501.78l.62,293.79-103.91-.16-13.23-195h-8.26l-10.34,195H245.18s-7.1-133.26,4.9-293.68Z"/><line class="cls-2" x1="360.7" y1="599.79" x2="312.62" y2="599.79"/><path class="cls-3" d="M240.42,233.44s-14.29,0-42.21,43.82C181.14,304.1,145.07,361,127.43,390.15A40.44,40.44,0,0,0,138,443.57h0c17.53,13,45.92,9.74,59.48-7.36l76.41-93.12Z"/><path class="cls-4" d="M104.3,286.61l-3.53-26.16a13.39,13.39,0,0,0-9.44-11l-31-9.28a10.06,10.06,0,0,0-11.65,4.68h0a10.08,10.08,0,0,0,3.93,13.83l14.84,8.09s-20.59,16.38-.72,38.36Z"/><path class="cls-4" d="M91.33,249.42,50.86,194.19A7.77,7.77,0,0,0,39.39,193h0a7.78,7.78,0,0,0-1.72,9.33l25.46,49.55Z"/><path class="cls-4" d="M58.78,236l-15.53-5.28a10.77,10.77,0,0,0-9.4,2l-3.58,2.86a10.77,10.77,0,0,0-2.74,13.55l19.83,35.34,25.51-18.78Z"/><path class="cls-4" d="M30.45,241.07H24.66a10.58,10.58,0,0,0-7.41,3l-4.78,4.69a10.6,10.6,0,0,0-3.18,7.56h0a10.59,10.59,0,0,0,2.12,6.36l25.41,33.84,22-16.4Z"/><path class="cls-4" d="M21.16,254.46H15.37a10.59,10.59,0,0,0-7.41,3l-4.78,4.69A10.54,10.54,0,0,0,0,269.74H0a10.54,10.54,0,0,0,2.12,6.35L11,288a27.57,27.57,0,0,0,38.51,5.56h0Z"/><polygon class="cls-4" points="23.27 294.92 55.61 330.67 104.3 286.61 84.09 260.76 58.84 260.76 36.81 276.01 23.27 294.92"/><path class="cls-5" d="M89.2,249.05l-33.72-11.2A9.18,9.18,0,0,0,44,243.9h0a9.2,9.2,0,0,0,3.08,9.95l20.34,12.89s-18.34,9-3.38,29.8"/><path class="cls-5" d="M27.11,241.07,47.4,269.32a10,10,0,0,0,14.44,1.95l5.61-4.53"/><path class="cls-5" d="M9.29,258.06l18.28,23.35c4,5.22,10.74,7,16,3.08h0a12.08,12.08,0,0,0,2.59-16.84l-5.85-8"/><path class="cls-5" d="M27.11,298.34s9.56-1,7-11.49"/><polygon class="cls-3" points="128.26 433.27 45.92 328.16 105.27 279.3 182.26 365.46 128.26 433.27"/><line class="cls-6" x1="158.94" y1="339.35" x2="182.26" y2="365.46"/><rect class="cls-7" x="256.69" y="334.37" width="191.42" height="191.42"/><path class="cls-7" d="M316.2,213.94s10.34,127.52,16.66,169.16l53.21-163.55Z"/><path class="cls-3" d="M380,214.31l103.48,14.9,11.71,109.48-15.39,50.89-.2,159a11.09,11.09,0,0,1-14,10.69l-62.2-15.8a92.43,92.43,0,0,1-66.41-73.14l-7.36-63.62Z"/><path class="cls-8" d="M382.12,200.48s17.47-2.84,20.93,12.92S410,243.77,410,243.77l-13.53,6.92L410,261.07l-77.1,122Z"/><path class="cls-3" d="M316.2,213.94l-75.78,19.5-4,104.42,11.3,69.39L233.86,534.72A8.94,8.94,0,0,0,244.06,545c20.47-3.18,64.58-17.17,76.07-49.89,15.57-44.38,12.73-112,12.73-112Z"/><path class="cls-8" d="M320,204.31s-13.82-5.39-21.36,12.25A305.65,305.65,0,0,0,287.57,246l16.22,9.3-16.22,9.31L332.86,383.1Z"/><path class="cls-6" d="M242.65,381.12s-6.27-43.26-7.69-81.88"/><line class="cls-6" x1="332.87" y1="381.12" x2="329.55" y2="436.57"/><path class="cls-3" d="M483.44,229.21s32.36,2.23,56,29.93,90.58,90.93,111,136.56l-86.51,17.43-80.43-80.66Z"/><line class="cls-6" x1="493.23" y1="344.88" x2="466.61" y2="323.87"/><polygon class="cls-9" points="366.89 425.37 469.02 354.33 486.56 378.67 386.52 446.81 366.89 425.37"/><polygon class="cls-7" points="476.19 371.88 467.41 360.41 371.85 427.98 381.13 439.35 476.19 371.88"/><polygon class="cls-10" points="378.67 431.57 479.09 571.85 579.33 499.57 481.23 359.15 378.67 431.57"/><polygon class="cls-9" points="378.67 431.57 366.89 425.37 466.57 565.41 479.09 571.85 378.67 431.57"/><polygon class="cls-7" points="494.41 420.28 430.17 465.66 418.03 448.9 482.27 403.51 494.41 420.28"/><path class="cls-4" d="M496.57,545.45a44,44,0,1,0-61.25-10.74A44,44,0,0,0,496.57,545.45Z"/><path class="cls-4" d="M428.23,500.78s-15.83-12.29,2-26.95,48.93-23.75,77.09,10.37Z"/><path class="cls-3" d="M583.44,373.84,471.87,461.18l48.32,64.61,115.72-84.62c18.41-12.56,24-32.19,12.37-48.83h0C637.83,377.42,598.48,356.75,583.44,373.84Z"/><path class="cls-11" d="M283.77,51.64s-32.51,12.15,4.33,58.55l9.2-58.49Z"/><path class="cls-12" d="M306.26,114.55c.46,10.79-7.64,19.93-18.08,20.43s-19.29-7.85-19.75-18.64,7.63-19.93,18.08-20.42S305.8,103.77,306.26,114.55Z"/><path class="cls-4" d="M320.57,143.13l-3.75,62.07c-2.51,22.82,8.61,34.2,29.41,35.25h0c17.75.89,40.06-6.54,40.45-25.8L388,116.72Z"/><path class="cls-12" d="M317.26,198.36s44.18,5.79,71.38-62.67c6.88-17.32-67.8,1.07-67.8,1.07Z"/><path class="cls-4" d="M331.24,182.23h0c-28.48-.61-51.44-24.34-51.7-48.38l-.28-50.29c-.33-30.13,22.55-55.13,51.7-56.51h0c29.84-1.41,60.33,22.18,61.65,53l-.26,39.19C392.16,154.52,365.38,180.62,331.24,182.23Z"/><path class="cls-11" d="M392.89,103.9c-1.81.55-29.79-7-26.88-50.55,0,0-9.35-8.7-24.51-5.09s-69.07,24.93-76.22-6.46C259.55,16.68,296.86-10.44,354,4.06c43.42,11,54.91,36.22,57.93,47.67a21.6,21.6,0,0,1,.22,9.89l-8.83,42.18Z"/><path class="cls-4" d="M420,117.4c.49,11.41-8.08,21.08-19.13,21.61s-20.4-8.31-20.89-19.72,8.07-21.08,19.13-21.6S419.48,106,420,117.4Z"/><path class="cls-13" d="M393.65,125.06S391,110,407,111.78"/><path class="cls-11" d="M378.9,89s-4.08,15.39-9,36.47a13.55,13.55,0,0,1-16.22,10.16c-17.15-3.91-44.43-11-66.42-4.17a6.61,6.61,0,0,1-7.8-3.91h0l.11,9.13a46.12,46.12,0,0,0,46.66,45.57l11.57-.14c24.37-.28,46.81-23,46.46-47.82l3.49-40Z"/><polyline class="cls-14" points="410.12 32.89 392.09 36.03 397.95 16.57"/><polyline class="cls-13" points="308.26 108.73 303.36 121.95 311.5 124.39"/><path class="cls-15" d="M340.79,75.33S329.15,74.06,328.91,79c0,0-.08,3.32,10.09,4.23s14.87.94,15.88-2.16S346.26,75.5,340.79,75.33Z"/><path class="cls-15" d="M292.57,75.69s9.66-.79,10.33,3.84c0,0,.38,3.13-8.07,3.62s-11.16-.67-11.9-3.21C282.1,77.07,288,75.65,292.57,75.69Z"/><path class="cls-15" d="M299,103.63a4.9,4.9,0,1,1-4.94-5A5,5,0,0,1,299,103.63Z"/><path class="cls-15" d="M342.66,104.5a4.9,4.9,0,1,1-4.94-5A5,5,0,0,1,342.66,104.5Z"/><path class="cls-7" d="M303.53,136.69l27.39-.32s-.23,8.7-13.7,8.81C304.17,145.29,303.53,136.69,303.53,136.69Z"/><circle class="cls-16" cx="339.14" cy="104.55" r="20.58"/><circle class="cls-17" cx="284.34" cy="103.61" r="19.64"/><path class="cls-16" d="M304,103.61a14.18,14.18,0,0,1,14.6.94"/><line class="cls-18" x1="359.72" y1="104.55" x2="387.04" y2="102.65"/></g></g></svg>