<svg xmlns="http://www.w3.org/2000/svg" xmlns:xlink="http://www.w3.org/1999/xlink" width="628.122" height="559.795" viewBox="0 0 628.122 559.795">
  <defs>
    <linearGradient id="linear-gradient" x1="0.5" x2="0.5" y2="1" gradientUnits="objectBoundingBox">
      <stop offset="0" stop-color="#3c72d4"/>
      <stop offset="1" stop-color="#1b2a45"/>
    </linearGradient>
    <linearGradient id="linear-gradient-2" x1="0.5" x2="0.5" y2="1" gradientUnits="objectBoundingBox">
      <stop offset="0" stop-color="#00063d"/>
      <stop offset="1" stop-color="#004e92"/>
    </linearGradient>
  </defs>
  <g id="Group_1698" data-name="Group 1698" transform="translate(-1029.742 -282.951)">
    <path id="Path_2593" data-name="Path 2593" d="M2202.989,559.5l-6.022,1.848-4.043-9.36-9.138,1.616-4.171-6.51-3.3,2.111,5.579,8.707,8.659-1.532,4.207,9.738,9.061-2.781Z" transform="translate(-973.161 -169.803)" fill="#50bfa5"/>
    <path id="Path_2594" data-name="Path 2594" d="M3139.043,1375.6l-6.021,1.848-4.043-9.36-9.138,1.616-4.171-6.51-3.3,2.111,5.579,8.707,8.659-1.531,4.207,9.737,9.061-2.781Z" transform="translate(-1523.057 -649.227)" fill="#50bfa5"/>
    <g id="Group_1665" data-name="Group 1665" transform="translate(1157.762 584.831)">
      <g id="Group_1664" data-name="Group 1664" transform="translate(0 0)">
        <path id="Path_2595" data-name="Path 2595" d="M2101.24,1302.532s-32.132-108.91-34.71-132.934,15.39-16.579,15.39-16.579-15.115-45.777-4.185-56.642,20.789,9.386,20.789,9.386,3.308-55.57,14.962-55.59c21.706-.039,21.278,60.6,21.278,60.6s5.54-23.742,17.162-17.233c17.527,9.815-7.608,57.4-7.608,57.4s22.334.017,30.179,11.277C2188.574,1182.423,2101.24,1302.532,2101.24,1302.532Z" transform="translate(-2066.278 -1050.173)" fill="#50bfa5"/>
      </g>
    </g>
    <g id="Group_1667" data-name="Group 1667" transform="translate(1036.557 662.524)">
      <g id="Group_1666" data-name="Group 1666">
        <path id="Path_2596" data-name="Path 2596" d="M1939.148,1398.753s-92.632-15.49-112.781-31.9-.206-23.813-.206-23.813-46.534-23.856-45.995-40.076,23.656-7.974,23.656-7.974-39.209-44.71-29.926-53.2c17.29-15.816,62.618,30.661,62.618,30.661s-13.459-22.1.715-25.6c21.377-5.275,37.154,49.226,37.154,49.226s-4.008-21.523,10.732-18.656C1911.562,1282.56,1939.148,1398.753,1939.148,1398.753Z" transform="translate(-1772.474 -1238.504)" fill="#50bfa5"/>
      </g>
      <path id="Path_2597" data-name="Path 2597" d="M1887.139,1277.416c-14.777-2.672-10.732,18.656-10.732,18.656s-15.776-54.5-37.154-49.226c-14.175,3.5-.715,25.6-.715,25.6s-45.328-46.477-62.618-30.661l164.939,156.994C1937.923,1383.785,1911.912,1281.9,1887.139,1277.416Z" transform="translate(-1774.498 -1238.504)" fill="#3c8f7c"/>
    </g>
    <g id="Group_1668" data-name="Group 1668" transform="translate(1029.742 758.964)">
      <path id="Path_2598" data-name="Path 2598" d="M1955.8,1549.166s-48.782-49.61-73.349-54.777S1862.3,1506.7,1862.3,1506.7s-48.74-42.624-60.036-32.3.923,20.3.923,20.3-40.6-7.193-46.411,6.13c-8.931,20.472,57.839,31.614,57.839,31.614s-27.98,1.939-21.49,14.775C1802.911,1566.582,1955.8,1549.166,1955.8,1549.166Z" transform="translate(-1755.954 -1472.579)" fill="#355389"/>
      <path id="Path_2599" data-name="Path 2599" d="M1757.947,1500.53c5.812-13.323,46.41-6.13,46.41-6.13s-12.218-9.97-.923-20.3,58.521,26.5,58.521,26.5-11.136-21.283,13.431-16.117,81.581,64.378,81.581,64.378Z" transform="translate(-1757.125 -1472.276)" fill="#466eb6"/>
    </g>
    <g id="Group_1676" data-name="Group 1676" transform="translate(1272.005 298.137)">
      <path id="Path_2600" data-name="Path 2600" d="M2406.446,417.3c-16.42,2.7-21.3,24.253-7.646,33.893a12.531,12.531,0,0,1,4.871,7.249l2.485,10.025a5.459,5.459,0,0,0,6.185,4.074l6.221-1.023a5.46,5.46,0,0,0,4.554-5.841c-.863-10.35-1.931-14.1,1.434-18.72C2434.391,433.454,2422.87,414.6,2406.446,417.3Z" transform="translate(-2371.203 -391.537)" fill="#f7cc7f"/>
      <g id="Group_1669" data-name="Group 1669" transform="translate(27.905 37.976)">
        <path id="Path_2601" data-name="Path 2601" d="M2419.86,478.877c-1.069-8.867-2.57-18.228-3.08-20.884-9.412.519-5.836-9.4-1.492-5.368a8.224,8.224,0,0,1,2.208,4.417,24.348,24.348,0,0,0,8.968-2.613c-.15-2.187-.366-3.844.245-5.243.922-2.113,3.6-2.689,4.69-.63a3.293,3.293,0,0,1,.184,2.582c-.63,1.748-2.531,2.9-4.186,3.808.494,7.049,1.181,14.153,2.044,21.149l-.889.11c-.85-6.883-1.528-13.87-2.021-20.807a25.237,25.237,0,0,1-8.854,2.526c.644,3.395,2.068,12.52,3.072,20.845Zm-7.55-22.975c.836.9,2.237,1.3,4.282,1.2a7.277,7.277,0,0,0-1.914-3.824C2412.342,451.11,2410.907,454.39,2412.31,455.9Zm15.22-6.358c-.514,1.176-.318,2.683-.2,4.415,1.344-.765,2.906-1.722,3.412-3.125a2.029,2.029,0,0,0-1.046-2.629C2429.588,448.178,2427.89,448.72,2427.531,449.545Z" transform="translate(-2410.847 -447.275)" fill="#fae0b2"/>
      </g>
      <path id="Path_2602" data-name="Path 2602" d="M2421.732,512.43c.022.083.051.164.072.248l2.485,10.025a5.459,5.459,0,0,0,6.185,4.074l6.221-1.023a5.46,5.46,0,0,0,4.553-5.841c-.384-4.6-.807-7.9-.864-10.551Z" transform="translate(-2389.336 -445.772)" fill="#96d9c9"/>
      <g id="Group_1670" data-name="Group 1670" transform="translate(17.941 6.664)">
        <path id="Path_2603" data-name="Path 2603" d="M2391.824,382.987l-4.91-8.963a1.791,1.791,0,1,1,3.141-1.721l4.91,8.963a1.791,1.791,0,1,1-3.141,1.721Z" transform="translate(-2386.694 -371.373)" fill="#fae0b2"/>
      </g>
      <g id="Group_1671" data-name="Group 1671" transform="translate(0 35.448)">
        <path id="Path_2604" data-name="Path 2604" d="M2355.543,445.657l-10.7-.936a1.791,1.791,0,1,1,.312-3.568l10.7.936a1.791,1.791,0,1,1-.312,3.568Z" transform="translate(-2343.205 -441.146)" fill="#fae0b2"/>
      </g>
      <g id="Group_1672" data-name="Group 1672" transform="translate(1.208 62.923)">
        <path id="Path_2605" data-name="Path 2605" d="M2346.651,517.6a1.791,1.791,0,0,1,.015-2.533,58.569,58.569,0,0,1,8.6-7.015,1.791,1.791,0,0,1,1.99,2.978,54.944,54.944,0,0,0-8.072,6.585A1.791,1.791,0,0,1,2346.651,517.6Z" transform="translate(-2346.133 -507.746)" fill="#fae0b2"/>
      </g>
      <g id="Group_1673" data-name="Group 1673" transform="translate(48.186)">
        <path id="Path_2606" data-name="Path 2606" d="M2461.339,373.014a1.791,1.791,0,0,1-1.269-2.193,68.125,68.125,0,0,0,2.208-13.906,1.791,1.791,0,1,1,3.576.192,71.679,71.679,0,0,1-2.324,14.638A1.791,1.791,0,0,1,2461.339,373.014Z" transform="translate(-2460.009 -355.22)" fill="#fae0b2"/>
      </g>
      <g id="Group_1674" data-name="Group 1674" transform="translate(60.461 25.891)">
        <path id="Path_2607" data-name="Path 2607" d="M2489.841,423.641a1.791,1.791,0,0,1,1.2-2.232l11.126-3.354a1.791,1.791,0,1,1,1.034,3.429l-11.128,3.354A1.79,1.79,0,0,1,2489.841,423.641Z" transform="translate(-2489.764 -417.98)" fill="#fae0b2"/>
      </g>
      <g id="Group_1675" data-name="Group 1675" transform="translate(66.238 53.254)">
        <path id="Path_2608" data-name="Path 2608" d="M2516.345,492.216a1.784,1.784,0,0,1-.486-.068,56.183,56.183,0,0,1-11.143-4.467,1.791,1.791,0,0,1,1.681-3.163,52.609,52.609,0,0,0,10.432,4.182,1.791,1.791,0,0,1-.484,3.516Z" transform="translate(-2503.766 -484.309)" fill="#fae0b2"/>
      </g>
    </g>
    <path id="Path_2609" data-name="Path 2609" d="M2898.971,630.474l-5.613-13.275-14.119-2.9a1.981,1.981,0,0,1-.9-3.436l10.891-9.441-1.6-14.323a1.98,1.98,0,0,1,2.99-1.917l12.344,7.439,13.127-5.951a1.982,1.982,0,0,1,2.749,2.252l-3.262,14.039,9.717,10.646a1.981,1.981,0,0,1-1.293,3.308l-14.36,1.237-7.122,12.53A1.981,1.981,0,0,1,2898.971,630.474Z" transform="translate(-1385.169 -192.007)" fill="#f7cc7f"/>
    <path id="Path_2610" data-name="Path 2610" d="M3096.863,584.973l-2.309,9.293-15.363-2.061-5.051,13.171-11.748.337.17,5.947,15.714-.451,4.785-12.482,15.982,2.144,3.472-13.984Z" transform="translate(-1493.695 -192.055)" fill="#f48c7f"/>
    <path id="Path_2611" data-name="Path 2611" d="M2402.992,1593.275H2132.933c-10.314,0-18.676-8.673-18.676-19.372v-11.519c0-10.7,8.362-19.372,18.676-19.372h270.059a38.26,38.26,0,0,0-.5,49.677Z" transform="translate(-936.702 -754.867)" fill="#b75742"/>
    <path id="Path_2612" data-name="Path 2612" d="M2564.151,1556.972H2414.362c-10.315,0-18.677,8.674-18.677,19.372h0c0,10.7,8.362,19.372,18.677,19.372h149.8A38.432,38.432,0,0,1,2564.151,1556.972Z" transform="translate(-1102.03 -763.068)" fill="#fae0b2"/>
    <path id="Path_2613" data-name="Path 2613" d="M2350.223,1456.134a1.12,1.12,0,0,0-1.112-1.589h-142.9c-11.2,0-20.28,8.171-20.28,18.252h0c0,10.08,9.079,18.251,20.28,18.251H2349.15a1.125,1.125,0,0,0,1.114-1.6h0A34.968,34.968,0,0,1,2350.223,1456.134Z" transform="translate(-978.808 -702.896)" fill="#86b1f2"/>
    <path id="Path_2614" data-name="Path 2614" d="M2447.248,1462.779h-70.82c-13.145,0-23.8,6.847-23.8,15.294s10.656,15.295,23.8,15.295h71.286A34.906,34.906,0,0,1,2447.248,1462.779Z" transform="translate(-1076.734 -707.733)" fill="#f7cc7f"/>
    <g id="Group_1677" data-name="Group 1677" transform="translate(1339.409 762.297)">
      <path id="Path_2615" data-name="Path 2615" d="M2519.408,1480.353h-9.223c-1.984,0-3.592.667-3.592,1.488v.134h12.814Z" transform="translate(-2506.593 -1480.353)" fill="#b75742"/>
      <path id="Path_2616" data-name="Path 2616" d="M2532.21,1484.083c0-2.06-2.409-3.73-5.38-3.73h-11.837c2.254,0,4.081,1.267,4.081,2.83l-.056,39.988,6.54-5.142,6.665,5.142Z" transform="translate(-2511.528 -1480.353)" fill="#f47458"/>
    </g>
    <g id="Group_1679" data-name="Group 1679" transform="translate(1197.746 717.001)">
      <path id="Path_2617" data-name="Path 2617" d="M2383.081,1406.226h-83.145c-7.373,0-13.35-7.094-13.35-15.845h0c0-8.751,5.978-15.845,13.35-15.845h83.145a27.876,27.876,0,0,0-.594,30.79Z" transform="translate(-2235.684 -1372.894)" fill="#fae0b2"/>
      <path id="Path_2618" data-name="Path 2618" d="M2214.108,1388.043h0c0-8.751,6.119-15.845,13.666-15.845h84.406a.772.772,0,0,0,.708-.829h0a.77.77,0,0,0-.708-.813h-133.9c-8.329,0-15.082,7.829-15.082,17.487h0c0,9.658,6.753,17.487,15.082,17.487h133.9a.77.77,0,0,0,.708-.814h0a.773.773,0,0,0-.708-.828h-84.406C2220.227,1403.888,2214.108,1396.794,2214.108,1388.043Z" transform="translate(-2163.199 -1370.556)" fill="#466eb6"/>
      <g id="Group_1678" data-name="Group 1678" transform="translate(120.063 9.429)">
        <path id="Path_2619" data-name="Path 2619" d="M2467.05,1393.411h-9.223c-1.983,0-3.592.653-3.592,1.459V1395h12.815Z" transform="translate(-2454.235 -1393.411)" fill="#184655"/>
        <path id="Path_2620" data-name="Path 2620" d="M2479.853,1397.07c0-2.021-2.409-3.659-5.38-3.659h-11.836c2.254,0,4.081,1.243,4.081,2.775l-.056,39.215,6.54-5.043,6.666,5.043Z" transform="translate(-2459.17 -1393.411)" fill="#3c8f7c"/>
      </g>
    </g>
    <g id="Group_1682" data-name="Group 1682" transform="translate(1217.397 392.005)">
      <g id="Group_1681" data-name="Group 1681" transform="translate(152.309 88.922)">
        <path id="Path_2621" data-name="Path 2621" d="M2826.275,801.633l12.275-3.23-8.32,110.961-14.726.491,7.428-104.19A4.5,4.5,0,0,1,2826.275,801.633Z" transform="translate(-2718.363 -798.363)" fill="#184655"/>
        <g id="Group_1680" data-name="Group 1680">
          <path id="Path_2622" data-name="Path 2622" d="M2846.908,912.472a4.016,4.016,0,0,1-.841-.012,4.922,4.922,0,0,1-4.03-5.416l8.169-104.336a4.475,4.475,0,0,1,4.8-4.373,4.922,4.922,0,0,1,4.031,5.416l-8.169,104.336A4.582,4.582,0,0,1,2846.908,912.472Z" transform="translate(-2733.94 -798.306)" fill="#f7cc7f"/>
          <path id="Path_2623" data-name="Path 2623" d="M2580.032,1073.18c.005.076.009.153.016.23h0c.385,4.245,3.673,7.42,7.345,7.091l103.661-9.278c3.673-.328,6.338-4.036,5.953-8.281-.017-.179-.04-.356-.066-.531Z" transform="translate(-2580.032 -953.457)" fill="#f7cc7f"/>
        </g>
      </g>
      <path id="Path_2624" data-name="Path 2624" d="M2682.711,1355.29c-6.788,3.763-27.536-2.836-27.536-3.433-.3,5.671-23.234,61.172-23.234,61.172l.018,17.076s47.26,2.253,46.579-1.923-3.221-1.459-12.648-9.347c-.837-.7-14.073-3.772-10.491-11.607C2662.613,1391.447,2677.935,1365.14,2682.711,1355.29Z" transform="translate(-2458.219 -1034.574)" fill="#f7a491"/>
      <path id="Path_2625" data-name="Path 2625" d="M2626.137,1517.76l51.731.014c1.867-.19,2.3-1.708,1.645-2.631-1.358-1.9-11.272-6.386-17.937-9.359-11.609,1.356-32.014-3.108-33.882-5.755C2622.781,1506.609,2625.095,1517.545,2626.137,1517.76Z" transform="translate(-2453.949 -1121.619)" fill="#3c8f7c"/>
      <path id="Path_2626" data-name="Path 2626" d="M2600.459,1181.972c-.7-2.1,44.54-21.3,46.564-19.1,3.582,3.88-24.476,76.711-24.476,76.711l32.237,9.85s33.514-84.143,32.114-99.534-18.188-32.878-54.564-21.686S2600.459,1181.972,2600.459,1181.972Z" transform="translate(-2439.62 -901.105)" fill="url(#linear-gradient)"/>
      <path id="Path_2627" data-name="Path 2627" d="M2782.724,1380.645c-7.636-1.391-17.535-1.786-25.458-1.924.934,7.055,5.468,43.232,4.639,45.454A27.15,27.15,0,0,1,2751.1,1437.4s35.128,31.694,37.249,28.033-1.566-3.171-3.86-15.247c-.2-1.072-5.282-17.928-5.6-27.02C2778.289,1405.823,2782.462,1390.273,2782.724,1380.645Z" transform="translate(-2528.218 -1050.356)" fill="#f7a491"/>
      <path id="Path_2628" data-name="Path 2628" d="M2534.015,1093.194c-4.9-2.614-17.622-2.706-31.611-1.8a320.963,320.963,0,0,0-80.137,15.728l-17.361,5.75.057-17.8s-55.228-9.241-57.15,4.448c-2.894,20.612.7,62.459,19.1,71.8,57.156,29.012,137.252-46.22,137.542-36.376.39,13.218,11.533,62.408,14.383,83.945,7.924.137,21.538.131,27.442-1.224C2547.427,1175.477,2547.966,1100.636,2534.015,1093.194Z" transform="translate(-2290.781 -881.257)" fill="url(#linear-gradient-2)"/>
      <path id="Path_2629" data-name="Path 2629" d="M2748.45,1502.741l39.488,31.543c1.565,1.036,2.864.139,2.939-.993.155-2.332-4.672-12.083-7.942-18.607-9.839-6.308-22.814-22.76-22.582-25.991C2756.191,1492.208,2747.781,1501.914,2748.45,1502.741Z" transform="translate(-2526.641 -1114.96)" fill="#3c8f7c"/>
      <path id="Path_2630" data-name="Path 2630" d="M2343.263,622.648c-1.327-12.125-2.723-24.3-12.775-33.183-8.135-7.192-18.477-8.41-28.7-4.562-28.975,10.9-14.046,36.636-50.992,62.581-11.481,8.062-24.135,13.58-32.778,24.436-12.1,15.2-7.531,33.473,3.5,45.677,52.76,58.389,111.661-20.467,115.89-39.4C2340.546,664.119,2344.116,630.454,2343.263,622.648Z" transform="translate(-2210.833 -582.758)" fill="#13375b"/>
      <path id="Path_2631" data-name="Path 2631" d="M2411.041,807.4a161.121,161.121,0,0,0-8.75-14.25c-4.469-7.946-16.019-11.966-16.019-11.966s-3.863.078-8.3.3a3.507,3.507,0,0,1-.837,1.474c-1.667,1.25-11.22-.364-17.391,3.825-20.683,17.73-14.962,103.666-13.336,130.809l62.99.6s-7.941-58.4,4.857-73.407C2423.17,834.333,2417.434,819.19,2411.041,807.4Z" transform="translate(-2289.325 -699.329)" fill="#50bfa5"/>
      <path id="Path_2632" data-name="Path 2632" d="M2428.323,706.391s-3.462,24.728-5.881,30.737,13.3,18.86,26.374,22.761-4-13.273-3.455-19.7,2.918-36.838,2.918-36.838Z" transform="translate(-2335 -653.603)" fill="#f7a491"/>
      <path id="Path_2633" data-name="Path 2633" d="M2454.838,712.075c.382-5.032.661-8.722.661-8.722l-19.957,3.037s-.5,2.9-1.059,7.013C2442.573,718.1,2449.848,716.616,2454.838,712.075Z" transform="translate(-2342.219 -653.603)" fill="#f47458"/>
      <path id="Path_2634" data-name="Path 2634" d="M2428.392,600.912a22.669,22.669,0,0,0-12.723,9.185c-4.856,7.412-8.19,29.233,7.808,39.418s28.437-4.222,28.644-18.274S2449.315,598.434,2428.392,600.912Z" transform="translate(-2328.811 -593.292)" fill="#f7a491"/>
      <path id="Path_2635" data-name="Path 2635" d="M2507.328,653.052c-1.364,3.391-4.073,5.5-6.047,4.7s-2.47-4.189-1.105-7.58,4.073-5.5,6.048-4.7S2508.694,649.661,2507.328,653.052Z" transform="translate(-2380.358 -619.502)" fill="#f7a491"/>
      <path id="Path_2636" data-name="Path 2636" d="M2418.749,600.11s-10.029,22.493-18.84,24.5-8.682,13.327-8.682,13.327.2-26.137,8.454-32.133S2418.749,600.11,2418.749,600.11Z" transform="translate(-2316.808 -592.95)" fill="#13375b"/>
      <path id="Path_2637" data-name="Path 2637" d="M2407.358,663.227c1.159,3.653.1,7.25-2.37,8.034s-5.412-1.542-6.572-5.195-.1-7.25,2.371-8.034S2406.2,659.574,2407.358,663.227Z" transform="translate(-2320.756 -626.889)" fill="#f7a491"/>
      <path id="Path_2638" data-name="Path 2638" d="M2509.817,965.592c-3.78-1.366-9.406-1.535-9.311-2.035.379-2.02,17.075,4.457,14.82,1.511-1.255-1.641-13.751-7.453-16.79-6.493-2.947.93-22.3,6.361-22.3,6.361l-52.886-12.394s-13.348-30.335-14.651-56.4c-11.034,1.493-18.546,4.219-28.137,9.542,4.624,24.923,15.866,65.321,28.292,72.9,5.227,3.189,67.644-3.817,67.644-3.817s13.755-.971,16-1.836c1.705-.656,6.094-3.127,8.481-3.8,5.427-1.536,15.095,2.321,15.125,1.259C2516.132,969.618,2513.678,966.988,2509.817,965.592Z" transform="translate(-2310.544 -766.862)" fill="#f7a491"/>
      <path id="Path_2639" data-name="Path 2639" d="M2401.232,801.784c-.509-8.02-3.546-15.762-12.079-18.255a17.275,17.275,0,0,0-15.447,3.385c-5.027,4.107-6.431,10.694-6.408,16.928a241.952,241.952,0,0,0,3.6,42.77c9.59-5.323,20.785-8.521,31.819-10.014C2402.717,836.515,2401.9,812.382,2401.232,801.784Z" transform="translate(-2302.75 -700.344)" fill="#96d9c9"/>
    </g>
    <g id="Group_1683" data-name="Group 1683" transform="translate(1067.279 426.466)">
      <path id="Path_2640" data-name="Path 2640" d="M1932.081,756.478l-81.989-15.267a3.033,3.033,0,0,1-2.427-3.537l10.271-55.156a3.033,3.033,0,0,1,3.537-2.427l81.989,15.267a3.033,3.033,0,0,1,2.427,3.537l-10.27,55.157A3.034,3.034,0,0,1,1932.081,756.478Z" transform="translate(-1847.338 -674.368)" fill="#f7cc7f"/>
      <path id="Path_2641" data-name="Path 2641" d="M1918.691,685.347l-24.957-4.647a3.033,3.033,0,0,1-2.426-3.536l1.563-8.393a3.033,3.033,0,0,1,3.537-2.426l24.957,4.647a3.032,3.032,0,0,1,2.426,3.537l-1.563,8.393A3.032,3.032,0,0,1,1918.691,685.347Z" transform="translate(-1872.976 -666.292)" fill="#f7cc7f"/>
      <path id="Path_2642" data-name="Path 2642" d="M1935.422,762.434a3.031,3.031,0,0,1-3.474,2.158l-82.525-15.367a3.033,3.033,0,0,1-2.466-3.245l4.319-49.442a3.033,3.033,0,0,1,3.577-2.717l91.677,17.071a3.033,3.033,0,0,1,2.364,3.805Z" transform="translate(-1846.945 -682.434)" fill="#fae0b2"/>
    </g>
    <g id="Group_1684" data-name="Group 1684" transform="translate(1514.749 311.814)">
      <path id="Path_2643" data-name="Path 2643" d="M2948.686,402.372l-14.04,3.833-3.024-17.014,4.595-.816,2.129,11.983,9.111-2.487Z" transform="translate(-2931.622 -388.375)" fill="#50bfa5"/>
    </g>
    <g id="Group_1685" data-name="Group 1685" transform="translate(1082.012 556.165)">
      <path id="Path_2644" data-name="Path 2644" d="M1888.734,988.654a21.713,21.713,0,0,1,11.334,2.9,16.4,16.4,0,0,1,6.041,6.242l-.651.451a14.739,14.739,0,0,0-7.552-4.645,18.179,18.179,0,0,0-8.427-.082Z" transform="translate(-1886.227 -985.347)" fill="#355389"/>
      <path id="Path_2645" data-name="Path 2645" d="M1902.214,993.365s-21.422,3.575-19.424,20.31,24.6,29.755,44.768,19.4c27.135-13.923,16.417-49.322-2.9-52.06S1902.214,993.365,1902.214,993.365Z" transform="translate(-1882.658 -980.686)" fill="#f47458"/>
      <path id="Path_2646" data-name="Path 2646" d="M1948.776,989.7s5.589-5.738,17.834-.518,13.132,29.563,2.21,28.149S1940.043,993.208,1948.776,989.7Z" transform="translate(-1920.131 -984.387)" fill="#f48c7f"/>
    </g>
    <g id="Group_1688" data-name="Group 1688" transform="translate(1146.363 282.951)">
      <path id="Path_2647" data-name="Path 2647" d="M2150.31,374.6l-88.108,31.43a5.46,5.46,0,0,1-6.977-3.308l-16.262-45.59a5.459,5.459,0,0,1,3.308-6.976l88.108-31.43a5.46,5.46,0,0,1,6.977,3.308l16.262,45.589A5.46,5.46,0,0,1,2150.31,374.6Z" transform="translate(-2038.644 -318.41)" fill="#86b1f2"/>
      <path id="Path_2648" data-name="Path 2648" d="M2119.473,409.7a17.461,17.461,0,1,1-22.312-10.579A17.461,17.461,0,0,1,2119.473,409.7Z" transform="translate(-2066.206 -365.226)" fill="#fff"/>
      <path id="Path_2649" data-name="Path 2649" d="M2119.723,415.422a5.149,5.149,0,1,1-6.579-3.12A5.148,5.148,0,0,1,2119.723,415.422Z" transform="translate(-2080.401 -373.392)" fill="#86b1f2"/>
      <path id="Rectangle_934" data-name="Rectangle 934" d="M7.945,0h.563a7.947,7.947,0,0,1,7.947,7.947v0a0,0,0,0,1,0,0H0a0,0,0,0,1,0,0v0A7.945,7.945,0,0,1,7.945,0Z" transform="translate(29.544 54.432) rotate(-19.632)" fill="#86b1f2"/>
      <g id="Group_1686" data-name="Group 1686" transform="translate(53.211 16.75)">
        <path id="Path_2650" data-name="Path 2650" d="M2169.856,377.207a2.227,2.227,0,0,1-.748-4.324l38.516-13.74a2.227,2.227,0,1,1,1.5,4.195l-38.515,13.74A2.222,2.222,0,0,1,2169.856,377.207Z" transform="translate(-2167.629 -359.013)" fill="#fff"/>
      </g>
      <g id="Group_1687" data-name="Group 1687" transform="translate(63.608 29.361)">
        <path id="Path_2651" data-name="Path 2651" d="M2195.059,404.766a2.227,2.227,0,0,1-.748-4.324l30.082-10.731a2.227,2.227,0,0,1,1.5,4.195l-30.082,10.731A2.227,2.227,0,0,1,2195.059,404.766Z" transform="translate(-2192.832 -389.581)" fill="#fff"/>
      </g>
    </g>
    <path id="Path_2652" data-name="Path 2652" d="M2321.183,1288.185H2108.435a11.962,11.962,0,0,0-11.962,11.962v10.061a11.962,11.962,0,0,0,11.962,11.962h212.748l-.112-.115A24.361,24.361,0,0,1,2321.183,1288.185Z" transform="translate(-926.254 -605.165)" fill="#f47458"/>
    <path id="Path_2653" data-name="Path 2653" d="M2453.054,1300.38H2339.323a11.962,11.962,0,0,0-11.962,11.962h0a11.962,11.962,0,0,0,11.962,11.962h113.729A24.392,24.392,0,0,1,2453.054,1300.38Z" transform="translate(-1061.891 -612.329)" fill="#fae0b2"/>
    <g id="Group_1692" data-name="Group 1692" transform="translate(1552.64 614.971)">
      <g id="Group_1690" data-name="Group 1690" transform="translate(0)">
        <path id="Path_2654" data-name="Path 2654" d="M3039.878,1192.262l-16.126-40.46a3.967,3.967,0,0,1,2.216-5.154l58.031-23.13a3.968,3.968,0,0,1,5.154,2.217l16.126,40.46a3.967,3.967,0,0,1-2.216,5.155l-58.03,23.13A3.969,3.969,0,0,1,3039.878,1192.262Z" transform="translate(-3023.469 -1123.234)" fill="#fae0b2"/>
        <path id="Path_2655" data-name="Path 2655" d="M3175.19,1179.852,3160.7,1143.5a1.138,1.138,0,0,1,.635-1.479h0a1.14,1.14,0,0,1,1.479.636l14.491,36.358a1.138,1.138,0,0,1-.636,1.479h0A1.138,1.138,0,0,1,3175.19,1179.852Z" transform="translate(-3104.038 -1134.22)" fill="#466eb6"/>
        <path id="Path_2656" data-name="Path 2656" d="M3162.146,1177.51l-11.9-29.851a1.139,1.139,0,0,1,.637-1.479h0a1.138,1.138,0,0,1,1.479.636l11.9,29.851a1.137,1.137,0,0,1-.636,1.478h0A1.138,1.138,0,0,1,3162.146,1177.51Z" transform="translate(-3097.899 -1136.667)" fill="#466eb6"/>
        <path id="Path_2657" data-name="Path 2657" d="M3154.29,1188.183l-14.492-36.357a1.138,1.138,0,0,1,.636-1.479h0a1.139,1.139,0,0,1,1.479.636l14.491,36.357a1.139,1.139,0,0,1-.636,1.479h0A1.139,1.139,0,0,1,3154.29,1188.183Z" transform="translate(-3091.76 -1139.114)" fill="#466eb6"/>
        <path id="Path_2658" data-name="Path 2658" d="M3140.534,1184.051l-11.185-28.061a1.138,1.138,0,0,1,.636-1.479h0a1.137,1.137,0,0,1,1.479.636l11.185,28.061a1.138,1.138,0,0,1-.636,1.479h0A1.138,1.138,0,0,1,3140.534,1184.051Z" transform="translate(-3085.622 -1141.56)" fill="#466eb6"/>
        <g id="Group_1689" data-name="Group 1689" transform="translate(64.005 4.328)">
          <path id="Path_2659" data-name="Path 2659" d="M3185.374,1134.794l-.291-.732a.512.512,0,0,0-.654-.305l-5.507,2.2a.51.51,0,0,0-.265.671l.292.732a.51.51,0,0,0,.653.305l5.508-2.2A.51.51,0,0,0,3185.374,1134.794Z" transform="translate(-3178.617 -1133.724)" fill="#355389"/>
          <path id="Path_2660" data-name="Path 2660" d="M3188.4,1142.386l-.292-.732a.511.511,0,0,0-.653-.306l-5.508,2.2a.51.51,0,0,0-.264.671l.292.732a.509.509,0,0,0,.653.3l5.508-2.195A.511.511,0,0,0,3188.4,1142.386Z" transform="translate(-3180.395 -1138.184)" fill="#355389"/>
          <path id="Path_2661" data-name="Path 2661" d="M3191.426,1149.976l-.292-.732a.51.51,0,0,0-.653-.305l-5.508,2.2a.509.509,0,0,0-.264.671l.291.732a.511.511,0,0,0,.654.305l5.507-2.2A.51.51,0,0,0,3191.426,1149.976Z" transform="translate(-3182.172 -1142.643)" fill="#355389"/>
          <path id="Path_2662" data-name="Path 2662" d="M3194.451,1157.567l-.291-.732a.512.512,0,0,0-.654-.306l-5.507,2.2a.511.511,0,0,0-.265.671l.292.733a.51.51,0,0,0,.654.3l5.507-2.195A.51.51,0,0,0,3194.451,1157.567Z" transform="translate(-3183.949 -1147.102)" fill="#355389"/>
          <path id="Path_2663" data-name="Path 2663" d="M3197.477,1165.158l-.292-.732a.511.511,0,0,0-.654-.3l-5.508,2.195a.512.512,0,0,0-.264.671l.292.732a.511.511,0,0,0,.654.305l5.508-2.2A.511.511,0,0,0,3197.477,1165.158Z" transform="translate(-3185.727 -1151.561)" fill="#355389"/>
          <path id="Path_2664" data-name="Path 2664" d="M3200.5,1172.748l-.292-.732a.511.511,0,0,0-.654-.305l-5.508,2.2a.511.511,0,0,0-.265.671l.293.731a.51.51,0,0,0,.653.305l5.507-2.2A.51.51,0,0,0,3200.5,1172.748Z" transform="translate(-3187.504 -1156.02)" fill="#355389"/>
          <path id="Path_2665" data-name="Path 2665" d="M3203.528,1180.339l-.291-.732a.511.511,0,0,0-.654-.3l-5.507,2.195a.511.511,0,0,0-.265.671l.292.732a.51.51,0,0,0,.653.305l5.508-2.2A.51.51,0,0,0,3203.528,1180.339Z" transform="translate(-3189.281 -1160.48)" fill="#355389"/>
          <path id="Path_2666" data-name="Path 2666" d="M3206.553,1187.929l-.292-.732a.511.511,0,0,0-.653-.306l-5.508,2.2a.51.51,0,0,0-.264.671l.292.732a.511.511,0,0,0,.654.3l5.507-2.195A.511.511,0,0,0,3206.553,1187.929Z" transform="translate(-3191.059 -1164.939)" fill="#355389"/>
          <path id="Path_2667" data-name="Path 2667" d="M3209.579,1195.521l-.292-.732a.509.509,0,0,0-.653-.3l-5.507,2.2a.51.51,0,0,0-.265.671l.292.732a.511.511,0,0,0,.654.305l5.508-2.2A.51.51,0,0,0,3209.579,1195.521Z" transform="translate(-3192.836 -1169.399)" fill="#355389"/>
          <path id="Path_2668" data-name="Path 2668" d="M3212.6,1203.111l-.292-.732a.511.511,0,0,0-.653-.3l-5.508,2.2a.51.51,0,0,0-.264.67l.291.733a.511.511,0,0,0,.654.3l5.508-2.195A.511.511,0,0,0,3212.6,1203.111Z" transform="translate(-3194.614 -1173.857)" fill="#355389"/>
          <path id="Path_2669" data-name="Path 2669" d="M3215.629,1210.7l-.293-.733a.509.509,0,0,0-.653-.3l-5.508,2.195a.51.51,0,0,0-.264.671l.292.732a.51.51,0,0,0,.654.305l5.508-2.195A.511.511,0,0,0,3215.629,1210.7Z" transform="translate(-3196.39 -1178.317)" fill="#355389"/>
          <path id="Path_2670" data-name="Path 2670" d="M3218.655,1218.292l-.291-.732a.511.511,0,0,0-.654-.3l-5.507,2.2a.51.51,0,0,0-.264.671l.292.732a.51.51,0,0,0,.653.305l5.508-2.2A.509.509,0,0,0,3218.655,1218.292Z" transform="translate(-3198.168 -1182.776)" fill="#355389"/>
        </g>
      </g>
      <g id="Group_1691" data-name="Group 1691" transform="translate(74.162 36.237)">
        <path id="Path_2671" data-name="Path 2671" d="M3228.783,1211.458l-23.031,32.8a.886.886,0,0,0-.119.24l-2.347,7.206a.9.9,0,0,0,1.4,1l6.165-4.646a.9.9,0,0,0,.2-.2l23.091-32.88a.9.9,0,0,0-.253-1.279l-3.876-2.475A.9.9,0,0,0,3228.783,1211.458Z" transform="translate(-3203.238 -1211.074)" fill="#b75742"/>
        <path id="Path_2672" data-name="Path 2672" d="M3211.243,1295.535l-.057.081-5.948,4.483-1.622-1.085,2.225-6.83A27.739,27.739,0,0,1,3211.243,1295.535Z" transform="translate(-3203.46 -1258.722)" fill="#f7cc7f"/>
      </g>
    </g>
    <g id="Group_1693" data-name="Group 1693" transform="translate(1398.232 290.936)">
      <path id="Path_2673" data-name="Path 2673" d="M2677.074,351.385c3.316,2.646,9.083,11.16,16.441,17.138,4.3,3.5,7.619,2.607,13.113,3.271,26.069,3.151,19,8.48,22.131,9-.888,2.043-9.009,19.307-10.527,22.8-1.4,3.219-3.819,4.659-7.326,4.174-5.391-.745-10.831-1.3-16.138-2.45-13.6-2.95-21.175-9.755-30.925-18.019a6.376,6.376,0,0,1-1.883-8.026C2668.2,364.85,2676.4,352.713,2677.074,351.385Z" transform="translate(-2656.287 -345.767)" fill="#466eb6"/>
      <path id="Path_2674" data-name="Path 2674" d="M2724.478,393.563c-.117,5.681.318,6.821-2.121,5.959a34.375,34.375,0,0,1-4.279-1.91c-.979-.505-1.016-1.171-.221-1.97,1.158-1.162,2.345-2.294,3.5-3.422a5.029,5.029,0,0,1,2.207-6.04c.426-.249.115.279,3.745-8.076-12-1.481-20.475-2.475-35.122-4.276a19.7,19.7,0,0,1-10.428-4.537q-15.692-13.129-31.375-26.269a2.894,2.894,0,0,1-.472-4.271,3.275,3.275,0,0,1,3.229-.92c3.344.419,36.117,4.49,39.444,4.879a21.543,21.543,0,0,1,11.6,4.989q15.416,12.909,30.871,25.772c1.413,1.179,1.794,2.261,1.3,3.572a2.762,2.762,0,0,1-3.534,1.739c-1.3-.28-1.873.112-2.319,1.314-2.019,5.434-3.426,6.637-2.941,8.621C2727.944,390.247,2726.124,392.9,2724.478,393.563Z" transform="translate(-2649.182 -337.766)" fill="#86b1f2"/>
    </g>
    <g id="Group_1695" data-name="Group 1695" transform="translate(1527.779 717.285)">
      <path id="Path_2675" data-name="Path 2675" d="M2963.5,1387l5.974,5.7a158.768,158.768,0,0,1,33.985,47.092l.914,1.938s15.641,1.382,17.824-12.759h0a236.361,236.361,0,0,1-34.339-50.434l-2.827-6.613Z" transform="translate(-2963.377 -1371.643)" fill="#466eb6"/>
      <path id="Path_2676" data-name="Path 2676" d="M2984.843,1371.505c.768,1.1-3.427,5.353-9.37,9.5s-11.41,6.662-12.177,5.562,3.454-5.4,9.4-9.548S2984.075,1370.405,2984.843,1371.505Z" transform="translate(-2963.206 -1371.244)" fill="#86b1f2"/>
      <path id="Path_2677" data-name="Path 2677" d="M2991.744,1371.945l-.019-.021s-11.906,10.077-16.814,11.106l1.516,2.063a62.951,62.951,0,0,0,5.922-3.69C2988.223,1377.306,2992.389,1373.1,2991.744,1371.945Z" transform="translate(-2970.082 -1371.643)" fill="#355389"/>
      <g id="Group_1694" data-name="Group 1694" transform="translate(7.209 29.561)">
        <path id="Path_2678" data-name="Path 2678" d="M3035.589,1442.9c.021,1.737-.643,9.235-13.119,12.365q1.232,1.676,2.42,3.384c7.9-2.335,11.448-6.389,13.043-9.475.252-.488.557-1.144.76-1.65Q3037.114,1445.229,3035.589,1442.9Z" transform="translate(-3005.231 -1442.899)" fill="#b75742"/>
        <path id="Path_2679" data-name="Path 2679" d="M2999.04,1466.562l-18.359-.656,4.351,3.692-2.6,4.718,17.376-4.43Z" transform="translate(-2980.681 -1456.415)" fill="#b75742"/>
        <path id="Path_2680" data-name="Path 2680" d="M3019.951,1477.847l-6.523,11.363,4.588-1.747,1.766,3.609,3.066-11.951Z" transform="translate(-2999.919 -1463.43)" fill="#b75742"/>
        <path id="Path_2681" data-name="Path 2681" d="M3026.338,1468.164a6.032,6.032,0,1,1,5.412-6.428A5.943,5.943,0,0,1,3026.338,1468.164Z" transform="translate(-3003.814 -1450.666)" fill="#f47458"/>
      </g>
    </g>
    <g id="Group_1697" data-name="Group 1697" transform="translate(1556.434 444.958)">
      <path id="Path_2682" data-name="Path 2682" d="M3072.714,772.68l-38.663-34.5c-2.512-2.242-1.466-6.855,2-8.818l30.856-17.472a4.823,4.823,0,0,1,5.633.263l38.664,34.5c2.512,2.242,1.466,6.855-2,8.818l-30.856,17.472A4.824,4.824,0,0,1,3072.714,772.68Z" transform="translate(-3032.666 -711.118)" fill="#9bc1f9"/>
      <g id="Group_1696" data-name="Group 1696" transform="translate(34.98 5.096)">
        <path id="Path_2683" data-name="Path 2683" d="M3120.694,752.492l-3.224-26.507a2.38,2.38,0,0,1,1.652-2.423,1.534,1.534,0,0,1,2.1,1.254l2.967,24.392L3153.5,756.3a1.618,1.618,0,0,1,.984,2.3,2.273,2.273,0,0,1-2.482,1.464Z" transform="translate(-3117.457 -723.471)" fill="#fff"/>
      </g>
    </g>
    <path id="Path_2685" data-name="Path 2685" d="M1888.721,499.509l4,7.906,9.029-.292,3.853,9.179,9.521-3.277,4.814,10.188,9.139-1.936,6.235,9.045-3.423,2.36-4.662-6.763-9.644,2.043-4.628-9.793-9.68,3.331-4.251-10.129-8.817.285-3.7-7.327-5.751,1.4-.982-4.041Z" transform="translate(-798.946 -141.848)" fill="#f7cc7f"/>
    <path id="Path_2686" data-name="Path 2686" d="M3065.957,975.361l8.206,3.335,6.615-6.152,8.935,4.39,5.026-8.725,10.323,4.519,5.618-7.464,10.643,2.724-1.031,4.028-7.957-2.036-5.929,7.875-9.923-4.343-5.11,8.871-9.859-4.844-6.46,6.007-7.606-3.091-3.417,4.833-3.4-2.4Z" transform="translate(-1492.663 -415.462)" fill="#50bfa5"/>
  </g>
</svg>
