<svg id="_001-education" data-name="001-education" xmlns="http://www.w3.org/2000/svg" width="216.666" height="216.666" viewBox="0 0 216.666 216.666">
  <g id="Group_1988" data-name="Group 1988" transform="translate(0 0)">
    <g id="Group_1987" data-name="Group 1987">
      <path id="Path_3306" data-name="Path 3306" d="M213.056,0H3.611A3.61,3.61,0,0,0,0,3.609V75.833H7.222V7.222H209.443V86.666H83.055v7.222h130a3.61,3.61,0,0,0,3.611-3.609V3.611A3.61,3.61,0,0,0,213.056,0Z" transform="translate(0 0)" fill="#004e92"/>
    </g>
  </g>
  <g id="Group_1990" data-name="Group 1990" transform="translate(119.632 16.999)">
    <g id="Group_1989" data-name="Group 1989" transform="translate(0 0)">
      <rect id="Rectangle_959" data-name="Rectangle 959" width="73" height="8" transform="translate(-0.02 -0.386)" fill="#004e92"/>
    </g>
  </g>
  <g id="Group_1992" data-name="Group 1992" transform="translate(129.048 39.597)">
    <g id="Group_1991" data-name="Group 1991" transform="translate(0 0)">
      <rect id="Rectangle_960" data-name="Rectangle 960" width="74" height="8" transform="translate(-0.435 0.015)" fill="#004e92"/>
    </g>
  </g>
  <g id="Group_1994" data-name="Group 1994" transform="translate(115.865 62.195)">
    <g id="Group_1993" data-name="Group 1993" transform="translate(0 0)">
      <rect id="Rectangle_961" data-name="Rectangle 961" width="72" height="5" transform="translate(-0.253 0.417)" fill="#004e92"/>
    </g>
  </g>
  <g id="Group_1996" data-name="Group 1996" transform="translate(0 14.444)">
    <g id="Group_1995" data-name="Group 1995">
      <path id="Path_3307" data-name="Path 3307" d="M115.267,48.69a11.653,11.653,0,0,0-15.236-6.283c-.1.042-.2.086-.3.131L70.448,57.726a17.856,17.856,0,0,0,1.774-7.671A18.056,18.056,0,1,0,39.815,60.889h-.15A24.78,24.78,0,0,0,16.645,76.92l-9.64,33.226A11.566,11.566,0,1,0,28.724,118.1L32.5,106.084v52.263A18,18,0,0,0,9.067,185.593,16.636,16.636,0,0,0,0,200.35v30.26a3.61,3.61,0,0,0,3.609,3.611H39.722a3.61,3.61,0,0,0,3.611-3.609V200.35a16.6,16.6,0,0,0-6.444-13.073H64.222a16.6,16.6,0,0,0-6.444,13.073v30.26a3.61,3.61,0,0,0,3.609,3.611H97.5a3.61,3.61,0,0,0,3.611-3.609V200.35a16.636,16.636,0,0,0-9.067-14.757,18.04,18.04,0,0,0-16.211-30.585V81.137l33.15-17.213A11.653,11.653,0,0,0,115.267,48.69Zm-61.1-9.467A10.833,10.833,0,1,1,43.333,50.055,10.833,10.833,0,0,1,54.166,39.222Zm-32.5,122.643A10.833,10.833,0,1,1,10.833,172.7,10.833,10.833,0,0,1,21.667,161.865ZM36.111,227H7.222V200.35a9.475,9.475,0,0,1,9.463-9.462h9.962a9.475,9.475,0,0,1,9.463,9.462ZM93.888,200.35V227H65V200.35a9.475,9.475,0,0,1,9.463-9.462h9.962A9.475,9.475,0,0,1,93.888,200.35ZM79.444,161.865A10.833,10.833,0,1,1,68.611,172.7,10.845,10.845,0,0,1,79.444,161.865ZM108.659,54.714a4.644,4.644,0,0,1-2.726,2.673L70.559,75.738a3.612,3.612,0,0,0-1.949,3.206v79.4a17.812,17.812,0,0,0-5.619,21.708H57.777V118.666H50.555v61.389H38.119a17.889,17.889,0,0,0,1.59-7.222h.014V82.555a3.611,3.611,0,0,0-7.056-1.082L21.883,115.785a4.342,4.342,0,0,1-6.023,2.4,4.432,4.432,0,0,1-2.017-5.734l9.639-33.226A17.446,17.446,0,0,1,39.664,68.111H65.233a3.6,3.6,0,0,0,1.663-.405l35.891-18.63a4.445,4.445,0,0,1,5.683,2.105A4.393,4.393,0,0,1,108.659,54.714Z" transform="translate(0 -32)" fill="#004e92"/>
    </g>
  </g>
  <g id="Group_1998" data-name="Group 1998" transform="translate(115.555 137.049)">
    <g id="Group_1997" data-name="Group 1997">
      <path id="Path_3308" data-name="Path 3308" d="M290.266,334.606a18.056,18.056,0,1,0-25.532-.333q.165.169.333.333A16.637,16.637,0,0,0,256,349.363v30.26a3.61,3.61,0,0,0,3.609,3.611h36.113a3.61,3.61,0,0,0,3.611-3.609V349.363A16.636,16.636,0,0,0,290.266,334.606Zm-12.6-23.728a10.833,10.833,0,1,1-10.833,10.833A10.833,10.833,0,0,1,277.667,310.879Zm14.444,65.134H263.222V349.363a9.475,9.475,0,0,1,9.463-9.462h9.962a9.475,9.475,0,0,1,9.463,9.462Z" transform="translate(-256 -303.618)" fill="#004e92"/>
    </g>
  </g>
  <g id="Group_2000" data-name="Group 2000" transform="translate(173.332 137.049)">
    <g id="Group_1999" data-name="Group 1999">
      <path id="Path_3309" data-name="Path 3309" d="M418.266,334.606a18.056,18.056,0,1,0-25.532-.333q.165.169.333.333A16.637,16.637,0,0,0,384,349.363v30.26a3.61,3.61,0,0,0,3.609,3.611h36.113a3.61,3.61,0,0,0,3.611-3.609V349.363A16.636,16.636,0,0,0,418.266,334.606Zm-12.6-23.728a10.833,10.833,0,1,1-10.833,10.833A10.833,10.833,0,0,1,405.667,310.879Zm14.444,65.134H391.222V349.363a9.475,9.475,0,0,1,9.463-9.462h9.962a9.475,9.475,0,0,1,9.463,9.462Z" transform="translate(-384 -303.618)" fill="#004e92"/>
    </g>
  </g>
</svg>
