<svg xmlns="http://www.w3.org/2000/svg" width="222.609" height="200" viewBox="0 0 222.609 200">
  <g id="chat" transform="translate(0 0)">
    <path id="Path_3313" data-name="Path 3313" d="M250.348,100a4.348,4.348,0,1,0,4.348,4.348A4.35,4.35,0,0,0,250.348,100Zm0,0" transform="translate(-139.043 -56.522)" fill="#004e92"/>
    <path id="Path_3314" data-name="Path 3314" d="M84.348,268.7A4.348,4.348,0,1,0,80,264.348,4.35,4.35,0,0,0,84.348,268.7Zm0,0" transform="translate(-45.217 -146.957)" fill="#004e92"/>
    <path id="Path_3315" data-name="Path 3315" d="M146.087,0C106.945,0,74.818,26.987,72.334,60.98,35.056,62.85,0,89.73,0,126.087,0,141.281,6.012,156,16.957,167.666a26.442,26.442,0,0,1-6.987,24.912A4.347,4.347,0,0,0,13.043,200a47.96,47.96,0,0,0,33.229-13.431,99.079,99.079,0,0,0,30.25,4.735c39.137,0,71.26-26.98,73.752-60.967a97.766,97.766,0,0,0,26.063-4.638,47.96,47.96,0,0,0,33.229,13.431,4.347,4.347,0,0,0,3.074-7.422,26.442,26.442,0,0,1-6.987-24.912c10.944-11.664,16.957-26.386,16.957-41.58C222.609,27.44,184.853,0,146.087,0ZM76.522,182.609c-10.262,0-21.955-2.014-29.788-5.131a4.348,4.348,0,0,0-4.817,1.1A39.23,39.23,0,0,1,22.4,190.161a35.162,35.162,0,0,0,2.651-25.878,4.339,4.339,0,0,0-1.063-1.838c-9.864-10.16-15.3-23.072-15.3-36.359,0-30.639,31.06-56.522,67.826-56.522,34.718,0,65.217,24.142,65.217,56.522,0,31.167-29.256,56.522-65.217,56.522Zm122.094-81.033a4.36,4.36,0,0,0-1.063,1.838,35.162,35.162,0,0,0,2.651,25.878,39.218,39.218,0,0,1-19.513-11.579,4.351,4.351,0,0,0-4.817-1.1c-6.788,2.7-16.472,4.57-25.615,5.022-1.27-16.442-9.472-31.9-23.494-43.37h56.712a4.348,4.348,0,0,0,0-8.7h-70.07A81.088,81.088,0,0,0,81.051,61c2.5-29.2,30.713-52.3,65.036-52.3,36.766,0,67.826,25.883,67.826,56.522,0,13.286-5.433,26.2-15.3,36.359Zm0,0" fill="#004e92"/>
    <path id="Path_3316" data-name="Path 3316" d="M179.13,260H124.348a4.348,4.348,0,0,0,0,8.7H179.13a4.348,4.348,0,0,0,0-8.7Zm0,0" transform="translate(-67.826 -146.957)" fill="#004e92"/>
    <path id="Path_3317" data-name="Path 3317" d="M156.522,320H84.348a4.348,4.348,0,1,0,0,8.7h72.174a4.348,4.348,0,1,0,0-8.7Zm0,0" transform="translate(-45.217 -180.87)" fill="#004e92"/>
    <path id="Path_3318" data-name="Path 3318" d="M345.13,100H290.348a4.348,4.348,0,1,0,0,8.7H345.13a4.348,4.348,0,1,0,0-8.7Zm0,0" transform="translate(-161.652 -56.522)" fill="#004e92"/>
  </g>
</svg>
