<svg id="_003-lightbulb" data-name="003-lightbulb" xmlns="http://www.w3.org/2000/svg" width="186.534" height="223.756" viewBox="0 0 186.534 223.756">
  <g id="Group_714" data-name="Group 714" transform="translate(0)">
    <g id="Group_713" data-name="Group 713">
      <path id="Path_577" data-name="Path 577" d="M162.872,93.2A57.63,57.63,0,0,0,124.786,194c9.108,9.108,8.28,28.565,8.073,28.772a3.427,3.427,0,0,0,1.035,2.691,3.819,3.819,0,0,0,2.484,1.035H189.16a3.428,3.428,0,0,0,2.484-1.035,3.935,3.935,0,0,0,1.035-2.691c0-.207-1.035-19.664,8.073-28.772l.621-.621A57.456,57.456,0,0,0,162.872,93.2Zm33.118,95.422c-.207.207-.621.621-.621.828-8.073,8.694-9.522,22.976-9.729,29.807H139.9c-.207-6.831-1.656-21.734-10.349-30.635a50.4,50.4,0,1,1,66.444,0Z" transform="translate(-69.435 -44.971)" fill="#004e92"/>
      <path id="Path_578" data-name="Path 578" d="M212.848,121.6a3.519,3.519,0,1,0,0,7.038A37.676,37.676,0,0,1,250.52,166.31a3.519,3.519,0,1,0,7.038,0A44.524,44.524,0,0,0,212.848,121.6Z" transform="translate(-119.618 -58.675)" fill="#004e92"/>
      <path id="Path_579" data-name="Path 579" d="M209.574,358.4H163.623a8.694,8.694,0,0,0,0,17.387h45.745c4.968-.207,8.9-3.933,8.9-8.694A8.746,8.746,0,0,0,209.574,358.4Zm0,10.143H163.623a1.633,1.633,0,0,1-1.656-1.656,1.523,1.523,0,0,1,1.656-1.656h45.745a1.633,1.633,0,0,1,1.656,1.656A1.476,1.476,0,0,1,209.574,368.543Z" transform="translate(-93.368 -172.937)" fill="#004e92"/>
      <path id="Path_580" data-name="Path 580" d="M209.113,398.8h-32.29a8.694,8.694,0,1,0,0,17.387h32.29a8.746,8.746,0,0,0,8.694-8.694A8.614,8.614,0,0,0,209.113,398.8Zm0,10.143h-32.29a1.633,1.633,0,0,1-1.656-1.656,1.523,1.523,0,0,1,1.656-1.656h32.29a1.656,1.656,0,0,1,0,3.312Z" transform="translate(-99.738 -192.431)" fill="#004e92"/>
      <path id="Path_581" data-name="Path 581" d="M212.848,31.049a3.489,3.489,0,0,0,3.519-3.519V3.519a3.519,3.519,0,1,0-7.038,0V27.53A3.627,3.627,0,0,0,212.848,31.049Z" transform="translate(-119.618)" fill="#004e92"/>
      <path id="Path_582" data-name="Path 582" d="M311.864,33.779a3.339,3.339,0,0,0-4.761.828L293.856,54.478a3.41,3.41,0,0,0,.828,4.968,3.338,3.338,0,0,0,1.863.621,3.3,3.3,0,0,0,2.9-1.656L312.692,38.54A3.208,3.208,0,0,0,311.864,33.779Z" transform="translate(-160.055 -15.978)" fill="#004e92"/>
      <path id="Path_583" data-name="Path 583" d="M119.541,58.176a3.339,3.339,0,0,0,1.863-.621,3.626,3.626,0,0,0,1.035-4.968L109.606,32.509a3.588,3.588,0,1,0-6,3.933L116.436,56.52A3.434,3.434,0,0,0,119.541,58.176Z" transform="translate(-68.33 -14.915)" fill="#004e92"/>
      <path id="Path_584" data-name="Path 584" d="M62.131,115.044,41.225,103.66a3.644,3.644,0,0,0-4.761,1.449,3.3,3.3,0,0,0,1.449,4.761l20.906,11.384a4.872,4.872,0,0,0,1.656.414,3.415,3.415,0,0,0,3.1-1.863A3.644,3.644,0,0,0,62.131,115.044Z" transform="translate(-35.966 -49.842)" fill="#004e92"/>
      <path id="Path_585" data-name="Path 585" d="M369.911,105.108a3.644,3.644,0,0,0-4.761-1.449l-21.113,11.384a3.644,3.644,0,0,0-1.449,4.761,3.415,3.415,0,0,0,3.1,1.863,3.9,3.9,0,0,0,1.656-.414l21.113-11.384A3.644,3.644,0,0,0,369.911,105.108Z" transform="translate(-183.742 -49.842)" fill="#004e92"/>
    </g>
  </g>
</svg>
