<svg xmlns="http://www.w3.org/2000/svg" width="311.461" height="193.445" viewBox="0 0 311.461 193.445">
  <g id="_003-group-of-men" data-name="003-group-of-men" transform="translate(0 -28.615)">
    <path id="Path_3312" data-name="Path 3312" d="M311.452,195.392c0-23.548-16.826-43.628-40.346-51.369a51.546,51.546,0,0,0,8.456-14.8,15.252,15.252,0,0,0,6.685-9.366c.907-3.646,2.916-11.63-1.373-15.985v-3.586c.177-6.155.664-22.154-12.657-29.068a15.354,15.354,0,0,1-.458-2.509L270.078,51.6,257.813,63.17c-1.439,1.107-9.6,3.114-17.284,3.889l-3.151.487C213.925,71.235,214.3,84.77,214.6,95.662c.043,1.388.089,2.856.089,4.5l.1,3.225c-2.361,2.6-4.037,7.38-1.86,16.271a14.39,14.39,0,0,0,6.685,9.1,58.93,58.93,0,0,0,8.768,15.306,62.185,62.185,0,0,0-25.437,15.785,85.785,85.785,0,0,0-20.8-9.572,68.037,68.037,0,0,0,12.382-21.3,19.213,19.213,0,0,0,8.768-12.007c1.173-4.745,3.809-15.261-1.874-20.523V91.07c.377-12.657-1.01-30.184-16.752-37.991a20.066,20.066,0,0,1-.781-4.1l-2.006-20.369L167.259,42.393c-1.742,1.586-12.937,4.4-23.711,5.477l-4.215.664C109.04,53.3,109.5,70.068,109.924,85.506c.052,1.691.1,3.446.1,5.4l.148,4.819c-3.1,3.114-5.423,9.166-2.538,20.973,1.285,5.174,4.67,9.609,8.731,11.615A76.4,76.4,0,0,0,129.248,150.3a84.905,84.905,0,0,0-20.758,9.541,62.3,62.3,0,0,0-25.52-15.814,51.986,51.986,0,0,0,8.456-14.818,15.1,15.1,0,0,0,6.693-9.38c.907-3.646,2.893-11.615-1.373-15.97v-3.586c.177-6.155.658-22.154-12.663-29.068a14.691,14.691,0,0,1-.45-2.509L81.943,51.588,69.678,63.16c-1.439,1.107-9.609,3.114-17.284,3.889l-3.145.487C25.79,71.225,26.173,84.76,26.468,95.645c.043,1.388.08,2.856.08,4.51l.1,3.217c-2.361,2.6-4.029,7.38-1.852,16.271a14.412,14.412,0,0,0,6.679,9.106,59.337,59.337,0,0,0,8.768,15.29C16.789,151.815,0,171.866,0,195.383v3.689H77.53a64.379,64.379,0,0,0-3.039,19.3v3.689H236.962v-3.689a64.184,64.184,0,0,0-3.039-19.3h77.538v-3.683h-.008Zm-29.24-3.689V181.372a3.689,3.689,0,1,0-7.378,0V191.7H231.118a67.7,67.7,0,0,0-6.59-11.446c-.4-.575-.761-1.165-1.165-1.711a75.977,75.977,0,0,0-14.308-14.411,52.464,52.464,0,0,1,11.822-8.819l26.19,29.732a3.688,3.688,0,0,0,5.58-.045l25.629-29.955c14.339,7.755,24.278,21.158,25.66,36.655l-21.721,0ZM229.456,214.69H197.835V199.612a2.748,2.748,0,0,0-.111-.532,3.608,3.608,0,0,0-7.159,0,4.356,4.356,0,0,0-.111.532V214.69H120.96V199.612a3.3,3.3,0,0,0-.111-.532,3.611,3.611,0,0,0-7.166,0,4.323,4.323,0,0,0-.1.532V214.69H81.965a56.972,56.972,0,0,1,3.32-15.607c.443-1.239.893-2.479,1.425-3.689h.111c-.014-.06-.023-.1-.037-.155.524-1.182,1.078-2.361,1.683-3.534a62.913,62.913,0,0,1,5.572-8.774,68.461,68.461,0,0,1,13.143-13.2c.982-.753,1.934-1.514,2.959-2.235,1-.693,2.066-1.314,3.107-1.949,1.328-.819,2.664-1.617,4.052-2.347l35.681,40.515a3.692,3.692,0,0,0,2.767,1.239h.023a3.661,3.661,0,0,0,2.782-1.285l34.92-40.8c1.617.833,3.173,1.726,4.7,2.679,1.048.635,2.1,1.254,3.114,1.949,1.025.724,1.986,1.483,2.953,2.235a68.416,68.416,0,0,1,13.135,13.2,64.33,64.33,0,0,1,5.58,8.774c.6,1.151,1.151,2.332,1.683,3.534a1.078,1.078,0,0,0-.029.155h.111c.524,1.21.982,2.45,1.417,3.689A57.9,57.9,0,0,1,229.456,214.69ZM32.883,177.681a3.685,3.685,0,0,0-3.689,3.689V191.7H7.512c1.359-15.321,11.077-28.611,25.157-36.411l26.212,29.732a3.706,3.706,0,0,0,2.767,1.254,4.461,4.461,0,0,0,2.8-1.3l25.623-29.955a53.784,53.784,0,0,1,12.294,9.077A76.036,76.036,0,0,0,88.061,178.51c-.421.546-.775,1.136-1.182,1.711A69.057,69.057,0,0,0,80.3,191.667H36.58V181.337A3.679,3.679,0,0,0,32.883,177.681Zm4.3-54.668-1.771-.532c-1.239-.377-2.893-2.206-3.483-4.6-1.468-6.021-.724-9.011.464-9.8l1.711-1.136-.214-6.893c0-1.617-.037-3.159-.08-4.6-.3-10.811-.495-17.933,16.552-20.612l2.93-.472c.169-.014,17.061-1.734,21.356-5.772l1.388-1.322.2,2.058a21.671,21.671,0,0,0,1.336,5.838l.553,1.454,1.425.621c7.225,3.128,10.153,9.947,9.764,22.928V107.8l1.883,1.07c.412.229,1.6,1.571-.295,9.18a7.511,7.511,0,0,1-3.918,5.143l-1.557.635-.532,1.6A42.725,42.725,0,0,1,74.913,141.9a24.305,24.305,0,0,1-3.875,3.1,17.252,17.252,0,0,1-8.894,2.936c-.08,0-.155.029-.229.029-.1,0-.2-.014-.309-.014s-.177.014-.272.014c-.272,0-.509-.118-.775-.132A17.452,17.452,0,0,1,52.006,145a24.909,24.909,0,0,1-3.823-3.1c-5.772-5.683-9.143-13.807-10.368-17.181ZM67.148,170.5,63.923,157.83l3.881-3.343a26.492,26.492,0,0,0,9.129-4.6,56.493,56.493,0,0,1,6.141,1.992ZM54.631,154.345l4.066,3.491-3.122,12.279-15.9-18.043a57.243,57.243,0,0,1,6.524-2.147A26.471,26.471,0,0,0,54.631,154.345Zm67.422-31.8-1.771-.532c-1.977-.6-4.582-3.262-5.52-7.048-1.831-7.483-1.4-12.76,1.151-14.442l1.705-1.13-.252-8.576c0-1.92-.052-3.749-.111-6.124-.406-14.574-.7-25.068,23.2-28.833l4.007-.635c.221-.037,22.472-2.361,27.829-7.432l3.72-3.491.509,5.306a28.293,28.293,0,0,0,1.711,7.491l.553,1.445,1.417.621c12.834,5.549,14.191,19.15,13.816,31.821v9.483l1.889,1.078c2.1,1.182,2.178,5.778.192,13.675-.9,3.565-3.248,6.613-5.992,7.741l-1.557.635-.532,1.6c-2.724,8.081-7.6,16.832-14.168,23.016a35.159,35.159,0,0,1-3.705,3.039,28,28,0,0,1-5.388,3A23.541,23.541,0,0,1,157.671,156c-.678.06-1.305.258-2,.258a27.55,27.55,0,0,1-2.864-.214,24.371,24.371,0,0,1-6.51-1.757,28.2,28.2,0,0,1-5.291-3.011,36.707,36.707,0,0,1-3.689-3.025c-8.221-7.829-12.958-19.239-14.663-23.94Zm41.428,64.018-4.693-18.449,6.53-5.594-.435-.377a35.275,35.275,0,0,0,11.055-5.97,77.584,77.584,0,0,1,10.568,3.477ZM145.9,161.968l-.627.546,6.516,5.594-4.547,17.917-22.994-26.1a85.123,85.123,0,0,1,11.143-3.734A34.441,34.441,0,0,0,145.9,161.968Zm79.472-38.956-1.771-.532c-1.248-.392-2.9-2.206-3.491-4.6-1.468-6.021-.724-9.011.458-9.8l1.711-1.136-.214-6.893c0-1.617-.037-3.159-.08-4.613-.295-10.8-.48-17.917,16.552-20.6l2.936-.472c.155-.014,17.047-1.734,21.342-5.772l1.388-1.322.2,2.058a21.989,21.989,0,0,0,1.328,5.838l.553,1.454,1.431.621c7.225,3.128,10.153,9.947,9.755,22.928V107.8l1.889,1.07c.412.229,1.608,1.571-.3,9.18a7.5,7.5,0,0,1-3.912,5.143l-1.557.635-.532,1.6a42.725,42.725,0,0,1-9.984,16.471,24.678,24.678,0,0,1-3.875,3.1,17.27,17.27,0,0,1-8.893,2.936l.043.043c-.089,0-.169-.014-.258-.014-.118,0-.206-.014-.318-.014s-.177.014-.272.014c-.272,0-.509-.118-.775-.132A17.517,17.517,0,0,1,240.16,145a25.044,25.044,0,0,1-3.815-3.1c-5.778-5.683-9.143-13.807-10.368-17.181ZM255.314,170.5l-3.225-12.671,3.881-3.343a26.915,26.915,0,0,0,9.137-4.6,56.2,56.2,0,0,1,6.124,1.992Zm-12.5-16.154,4.058,3.491-3.122,12.279-15.9-18.043a57.245,57.245,0,0,1,6.524-2.147A26.141,26.141,0,0,0,242.814,154.345Z" transform="translate(0 0)" fill="#004e92"/>
  </g>
</svg>
