<svg id="Group_2468" data-name="Group 2468" xmlns="http://www.w3.org/2000/svg" xmlns:xlink="http://www.w3.org/1999/xlink" width="580.537" height="576.192" viewBox="0 0 580.537 576.192">
  <defs>
    <linearGradient id="linear-gradient" x1="-0.181" y1="0.5" x2="0.819" y2="0.5" gradientUnits="objectBoundingBox">
      <stop offset="0" stop-color="#f69144"/>
      <stop offset="1" stop-color="#ffce45"/>
    </linearGradient>
    <linearGradient id="linear-gradient-2" x1="-0.181" y1="0.5" x2="0.819" y2="0.5" gradientUnits="objectBoundingBox">
      <stop offset="0" stop-color="#c87231"/>
      <stop offset="1" stop-color="#ffce45"/>
    </linearGradient>
  </defs>
  <g id="Group_2386" data-name="Group 2386" transform="translate(353.05 82.535)">
    <g id="Group_2381" data-name="Group 2381" transform="translate(109.55 75.481)">
      <path id="Path_4279" data-name="Path 4279" d="M735.568,682.891c15.96-11.224,34.64-89.444,35.754-136.034.572-23.865,7.625-33.807,13.849-42.579,5.949-8.384,11.088-15.627,8.094-32.254-5.72-31.777,9.318-45.494,9.471-45.628L801,424.411c-.669.586-16.33,14.733-10.328,48.08,2.8,15.536-1.813,22.033-7.65,30.259-6.123,8.631-13.745,19.373-14.335,44.044-1.2,50-20.292,123.853-34.632,133.938Z" transform="translate(-734.051 -424.411)" fill="#82c1d1"/>
    </g>
    <g id="Group_2382" data-name="Group 2382" transform="translate(0 183.077)">
      <path id="Path_4280" data-name="Path 4280" d="M694.566,667.492c-1.507-3.416-3.066-6.947-4.83-10.672-9.118-19.246-17.194-22.416-30.575-27.667-3.27-1.283-6.975-2.737-11.043-4.564-19.168-8.615-15.457-21.308-12.182-32.508.458-1.566.915-3.128,1.31-4.675,1.687-6.586-1.552-9.89-6.455-14.893-3.643-3.719-8.178-8.346-11.674-15.654-3.825-8-1.876-12.285.434-14.474,4.862-4.609,16.074-3.76,26.66,2.02,3.289,1.8,6,4.63,8.861,7.631,6.749,7.066,15.147,15.86,36.388,15.96,12.111.057,18.745,1.729,22.181,5.59,3.9,4.381,3.164,10.941,2.146,20.019-.352,3.14-.75,6.7-.993,10.543-1.445,22.942,12.1,39.491,12.232,39.652,8.091,9.635,18.059,29.623,13.757,41.927-1.8,5.158-5.837,8.4-11.988,9.646a34.019,34.019,0,0,1-6.748.733C707.191,696.1,701.754,683.783,694.566,667.492Zm-49.62-120.772c-9.453-5.16-19.591-6.2-23.579-2.421-3.032,2.874-1.6,7.8.131,11.42,3.306,6.913,7.489,11.181,11.179,14.945,5.13,5.234,9.181,9.368,7.127,17.4-.4,1.574-.868,3.165-1.334,4.761-3.261,11.152-6.34,21.687,10.73,29.36,4.01,1.8,7.684,3.243,10.926,4.515,13.507,5.3,22.431,8.8,32,28.995,1.779,3.758,3.345,7.305,4.859,10.737,8.257,18.713,13.24,30.01,31.292,26.358,5.174-1.045,8.544-3.713,10.019-7.93,3.792-10.844-5.281-29.824-13.289-39.361a63.044,63.044,0,0,1-12.843-41.513c.246-3.91.649-7.5,1-10.673.942-8.4,1.622-14.468-1.494-17.97-2.85-3.2-9.087-4.652-20.222-4.7-22.363-.106-31.19-9.35-38.284-16.778-2.838-2.972-5.289-5.538-8.218-7.137Z" transform="translate(-616.951 -539.423)" fill="#82c1d1"/>
    </g>
    <g id="Group_2383" data-name="Group 2383" transform="translate(20.472 204.156)">
      <path id="Path_4281" data-name="Path 4281" d="M729.921,712.8l2.635-.139c-.129-2.475-3.454-60.849-26.893-77.934-25.713-18.743-33.82-38.885-37.681-52.405-4.55-15.93-27.707-20.189-28.691-20.363l-.458,2.6c.224.04,22.515,4.148,26.611,18.489,3.968,13.893,12.294,34.59,38.664,53.812C726.542,653.208,729.891,712.2,729.921,712.8Z" transform="translate(-638.834 -561.954)" fill="#82c1d1"/>
    </g>
    <g id="Group_2384" data-name="Group 2384" transform="translate(86.746)">
      <path id="Path_4282" data-name="Path 4282" d="M730.027,711.852c-5.515-2.746-5.315-13.789-5.013-30.5.384-21.121.906-50.048-10.15-76.654-11.745-28.264-1.27-36.525,8.86-44.514,11.347-8.947,22.063-17.4,1.5-55.545-9.448-17.519-12.447-29.37-9.439-37.293,2.972-7.832,11.312-10.884,20.141-14.115,15.239-5.578,32.512-11.9,30.28-44.152-.684-9.889.479-15.969,3.659-19.137,3.456-3.44,8.546-3.068,14.441-2.636,8.905.652,18.993,1.39,27.781-10.077.913-2.865,9.316-28.438,19.366-32.816a7.117,7.117,0,0,1,6.148.034h0c6.938,3.318,10.964,7.254,12.31,12.032,2.339,8.311-3.749,17.685-10.8,28.538-11.078,17.057-23.633,36.389-10.612,59.4,17.218,30.418,8.124,41.063-4.461,55.8-7.212,8.441-15.385,18.008-20.848,33.613-4.394,12.55,3.1,24.515,10.351,36.088,9.094,14.516,18.5,29.525-1.3,42.55-32.732,21.535-65.057,91.83-65.38,92.537l-.134.292-.253.2c-6.03,4.727-10.42,6.983-13.726,6.983A6,6,0,0,1,730.027,711.852Zm80.76-101.6c17.64-11.606,9.7-24.275.515-38.944-7.227-11.537-15.419-24.614-10.605-38.362,5.627-16.07,13.97-25.836,21.332-34.453,12.332-14.436,20.48-23.974,4.172-52.782-13.811-24.4-.223-45.322,10.695-62.133,6.7-10.317,12.486-19.225,10.47-26.387-1.127-4-4.695-7.393-10.907-10.366h0a4.521,4.521,0,0,0-3.955.006c-9.324,4.06-17.887,31.134-17.972,31.407l-.068.219-.138.183c-9.686,12.8-21.068,11.966-30.216,11.3-5.466-.4-9.783-.716-12.385,1.875-2.561,2.551-3.506,8.14-2.888,17.084,2.368,34.233-16.692,41.208-32.006,46.814-8.6,3.149-16.037,5.869-18.58,12.572-2.715,7.155.238,18.31,9.294,35.1,21.621,40.1,9.519,49.643-2.184,58.871-9.79,7.72-19.036,15.011-8.058,41.428,11.268,27.115,10.739,56.362,10.353,77.715-.265,14.576-.472,26.091,3.549,28.094,2.354,1.172,6.857-.807,13.386-5.887C747.207,697.915,778.168,631.71,810.787,610.25Z" transform="translate(-709.675 -343.728)" fill="#82c1d1"/>
    </g>
    <path id="Path_4283" data-name="Path 4283" d="M674.889,409.673c16.659-5.711,13.2,26.4,20.237,50.152s78.308,10.363,48.393,69.852,37.834,19.895,17.6,71.806-1.76,107.434-23.757,93.311S725,615.3,702.126,607.534s-26.61-16.828-3.96-37.945-59.352-42.081-39.114-84.721S655.643,416.272,674.889,409.673Z" transform="translate(-619.456 -347.937)" fill="#82c1d1"/>
    <g id="Group_2385" data-name="Group 2385" transform="translate(66.348 135.281)">
      <path id="Path_4284" data-name="Path 4284" d="M731.759,696.5c2.095-8.886,19.986-87.094,3.292-96.547C720.338,591.62,720.7,559.212,723,528.609c2.031-27.09-32.759-39.751-34.242-40.276l-.883,2.487c.345.123,34.373,12.518,32.493,37.592-2.357,31.428-2.61,64.778,13.386,73.836,12.675,7.177,1.006,70.031-4.561,93.645Z" transform="translate(-687.871 -488.333)" fill="#fff"/>
    </g>
    <path id="Path_4285" data-name="Path 4285" d="M795.026,681.078l-23.785,90.235H718.089l-23.784-90.235Z" transform="translate(-621.938 -365.479)" fill="url(#linear-gradient)"/>
    <path id="Path_4286" data-name="Path 4286" d="M795.026,681.078s-52.361,9.831-52.361,90.235H718.09l-23.785-90.235Z" transform="translate(-621.938 -365.479)" fill="url(#linear-gradient-2)"/>
  </g>
  <path id="Path_4287" data-name="Path 4287" d="M762.869,833.687c0,18.31-117.145,33.151-261.649,33.151S239.569,852,239.569,833.687s117.144-33.15,261.65-33.15S762.869,815.379,762.869,833.687Z" transform="translate(-239.569 -290.646)" fill="#ff645f" opacity="0.21"/>
  <g id="Group_2387" data-name="Group 2387" transform="translate(6.601 70.575)">
    <path id="Path_4288" data-name="Path 4288" d="M477.686,258.464C262.554,258.464,323.3,547.29,323.3,547.29H632.067S692.817,258.464,477.686,258.464Z" transform="translate(-251.059 -258.464)" fill="#69432f"/>
    <path id="Path_4289" data-name="Path 4289" d="M323.849,749.767l10.368,25.889H358.26v-24.9A82.065,82.065,0,0,0,323.849,749.767Z" transform="translate(-251.604 -357.862)" fill="#b8937c"/>
    <path id="Path_4290" data-name="Path 4290" d="M641.994,749.767l-10.367,25.889H607.583v-24.9A82.064,82.064,0,0,1,641.994,749.767Z" transform="translate(-269.898 -357.862)" fill="#b8937c"/>
    <rect id="Rectangle_1099" data-name="Rectangle 1099" width="276.736" height="90.008" transform="translate(88.259 226.485)" fill="#2d2f4d"/>
    <path id="Path_4291" data-name="Path 4291" d="M694.09,456.542c-26.313-42.665-81.271-17.061-87.779,34.858s0,150.988,0,150.988H340.193s6.509-99.069,0-150.988-61.466-77.522-87.779-34.858,45.838,60.744,41.82,112.584,18.779,162.316,18.779,162.316c66.825,7.34,160.239,9.9,160.239,9.9s93.415-2.562,160.24-9.9c0,0,22.8-110.475,18.778-162.316S720.4,499.206,694.09,456.542Z" transform="translate(-246.625 -337.655)" fill="#9c6a51"/>
    <path id="Rectangle_1100" data-name="Rectangle 1100" d="M37.332,0H239.4a37.331,37.331,0,0,1,37.331,37.331V52.677A37.332,37.332,0,0,1,239.4,90.009H37.331A37.331,37.331,0,0,1,0,52.677V37.332A37.332,37.332,0,0,1,37.332,0Z" transform="translate(88.259 245.029)" fill="#b47551"/>
    <ellipse id="Ellipse_247" data-name="Ellipse 247" cx="15.333" cy="15.333" rx="15.333" ry="15.333" transform="translate(26.893 162.434)" fill="#c28365"/>
    <ellipse id="Ellipse_248" data-name="Ellipse 248" cx="15.333" cy="15.333" rx="15.333" ry="15.333" transform="translate(401.477 162.434)" fill="#c28365"/>
    <path id="Path_4292" data-name="Path 4292" d="M476.85,542.983a28.7,28.7,0,0,1-4.968,1.28l-71.96,11.564a27.762,27.762,0,0,1-31.782-23l-14.08-87.8a27.731,27.731,0,0,1,22.974-31.783l10.218-1.648,61.742-9.892a27.712,27.712,0,0,1,31.76,22.994l14.1,87.8A27.711,27.711,0,0,1,476.85,542.983Z" transform="translate(-253.529 -295.08)" fill="#faccc2"/>
    <path id="Path_4293" data-name="Path 4293" d="M476.85,543.69a28.7,28.7,0,0,1-4.968,1.28l-71.96,11.564a27.762,27.762,0,0,1-31.782-23l-14.08-87.8a27.731,27.731,0,0,1,22.974-31.783l10.218-1.648a.022.022,0,0,0,.022.022S390.768,531.606,476.85,543.69Z" transform="translate(-253.529 -297.001)" fill="#e5a5a5"/>
  </g>
  <path id="Path_4294" data-name="Path 4294" d="M390.4,791.624A99.114,99.114,0,0,0,375.225,809.4c-7.178,10.768-26.235,11.341-27.052,26.039s25.91,15.152,39.941,10.366,16.153-19.143,24.638-22.731,12.89-6.494,12.237-13.5-5.347-18.383-5.347-18.383a57.847,57.847,0,0,1-8.371,2.025C408.17,793.554,397.742,793.675,390.4,791.624Z" transform="translate(-246.57 -290.043)" fill="#2a2873"/>
  <path id="Path_4295" data-name="Path 4295" d="M489.277,363s-5.377,31.981-9.712,53.1v0c-1.759,8.566-3.345,15.346-4.331,17.481C474,436.274,463.9,447.112,451.55,459.832c-21.677,22.314-50.317,50.414-50.317,50.414l-11.2-21.251s25.439-29.822,42.683-49.721c7.983-9.208,14.208-16.29,15.349-17.311,3.6-3.226,7.788-35.005,13.672-61.191s17.669-40.657,17.669-40.657Z" transform="translate(-249.271 -211.024)" fill="#ff645f"/>
  <path id="Path_4296" data-name="Path 4296" d="M451.55,468.044c-21.677,22.314-50.317,50.414-50.317,50.414l-11.2-21.251s25.439-29.822,42.683-49.721C438.007,450.078,447.711,456.262,451.55,468.044Z" transform="translate(-249.271 -229.352)" fill="#eda885"/>
  <g id="Group_2388" data-name="Group 2388" transform="translate(308.203 492.091)">
    <path id="Path_4297" data-name="Path 4297" d="M602.1,782.243s7.362,8.141,11.716,13.076,21.028,13.756,21.117,28.411c.1,15.893-12.3,14.5-23.331,13.92s-19.994-8.2-24.638-17.2-17-11.362-17.872-18.619,5.728-20.32,5.728-20.32Z" transform="translate(-569.013 -781.51)" fill="#2a2873"/>
  </g>
  <path id="Path_4298" data-name="Path 4298" d="M576.644,767.05l-1.423,13.528s23.023,10.033,27.281.732l-.989-12.047Z" transform="translate(-261.211 -288.487)" fill="#eda885"/>
  <path id="Path_4299" data-name="Path 4299" d="M394.566,781.187l-1.256,9.792a48.28,48.28,0,0,0,29.244-.437l.311-8.707Z" transform="translate(-249.482 -289.399)" fill="#eda885"/>
  <path id="Path_4300" data-name="Path 4300" d="M595.617,504.669c.8,2.847-147.366,0-147.366,0s40.985-29.833,43.642-37.8-10.436-55.787-12.144-71.346c-1.367-12.449-4.79-68.153,3.416-76.661,8.578-8.894,39.469-18.216,39.469-18.216l45.033,1.672a70.723,70.723,0,0,1,12.746,4.021c5.313,2.466,35.7,13.288,40.631,28.469s-30.317,63.987-30.317,63.987-.068,2.194-.175,5.788v0c-.137,4.793-.338,12.078-.521,19.979-.236,10.233-.443,21.5-.443,29.732C589.586,473.647,594.818,501.823,595.617,504.669Z" transform="translate(-253.024 -207.616)" fill="#ff645f"/>
  <path id="Path_4301" data-name="Path 4301" d="M588.429,518.2s20.153,29.6,20.438,49.807-7.465,76.241-8.034,87.342-11.005,103.6-11.005,103.6-8.066,7.5-32.258-1.9c0,0-5.34-87.726-5.91-97.118s-.569-52.653-5.977-58.915-38.138-25.9-42.407-29.6-78.644,14.053-86.436,16.074c-20.18,5.233-10.983,40.344-6.518,56.087,7.469,26.335,14,121.441,14,121.441s-14.374,6.124-38.448.949c0,0-47.275-171.726-48.793-188.8s-2.264-45.237,114.237-66.641Z" transform="translate(-245.835 -271.948)" fill="#f9b36c"/>
  <path id="Path_4302" data-name="Path 4302" d="M538.8,196.013s-39.092-8.818-30.162,40.379,18.331,53.065,41.915,42.883,21.473-41.7,22.66-57.158S551.267,196.55,538.8,196.013Z" transform="translate(-256.832 -183.823)" fill="#eda885"/>
  <path id="Path_4303" data-name="Path 4303" d="M529.91,309.87s17.313,18.355,44.675,1.674c0,0-6.118-39.778-2.9-59.152s-35.7,30.021-35.7,30.021c.513.268.85,2.117.929,4.748a53.2,53.2,0,0,1-.409,7.884C535.7,301.484,533.7,308.286,529.91,309.87Z" transform="translate(-258.289 -187.207)" fill="#eda885"/>
  <path id="Path_4304" data-name="Path 4304" d="M563.354,231.982c.514-4.34,9.093-5.931,9.785.575s-3.9,17.929-7.155,16.806S562.642,237.966,563.354,231.982Z" transform="translate(-260.422 -185.937)" fill="#eda885"/>
  <path id="Path_4305" data-name="Path 4305" d="M571.149,246.564s-1.009-15.5-6.671-15.985-6.532,5.759-6.532,5.759l-5.717,1.079s1.806-13.586-3.847-15.959-36.628,7.48-41.166,3.492-2.4-31.547,5.8-35.319,30.872-12.223,47.48-.981c0,0,12.944-1.477,14.864,8.97S574.667,238.8,571.149,246.564Z" transform="translate(-256.675 -183.025)" fill="#3b4048"/>
  <path id="Path_4306" data-name="Path 4306" d="M536.962,296.5c28.229-8.705,30.354-25.7,30.385-25.966-9.3,15.971-29.976,18.083-29.976,18.083A53.225,53.225,0,0,1,536.962,296.5Z" transform="translate(-258.744 -188.667)" fill="#a67861"/>
  <path id="Path_4307" data-name="Path 4307" d="M585.159,306.367s-20.672,41.152-54.068,38.495-5.693-44.018-4.174-44.4C528.585,300.04,561.166,291.922,585.159,306.367Z" transform="translate(-257.308 -202.626)" fill="#eda885"/>
  <path id="Path_4308" data-name="Path 4308" d="M430.133,515.626s102.325,12.616,164.316,2.085L476,502.911S475.3,505.931,430.133,515.626Z" transform="translate(-251.856 -236.117)" fill="#e8683c"/>
  <path id="Path_4309" data-name="Path 4309" d="M599.759,408.871v0c-.137,4.793-.338,12.078-.521,19.979-13.891-34.046-5.866-61.216-5.729-61.673C592.006,376.416,599.651,408.417,599.759,408.871Z" transform="translate(-262.233 -214.959)" fill="#a84b2b"/>
  <path id="Path_4310" data-name="Path 4310" d="M485.283,420.316v0c-1.759,8.566-3.345,15.346-4.331,17.481-4.743-22.96-.475-52.354-.475-52.354C481.126,399.486,485.283,420.316,485.283,420.316Z" transform="translate(-254.988 -217.779)" fill="#a84b2b"/>
  <g id="Group_2389" data-name="Group 2389" transform="translate(198.8 265.951)">
    <path id="Path_4311" data-name="Path 4311" d="M468.938,501.533s-5.837,2.819-7.36,4.075-7.7,5.879-9.193,6.967,2.256,4.179,13.3-.6S468.938,501.533,468.938,501.533Z" transform="translate(-452.07 -501.533)" fill="#eda885"/>
  </g>
  <path id="Path_4312" data-name="Path 4312" d="M499.4,486.453l-7.928,3.188s.683,12.212,4.524,16.229l8.711-1.434S504.076,491.049,499.4,486.453Z" transform="translate(-255.811 -233.406)" fill="#eda885"/>
  <path id="Path_4313" data-name="Path 4313" d="M620.048,461.947c-1.67,1.626-22.411,7.947-45.809,14.7v0c-31.965,9.23-67.832,17.471-67.832,17.471l-6.463-17.713S538.2,459.728,564.1,447.948c12.233-5.564,21.707-10.035,23.086-11.138,4.3-3.436,5.853-9.409,3.852-20.235s-4.505-60.006-4.769-65.744,3.7-20.63,17.939-20.156,18.507,2.487,18.507,2.487,6.036,4.405,5.7,39.041S624,458.1,620.048,461.947Z" transform="translate(-256.357 -212.033)" fill="#ff645f"/>
  <path id="Path_4314" data-name="Path 4314" d="M574.239,484.732v0c-31.965,9.23-68.988,17.739-68.988,17.739l-5.307-17.982S538.2,467.811,564.1,456.031C564.1,456.031,572.7,461.185,574.239,484.732Z" transform="translate(-256.357 -229.609)" fill="#eda885"/>
  <g id="Group_2390" data-name="Group 2390" transform="translate(184.358 250.805)">
    <path id="Path_4315" data-name="Path 4315" d="M489.551,489.947s-8.928-2.195-15.058-4.194c-4.743-1.547-16.915-1.039-20.249,1.8s-14.965,23.642-16.925,24.8.565,4.461,3.937,3.206c0,0,2.151,9.73,9.8,6.822s13.3-10.219,17.262-11.249,26.937-5.968,26.937-5.968S495.518,488.141,489.551,489.947Z" transform="translate(-436.633 -484.893)" fill="#eda885"/>
  </g>
  <g id="Group_2413" data-name="Group 2413" transform="translate(100.341 94.697)">
    <g id="Group_2391" data-name="Group 2391" transform="translate(57.392 396.972)">
      <path id="Path_4316" data-name="Path 4316" d="M428.787,712.721s.5,6.451,1.988,8.956,6.363,17.335,8.451,21.091,10.437,6.452,10.04,13.1-15.767,7.682-20.042,4.5S411.093,737.279,409.5,734.39s-2.187-12.713.7-15.505,6.028-8.57,5.965-9.919S427.1,710.024,428.787,712.721Z" transform="translate(-408.173 -708.579)" fill="#e7744d"/>
    </g>
    <g id="Group_2392" data-name="Group 2392" transform="translate(18.328 201.185)">
      <path id="Path_4317" data-name="Path 4317" d="M408.235,501.7s27.7,36.469,32.473,47.255,12.989,26.2,12.989,31.2-4.241,25.425-6.362,29.277-16.7,69.6-17.5,73.837-3.744,15.955-3.744,15.955l-12.624-3.756s-1.312-58.226.94-69.783,9.066-28.325,8.005-33.589-18.026-19.9-29.689-27.737S367.28,544.2,366.484,531.49s5.633-27.095,5.633-27.095S385.305,495.022,408.235,501.7Z" transform="translate(-366.416 -499.299)" fill="#eda885"/>
    </g>
    <g id="Group_2393" data-name="Group 2393" transform="translate(54.111 197.043)">
      <path id="Path_4318" data-name="Path 4318" d="M441.782,498.139s7.953,11.749,11.93,14.639,31.611,29.277,39.563,42.183,10.67,14.832,9.013,20.417-4.042,20.61-5.832,24.463-24.921,95.818-24.921,95.818-9.526,2.411-12.31-1.826c0,0,5.434-39.867,4.042-54.314s1.422-35.474,7.508-46.069,1.823-17.687-5.135-22.5-45.408-26.581-45.408-26.581S373.59,479.84,441.782,498.139Z" transform="translate(-404.666 -494.871)" fill="#eda885"/>
    </g>
    <g id="Group_2394" data-name="Group 2394" transform="translate(101.121 396.005)">
      <path id="Path_4319" data-name="Path 4319" d="M474.447,708.9s.2,2.311.894,2.6,11.63,16.469,13.719,18.78,15.209,6.067,15.408,7.609-1.79,10.208-12.526,10.4-19.682-9.053-24.056-12.52-16.4-6.934-12.029-15.794,6.608-12.429,6.608-12.429Z" transform="translate(-454.915 -707.545)" fill="#e7744d"/>
    </g>
    <g id="Group_2395" data-name="Group 2395" transform="translate(61.099 397.272)">
      <path id="Path_4320" data-name="Path 4320" d="M412.135,717a56.06,56.06,0,0,1,5.576,12.887c2.186,7.512,10.735,17.24,16.6,16.951s4.889-4.581,4.889-4.581-6.23-17.085-8.841-22.578c-.433-.911-1.019-5.176-1.317-6.933-.16-.947-8.747-4.431-12.624-3.756C416.419,708.986,413,715.816,412.135,717Z" transform="translate(-412.135 -708.9)" fill="#eda885"/>
    </g>
    <g id="Group_2396" data-name="Group 2396" transform="translate(104.147 396.005)">
      <path id="Path_4321" data-name="Path 4321" d="M489.753,730.7s-1.976,5.231-6.946,4.28-10.537-6.536-13.42-9.714-11.236-9.642-11.236-9.642l4.523-8.083,11.933.727Z" transform="translate(-458.15 -707.545)" fill="#eda885"/>
    </g>
    <g id="Group_2397" data-name="Group 2397" transform="translate(18.198 198.092)">
      <path id="Path_4322" data-name="Path 4322" d="M439.037,497.262s8.555,11.287,11.338,13.47,27.143,22,42,46.829c0,0-47.782-1.62-74.383,27.782,0,0-25.8-21.408-28.652-23.549s-21.409-13.052-22.866-30.516,5.633-27.095,5.633-27.095S424.384,492.139,439.037,497.262Z" transform="translate(-366.278 -495.993)" fill="#fccca1"/>
    </g>
    <g id="Group_2398" data-name="Group 2398" transform="translate(17.24 86.635)">
      <path id="Path_4323" data-name="Path 4323" d="M445.006,439.061c-6.3,10.658-7.355,48.193-5.763,51.8,0,0-36.226,11.14-67.639,6.681,0,0,1.565-3.407,3.121-7.889.624-1.793,1.313-3.774,2.026-5.8,2.24-6.368,4.712-13.229,6.028-16.34,2.783-6.584,1.79-17.622-.4-21.444s-15.11-32.482-15.11-32.482-6.961-20.384,4.97-26.752a91.969,91.969,0,0,1,23.027-8.528l21-1.45s4.579.848,10.741,1.38,12.527,1.592,13.818,11.782,2.559,15.572,3.883,18.261S452.16,426.959,445.006,439.061Z" transform="translate(-365.253 -376.854)" fill="#ecd9d2"/>
    </g>
    <g id="Group_2399" data-name="Group 2399" transform="translate(0.607 92.971)">
      <path id="Path_4324" data-name="Path 4324" d="M378.809,383.627s-12.32,1.7-17.755,11.18-5.069,22.257-6.262,27.351-8.482,52.653-7.157,56.757,6.494,11.04,14.314,10.192,39.365-17.268,39.365-17.268-4.241-12.313-4.241-14.862l-30.353,10.615s7.291-49.679,8.218-55.2S381.834,388.515,378.809,383.627Z" transform="translate(-347.475 -383.627)" fill="#ecd9d2"/>
    </g>
    <g id="Group_2400" data-name="Group 2400" transform="translate(84.676 88.931)">
      <path id="Path_4325" data-name="Path 4325" d="M437.337,379.308s9.414,1.915,14.7,9.7c3.678,5.413,3.976,17.444,4.506,19.709s7.555,27.9,7.555,27.9l-19.616,13.145Z" transform="translate(-437.337 -379.308)" fill="#ecd9d2"/>
    </g>
    <g id="Group_2401" data-name="Group 2401" transform="translate(93.102 119.226)">
      <path id="Path_4326" data-name="Path 4326" d="M446.344,440.037l95.667-28.346,3.871,3.15,7.926,75.194L446.344,530.388Z" transform="translate(-446.344 -411.691)" fill="#1c3b54"/>
    </g>
    <g id="Group_2402" data-name="Group 2402" transform="translate(70.774 49.111)">
      <path id="Path_4327" data-name="Path 4327" d="M444.508,336.744s-7.5,36.233-2.166,46.223c0,0-16.368-6.005-19.58-12.665S444.508,336.744,444.508,336.744Z" transform="translate(-422.477 -336.744)" fill="#fccca1"/>
    </g>
    <g id="Group_2404" data-name="Group 2404" transform="translate(47.256 61.148)">
      <g id="Group_2403" data-name="Group 2403">
        <path id="Path_4328" data-name="Path 4328" d="M420.552,363.873s-.323,3.159-.676,7.327c-.122,1.425-.246,2.966-.364,4.541a123.61,123.61,0,0,0-.5,13.472s-10.14,10.851-21.673-12.666c0,0,4.853-9.694,1.2-22.9S420.552,363.873,420.552,363.873Z" transform="translate(-397.338 -349.61)" fill="#eda885"/>
      </g>
    </g>
    <g id="Group_2405" data-name="Group 2405" transform="translate(46.992 4.56)">
      <path id="Path_4329" data-name="Path 4329" d="M424.62,289.559s20.594,2,21.524,28.43-10.3,48.145-14.125,51.371-24.05-2.111-27.41-16.2-9.362-24.8-7.029-36.261S399.416,285.962,424.62,289.559Z" transform="translate(-397.056 -289.122)" fill="#eda885"/>
    </g>
    <g id="Group_2406" data-name="Group 2406" transform="translate(31.562)">
      <path id="Path_4330" data-name="Path 4330" d="M444.877,327.606s9.048-31.69-17.575-40.894-38.361,9.51-42.256,21.03-4.485,45.3-4.485,45.3,16.3,19.281,26.677,25.049c0,0-5.19-36.67,1.022-61.7,0,0,21.741,6.481,36.874,4.447C445.134,320.839,444.992,326.209,444.877,327.606Z" transform="translate(-380.562 -284.248)" fill="#fccca1"/>
    </g>
    <g id="Group_2407" data-name="Group 2407" transform="translate(56.67 75.342)">
      <path id="Path_4331" data-name="Path 4331" d="M420.587,373.38c-.122,1.425-.309,1.763-.427,3.339-10.4-5.514-12.76-11.936-12.76-11.936C414.331,371.61,420.587,373.38,420.587,373.38Z" transform="translate(-407.401 -364.783)" fill="#a67861"/>
    </g>
    <g id="Group_2408" data-name="Group 2408" transform="translate(7.573 95.605)">
      <path id="Path_4332" data-name="Path 4332" d="M434.359,528.76l-62.113-53.936L354.92,386.442l75.3,52.045Z" transform="translate(-354.92 -386.442)" fill="#1c3b54"/>
    </g>
    <g id="Group_2409" data-name="Group 2409" transform="translate(82.871 147.572)">
      <path id="Path_4333" data-name="Path 4333" d="M445.638,532.341h-6.09l-4.142-90.273,10.231-.078Z" transform="translate(-435.407 -441.99)" fill="#1c3b54"/>
    </g>
    <g id="Group_2410" data-name="Group 2410" transform="translate(50.54 150.919)">
      <path id="Path_4334" data-name="Path 4334" d="M400.848,463.042s5.8-2.077,6.4-2.488,1.443-6.509,4.3-8.836,6.6-4.82,7.328-5.927,2.335,2.126-.2,4.9-2.571,4.961,3.688,3.574c3.464-.767,14.823-7.616,14.69-5.013-.077,1.527-11.21,7.657-11.21,7.657s12.377-5.7,13.118-5.092c1.461,1.2-10.756,7.415-11.3,7.6,0,0,10.919-4.2,11.419-3.217.622,1.217-10.389,5.588-10.207,5.751,0,0,8.722-3.23,8.944-2.421.293,1.063-7.115,4.578-8.632,5.054s-17.373,6.141-20.072,6.437-4.94,3.137-4.94,3.137Z" transform="translate(-400.848 -445.568)" fill="#eda885"/>
    </g>
    <g id="Group_2411" data-name="Group 2411" transform="translate(14.287 166.074)">
      <path id="Path_4335" data-name="Path 4335" d="M400.5,461.768s3.512,8.138,4.109,14.012c0,0-19.768,10.312-32.582,15.435L362.1,469.694l2.121.389,3.333,1.252S393.069,463.955,400.5,461.768Z" transform="translate(-362.097 -461.768)" fill="#ecd9d2"/>
    </g>
    <g id="Group_2412" data-name="Group 2412" transform="translate(117.705 394.305)">
      <path id="Path_4336" data-name="Path 4336" d="M476.806,705.728s.874,8.055,2.164,8.735S465.794,711.728,476.806,705.728Z" transform="translate(-472.643 -705.728)" fill="#eda885"/>
    </g>
    <path id="Path_4337" data-name="Path 4337" d="M354.4,386.442l-7.573,3.432L369.68,464.4Z" transform="translate(-346.825 -290.837)" fill="#1c3b54"/>
  </g>
</svg>
