<svg xmlns="http://www.w3.org/2000/svg" xmlns:xlink="http://www.w3.org/1999/xlink" width="242.909" height="242.285" viewBox="0 0 242.909 242.285">
  <defs>
    <linearGradient id="linear-gradient" x1="0.5" x2="0.5" y2="1" gradientUnits="objectBoundingBox">
      <stop offset="0" stop-color="#6a11cb"/>
      <stop offset="1" stop-color="#4a00e0"/>
    </linearGradient>
  </defs>
  <g id="Page-1" transform="translate(-0.424)">
    <g id="_026---Idea" data-name="026---Idea" transform="translate(0.424)">
      <path id="Shape" d="M225.13,102.257a8.213,8.213,0,0,0-8.061-6.665h-7.93l-.583-3.495a8.254,8.254,0,0,0-6.862-6.8c-.78-.123-1.569-.205-2.345-.312a25.05,25.05,0,0,0-3.121-18.311,16.8,16.8,0,0,0-12.176-22.479,34.942,34.942,0,0,0-34.138-28.524c-.411,0-.776.053-1.166.066a16.705,16.705,0,0,0-25.555-3.178A28.187,28.187,0,0,0,107.859,8,28.512,28.512,0,0,0,85.446,19.038,20.455,20.455,0,0,0,59.3,37.419,16.9,16.9,0,0,0,48.951,52.991a16.7,16.7,0,0,0,.411,3.5,33.049,33.049,0,0,0-3.938,28.335c-1.1.152-2.226.287-3.285.444a8.262,8.262,0,0,0-6.915,6.8L34.64,95.58H26.69a8.213,8.213,0,0,0-8.057,6.648L.65,194.552A12.32,12.32,0,0,0,12.768,209.22H98.406c3.4,5.61,13.732,8.213,23.473,8.213,9.638,0,19.872-2.542,23.37-8.213h85.74a12.32,12.32,0,0,0,12.118-14.664ZM61.369,60.424A8.673,8.673,0,0,1,65.8,44.318,8.517,8.517,0,0,1,72.7,47.8a4.107,4.107,0,0,0,6.6-4.895,16.59,16.59,0,0,0-11.646-6.57,12.484,12.484,0,0,1,12.176-9.884,12.8,12.8,0,0,1,1.495.164,26.975,26.975,0,0,0-.862,2.571,4.107,4.107,0,0,0,7.95,2.053A19.971,19.971,0,0,1,90.538,26.1a20.278,20.278,0,0,1,17.321-9.884A19.945,19.945,0,0,1,118.737,19.5a16.693,16.693,0,0,0-.965,5.384,4.107,4.107,0,0,0,8.213,0,8.638,8.638,0,1,1,17.276,0,4.107,4.107,0,0,0,8.213,0c0-.316-.078-.616-.094-.932A26.656,26.656,0,0,1,175.7,44.507a16.664,16.664,0,0,0-5.314,2.649,4.107,4.107,0,0,0,4.928,6.57,8.657,8.657,0,0,1,12.7,11.2,8.759,8.759,0,0,1-3.889,3.6,4.107,4.107,0,0,0,1.749,7.8,4.053,4.053,0,0,0,1.741-.39,16.866,16.866,0,0,0,3.068-1.918,17.539,17.539,0,0,1-3.474,17.514l-.1.1a17.736,17.736,0,0,1-20.943,3.844,16.3,16.3,0,0,1-1.988-1.24,13.987,13.987,0,0,0,1.084-14.455,4.108,4.108,0,0,0-7.338,3.7,6.115,6.115,0,0,1-1.979,7.741,6.2,6.2,0,0,1-8.919-2.275,4.107,4.107,0,0,0-7.347,3.675,14.237,14.237,0,0,0,12.8,7.917,14.085,14.085,0,0,0,5.154-1.014,24.307,24.307,0,0,0,4.813,3.285,25.3,25.3,0,0,0,18.968,1.753A26.175,26.175,0,0,1,164.5,114.93a4.107,4.107,0,0,0,.645,8.16,4.369,4.369,0,0,0,.653-.049,33.747,33.747,0,0,0,7.285-2.127,36.722,36.722,0,0,1,3.063,7.051,4.234,4.234,0,0,1,.214,1.326,4.431,4.431,0,0,1-2.694,4.074,4.649,4.649,0,0,1-5.3-1.425,26.212,26.212,0,0,0-12.02-7.987c-8.874-2.973-12.3-5.63-13.753-8.521a39.422,39.422,0,0,0,6.3-1.314,4.107,4.107,0,0,0-2.415-7.852,31.12,31.12,0,0,1-7.088,1.3,30.479,30.479,0,0,1-13.609-2.053,4.107,4.107,0,0,0-4.6,1.146A17.584,17.584,0,0,1,92.809,86.1a4.119,4.119,0,0,0-7.067-4.234,25.645,25.645,0,0,0-2.349,5.285A6.16,6.16,0,0,1,77.557,81.1v-.1a4.061,4.061,0,0,0-4.107-4.053A4.148,4.148,0,0,0,69.344,81.1,14.291,14.291,0,0,0,82.095,95.268a25.781,25.781,0,0,0,.374,4.107A25.1,25.1,0,0,1,54.076,65.007a16.553,16.553,0,0,0,3.055,2.435,4.107,4.107,0,0,0,4.238-7.034ZM43.3,93.412c1.893-.279,3.848-.526,5.79-.78A33.156,33.156,0,0,0,85.1,107.243a25.723,25.723,0,0,0,40.293,6.829,39.423,39.423,0,0,0,8.57,1.552c1.983,7.523,7.716,12.081,19.761,16.118a18.2,18.2,0,0,1,8.361,5.507,13.079,13.079,0,0,0,9.921,4.661,12.471,12.471,0,0,0,4.874-.994,12.644,12.644,0,0,0,7.675-11.626,12.184,12.184,0,0,0-.624-3.885,44.889,44.889,0,0,0-3.63-8.357A34.618,34.618,0,0,0,193.953,96.18a25.724,25.724,0,0,0,2.365-3.31c1.376.177,2.751.333,4.135.563L215.278,182.6a140.961,140.961,0,0,0-89.292,0V131.2a4.107,4.107,0,0,0-8.213,0v51.422a140.985,140.985,0,0,0-89.292-.033ZM9.569,199.5a4.074,4.074,0,0,1-.862-3.367L26.69,103.806h6.57L20.374,181.251a8.242,8.242,0,0,0,10.6,9.174,137.384,137.384,0,0,1,67.828-4.3l-1.224,14.886H12.768a4.135,4.135,0,0,1-3.2-1.511Zm112.31,9.724c-9.893,0-15.568-2.924-16.4-4.226l1.413-17.042a87.758,87.758,0,0,1,13.215,4.431,4.143,4.143,0,0,0,1.774.411,4.082,4.082,0,0,0,1.778-.411,87.472,87.472,0,0,1,13.211-4.46l1.413,17.067c-.834,1.306-6.509,4.23-16.4,4.23Zm112.31-9.724a4.135,4.135,0,0,1-3.2,1.511h-84.8l-1.232-14.915a137.425,137.425,0,0,1,67.856,4.341,8.238,8.238,0,0,0,10.562-9.195L210.506,103.81h6.57l17.987,92.315A4.074,4.074,0,0,1,234.189,199.5Z" transform="translate(-0.424 24.852)" fill="url(#linear-gradient)"/>
      <path id="Shape-2" data-name="Shape" d="M27.708,31.066a4.107,4.107,0,0,0-.292,5.8,24.762,24.762,0,0,0,13.161,7.589,12.233,12.233,0,0,1-10,5.154,4.107,4.107,0,1,0,0,8.213,20.364,20.364,0,0,0,19.132-13.17A24.783,24.783,0,0,0,69.989,24.939,4.107,4.107,0,1,0,61.924,23.4a16.369,16.369,0,0,1-6.8,10.426,16.763,16.763,0,0,1-21.617-2.464,4.107,4.107,0,0,0-5.8-.292Z" transform="translate(80.138 62.091)" fill="url(#linear-gradient)"/>
      <path id="Shape-3" data-name="Shape" d="M26.307,39a4.107,4.107,0,0,0,4.107-4.107A10.677,10.677,0,0,1,41.09,24.213a4.107,4.107,0,0,0,0-8.213A18.911,18.911,0,0,0,22.2,34.89,4.107,4.107,0,0,0,26.307,39Z" transform="translate(67.224 49.705)" fill="url(#linear-gradient)"/>
      <path id="Shape-4" data-name="Shape" d="M37.213,8.213V4.107a4.107,4.107,0,1,0-8.213,0V8.213a4.107,4.107,0,0,0,8.213,0Z" transform="translate(88.348)" fill="url(#linear-gradient)"/>
      <path id="Shape-5" data-name="Shape" d="M50.465,8.124l-4.107,4.107a4.107,4.107,0,1,0,5.807,5.807l4.107-4.107a4.107,4.107,0,1,0-5.807-5.807Z" transform="translate(138.378 21.344)" fill="url(#linear-gradient)"/>
      <path id="Shape-6" data-name="Shape" d="M20.134,19.241a4.107,4.107,0,0,0,2.9-7.01L18.931,8.124a4.107,4.107,0,1,0-5.807,5.807l4.107,4.107a4.107,4.107,0,0,0,2.9,1.2Z" transform="translate(35.136 21.344)" fill="url(#linear-gradient)"/>
      <path id="Shape-7" data-name="Shape" d="M28.281,20.561a4.164,4.164,0,0,0,1.573-.312,4.107,4.107,0,0,0,2.222-5.367L27.357,3.5a4.107,4.107,0,1,0-7.585,3.146l4.714,11.383a4.107,4.107,0,0,0,3.794,2.534Z" transform="translate(58.601 2.744)" fill="url(#linear-gradient)"/>
      <path id="Shape-8" data-name="Shape" d="M47.815,1.216a4.107,4.107,0,0,0-5.363,2.222L37.733,14.821a4.107,4.107,0,0,0,2.222,5.371,4.164,4.164,0,0,0,1.573.312,4.107,4.107,0,0,0,3.794-2.534L50.036,6.587a4.107,4.107,0,0,0-2.222-5.371Z" transform="translate(114.5 2.805)" fill="url(#linear-gradient)"/>
      <path id="Shape-9" data-name="Shape" d="M53.441,27.365a4.107,4.107,0,0,0,1.573-.316l11.379-4.714a4.107,4.107,0,1,0-3.142-7.589L51.868,19.46a4.107,4.107,0,0,0,1.573,7.905Z" transform="translate(151.479 44.836)" fill="url(#linear-gradient)"/>
      <path id="Shape-10" data-name="Shape" d="M19.819,27.049a4.107,4.107,0,1,0,3.146-7.589L11.582,14.746A4.107,4.107,0,1,0,8.44,22.335Z" transform="translate(16.598 44.836)" fill="url(#linear-gradient)"/>
    </g>
  </g>
</svg>
