<svg id="_001-education" data-name="001-education" xmlns="http://www.w3.org/2000/svg" xmlns:xlink="http://www.w3.org/1999/xlink" width="218.857" height="218.857" viewBox="0 0 218.857 218.857">
  <defs>
    <linearGradient id="linear-gradient" x1="0.5" x2="0.5" y2="1" gradientUnits="objectBoundingBox">
      <stop offset="0" stop-color="#6a11cb"/>
      <stop offset="1" stop-color="#4a00e0"/>
    </linearGradient>
  </defs>
  <g id="Group_1988" data-name="Group 1988" transform="translate(0 0)">
    <g id="Group_1987" data-name="Group 1987">
      <path id="Path_3306" data-name="Path 3306" d="M215.211,0H3.648A3.647,3.647,0,0,0,0,3.646V76.6H7.3V7.3H211.562V87.543H83.9v7.3H215.209a3.647,3.647,0,0,0,3.648-3.646V3.648A3.647,3.647,0,0,0,215.211,0Z" transform="translate(0 0)" fill="url(#linear-gradient)"/>
    </g>
  </g>
  <g id="Group_1990" data-name="Group 1990" transform="translate(120.822 16.78)">
    <g id="Group_1989" data-name="Group 1989" transform="translate(0 0)">
      <rect id="Rectangle_959" data-name="Rectangle 959" width="73.738" height="8.081" fill="url(#linear-gradient)"/>
    </g>
  </g>
  <g id="Group_1992" data-name="Group 1992" transform="translate(129.913 40.013)">
    <g id="Group_1991" data-name="Group 1991" transform="translate(0 0)">
      <rect id="Rectangle_960" data-name="Rectangle 960" width="74.748" height="8.081" transform="translate(0)" fill="url(#linear-gradient)"/>
    </g>
  </g>
  <g id="Group_1994" data-name="Group 1994" transform="translate(116.782 63.245)">
    <g id="Group_1993" data-name="Group 1993" transform="translate(0 0)">
      <rect id="Rectangle_961" data-name="Rectangle 961" width="72.728" height="5.051" fill="url(#linear-gradient)"/>
    </g>
  </g>
  <g id="Group_1996" data-name="Group 1996" transform="translate(0 14.59)">
    <g id="Group_1995" data-name="Group 1995">
      <path id="Path_3307" data-name="Path 3307" d="M116.433,48.858a11.771,11.771,0,0,0-15.39-6.347c-.1.043-.2.087-.306.132L71.16,57.986a18.037,18.037,0,0,0,1.792-7.748A18.238,18.238,0,1,0,40.217,61.181h-.152A25.031,25.031,0,0,0,16.814,77.374L7.076,110.937a11.683,11.683,0,1,0,21.938,8.036l3.814-12.14v52.791a18.184,18.184,0,0,0-23.67,27.522A16.8,16.8,0,0,0,0,202.052v30.567a3.647,3.647,0,0,0,3.646,3.648H40.124a3.647,3.647,0,0,0,3.648-3.646V202.052a16.765,16.765,0,0,0-6.509-13.2H64.871a16.763,16.763,0,0,0-6.509,13.2v30.567a3.647,3.647,0,0,0,3.646,3.648H98.486a3.647,3.647,0,0,0,3.648-3.646V202.052a16.8,16.8,0,0,0-9.159-14.906A18.222,18.222,0,0,0,76.6,156.252V81.634l33.486-17.387A11.771,11.771,0,0,0,116.433,48.858ZM54.714,39.3A10.943,10.943,0,1,1,43.771,50.238,10.943,10.943,0,0,1,54.714,39.3ZM21.886,163.179a10.943,10.943,0,1,1-10.943,10.943A10.943,10.943,0,0,1,21.886,163.179Zm14.59,65.792H7.3V202.052a9.57,9.57,0,0,1,9.559-9.557H26.917a9.571,9.571,0,0,1,9.559,9.557Zm58.362-26.919v26.919H65.657V202.052a9.57,9.57,0,0,1,9.559-9.557H85.279A9.57,9.57,0,0,1,94.838,202.052Zm-14.59-38.873A10.943,10.943,0,1,1,69.3,174.121,10.954,10.954,0,0,1,80.248,163.179ZM109.758,54.943a4.691,4.691,0,0,1-2.754,2.7L71.273,76.181A3.649,3.649,0,0,0,69.3,79.419v80.205a17.992,17.992,0,0,0-5.676,21.928H58.362V119.543h-7.3v62.009H38.5a18.069,18.069,0,0,0,1.606-7.3h.014V83.067A3.648,3.648,0,0,0,33,81.973L22.1,116.632a4.386,4.386,0,0,1-6.084,2.426,4.477,4.477,0,0,1-2.037-5.792L23.72,79.7A17.623,17.623,0,0,1,40.065,68.476H65.892a3.633,3.633,0,0,0,1.68-.409l36.254-18.818a4.49,4.49,0,0,1,5.74,2.127A4.438,4.438,0,0,1,109.758,54.943Z" transform="translate(0 -32)" fill="url(#linear-gradient)"/>
    </g>
  </g>
  <g id="Group_1998" data-name="Group 1998" transform="translate(116.724 138.435)">
    <g id="Group_1997" data-name="Group 1997">
      <path id="Path_3308" data-name="Path 3308" d="M290.613,334.92a18.238,18.238,0,1,0-25.79-.336q.166.17.336.336A16.805,16.805,0,0,0,256,349.826v30.566a3.647,3.647,0,0,0,3.646,3.648h36.478a3.647,3.647,0,0,0,3.648-3.646V349.826A16.8,16.8,0,0,0,290.613,334.92Zm-12.727-23.968A10.943,10.943,0,1,1,266.943,321.9,10.943,10.943,0,0,1,277.886,310.952Zm14.59,65.792H263.3V349.826a9.57,9.57,0,0,1,9.559-9.557h10.063a9.571,9.571,0,0,1,9.559,9.557Z" transform="translate(-256 -303.618)" fill="url(#linear-gradient)"/>
    </g>
  </g>
  <g id="Group_2000" data-name="Group 2000" transform="translate(175.085 138.435)">
    <g id="Group_1999" data-name="Group 1999">
      <path id="Path_3309" data-name="Path 3309" d="M418.613,334.92a18.238,18.238,0,1,0-25.79-.336q.166.17.336.336A16.805,16.805,0,0,0,384,349.826v30.566a3.647,3.647,0,0,0,3.646,3.648h36.478a3.647,3.647,0,0,0,3.648-3.646V349.826A16.8,16.8,0,0,0,418.613,334.92Zm-12.727-23.968A10.943,10.943,0,1,1,394.943,321.9,10.943,10.943,0,0,1,405.886,310.952Zm14.59,65.792H391.3V349.826a9.57,9.57,0,0,1,9.559-9.557h10.063a9.571,9.571,0,0,1,9.559,9.557Z" transform="translate(-384 -303.618)" fill="url(#linear-gradient)"/>
    </g>
  </g>
</svg>
