<svg xmlns="http://www.w3.org/2000/svg" xmlns:xlink="http://www.w3.org/1999/xlink" width="760.827" height="548.565" viewBox="0 0 760.827 548.565">
  <defs>
    <clipPath id="clip-path">
      <path id="Path_2118" data-name="Path 2118" d="M398.259,385.826s-28.181,5.581-21.6,12.136,44.063,12.827,45.869,10.325S429.9,387.2,429.9,387.2l-26.023-11.753Z" transform="translate(-375.662 -375.444)" fill="#fff"/>
    </clipPath>
    <clipPath id="clip-path-2">
      <path id="Path_2123" data-name="Path 2123" d="M422.76,397.67s-23.579,16.409-14.925,19.778,45.511-5.914,46.162-8.93-1.7-22.276-1.7-22.276l-28.552-.337Z" transform="translate(-405.926 -385.905)" fill="#fff"/>
    </clipPath>
    <clipPath id="clip-path-3">
      <path id="Path_2144" data-name="Path 2144" d="M546.873,286.217c-2.6-38.215-4.35-47.72-8.816-53.311-4.43-5.544-20.772-7.969-32.281-8.42s-28.3,2.8-33.084,6.078-7.66,17.21-6.921,34.533c.641,15.005,3.8,30.954,3.672,37.9-.234,12.892-2.766,17.863-4.606,27.458,14.384,10.01,70.058,15.378,82.006,12.982C548.02,330.4,548.13,304.717,546.873,286.217Z" transform="translate(-464.839 -224.444)" fill="#fff"/>
    </clipPath>
    <clipPath id="clip-path-4">
      <path id="Path_2152" data-name="Path 2152" d="M480.853,217.847l19.606-2.835,2.144,16.159a4.2,4.2,0,0,1-.947,3.256,16.776,16.776,0,0,1-11.092,6.035c-6.014.7-6.774-2.055-6.689-3.774a20.727,20.727,0,0,0-.417-4.77Z" transform="translate(-480.853 -215.012)" fill="#ffc9b0"/>
    </clipPath>
  </defs>
  <g id="Group_1304" data-name="Group 1304" transform="translate(-108.624 -69.064)">
    <g id="Group_1240" data-name="Group 1240" transform="translate(108.624 85.356)">
      <path id="Path_2048" data-name="Path 2048" d="M869.009,391.458c-6.435,51.4-43.563,42.852-49.425,102.621-2.092,21.333,13.734,34.744,21.6,53.214,8.709,20.415,5.624,38.76-6.138,52.751H189.7c-14.267-6.425-27.879-13.26-39.728-21.469-16.312-11.278-29.222-25.179-35.805-44.238-5.942-17.222-10.521-33.835,5.09-46.9,8.474-7.1,17.3-12.582,24.966-19.165a59.75,59.75,0,0,0,14.727-17.881c28.132-53.965-7.956-101.523-21.209-155.522-1.278-5.247-2.449-10.547-3.382-15.865-2.431-13.544-3.562-27.285-2.119-40.67a88.422,88.422,0,0,1,11.316-35.53c9.841-16.917,35.334-41.9,62.728-37.136,20.583,3.587,33.536,23.324,52.122,30.462,23.421,8.994,49.405,1.8,66.951-11.421C359.477,159,381.345,110.117,439.669,114.6c19.776,1.517,33.126,17.132,50.466,24.288,23.838,9.85,47.353,9.778,70.134.2,26.2-11.028,44.174-31.514,69.9-43.239a176.22,176.22,0,0,1,27.161-9.761c20.695-5.6,43.325-7.585,64.668-3.266a127.751,127.751,0,0,1,12.88,3.266C806.234,108.047,809.591,180,806.234,232.5c-1.541,24.055-20.8,65.54-6.571,90.395S875.232,341.75,869.009,391.458Z" transform="translate(-108.624 -80.472)" fill="#b8e5ff" opacity="0.33"/>
      <g id="Group_1220" data-name="Group 1220" transform="translate(107.607 231.478)">
        <g id="Group_1214" data-name="Group 1214" transform="translate(12.086 261.599)">
          <path id="Path_2049" data-name="Path 2049" d="M199.216,452.233H193.2l-.762-26.495h15.206Z" transform="translate(-192.437 -425.738)" fill="#b8e5ff"/>
          <path id="Path_2050" data-name="Path 2050" d="M278.294,452.233h6.017l.762-26.495H269.867Z" transform="translate(-159.288 -425.738)" fill="#b8e5ff"/>
        </g>
        <rect id="Rectangle_870" data-name="Rectangle 870" width="141.596" height="260.342" transform="translate(4.181 4.297)" fill="#94d5ff"/>
        <g id="Group_1219" data-name="Group 1219" transform="translate(16.171 23.957)">
          <g id="Group_1215" data-name="Group 1215">
            <rect id="Rectangle_871" data-name="Rectangle 871" width="117.616" height="51.159" fill="#b8e5ff"/>
            <circle id="Ellipse_97" data-name="Ellipse 97" cx="7.825" cy="7.825" r="7.825" transform="translate(50.983 17.754)" fill="#94d5ff"/>
          </g>
          <g id="Group_1216" data-name="Group 1216" transform="translate(0 56.621)">
            <rect id="Rectangle_872" data-name="Rectangle 872" width="117.616" height="51.159" fill="#b8e5ff"/>
            <circle id="Ellipse_98" data-name="Ellipse 98" cx="7.825" cy="7.825" r="7.825" transform="translate(50.983 17.754)" fill="#94d5ff"/>
          </g>
          <g id="Group_1217" data-name="Group 1217" transform="translate(0 113.242)">
            <rect id="Rectangle_873" data-name="Rectangle 873" width="117.616" height="51.159" fill="#b8e5ff"/>
            <circle id="Ellipse_99" data-name="Ellipse 99" cx="7.825" cy="7.825" r="7.825" transform="translate(50.983 17.754)" fill="#94d5ff"/>
          </g>
          <g id="Group_1218" data-name="Group 1218" transform="translate(0 169.863)">
            <rect id="Rectangle_874" data-name="Rectangle 874" width="117.616" height="51.159" fill="#b8e5ff"/>
            <circle id="Ellipse_100" data-name="Ellipse 100" cx="7.825" cy="7.825" r="7.825" transform="translate(50.983 17.754)" fill="#94d5ff"/>
          </g>
        </g>
        <rect id="Rectangle_875" data-name="Rectangle 875" width="149.958" height="9.827" fill="#b8e5ff"/>
      </g>
      <g id="Group_1237" data-name="Group 1237" transform="translate(53.159 17.097)">
        <g id="Group_1229" data-name="Group 1229" transform="translate(84.79)">
          <g id="Group_1223" data-name="Group 1223" transform="translate(13.934 11.513)">
            <g id="Group_1221" data-name="Group 1221">
              <path id="Path_2051" data-name="Path 2051" d="M223.218,127.425c-1.7-4.693,1.848-10.748,6.475-13.791,3.089-2.031,6.669-3.336,8.577-6.009a18.043,18.043,0,0,1-3.455,9.97A29.544,29.544,0,0,1,223.218,127.425Z" transform="translate(-211.633 -97.458)" fill="#94d5ff"/>
              <path id="Path_2052" data-name="Path 2052" d="M226.559,129.957c.653-2.586-2.076-5.034-3.809-6.439A57.645,57.645,0,0,1,217.5,119.3a10.239,10.239,0,0,1,.311-13.81c-1.07.918.594,4.02,1.108,4.818,1.2,1.859,3.076,3.236,4.658,4.854C227.292,118.958,227.923,124.542,226.559,129.957Z" transform="translate(-214.977 -98.371)" fill="#b8e5ff"/>
              <path id="Path_2053" data-name="Path 2053" d="M224.093,126.684c-.853-2.366,1.608-5.23,3.178-6.9a65.593,65.593,0,0,0,4.743-5c2.952-3.907,2.535-10.362-1.44-13.2,1.112.7-.244,3.963-.677,4.821-1.008,2-2.721,3.653-4.129,5.492C222.461,116.226,222.308,121.724,224.093,126.684Z" transform="translate(-211.56 -100.042)" fill="#b8e5ff"/>
              <path id="Path_2054" data-name="Path 2054" d="M224.464,126.528c-.847-.2-1.671-1.325-2.077-1.922a9.363,9.363,0,0,1-1.451-3.767c-.558-3.35.46-6.632.607-9.863a18.363,18.363,0,0,0-.9-7.322,18.114,18.114,0,0,0-1.8-3.133,5.026,5.026,0,0,1,1.12.286c6.7,3.022,8.114,9.238,6.836,15.6a57.147,57.147,0,0,1-1.3,5.939C225.11,123.6,224.146,125.268,224.464,126.528Z" transform="translate(-213.322 -100.505)" fill="#94d5ff"/>
            </g>
            <g id="Group_1222" data-name="Group 1222" transform="translate(1.187 25.58)">
              <path id="Path_2055" data-name="Path 2055" d="M234.795,134.864h-13.81l-4.529-14.453h22.868Z" transform="translate(-215.531 -117.563)" fill="#b8e5ff"/>
              <path id="Path_2056" data-name="Path 2056" d="M234.343,131.982h-15.2l-.1-2.284h15.385Z" transform="translate(-214.42 -113.588)" fill="#94d5ff"/>
              <path id="Path_2057" data-name="Path 2057" d="M240,122.979H216.256l-.448-4.562h24.637Z" transform="translate(-215.808 -118.417)" fill="#94d5ff"/>
            </g>
          </g>
          <path id="Path_2058" data-name="Path 2058" d="M295.37,112.614l1.649,3.342a4.227,4.227,0,0,0,3.182,2.312l3.687.536a4.226,4.226,0,0,1,2.342,7.209l-2.668,2.6a4.222,4.222,0,0,0-1.215,3.74l.63,3.673a4.227,4.227,0,0,1-6.132,4.456l-3.3-1.735a4.228,4.228,0,0,0-3.933,0l-3.3,1.735a4.226,4.226,0,0,1-6.132-4.456l.63-3.673a4.226,4.226,0,0,0-1.215-3.74l-2.669-2.6a4.227,4.227,0,0,1,2.342-7.209l3.689-.536a4.227,4.227,0,0,0,3.182-2.312l1.649-3.342A4.226,4.226,0,0,1,295.37,112.614Z" transform="translate(-175.069 -84.817)" fill="#94d5ff"/>
          <g id="Group_1224" data-name="Group 1224" transform="translate(53.308)">
            <rect id="Rectangle_876" data-name="Rectangle 876" width="15.15" height="55.813" transform="translate(12.426)" fill="#94d5ff"/>
            <rect id="Rectangle_877" data-name="Rectangle 877" width="8.637" height="48.522" transform="translate(27.159 7.291)" fill="#50bcff"/>
            <rect id="Rectangle_878" data-name="Rectangle 878" width="12.724" height="36.214" transform="translate(0 19.598)" fill="#b8e5ff"/>
            <rect id="Rectangle_879" data-name="Rectangle 879" width="12.724" height="4.2" transform="translate(0 25.129)" fill="#94d5ff" opacity="0.68"/>
            <rect id="Rectangle_880" data-name="Rectangle 880" width="12.724" height="4.2" transform="translate(0 47.245)" fill="#94d5ff" opacity="0.68"/>
            <rect id="Rectangle_881" data-name="Rectangle 881" width="10.679" height="51.706" transform="translate(35.044 4.107)" fill="#94d5ff"/>
            <rect id="Rectangle_882" data-name="Rectangle 882" width="5.048" height="23.164" transform="translate(37.859 19.775)" fill="#b8e5ff"/>
          </g>
          <g id="Group_1228" data-name="Group 1228" transform="translate(0 55.267)">
            <g id="Group_1227" data-name="Group 1227" transform="translate(15.335 10.699)">
              <g id="Group_1225" data-name="Group 1225" transform="translate(89.059 0)">
                <rect id="Rectangle_883" data-name="Rectangle 883" width="8.933" height="21.695" transform="translate(14.747 23.68) rotate(180)" fill="#94d5ff"/>
                <rect id="Rectangle_884" data-name="Rectangle 884" width="20.56" height="6.239" transform="translate(20.56 6.239) rotate(180)" fill="#94d5ff"/>
              </g>
              <g id="Group_1226" data-name="Group 1226" transform="translate(0 0)">
                <rect id="Rectangle_885" data-name="Rectangle 885" width="8.933" height="21.695" transform="translate(14.747 23.68) rotate(180)" fill="#94d5ff"/>
                <rect id="Rectangle_886" data-name="Rectangle 886" width="20.56" height="6.239" transform="translate(20.56 6.239) rotate(180)" fill="#94d5ff"/>
              </g>
            </g>
            <rect id="Rectangle_887" data-name="Rectangle 887" width="140.29" height="11.727" transform="translate(140.29 11.727) rotate(180)" fill="#b8e5ff"/>
          </g>
        </g>
        <g id="Group_1236" data-name="Group 1236" transform="translate(0 112.259)">
          <g id="Group_1230" data-name="Group 1230" transform="translate(18.876)">
            <path id="Path_2059" data-name="Path 2059" d="M185.23,178.758h-9.107a.754.754,0,0,0-.717.52l-16.292,27.49a.945.945,0,0,0,.848,1.241h15.856a.753.753,0,0,0,.717-.52L186.079,180A.947.947,0,0,0,185.23,178.758Z" transform="translate(-159.064 -167.75)" fill="#94d5ff"/>
            <path id="Path_2060" data-name="Path 2060" d="M164.967,171.05h47.947l6.467,40.32H171.434Z" transform="translate(-156.538 -171.05)" fill="#50bcff"/>
            <path id="Path_2061" data-name="Path 2061" d="M166.142,171.05H214.09l6.467,40.32H172.609Z" transform="translate(-156.034 -171.05)" fill="#94d5ff"/>
            <path id="Path_2062" data-name="Path 2062" d="M169.21,173.657h40.38l5.273,32.873h-40.38Z" transform="translate(-154.721 -169.934)" fill="#fff"/>
            <path id="Path_2063" data-name="Path 2063" d="M173.949,178.076h28.867l3.249,20.253H177.2Z" transform="translate(-152.692 -168.042)" fill="#94d5ff"/>
          </g>
          <g id="Group_1231" data-name="Group 1231" transform="translate(91.081 12.981)">
            <path id="Path_2064" data-name="Path 2064" d="M236.5,193.578a13.407,13.407,0,0,1-7.2,11.9,1.081,1.081,0,0,1-.257.129,13.148,13.148,0,0,1-5.984,1.414,13.417,13.417,0,0,1-10.354-4.884,7.006,7.006,0,0,1-.557-.728,13.236,13.236,0,0,1-2.528-7.826,13.451,13.451,0,0,1,11.253-13.253c.214-.043.428-.071.643-.1a13.583,13.583,0,0,1,1.542-.086,13.438,13.438,0,0,1,13.3,11.525c.043.271.071.543.1.814C236.488,192.836,236.5,193.207,236.5,193.578Z" transform="translate(-209.625 -180.14)" fill="#94d5ff"/>
            <path id="Path_2065" data-name="Path 2065" d="M219.906,194.424a24.582,24.582,0,0,1-4.741,5.641,11.166,11.166,0,0,1-3.213,2.042,7,7,0,0,1-.557-.728,14.274,14.274,0,0,0,4.384-3.185,22.915,22.915,0,0,0,4.456-6.169,13.7,13.7,0,0,0,1.271-7.826,10.915,10.915,0,0,0-1.128-3.456,3.537,3.537,0,0,0-.257-.443c.214-.043.428-.071.643-.1.157.257.286.514.4.743C223.305,185.284,222.349,190.425,219.906,194.424Z" transform="translate(-208.867 -180.114)" fill="#b8e5ff"/>
            <path id="Path_2066" data-name="Path 2066" d="M230.637,189.024a15.2,15.2,0,0,0-1.657,1.385,18.515,18.515,0,0,0-5.5,11.611,1.083,1.083,0,0,1-.257.128,18.28,18.28,0,0,1,5.3-12.21,17.849,17.849,0,0,1,2.014-1.728C230.58,188.481,230.608,188.753,230.637,189.024Z" transform="translate(-203.803 -176.685)" fill="#b8e5ff"/>
          </g>
          <g id="Group_1235" data-name="Group 1235" transform="translate(0 39.213)">
            <g id="Group_1234" data-name="Group 1234" transform="translate(15.335 10.699)">
              <g id="Group_1232" data-name="Group 1232" transform="translate(89.059 0)">
                <rect id="Rectangle_888" data-name="Rectangle 888" width="8.933" height="21.694" transform="translate(14.747 23.68) rotate(180)" fill="#94d5ff"/>
                <rect id="Rectangle_889" data-name="Rectangle 889" width="20.56" height="6.239" transform="translate(20.56 6.239) rotate(180)" fill="#94d5ff"/>
              </g>
              <g id="Group_1233" data-name="Group 1233" transform="translate(0 0)">
                <rect id="Rectangle_890" data-name="Rectangle 890" width="8.933" height="21.694" transform="translate(14.747 23.68) rotate(180)" fill="#94d5ff"/>
                <rect id="Rectangle_891" data-name="Rectangle 891" width="20.56" height="6.239" transform="translate(20.56 6.239) rotate(180)" fill="#94d5ff"/>
              </g>
            </g>
            <rect id="Rectangle_892" data-name="Rectangle 892" width="140.29" height="11.727" transform="translate(140.29 11.727) rotate(180)" fill="#b8e5ff"/>
          </g>
        </g>
      </g>
      <g id="Group_1239" data-name="Group 1239" transform="translate(622.416 394.038)">
        <ellipse id="Ellipse_101" data-name="Ellipse 101" cx="33.414" cy="31.737" rx="33.414" ry="31.737" transform="translate(2.156)" fill="#94d5ff"/>
        <path id="Path_2067" data-name="Path 2067" d="M611.405,381.547H546.973l3.2,89.6H608.2Z" transform="translate(-543.38 -345.618)" fill="#b8e5ff"/>
        <rect id="Rectangle_893" data-name="Rectangle 893" width="73.056" height="11.497" transform="translate(0 30.42)" fill="#94d5ff"/>
        <g id="Group_1238" data-name="Group 1238" transform="translate(20.546 3.273)">
          <path id="Path_2068" data-name="Path 2068" d="M564.368,362.267a70.33,70.33,0,0,0-4.126,12.8,77.146,77.146,0,0,0-1.4,10.759h48.387a31.694,31.694,0,0,0-18.583-27.147c-4,.9-8.05,1.629-12.093,2.285A94.842,94.842,0,0,1,564.368,362.267Z" transform="translate(-558.844 -358.681)" fill="#b8e5ff"/>
        </g>
      </g>
    </g>
    <g id="Group_1251" data-name="Group 1251" transform="translate(424.811 69.064)">
      <rect id="Rectangle_894" data-name="Rectangle 894" width="217.54" height="143.914" fill="#ffd245"/>
      <path id="Path_2069" data-name="Path 2069" d="M358.781,168.328c-.109.534.534,35.083.534,35.083l18.607-34.906Z" transform="translate(-317.723 -26.568)" fill="#ffd245"/>
      <g id="Group_1250" data-name="Group 1250" transform="translate(5.536 6.294)">
        <rect id="Rectangle_895" data-name="Rectangle 895" width="206.468" height="131.325" fill="#fff"/>
        <g id="Group_1242" data-name="Group 1242" transform="translate(27.463 0.004)">
          <path id="Rectangle_896" data-name="Rectangle 896" d="M0,0H179a0,0,0,0,1,0,0V107.577a0,0,0,0,1,0,0H2.957A2.957,2.957,0,0,1,0,104.619V0A0,0,0,0,1,0,0Z" fill="#50bcff" opacity="0.4"/>
          <path id="Rectangle_897" data-name="Rectangle 897" d="M0,0H167.129a0,0,0,0,1,0,0V98.96a0,0,0,0,1,0,0H1.716A1.716,1.716,0,0,1,0,97.243V0A0,0,0,0,1,0,0Z" transform="translate(11.874)" fill="#fff" opacity="0.83"/>
          <g id="Group_1241" data-name="Group 1241" transform="translate(49.681 5.842)" opacity="0.36">
            <path id="Path_2070" data-name="Path 2070" d="M483.025,93.081c-2.025-1.785-6.047-1.225-8.71-1.285-8.015-.183-16.03-.277-24.048-.233a.786.786,0,0,0-.845.668q-.1,8.586.586,17.147a76.823,76.823,0,0,0-11.085-11.438c-.234-.19-.7.059-.486.3,4.031,4.493,8.206,8.851,11.8,13.6.358.473,1.43.354,1.384-.286-.446-6.2-.647-12.409-.537-18.617,6.358.05,12.719.114,19.075.231,3.142.059,6.334,0,9.464.22,3.52.241,2.752,3,3.61,5a.558.558,0,0,0,.987.014A4.745,4.745,0,0,0,483.025,93.081Z" transform="translate(-366.319 -71.576)" fill="#004dbe"/>
            <path id="Path_2071" data-name="Path 2071" d="M476.2,102.171c-.981.934-2.219,3.04-4.1,2.569-1.083-.27-1.367-1.545-1.714-2.3q-.585-1.264-1.16-2.533a.764.764,0,0,0-1.257-.154,18.834,18.834,0,0,1-1.814,2.354c-.487.533-1.709,2.069-2.715,1.727-.794-.271-1.1-1.54-1.2-2.275a5.276,5.276,0,0,0,.615-3.356c-.08-.471-1.048-.6-1.291-.159a5.8,5.8,0,0,0-.743,3.343,9.865,9.865,0,0,1-4.3,3.846c-1.965.627-3.173-.963-3.642-2.3-.258-.738-.891-3.466.434-3.595.407-.04.291-.541-.08-.564l-.71-.043a.436.436,0,0,0-.364.164,5.32,5.32,0,0,0-.22,5.07,4.161,4.161,0,0,0,4.227,2.529c2.064-.244,3.647-1.785,4.808-3.082.093-.1.16-.217.249-.321a3.163,3.163,0,0,0,1.4,1.749c2.234,1.124,4.517-1.591,5.8-3.422.4.918.8,1.838,1.255,2.738a2.94,2.94,0,0,0,2.324,1.761,4.307,4.307,0,0,0,4.767-3.457A.347.347,0,0,0,476.2,102.171Z" transform="translate(-360.746 -68.913)" fill="#004dbe"/>
            <path id="Path_2072" data-name="Path 2072" d="M479.121,91.036a1.919,1.919,0,0,0-1.2-.346,5.26,5.26,0,0,1-1.272-.228c-.587-.194-1.175-.626-1.245-1.171-.034-.534-1.034-.563-1.022-.017,0,.039.02.073.023.111h-.007a4.474,4.474,0,0,1-.079,2.164,3.008,3.008,0,0,1-.548,1c-.2.241-.653.705-1.044.707-.373,0-.453-.5-.494-.725a11.394,11.394,0,0,1-.153-1.541,13.766,13.766,0,0,1,.218-3.052c.036-.2-.38-.253-.427-.054a14.2,14.2,0,0,0-.377,2.875,13.558,13.558,0,0,0,.04,1.447,2.736,2.736,0,0,0,.221,1.055,1.065,1.065,0,0,0,.757.581,1.724,1.724,0,0,0,1.277-.387,3.47,3.47,0,0,0,1.294-1.715,5.4,5.4,0,0,0,.214-.9,3.378,3.378,0,0,0,.61.356,5.578,5.578,0,0,0,1.6.417,2.187,2.187,0,0,0,1.615-.189A.239.239,0,0,0,479.121,91.036Z" transform="translate(-352.148 -73.201)" fill="#004dbe"/>
            <path id="Path_2073" data-name="Path 2073" d="M442.484,124.5a1.907,1.907,0,0,1-2.062.2,3.427,3.427,0,0,1-1.39-1.922.764.764,0,0,0-1.255-.154l-1.914,2.292c-.284.341-1.694,2.281-1.9,1.1a14.163,14.163,0,0,1,.554-5.6c.168-.664-1.067-.968-1.238-.3a10.568,10.568,0,0,1-2.371,4.416c-.893,1-2.9,3.079-4.67,2.716-1.05-.214-1.222-1.284-1.374-2.026a10.428,10.428,0,0,1-.178-2.729,11.169,11.169,0,0,1,1.764-5.271c.274-.437-.511-.838-.8-.4A12.129,12.129,0,0,0,423.588,123c-.066,1.564-.12,4.427,2.031,5.14s4.387-1.112,5.634-2.311a12.816,12.816,0,0,0,1.367-1.574v.014c-.049.9-.361,2.466.68,3.079a2.287,2.287,0,0,0,2.723-.616c.79-.827,1.492-1.718,2.2-2.6a3.493,3.493,0,0,0,2.145,1.8c1.217.324,2.586-.053,2.928-1.132C443.422,124.388,442.772,124.164,442.484,124.5Z" transform="translate(-372.662 -60.838)" fill="#004dbe"/>
            <path id="Path_2074" data-name="Path 2074" d="M448.443,125.683a4.188,4.188,0,0,0-.93-.83q-.535-.437-1.07-.877c-.133-.11-.27-.216-.4-.324.1-.237.213-.47.307-.708a11.974,11.974,0,0,0,.935-4.347c0-.358-.638-.363-.675-.01a11.925,11.925,0,0,1-1.39,4.164c-.029.056-.063.109-.091.164-.263-.21-.518-.426-.784-.631l-4.287-3.317c-.417-.324-1.032.157-.643.508l4.017,3.625c.35.317.714.623,1.074.931-.117.206-.228.416-.347.621a16.539,16.539,0,0,0-1.114,2.132c-.233.611.881,1.038,1.264.461a16.811,16.811,0,0,0,1.105-2.135c.033-.071.058-.144.091-.214l.943.8a3.348,3.348,0,0,0,1.17.834C448.236,126.707,448.706,126.117,448.443,125.683Z" transform="translate(-365.931 -60.115)" fill="#004dbe"/>
            <path id="Path_2075" data-name="Path 2075" d="M479.649,119.482a.359.359,0,0,0-.631.13,3.407,3.407,0,0,1-2.5,2.865,2.64,2.64,0,0,1-3.243-2.385c.031-.761-1.42-.974-1.641-.209-.366,1.258-.951,3.326-2.886,3.44-2.766.164-3.176-2.748-2.982-4.363.078-.653-1.22-.82-1.4-.177a6.431,6.431,0,0,1-4.069,4.45c-3.262,1.031-3.664-2.364-3.529-4.189.038-.606-1.162-.783-1.31-.167-.01.046-.011.1-.021.146h-.006c0,.014,0,.033,0,.047a5.864,5.864,0,0,0-.1,1.207,3.43,3.43,0,0,1-1.447,2.346c-.334.193-.948.371-1.2.193-.224-.157-.139-.82-.123-1.105a4.3,4.3,0,0,1,.86-2.265c.193-.273-.284-.5-.5-.253-.79.9-2.615,4.658-.026,4.847,1.118.083,2.115-.97,2.668-1.642.049-.06.079-.124.124-.184a3.485,3.485,0,0,0,3.749,2.451,6.78,6.78,0,0,0,5.034-3.013,4.052,4.052,0,0,0,3.777,3.01,4.142,4.142,0,0,0,4.143-2.364,4.644,4.644,0,0,0,4.233,1.632C479.031,123.595,481,121.346,479.649,119.482Z" transform="translate(-360.682 -60.092)" fill="#004dbe"/>
            <path id="Path_2076" data-name="Path 2076" d="M430.331,77.932a.64.64,0,0,0-.867-.306c-10.4,5.073-20.867,10.118-31.031,15.518a6.179,6.179,0,0,0-1.167-.74.4.4,0,0,0-.483.1.583.583,0,0,0-.009.738c.117.146.378.06.341-.111l.006-.02q.257.231.518.457c-.943.5-1.9.991-2.835,1.5-.253.139-.036.473.234.343,1.011-.483,2.012-.983,3.022-1.471a10.364,10.364,0,0,1,1.125,1.128,9.946,9.946,0,0,1,1.584,2.626,9.541,9.541,0,0,1,.583,1.931c-4.3-.271-8.579-.663-12.877-1.111a.454.454,0,1,0-.169.893c4.307.661,8.689,1.087,13.094,1.348a2.468,2.468,0,0,1-.964,1.8.194.194,0,0,0,.1.346c1.2.228,1.741-.835,1.887-1.634a3.985,3.985,0,0,0,.034-.453,185.8,185.8,0,0,0,30.434-1.021.558.558,0,0,0,.48-.5A90.121,90.121,0,0,0,430.331,77.932ZM410.262,99.974c-2.632-.021-5.244-.137-7.852-.288a9.461,9.461,0,0,0-.448-1.679,10.548,10.548,0,0,0-1.786-3.128,12.539,12.539,0,0,0-1.267-1.352c10.135-4.9,20.178-9.931,30.41-14.7a101.776,101.776,0,0,1,2.753,20A182.187,182.187,0,0,1,410.262,99.974Z" transform="translate(-387.922 -77.564)" fill="#004dbe"/>
            <path id="Path_2077" data-name="Path 2077" d="M430.62,82.487a7.447,7.447,0,0,0-1.961.564c-.644.226-1.275.476-1.911.72a36.5,36.5,0,0,0-3.9,1.575c-.189.1-.084.368.153.313a36.624,36.624,0,0,0,3.952-1.34c.644-.23,1.292-.451,1.927-.7a7.266,7.266,0,0,0,1.875-.855A.16.16,0,0,0,430.62,82.487Z" transform="translate(-373.012 -75.457)" fill="#004dbe"/>
            <path id="Path_2078" data-name="Path 2078" d="M434.051,80.995a2.626,2.626,0,0,0-1.517-.081l-1.948.2-1.948.2c-.324.034-.647.064-.967.121a3.377,3.377,0,0,0-1.011.236c-.217.123-.183.363.06.443a2.5,2.5,0,0,0,.774.05c.281,0,.557,0,.837-.024l1.677-.129,1.677-.129c.514-.039,1.054-.124,1.569-.114h.017a4.432,4.432,0,0,1-.257.5,10.132,10.132,0,0,1-.687,1.04,10.757,10.757,0,0,1-.788.933c-.147.156-.307.3-.448.463a2.711,2.711,0,0,0-.341.551c-.154.287.3.5.584.383a3.417,3.417,0,0,0,1.284-.971,10.752,10.752,0,0,0,.958-1.194,10.36,10.36,0,0,0,.747-1.267A.837.837,0,0,0,434.051,80.995Z" transform="translate(-371.399 -76.161)" fill="#004dbe"/>
            <path id="Path_2079" data-name="Path 2079" d="M459.158,79.969c-.5-.083-1.005-.133-1.5-.231-.547-.11-.981-.344-1.5-.49a2.086,2.086,0,0,0-1.678.21,8.8,8.8,0,0,0-1.322,1.294c-1.131,1.037-2.168-.146-2.686-1.042a.622.622,0,0,0-1.091.226c-.07.787-1.185,1.041-1.9.7a1.716,1.716,0,0,1-.99-1.555c-.016-.453-.73-.641-1.04-.248a12.212,12.212,0,0,1-2.529,2.459,1.213,1.213,0,0,1-1.868-.561,2.145,2.145,0,0,1,.051-1.787c.193-.557-.781-.773-1.033-.251a4.715,4.715,0,0,1-1.881,2.486c-.68.461-1.962.8-2.493.031a3.338,3.338,0,0,1-.353-2.078c.01-.073-.123-.084-.148-.02-.34.845-.838,1.577-.318,2.475a2.158,2.158,0,0,0,2.022.991,4.545,4.545,0,0,0,2.992-1.631,2.276,2.276,0,0,0,1.9,1.692c1.537.263,2.962-1.2,3.916-2.4a2.656,2.656,0,0,0,4.354.737c.93,1.047,2.329,1.832,3.75.69.716-.576,1.083-1.757,2.249-1.355a3.783,3.783,0,0,0,3.169.151A.256.256,0,0,0,459.158,79.969Z" transform="translate(-367.917 -77.208)" fill="#004dbe"/>
            <path id="Path_2080" data-name="Path 2080" d="M458.793,84.128c-.921-.221-1.934-.054-2.893-.239a28.022,28.022,0,0,0-2.991-.543,5.284,5.284,0,0,0-2.718.456c-.518.244-2.551,1.575-2.843.463-.1-.387-.694-.484-1.028-.24a5.3,5.3,0,0,1-3.425,1.36c-1.188-.089-2.285-1.261-1.1-2.016.456-.288-.134-.951-.6-.668a1.8,1.8,0,0,0,.306,3.285c1.764.843,3.616.1,5.074-.823a2.53,2.53,0,0,0,1.818.536c1.375-.094,2.256-1.175,3.626-1.285a15.937,15.937,0,0,1,3.872.587c1.03.173,2.418.374,3.106-.434C459.132,84.406,459,84.179,458.793,84.128Z" transform="translate(-365.516 -75.395)" fill="#004dbe"/>
          </g>
        </g>
        <g id="Group_1247" data-name="Group 1247" transform="translate(39.9 11.373)">
          <path id="Path_2081" data-name="Path 2081" d="M461.937,179.9H361.843c1.448-7.519,6.806-32.147,14.947-37.665a58.781,58.781,0,0,1,25.937-10c.735-.116,1.471-.184,2.231-.253,1.011-.116,2.024-.207,3.1-.253h.023a80.564,80.564,0,0,1,9.957.091h.139q1.069.069,2.138.207c.667.046,1.334.137,2,.23,17.729,2.461,33.089,12.991,36.078,27.845.46,2.276.851,4.323,1.2,6.164v.023C460.993,173.58,461.638,177.81,461.937,179.9Z" transform="translate(-361.843 -59.951)" fill="#004dbe"/>
          <path id="Path_2082" data-name="Path 2082" d="M417.038,179.735H391.882c-.665-6.692-2.391-28.031-2.6-31.755-.437-7.819-.114-11.935,1.541-14.027a4.651,4.651,0,0,1,2.461-1.587,14.509,14.509,0,0,1,4.116-.344c1.311.023,2.8.137,4.507.253.873.069,1.678.137,2.414.23a26.688,26.688,0,0,1,4.323.736,9.091,9.091,0,0,1,3.036,1.334c2.024,1.425,2.483,3.679,3.035,7.266C415.59,147.7,416.946,172.675,417.038,179.735Z" transform="translate(-350.171 -59.783)" fill="#50bcff"/>
          <rect id="Rectangle_898" data-name="Rectangle 898" width="18.128" height="16.169" transform="translate(41.612 58.172)" fill="#e79f8b"/>
          <g id="Group_1243" data-name="Group 1243" transform="translate(100.209 42.109)">
            <path id="Path_2083" data-name="Path 2083" d="M433.353,129.831c-.337-5.9.574-12,3.525-17.116.675-1.174,2.211-2.4,3.183-1.46a2.334,2.334,0,0,1,.5,1.662,56.762,56.762,0,0,1-1.272,13.567,3.6,3.6,0,0,1,4.239-1.789,3.9,3.9,0,0,1,2.572,3.894c.421-1.7,3.019-1.9,4.269-.684s1.457,3.135,1.474,4.881A1.836,1.836,0,0,1,454.6,133a4.687,4.687,0,0,1,.751,3.045,17.842,17.842,0,0,1-2.431,9.361,10.971,10.971,0,0,1-7.876,5.244C434.77,151.716,433.754,136.864,433.353,129.831Z" transform="translate(-431.467 -110.921)" fill="#e79f8b"/>
            <path id="Path_2084" data-name="Path 2084" d="M438.225,140.293s-8.563-4.838-5.584-10.237,11.726-2.606,9.864.558-5.955,2.606-5.955,2.606Z" transform="translate(-432.012 -104.033)" fill="#e79f8b"/>
          </g>
          <path id="Path_2085" data-name="Path 2085" d="M391.269,130.448c.963-.1,5.651,3.482,10.694,3.223s7.559-2.579,8.307-3.352,4.88,7.478,4.256,8.38-2.471,4.43-4.31,3.786-7.035-6.856-7.035-6.856-4.713,7.513-6.476,7.513-7.438-2.638-7.739-6.764S390.037,130.576,391.269,130.448Z" transform="translate(-350.25 -60.529)" fill="#fff"/>
          <path id="Path_2086" data-name="Path 2086" d="M456.268,136.49l-.368,41.574H428.583l2.437-13.613v-.023l5.128-28.513,2.736.069h.023l.253.023h.414l14.073.414Z" transform="translate(-333.271 -58.112)" fill="#004dbe"/>
          <g id="Group_1246" data-name="Group 1246" transform="translate(17.359)">
            <path id="Path_2087" data-name="Path 2087" d="M412.893,91.882a1.3,1.3,0,0,0-1.755.283,5.772,5.772,0,0,0-1.29,2.154,16.755,16.755,0,0,0-.041,7.439,20.155,20.155,0,0,0,1.972,6.119c.043.077.083.154.124.231a11.466,11.466,0,0,0,1.742,2.338,1.1,1.1,0,0,0,.431.094,2.113,2.113,0,0,0,1.29-.673c2.448-2.342,1.9-6.074,1.437-8.777a22.255,22.255,0,0,0-3.456-8.73A1.873,1.873,0,0,0,412.893,91.882Z" transform="translate(-358.841 -77.061)" fill="#004dbe"/>
            <path id="Path_2088" data-name="Path 2088" d="M428.571,114.914c0,15.518-2.456,28.839-18.727,29.877-20.98,1.34-29.532-14.36-29.532-29.877s10.8-28.1,24.129-28.1S428.571,99.4,428.571,114.914Z" transform="translate(-371.295 -79.131)" fill="#e79f8b"/>
            <path id="Path_2089" data-name="Path 2089" d="M396.182,117.035c.608-1.043,3.877-.788,7.7-1.22,4.326-.49,7.342-1.317,8.1-.9,1.422.791-1.512,7.1-7.1,7.633C400.891,122.927,395.075,118.931,396.182,117.035Z" transform="translate(-364.56 -67.15)" fill="#fff"/>
            <path id="Path_2090" data-name="Path 2090" d="M401.575,97.243a101.025,101.025,0,0,0,13.644,7.41c5.458,2.229,11.423,2.968,16.506-.657,1.172-.835,2.63-2.593.847-3.523-1.168-.608-2.728-.46-4-.574a5.824,5.824,0,0,0,4.119-1.091A3.756,3.756,0,0,0,434.1,95a4.97,4.97,0,0,0-1.9-2.439A21.287,21.287,0,0,0,423.277,89c-.554-.11-1.114-.2-1.671-.293a2.772,2.772,0,0,0,.725-2.026,2.87,2.87,0,0,0-1.524-1.722c-5.428-3.317-12.275-3.515-18.75-3.522-4.563-.006-9.326.077-13.4,2.109-1.894.945-3.847,2.528-4.052,4.558-4.417.34-8.214,3.736-9.714,7.755s-.983,8.5.534,12.477,3.377,8.479,4.827,9.318,1.528-.153,3.285.687,1.876,3.347,3.206,3.436,1.3-3.476,1.661-5.131c.731-3.36.7-6.822,1.564-10.158a21.465,21.465,0,0,1,5.73-9.745,5.5,5.5,0,0,1,1.509-1.142,10.778,10.778,0,0,1,1.852.358,10.053,10.053,0,0,1,2.345,1.185Z" transform="translate(-373.998 -81.435)" fill="#004dbe"/>
            <g id="Group_1244" data-name="Group 1244" transform="translate(0.997 32.739)">
              <path id="Path_2091" data-name="Path 2091" d="M382.9,108.374c-1.742-3.17-4.36-5.311-6.909-3.12a4.764,4.764,0,0,0-1.3,3.427,11.513,11.513,0,0,0,.733,3.994c1.112,3.2,3.088,6.025,5.55,7.208a2.436,2.436,0,0,0,2.792-.094c1.057-.988,1.257-3.009,1.17-4.684A16.778,16.778,0,0,0,382.9,108.374Z" transform="translate(-374.696 -104.36)" fill="#e79f8b"/>
              <path id="Path_2092" data-name="Path 2092" d="M376.1,107.528a1.337,1.337,0,0,1,.834-.644,2.321,2.321,0,0,1,2.142,1.034,13.388,13.388,0,0,1,1.58,2.571,11.679,11.679,0,0,1,1.03,3.1c.04.217-.224.3-.277.083a13.768,13.768,0,0,0-2.293-4.744,6.076,6.076,0,0,0-.481-.578,6.641,6.641,0,0,0-.06,2.719,10.607,10.607,0,0,0,1.087,2.966c.049.1-.031.214-.1.136a6.746,6.746,0,0,1-1.211-6.1,1.752,1.752,0,0,0-.955-.456,1.349,1.349,0,0,0-1.323,1.122c-.029.136-.206.091-.208-.053A2.133,2.133,0,0,1,376.1,107.528Z" transform="translate(-374.197 -103.295)" fill="#c72c19"/>
            </g>
            <g id="Group_1245" data-name="Group 1245" transform="translate(8.823 27.233)">
              <path id="Path_2093" data-name="Path 2093" d="M431.113,102.442a3.248,3.248,0,0,0-3.048-1.937c-1.36.037-2.731.121-4.113.183-2.375.106-4.811.124-7.251.366-1.757.174-3.163.975-3.265,2.992,0,.026,0,.051,0,.077l-.014-.009a3.263,3.263,0,0,0-2.372-.239,5.1,5.1,0,0,0-2.124,1.23l-.017.017c-.043-.39-.076-.783-.133-1.167-.3-2.035-1.838-2.772-3.717-2.856-2.682-.12-5.428-.006-8.2.014-1.657.013-3.33,0-5.02.037a3.985,3.985,0,0,0-3.669,2.392,5.822,5.822,0,0,0-.315,2.638l-.1.013c-.434.054-.867.126-1.3.189q-1.17.171-2.341.336c-.777.109-1.548.261-2.322.4a4.948,4.948,0,0,0-1.2.286c-.241.11-.54.42-.351.71.373.576,1.462.318,2.044.273.758-.06,1.515-.116,2.269-.21s1.511-.193,2.266-.293c.381-.05.765-.094,1.145-.153l.107-.017a44.936,44.936,0,0,0,1.868,7.976,3.66,3.66,0,0,0,1.962,2.481,8.96,8.96,0,0,0,3.31.257q2.108-.041,4.18-.237a37.52,37.52,0,0,0,7.425-1.267c2.241-.693,2.483-2.691,2.438-4.764-.04-1.8-.071-3.652-.2-5.48a6.89,6.89,0,0,1,2.112-1.168,2.308,2.308,0,0,1,.8-.117.832.832,0,0,1,.288.037c.054.014.107.033.161.049l.079.029c-.05-.027-.051-.027,0,0a1.994,1.994,0,0,1,.317.193l.036.029c.051.049.1.1.146.151.011.011.1.136.064.076s.056.107.066.123c.03.05.051.1.013.019a2.158,2.158,0,0,0,.171.35c.03.044.079.053.113.09.039,1.875.186,3.763.319,5.6.147,2.038.564,3.96,2.751,4.313a31.435,31.435,0,0,0,6.748.159q1.772-.1,3.509-.344a6.7,6.7,0,0,0,2.628-.654,3.473,3.473,0,0,0,1.332-2.415,47.825,47.825,0,0,0,.847-7.795A6.537,6.537,0,0,0,431.113,102.442Z" transform="translate(-380.176 -100.504)"/>
              <path id="Path_2094" data-name="Path 2094" d="M404.866,112.92a1.842,1.842,0,0,1-1.651,1.805,44.79,44.79,0,0,1-12.315,1.22c-1.428-.071-1.779-.74-2.246-1.969a24.871,24.871,0,0,1-1-3.329,20.626,20.626,0,0,1-.905-5.517c.123-2.481,1.2-2.862,3.54-2.873l3.34-.016c2.191-.01,4.353,0,6.487-.037a20.173,20.173,0,0,1,2.645.007c1.017.12,1.427.471,1.561,1.511.27,2.1.383,4.227.487,6.334A19.374,19.374,0,0,1,404.866,112.92Z" transform="translate(-377.365 -99.795)" fill="#fff"/>
              <path id="Path_2095" data-name="Path 2095" d="M419.5,108.951a24.988,24.988,0,0,1-.516,3.033c-.27,1.14-.5,1.772-1.625,2.005a36.12,36.12,0,0,1-10.725.426,1.674,1.674,0,0,1-1.709-1.531,19.114,19.114,0,0,1-.209-2.788c-.093-2.056-.178-4.139-.113-6.2a1.367,1.367,0,0,1,1.331-1.564,17.708,17.708,0,0,1,2.426-.161c1.905-.089,3.785-.216,5.642-.324l2.745-.161c1.865-.11,2.733.171,3.022,2.345A20.506,20.506,0,0,1,419.5,108.951Z" transform="translate(-369.728 -100.006)" fill="#fff"/>
            </g>
          </g>
        </g>
        <g id="Group_1249" data-name="Group 1249" transform="translate(8.381 113.177)">
          <g id="Group_1248" data-name="Group 1248">
            <path id="Path_2096" data-name="Path 2096" d="M352.6,159.133a6.412,6.412,0,1,1-6.412-6.412A6.412,6.412,0,0,1,352.6,159.133Z" transform="translate(-339.772 -152.721)" fill="#d44459"/>
          </g>
        </g>
      </g>
    </g>
    <g id="Group_1254" data-name="Group 1254" transform="translate(328.643 477.855)">
      <path id="Path_2097" data-name="Path 2097" d="M301.642,358.527c1.751,0,2.973.274,3.98,1.848a7.009,7.009,0,0,1,.97,3.143c.086.92-.206,2.145.568,2.7,1.2.857,3.452.875,4.807.688,2.435-.337,3.6-1.572,2.661-3.914a9.89,9.89,0,0,0-4.866-5.078,13.775,13.775,0,0,0-5.335-1.577,2.87,2.87,0,0,0-2.074.735C302.046,357.326,301.171,358.127,301.642,358.527Z" transform="translate(-246.07 -354.874)" fill="#004dbe"/>
      <path id="Path_2098" data-name="Path 2098" d="M296.613,376.6c-3.906-1.28-10.811,13.094-12.482,15.472a101.952,101.952,0,0,0-14.17,30.6c-4.219,14.642-8.6,29.395-6.9,44.794,1.1,9.973,7.408,17.234,18.147,16.1,5.094-.537,14.978-1.354,19.189-4.281,1.921-1.334,2.051-3.076.387-5.444-1.7-2.412-2.922-1.909-5.824-1.334-5.478,1.087-10.2,2.555-14.928-1.687-4.647-4.169-5.144-11.513-4.894-17.411a115.891,115.891,0,0,1,4.341-25.449c2.868-10.589,7.178-20.159,11.146-30.316,1.758-4.5,4.29-9.233,5.3-13.954.6-2.82-.043-5.058.96-7.68C296.413,375.944,295.83,375.887,296.613,376.6Z" transform="translate(-262.688 -346.465)" fill="#004dbe"/>
      <path id="Path_2099" data-name="Path 2099" d="M276.656,471.9a20.376,20.376,0,0,1-5.241-7.546c-2.69-6.412-3.08-13.664-2.865-20.53a171.515,171.515,0,0,1,2.618-22.731c1.048-6.294,2.3-12.557,3.949-18.724q.927-3.483,2.068-6.882a112.707,112.707,0,0,0-7.223,18.83c-4.219,14.642-8.6,29.395-6.9,44.794,1.1,9.973,7.408,17.235,18.147,16.1q.48-.051,1.014-.106A16.847,16.847,0,0,1,276.656,471.9Z" transform="translate(-262.688 -338.112)" fill="#50bcff" opacity="0.38"/>
      <g id="Group_1252" data-name="Group 1252" transform="translate(22.616 9.476)">
        <path id="Path_2100" data-name="Path 2100" d="M363.93,485.08c-2.616,2.535-22.256,5.634-40.467,6.561-3.8.18-7.506.281-11.006.261-8.633-.041-19.378.281-22.377-2.154-7.143-5.775-24.649-104.455,5.594-121.8,6.923-3.964,23.362-6.259,29.722-5.977.764.04,1.51.08,2.234.181,20,2.334,31.23,24.771,36.1,57.57C370.288,463.792,368.457,480.715,363.93,485.08Z" transform="translate(-278.523 -361.945)" fill="#ffd245"/>
        <path id="Path_2101" data-name="Path 2101" d="M323.465,491.638c-3.8.186-7.512.286-11.011.271-8.626-.043-19.379.271-22.378-2.156-7.141-5.784-24.649-104.452,5.6-121.8,3.07-1.757,8-3.185,13.1-4.213,2.514-.5,5.084-.914,7.469-1.2a61.99,61.99,0,0,1,9.154-.571c.771.043,1.514.086,2.242.186-7.74.743-13.967,6.241-16.909,15.638C301.986,405.737,310.826,457.449,323.465,491.638Z" transform="translate(-278.524 -361.946)" fill="#f59711" opacity="0.51"/>
        <path id="Path_2102" data-name="Path 2102" d="M312.683,362.36a29.625,29.625,0,0,0-7.7,5.941c-4.87,5.37-8.183,12.325-10.382,19.194a88.68,88.68,0,0,0-3.827,21.336c-.514,7.669.314,15.252.785,22.907.528,8.6,2.071,16.923,2.928,25.477.057.628-1.842,1.142-2.4.814-.643.157-1.328.157-1.414-.171-1.242-4.856-1.6-10.025-2.214-15-.586-4.884-1.043-9.8-1.314-14.71-.828-15.038-.328-30.69,5.113-44.914,2.628-6.869,6.4-14.01,12.01-18.894.314-.271.614-.528.943-.785C307.727,363.06,310.3,362.646,312.683,362.36Z" transform="translate(-274.967 -361.769)" fill="#f55e11" opacity="0.5"/>
      </g>
      <path id="Path_2103" data-name="Path 2103" d="M338.043,388.6a5.269,5.269,0,0,0-1.5-3.259c-1.057-.838-2.7-.791-3.98-.784q-5.99.039-12.529.646a39.676,39.676,0,0,0-5.981.753c-.438.11-2.651.066-3.367,1.321-.341.6-.137,3.145,0,5.33.156,2.464.326,4.569,1.457,4.98.486.007.918.193,1.385.221a11.222,11.222,0,0,0,1.657-.153q1.709-.163,3.38-.333,3.215-.328,6.289-.681,5.891-.673,11.3-1.408a2.292,2.292,0,0,0,2.074-1.332,4.679,4.679,0,0,0,.19-1.872A28.179,28.179,0,0,0,338.043,388.6Z" transform="translate(-242.221 -342.792)" fill="#004dbe"/>
      <path id="Path_2104" data-name="Path 2104" d="M295.886,369.353c-1.457.08-.228-8.332,1.034-10.03,2.079-2.792,5.763-3.637,9.054-3.984,3.8-.4,11.5,3.525,11.4,8.4-2.239-4.042-9.344-8.406-13.241-3.659-1.7,2.066.063,5.3-1.062,6.992C301.616,369.263,297.343,369.273,295.886,369.353Z" transform="translate(-248.758 -355.311)" fill="#50bcff"/>
      <g id="Group_1253" data-name="Group 1253" transform="translate(65.372 66.044)">
        <path id="Path_2105" data-name="Path 2105" d="M360.812,469.935c-2.294,1.731-22.3,5.071-35.536,5.332-4.75.1-8.633-.2-10.524-1.107-4.166-1.951-6.762-20.565-6.218-39.6.4-14.085,4.89-26.4,13.6-30.346a27.982,27.982,0,0,1,11.429-2.656,23.163,23.163,0,0,1,4.587.423c13,2.475,22.658,15.736,24.731,32.881C365.722,458.526,363.951,467.6,360.812,469.935Z" transform="translate(-308.463 -401.557)" fill="#50bcff"/>
        <path id="Path_2106" data-name="Path 2106" d="M338.153,401.981a13.776,13.776,0,0,0-9.738,5.9c-4.79,8.713-6.1,19.6-6.4,29.72-.363,11.672-.04,25.8,3.26,37.669-4.75.1-8.633-.2-10.524-1.107-4.166-1.951-6.762-20.565-6.218-39.6.4-14.085,4.89-26.4,13.6-30.346a27.982,27.982,0,0,1,11.429-2.656A23.163,23.163,0,0,1,338.153,401.981Z" transform="translate(-308.463 -401.557)" fill="#004dbe" opacity="0.54"/>
      </g>
      <path id="Path_2107" data-name="Path 2107" d="M291.377,428.137c2.365-.03,3.325,7.516,2.782,8.245s-3.539.981-4.3.454S289.014,428.167,291.377,428.137Z" transform="translate(-251.258 -324.134)" fill="#004dbe"/>
    </g>
    <g id="Group_1290" data-name="Group 1290" transform="translate(489.982 204.021)">
      <g id="Group_1256" data-name="Group 1256" transform="translate(50.715 72.151)">
        <g id="Group_1255" data-name="Group 1255" transform="translate(0 181.592)">
          <path id="Path_2108" data-name="Path 2108" d="M416.509,500.878h-5.335L429.2,341.242h14.844Z" transform="translate(-411.173 -341.242)"/>
          <path id="Path_2109" data-name="Path 2109" d="M547.533,500.878h5.335L534.842,341.242H520Z" transform="translate(-364.585 -341.242)"/>
          <path id="Path_2110" data-name="Path 2110" d="M521.439,500.878h5.335L508.748,341.242H493.9Z" transform="translate(-375.756 -341.242)"/>
          <path id="Path_2111" data-name="Path 2111" d="M441.229,500.878h-5.335l18.027-159.636h14.844Z" transform="translate(-400.59 -341.242)"/>
        </g>
        <path id="Path_2112" data-name="Path 2112" d="M579.086,214.086,550.915,377.561H484.954l28.171-163.474Z" transform="translate(-379.588 -214.086)" fill="#004dbe"/>
        <path id="Path_2113" data-name="Path 2113" d="M571.037,214.086,542.866,377.561H484.954l28.171-163.474Z" transform="translate(-379.588 -214.086)" fill="#004dbe" opacity="0.45" style="mix-blend-mode: multiply;isolation: isolate"/>
        <rect id="Rectangle_899" data-name="Rectangle 899" width="155.825" height="22.006" transform="translate(15.504 163.476)" fill="#004dbe"/>
        <rect id="Rectangle_900" data-name="Rectangle 900" width="55.945" height="22.006" transform="translate(15.504 163.476)" fill="#004dbe" opacity="0.45" style="mix-blend-mode: multiply;isolation: isolate"/>
      </g>
      <g id="Group_1289" data-name="Group 1289">
        <g id="Group_1258" data-name="Group 1258" transform="translate(0 302.587)">
          <path id="Path_2114" data-name="Path 2114" d="M398.259,385.826s-28.181,5.581-21.6,12.136,44.063,12.827,45.869,10.325S429.9,387.2,429.9,387.2l-26.023-11.753Z" transform="translate(-375.662 -375.444)" fill="#fff"/>
          <g id="Group_1257" data-name="Group 1257" clip-path="url(#clip-path)">
            <path id="Path_2115" data-name="Path 2115" d="M404.871,396.672c3.278-2.462,6.825-4.891,10.9-5.371.745-.087,1.652-.03,2.032.618a1.866,1.866,0,0,1,.157,1.128,12.7,12.7,0,0,1-2.648,5.921,20.666,20.666,0,0,1-4.531,4.871,9.88,9.88,0,0,1-6.222,2.055c-1.672-.089-5.59-1.435-5.471-3.649C399.187,400.279,403.444,397.744,404.871,396.672Z" transform="translate(-365.636 -368.669)" fill="#50bcff"/>
            <path id="Path_2116" data-name="Path 2116" d="M388.972,397.635c.143,2.016-.04,4.327-1.614,5.6-1.677,1.354-4.176.9-6.12-.036a13.426,13.426,0,0,1-6.311-6.031,10.253,10.253,0,0,1-.288-8.6,13.575,13.575,0,0,1,1.809-2.825,10.1,10.1,0,0,1,3.387-2.963c1.211-.577,3.229-.905,4.264.146.994,1.011,1.715,3.068,2.288,4.36A31.1,31.1,0,0,1,388.972,397.635Z" transform="translate(-376.447 -372.537)" fill="#50bcff"/>
            <path id="Path_2117" data-name="Path 2117" d="M393.163,403.641A60.5,60.5,0,0,0,409,404.988c2.752-.077,5.961-.62,6.749-3.348.607-2.1-.554-4.594-1.918-6.594a28.132,28.132,0,0,0-8.553-8.176,34.049,34.049,0,0,1-4.11-2.585,6.791,6.791,0,0,1-2.592-4.14,4.391,4.391,0,0,1,1.872-4.094,9.273,9.273,0,0,1,4.289-1.355,27.366,27.366,0,0,1,20.306,5.338c6.024,4.757,10,13.293,8.242,20.2a16.907,16.907,0,0,1-6.129,8.841,29.865,29.865,0,0,1-24.416,5.7,39.894,39.894,0,0,1-17.431-8.379c-2.454-2-8.249-5.764-10-8.527-2.645-4.174,4.06.691,5.411,1.515C384.25,401.536,389.356,402.733,393.163,403.641Z" transform="translate(-376.074 -375.859)" fill="#50bcff" opacity="0.24" style="mix-blend-mode: multiply;isolation: isolate"/>
          </g>
        </g>
        <g id="Group_1260" data-name="Group 1260" transform="translate(43.221 317.526)">
          <path id="Path_2119" data-name="Path 2119" d="M422.76,397.67s-23.579,16.409-14.925,19.778,45.511-5.914,46.162-8.93-1.7-22.276-1.7-22.276l-28.552-.337Z" transform="translate(-405.926 -385.905)" fill="#fff"/>
          <g id="Group_1259" data-name="Group 1259" transform="translate(0 0)" clip-path="url(#clip-path-2)">
            <path id="Path_2120" data-name="Path 2120" d="M434.285,403.7c2.015-3.569,4.29-7.216,7.828-9.288a2.008,2.008,0,0,1,2.111-.249,1.875,1.875,0,0,1,.6.971,12.7,12.7,0,0,1-.053,6.486,20.671,20.671,0,0,1-2.2,6.279,9.878,9.878,0,0,1-4.877,4.376c-1.568.59-5.7.925-6.475-1.15C430.523,409.283,433.407,405.252,434.285,403.7Z" transform="translate(-395.145 -382.463)" fill="#50bcff"/>
            <path id="Path_2121" data-name="Path 2121" d="M420.41,409.91c.94,1.789,1.7,3.98.765,5.774-.994,1.912-3.467,2.493-5.621,2.421a13.431,13.431,0,0,1-8.2-3,10.251,10.251,0,0,1-3.715-7.766,13.54,13.54,0,0,1,.527-3.313,10.062,10.062,0,0,1,1.915-4.073c.877-1.014,2.595-2.125,3.964-1.577,1.317.528,2.8,2.124,3.843,3.078A31.113,31.113,0,0,1,420.41,409.91Z" transform="translate(-406.905 -380.627)" fill="#50bcff"/>
            <path id="Path_2122" data-name="Path 2122" d="M425,417.409a60.518,60.518,0,0,0,15.051-5.117c2.491-1.174,5.213-2.958,4.843-5.772-.286-2.165-2.351-3.987-4.4-5.271a28.126,28.126,0,0,0-11.115-4.062,34.09,34.09,0,0,1-4.8-.721,6.782,6.782,0,0,1-4.033-2.753,4.386,4.386,0,0,1,.073-4.5,9.291,9.291,0,0,1,3.385-2.961A27.378,27.378,0,0,1,444.75,383c7.425,1.945,14.488,8.172,15.648,15.2a16.922,16.922,0,0,1-2.072,10.557,29.866,29.866,0,0,1-20.083,15.007,39.9,39.9,0,0,1-19.328-.687c-3.048-.845-9.868-1.974-12.58-3.8-4.1-2.763,4-1,5.565-.781C416,419.053,421.152,418.1,425,417.409Z" transform="translate(-406.242 -387.496)" fill="#50bcff" opacity="0.24" style="mix-blend-mode: multiply;isolation: isolate"/>
          </g>
        </g>
        <g id="Group_1262" data-name="Group 1262" transform="translate(16.347 192.416)">
          <path id="Path_2124" data-name="Path 2124" d="M556.328,298.62s8.162,38.652-15.382,39.266-86.954,3.068-86.954,3.068l-30.029,87.623-35.97-13.056s25.817-96.654,35.55-104.63,71.572-12.884,83.5-12.577S556.328,298.62,556.328,298.62Z" transform="translate(-386.73 -298.299)" fill="#d44459"/>
          <path id="Path_2125" data-name="Path 2125" d="M556.328,298.62s8.162,38.652-15.382,39.266-86.954,3.068-86.954,3.068l-30.029,87.623-35.97-13.056s25.817-96.654,35.55-104.63,71.572-12.884,83.5-12.577S556.328,298.62,556.328,298.62Z" transform="translate(-386.73 -298.299)" fill="#663bff" opacity="0.29" style="mix-blend-mode: multiply;isolation: isolate"/>
          <g id="Group_1261" data-name="Group 1261" transform="translate(0 106.054)">
            <path id="Path_2126" data-name="Path 2126" d="M387.109,385.6l36.6,12.924,6.159-11.15-40.28-14.815Z" transform="translate(-387.109 -372.562)" fill="#f59711"/>
            <path id="Path_2127" data-name="Path 2127" d="M387.109,385.6l36.6,12.924,6.159-11.15-40.28-14.815Z" transform="translate(-387.109 -372.562)" fill="#d44459" opacity="0.3" style="mix-blend-mode: multiply;isolation: isolate"/>
            <path id="Path_2128" data-name="Path 2128" d="M404.557,388.181a49.572,49.572,0,0,1-8.073-9.021,36.219,36.219,0,0,1-3.009-5.168l-3.889-1.429-2.478,13.04,28.312,10A53.489,53.489,0,0,1,404.557,388.181Z" transform="translate(-387.109 -372.562)" fill="#f59711" opacity="0.27" style="mix-blend-mode: multiply;isolation: isolate"/>
          </g>
        </g>
        <g id="Group_1269" data-name="Group 1269" transform="translate(54.235 193.929)">
          <g id="Group_1267" data-name="Group 1267" transform="translate(2.374)">
            <path id="Path_2129" data-name="Path 2129" d="M565.382,299.7s8.47,41.045-15.962,41.7-90.235,3.258-90.235,3.258l-6.925,88.46-36.959-1.3s2.186-110.614,12.286-119.084,74.271-13.683,86.65-13.356S565.382,299.7,565.382,299.7Z" transform="translate(-415.301 -299.359)" fill="#d44459"/>
            <path id="Path_2130" data-name="Path 2130" d="M442.529,430.533a40.262,40.262,0,0,1-2.723-8.276c-.708-2.949-1.389-5.914-2.016-8.88a170.56,170.56,0,0,1-2.869-21.322c-.514-6.231-.943-12.466-1.492-18.694-.524-5.927-1.008-11.865-1.08-17.817-.139-11.563,1.3-23.458,8.013-33.192A73.277,73.277,0,0,1,461.2,302.565c-15.519,2.241-29.362,5.225-33.613,8.791-10.1,8.47-12.286,119.084-12.286,119.084l27.73.975C442.862,431.122,442.678,430.837,442.529,430.533Z" transform="translate(-415.301 -297.986)" fill="#d44459" opacity="0.1" style="mix-blend-mode: multiply;isolation: isolate"/>
            <path id="Path_2131" data-name="Path 2131" d="M552,299.6s-3.5,0-8.717-.009c-.019.59-.043,1.181-.08,1.768a53.268,53.268,0,0,1-1.024,7.606,28.124,28.124,0,0,1-2.143,6.929c-2.205,4.363-6.327,7.536-10.367,10.105a72.349,72.349,0,0,1-13.59,6.744c-10.155,3.786-20.952,5.66-31.685,6.876-7.2.815-14.417,1.16-21.627,1.784-3.525.306-7.059.667-10.542,1.3a27.691,27.691,0,0,0-3.933.938,4.231,4.231,0,0,0-1.732.887c7.358-.29,66.584-2.616,89.479-3.227C560.47,340.645,552,299.6,552,299.6Z" transform="translate(-401.919 -299.259)" fill="#d44459" opacity="0.1" style="mix-blend-mode: multiply;isolation: isolate"/>
            <g id="Group_1266" data-name="Group 1266" transform="translate(27.272 8.967)">
              <g id="Group_1263" data-name="Group 1263" transform="translate(0 107.23)">
                <path id="Path_2132" data-name="Path 2132" d="M434.754,383.573h-.026a.357.357,0,0,1-.33-.381l.156-2.134a.329.329,0,0,1,.383-.329.354.354,0,0,1,.328.381l-.156,2.131A.357.357,0,0,1,434.754,383.573Z" transform="translate(-434.397 -380.723)" fill="#f59711"/>
              </g>
              <g id="Group_1264" data-name="Group 1264" transform="translate(0.478 5.485)">
                <path id="Path_2133" data-name="Path 2133" d="M435.089,407.6h-.027a.356.356,0,0,1-.328-.383l.328-4.36a.339.339,0,0,1,.383-.328.354.354,0,0,1,.328.381l-.328,4.36A.357.357,0,0,1,435.089,407.6Zm.661-8.72-.029,0a.355.355,0,0,1-.327-.383l.339-4.359a.333.333,0,0,1,.384-.328.357.357,0,0,1,.327.384l-.339,4.359A.357.357,0,0,1,435.75,398.877Zm.678-8.711H436.4a.357.357,0,0,1-.328-.384c.111-1.418.227-2.873.347-4.357a.357.357,0,0,1,.711.059c-.12,1.481-.236,2.936-.347,4.354A.356.356,0,0,1,436.428,390.166Zm.7-8.713H437.1a.357.357,0,0,1-.327-.386l.357-4.353a.35.35,0,0,1,.386-.327.357.357,0,0,1,.327.386l-.357,4.353A.359.359,0,0,1,437.128,381.453Zm.721-8.706h-.029a.358.358,0,0,1-.327-.384l.37-4.353a.341.341,0,0,1,.387-.326.357.357,0,0,1,.324.387l-.37,4.35A.355.355,0,0,1,437.849,372.747Zm.747-8.7h-.031a.356.356,0,0,1-.324-.386l.386-4.354a.335.335,0,0,1,.388-.323.354.354,0,0,1,.323.387l-.386,4.351A.356.356,0,0,1,438.6,364.043Zm.786-8.7h-.034a.357.357,0,0,1-.321-.39q.2-2.209.408-4.35a.342.342,0,0,1,.388-.321.357.357,0,0,1,.323.388q-.2,2.138-.408,4.35A.358.358,0,0,1,439.382,355.341Zm.832-8.7h-.036a.358.358,0,0,1-.32-.39q.223-2.245.443-4.35a.367.367,0,0,1,.394-.318.359.359,0,0,1,.317.393c-.146,1.4-.294,2.85-.443,4.344A.359.359,0,0,1,440.214,346.643Zm.913-8.693-.039,0a.356.356,0,0,1-.316-.394c.173-1.545.343-3,.51-4.344a.361.361,0,0,1,.4-.311.357.357,0,0,1,.311.4c-.166,1.344-.337,2.8-.51,4.337A.356.356,0,0,1,441.127,337.95Zm1.088-8.674a.331.331,0,0,1-.051,0,.355.355,0,0,1-.3-.4c.276-1.892.533-3.352.764-4.34a.356.356,0,1,1,.694.161c-.226.97-.48,2.409-.753,4.282A.356.356,0,0,1,442.215,329.276Zm4.006-6.358a.357.357,0,0,1-.046-.711c1.117-.141,2.546-.288,4.371-.45a.357.357,0,1,1,.061.711c-1.815.16-3.236.306-4.343.447Zm8.72-.8a.357.357,0,0,1-.026-.713c1.367-.1,2.828-.2,4.367-.31a.343.343,0,0,1,.38.333.355.355,0,0,1-.333.378c-1.537.1-2.995.209-4.361.31Zm8.729-.6a.357.357,0,0,1-.021-.712c1.412-.089,2.87-.181,4.363-.271a.345.345,0,0,1,.38.334.359.359,0,0,1-.334.38c-1.494.09-2.952.181-4.364.268Zm8.73-.534a.357.357,0,0,1-.021-.714l4.364-.257a.363.363,0,0,1,.377.337.357.357,0,0,1-.336.377l-4.364.257Zm8.727-.507a.357.357,0,0,1-.021-.714l4.361-.251a.358.358,0,1,1,.041.714l-4.36.251Zm8.724-.5a.357.357,0,0,1-.02-.714l4.363-.256a.358.358,0,0,1,.043.714l-4.364.256Zm8.727-.516a.357.357,0,0,1-.021-.714c1.479-.09,2.937-.179,4.363-.267a.342.342,0,0,1,.378.334.356.356,0,0,1-.334.377q-2.138.137-4.366.27Zm8.729-.546a.357.357,0,0,1-.023-.713c1.507-.1,2.966-.2,4.361-.294a.343.343,0,0,1,.381.33.356.356,0,0,1-.331.381c-1.4.1-2.858.2-4.364.294Zm8.727-.617a.357.357,0,0,1-.027-.713c1.578-.123,3.039-.244,4.357-.364a.342.342,0,0,1,.387.324.355.355,0,0,1-.323.387c-1.321.12-2.785.241-4.366.364Zm8.716-.823a.357.357,0,0,1-.044-.711,11.234,11.234,0,0,0,3.072-.6c.29-.174.591-.367.9-.574a.356.356,0,1,1,.4.591c-.32.216-.631.414-.931.594-.264.158-.881.38-3.352.7Zm7.5-3.984a.357.357,0,0,1-.248-.614,22.473,22.473,0,0,0,2.79-3.249.357.357,0,1,1,.586.407A22.992,22.992,0,0,1,532.5,313.4.358.358,0,0,1,532.254,313.5Z" transform="translate(-434.732 -309.478)" fill="#f59711"/>
              </g>
              <g id="Group_1265" data-name="Group 1265" transform="translate(102.344)">
                <path id="Path_2134" data-name="Path 2134" d="M506.419,308.4a.373.373,0,0,1-.13-.024.357.357,0,0,1-.2-.463,12.316,12.316,0,0,0,.6-1.994.366.366,0,0,1,.423-.277.358.358,0,0,1,.279.423,13.238,13.238,0,0,1-.636,2.108A.355.355,0,0,1,506.419,308.4Z" transform="translate(-506.062 -305.638)" fill="#f59711"/>
              </g>
            </g>
          </g>
          <g id="Group_1268" data-name="Group 1268" transform="translate(0 120.411)">
            <path id="Path_2135" data-name="Path 2135" d="M415.25,396.85l38.8,1.162,2.47-12.5-42.878-1.842Z" transform="translate(-413.639 -383.674)" fill="#f59711"/>
            <path id="Path_2136" data-name="Path 2136" d="M432.656,393.992a49.565,49.565,0,0,1-10.436-6.134,36.219,36.219,0,0,1-4.44-4.006l-4.14-.178,1.611,13.177,30.012.9A53.45,53.45,0,0,1,432.656,393.992Z" transform="translate(-413.639 -383.674)" fill="#f59711" opacity="0.27" style="mix-blend-mode: multiply;isolation: isolate"/>
          </g>
        </g>
        <g id="Group_1270" data-name="Group 1270" transform="translate(51.224 112.567)">
          <path id="Path_2137" data-name="Path 2137" d="M485.226,242.387s-25.165,28.455-28.866,29.646-42.746,7.82-42.746,7.82l-2.084,12.5s47.345,4.63,52.761,1.392,37.448-30.3,37.448-30.3Z" transform="translate(-411.53 -242.387)" fill="#ffa18b"/>
        </g>
        <path id="Path_2138" data-name="Path 2138" d="M450.9,263.3s20.876-32.831,30.02-35.207,26.551,4.638,16.8,22.861a158.506,158.506,0,0,1-22.186,31.237S456.784,279.9,450.9,263.3Z" transform="translate(-343.452 -136.13)" fill="#50bcff"/>
        <path id="Path_2139" data-name="Path 2139" d="M480.978,227.653a83.83,83.83,0,0,0-6.638,10.585c-2.464,4.539-4.647,9.224-6.761,13.934a156.687,156.687,0,0,0-5.79,14.628,96.074,96.074,0,0,0-2.865,10.477,35.993,35.993,0,0,0,13.176,4.916,158.506,158.506,0,0,0,22.186-31.237C502.895,234.863,490.33,227.515,480.978,227.653Z" transform="translate(-340.016 -136.129)" fill="#50bcff" opacity="0.38" style="mix-blend-mode: multiply;isolation: isolate"/>
        <g id="Group_1272" data-name="Group 1272" transform="translate(127.354 86.942)">
          <path id="Path_2140" data-name="Path 2140" d="M546.873,286.217c-2.6-38.215-4.35-47.72-8.816-53.311-4.43-5.544-20.772-7.969-32.281-8.42s-28.3,2.8-33.084,6.078-7.66,17.21-6.921,34.533c.641,15.005,3.8,30.954,3.672,37.9-.234,12.892-2.766,17.863-4.606,27.458,14.384,10.01,70.058,15.378,82.006,12.982C548.02,330.4,548.13,304.717,546.873,286.217Z" transform="translate(-464.839 -224.444)" fill="#fff"/>
          <g id="Group_1271" data-name="Group 1271" clip-path="url(#clip-path-3)">
            <path id="Path_2141" data-name="Path 2141" d="M489.915,236.519a5.743,5.743,0,0,0,1.538,4.894,9.584,9.584,0,0,0,4.66,2.411c3.278.9,10.681-.067,14.01-3.8,5.542,13.164,11.946,27.177,24.885,34.247a33.34,33.34,0,0,0,11.458,4.142c4.049.533,8.316-.171,11.448-2.571,3.7-2.835,5.374-7.687,5.373-12.449s-1.481-9.446-3.172-13.956c-2.9-7.73-6.6-15.382-12.633-20.986-9.083-8.44-21.953-10.911-33.832-11.312-9.991-.337-19.961.543-29.1,3.77-9.031,3.188-17.292,8.807-22.69,16.753-6.986,10.281-8.713,24.4-4.448,36.655a4.218,4.218,0,0,0,2.361-.137c6.389-4.019,9.631-11.741,13.614-18.444A75.071,75.071,0,0,1,489.915,236.519Z" transform="translate(-469.01 -227.599)" fill="#50bcff"/>
            <path id="Path_2142" data-name="Path 2142" d="M516.874,319.109c-1.678,5.2-3.583,10.575-7.5,14.382-6.566,6.376-16.961,6.736-24.595,11.788,1.981,5.562,8.557,7.742,14.315,9.05,11.359,2.579,23.472,4.567,34.463.706,3.712-1.305,7.328-3.38,9.474-6.679,1.692-2.6,2.332-5.73,2.816-8.794,2.422-15.364,1.725-31.033.841-46.562q-1.395-24.47-3.445-48.9c-.394-4.634-.885-9.488-3.48-13.35a13.841,13.841,0,0,0-6.574-5.2c-4.114-1.508-3.379,1.538-3.14,4.707a173.593,173.593,0,0,1,.221,21.921,232.106,232.106,0,0,1-6.562,42.909C521.739,303.177,519.428,311.183,516.874,319.109Z" transform="translate(-456.303 -224.141)" fill="#50bcff" opacity="0.24" style="mix-blend-mode: multiply;isolation: isolate"/>
            <path id="Path_2143" data-name="Path 2143" d="M497.731,319.716c-6.062-2.192-11.888-4.2-17.55-7.21-2.661-1.412-5.383-3.062-6.626-5.562a40.979,40.979,0,0,1,9.523.3l15.371,1.684c-5.4-1.815-10.445-4.8-15.342-7.586-2.466-1.4-9.363-4.25-7.373-8.2.677-1.344,2.206-1.952,3.385-2.761,1.51-1.037,1.717-2.5.824-4.1-1.167-2.094-3.439-3.437-5.388-4.7a37.854,37.854,0,0,1-5.985-4.776,36.753,36.753,0,0,1-2.96-3.25c-.4,3.156.3,6.451.163,9.667s-1.155,6.365-1.889,9.53a55.847,55.847,0,0,0-.715,21.683,8.3,8.3,0,0,0,1.321,3.749,9.708,9.708,0,0,0,4.049,2.718c7.966,3.412,16.989,4.4,25.843,5.121C499.708,326.445,503.684,321.868,497.731,319.716Z" transform="translate(-465.871 -203.422)" fill="#50bcff" opacity="0.24" style="mix-blend-mode: multiply;isolation: isolate"/>
          </g>
        </g>
        <g id="Group_1278" data-name="Group 1278" transform="translate(67.722 92.202)">
          <g id="Group_1273" data-name="Group 1273" transform="translate(0 30.266)">
            <path id="Path_2145" data-name="Path 2145" d="M423.272,272.34a21.538,21.538,0,0,1,8-9.258,12.9,12.9,0,0,1,3.493-1.805,16.133,16.133,0,0,1,7.953.153,66.449,66.449,0,0,1,8.8,3.079q4.034,1.538,8.052,3.1a9.879,9.879,0,0,0,2.039.808c5.482.711,39.646,5.114,45.778,5.32,6.285-6.655,15.819-24.421,15.819-24.421s17.013,2.075,22.121,11.888c.059-.264-20.659,29.353-23.743,30.976s-17.059-.7-33.956-5.074c-12.787-3.313-23.842-6.759-28.465-8.239a11.986,11.986,0,0,1-2.269.367c-8.941.621-7.585-4.457-8.015-4.756l.228-.3c-1.727.61-3.465,1.185-5.223,1.7-.71.207-1.655.331-1.959-.23-.239-.438.11-.988.454-1.42a36.608,36.608,0,0,1,3.8-4.074l-8.667,5.765c-.574.383-1.364.777-1.889.428s-.3-1.11,0-1.679a21.234,21.234,0,0,1,6.289-7.222l-5.837,4.4c-1.335,1.007-2.673,2.015-4.1,2.915-1.28.81-2.882,1.558-4.236,1.094a.59.59,0,0,1-.408-.319.671.671,0,0,1,.11-.476c1.672-3.242,4.633-5.865,7.52-8.4q-3.867,2.965-7.732,5.931c-1,.763-2.234,1.584-3.41,1.3a1.034,1.034,0,0,1-.63-.38A1.3,1.3,0,0,1,423.272,272.34Z" transform="translate(-423.083 -249.32)" fill="#ffc9b0"/>
            <path id="Path_2146" data-name="Path 2146" d="M490.684,273.028a22.785,22.785,0,0,1-4.259-7.443c4.973-7.519,9.667-16.265,9.667-16.265s17.013,2.075,22.121,11.888c.039-.171-8.647,12.2-15.606,21.379C497.808,280.941,493.461,276.245,490.684,273.028Z" transform="translate(-395.966 -249.32)" fill="#ffc9b0" style="mix-blend-mode: multiply;isolation: isolate"/>
            <path id="Path_2147" data-name="Path 2147" d="M442.933,265.771c2.1.251,3.917,1.12,5.931,1.6,1.938.466,3.964.641,5.938.991,5.311.941,10.347,2.795,15.354,4.439a283,283,0,0,0,28.945,7.862c5.981,1.282,12.309,2.99,18.644,2.6a10.091,10.091,0,0,1-1.969,1.878c-3.085,1.621-17.059-.7-33.956-5.074-12.787-3.313-23.842-6.759-28.465-8.239a11.991,11.991,0,0,1-2.269.367c-8.941.621-7.585-4.457-8.015-4.756l.228-.3c-1.727.61-3.465,1.185-5.223,1.7a3.113,3.113,0,0,1-1.417.137A69.1,69.1,0,0,1,442.933,265.771Z" transform="translate(-417.271 -242.277)" fill="#ffc9b0" opacity="0.3" style="mix-blend-mode: multiply;isolation: isolate"/>
          </g>
          <g id="Group_1275" data-name="Group 1275" transform="translate(88.127)">
            <g id="Group_1274" data-name="Group 1274">
              <path id="Path_2148" data-name="Path 2148" d="M484.792,272.043c1.585-2.2,14.3-22.093,18.67-29.5,2.3-3.906,4.877-7.85,8.707-10.781,2.716-2.089,10.377-6.8,15.895-.4.291.337.568.694.833,1.05a14.549,14.549,0,0,1,.794,1.257c3.662,6.345,2.585,15.044.414,22.377a36.424,36.424,0,0,1-1.544,4.231,137.31,137.31,0,0,1-16.6,28.065C503.495,287.719,489.025,280.076,484.792,272.043Z" transform="translate(-484.792 -228.127)" fill="#50bcff"/>
            </g>
          </g>
          <g id="Group_1277" data-name="Group 1277" transform="translate(104.403 26.436)">
            <g id="Group_1276" data-name="Group 1276">
              <path id="Path_2149" data-name="Path 2149" d="M524.21,248.609q-2.446,3.271-5.073,6.4c-2.96,3.5-6.169,6.8-9.41,10.042-3.179,3.177-6.448,6.271-9.865,9.193-1.2,1.028-2.429,2.024-3.673,3a34.048,34.048,0,0,0,10.9,3.18,137.316,137.316,0,0,0,16.6-28.065,36.432,36.432,0,0,0,1.544-4.231c.146-.488.284-.985.419-1.485C525.168,247.3,524.7,247.959,524.21,248.609Z" transform="translate(-496.189 -246.638)" fill="#50bcff" opacity="0.38" style="mix-blend-mode: multiply;isolation: isolate"/>
            </g>
          </g>
        </g>
        <g id="Group_1280" data-name="Group 1280" transform="translate(150.224 73.473)">
          <path id="Path_2150" data-name="Path 2150" d="M480.853,217.847l19.606-2.835,2.144,16.159a4.2,4.2,0,0,1-.947,3.256,16.776,16.776,0,0,1-11.092,6.035c-6.014.7-6.774-2.055-6.689-3.774a20.727,20.727,0,0,0-.417-4.77Z" transform="translate(-480.853 -215.012)" fill="#ffc9b0"/>
          <g id="Group_1279" data-name="Group 1279" clip-path="url(#clip-path-4)">
            <path id="Path_2151" data-name="Path 2151" d="M479.5,229.641c16.179.614,23.117-14.941,22.656-15.6-.573-.815-2.122-.768-3.377-.556-8.841,1.5-21.169,5.521-22.571,8.819S477.219,229.555,479.5,229.641Z" transform="translate(-483.019 -215.721)" fill="#ffc9b0" style="mix-blend-mode: multiply;isolation: isolate"/>
          </g>
        </g>
        <g id="Group_1288" data-name="Group 1288" transform="translate(117.197)">
          <path id="Path_2153" data-name="Path 2153" d="M509.47,206.5a4.68,4.68,0,0,1-3.052-.854c-.735-.7-.9-1.844-1.331-2.7-1.43-2.809-4.641-4.313-7.537-2.334-7.1,4.853-3.755,13.081-3.111,14.381a8.712,8.712,0,0,0,4.9,4.231c.678.206,1.948.461,2.136-.5.111-.568-.547-1.107-.628-1.619a11.61,11.61,0,0,0,4.051,1.207c1.749.054,4.681-.444,5.563-2.129.925-1.768-.853-2.531-2.184-3.258,2.273.084,4.5-2.955,5.3-4.683C514.627,206.014,510.873,206.557,509.47,206.5Z" transform="translate(-442.587 -148.091)"/>
          <g id="Group_1281" data-name="Group 1281" transform="translate(1.449 20.161)">
            <path id="Path_2154" data-name="Path 2154" d="M460.52,179.736a10.341,10.341,0,0,0-1.274,3.725,31.216,31.216,0,0,0-.2,9.968,10.436,10.436,0,0,0,1.31,4.156,11.2,11.2,0,0,0,4.868,3.774,4.887,4.887,0,0,0,3.757.584,3.678,3.678,0,0,0,1.8-1.764c1.4-2.6.993-5.72.53-8.613a32.1,32.1,0,0,0-2.071-8.16,12.541,12.541,0,0,0-3.887-5.021C463.439,176.981,461.74,177.806,460.52,179.736Z" transform="translate(-458.741 -177.682)"/>
          </g>
          <g id="Group_1284" data-name="Group 1284" transform="translate(3.672 9.304)">
            <path id="Path_2155" data-name="Path 2155" d="M490.524,243.241c-11.723,2.828-18.066,0-21.507-3.963-.263-.294-.5-.6-.728-.91-3.223-4.424-5.862-14.308-6.621-18.088-.059-.323-.117-.644-.19-.98a.27.27,0,0,0-.014-.113,83.39,83.39,0,0,1-1.108-17.459c.948-26.139,22.893-37.409,41.542-28.8a35.638,35.638,0,0,1,16.637,16.689q.416.84.787,1.722C530.462,217.563,512.789,237.907,490.524,243.241Z" transform="translate(-460.298 -170.079)" fill="#ffc9b0"/>
            <g id="Group_1283" data-name="Group 1283" transform="translate(1.18 43.349)" opacity="0.21">
              <g id="Group_1282" data-name="Group 1282">
                <path id="Path_2156" data-name="Path 2156" d="M470.894,223.067a4.4,4.4,0,0,1-2.231,1.455c-.263-.294-.5-.6-.728-.91-3.223-4.424-5.862-14.308-6.621-18.088-.059-.323-.117-.644-.19-.98a7.515,7.515,0,0,1,4,2.114,20.124,20.124,0,0,1,6.488,12.586A5.216,5.216,0,0,1,470.894,223.067Z" transform="translate(-461.124 -198.674)" fill="#d44459"/>
                <path id="Path_2157" data-name="Path 2157" d="M495.924,220.493c.274-.207.536-.42.785-.635,4.164-3.6,8.88-11.015,4.65-16.576a7.987,7.987,0,0,0-9.076-2.311c-3.082,1.17-5.394,3.909-6.893,6.955a14.475,14.475,0,0,0-1.664,7.413,8.612,8.612,0,0,0,3.574,6.568C490.109,223.716,493.473,222.345,495.924,220.493Z" transform="translate(-451.461 -200.434)" fill="#d44459"/>
              </g>
            </g>
          </g>
          <g id="Group_1285" data-name="Group 1285">
            <path id="Path_2158" data-name="Path 2158" d="M531.714,199.895a65.442,65.442,0,0,1-1.417,6.569c-.227.808-1.171,5.878-1.891,6.115a2.5,2.5,0,0,1-.924.137,2.872,2.872,0,0,1-1.767-.907c-.987-.947-1.911-2.169-3.513-1.934-2.3.3-4.027,5.5-6.369,5.582-2.856.1-3.986-2.642-4.808-5.325a75.852,75.852,0,0,1,.658-10.2,5.243,5.243,0,0,0,.061-.533,5.382,5.382,0,0,0-.411-.631c-1.767-2.465-4.726-3.373-7.335-4.694a23.272,23.272,0,0,1-4.54-3.492,14.994,14.994,0,0,1-4.027-5.11,49.9,49.9,0,0,1-1.952-6.135,38.413,38.413,0,0,1-12.965,9.982,62,62,0,0,1-10.949,4.043c-2.9.711-7.4,1.461-9.883-.631-2.281-1.914-2.178-4.773-1.624-7.456.842-4.044,3.657-6.766,6.8-9.351a53.514,53.514,0,0,1,30.8-12.309,42.409,42.409,0,0,1,7.418.276,37.85,37.85,0,0,1,9.451,2.388,30.015,30.015,0,0,1,3.06,1.361c.781.414,1.561.828,2.322,1.3a31.9,31.9,0,0,1,7.068,5.8,26.367,26.367,0,0,1,6.492,11.638c.02.06.02.118.041.178A35.092,35.092,0,0,1,531.714,199.895Z" transform="translate(-457.727 -163.564)"/>
            <path id="Path_2159" data-name="Path 2159" d="M513.43,173.521c-1.891.71-4.931-1.322-6.514-1.618-4.417-.788.35,5.5-.1,7.082-.493,1.735-2.753,1.815-4.294,1.637-2.546-.256-3.842-1.972-6-2.939a2.545,2.545,0,0,0-3.657,1.777c-.328,1.222,1.212,4.359.308,5.207-1.357,1.242-4.973-.768-5.938-1.637-1.808-1.618-3.2-4.716-2.2-7.082.267-.75,2.281-.967,3.1-1.421,1.685-.868,3.226-1.972,4.89-2.861,2.362-1.242,4.623-2.939,7.149-3.944a34.461,34.461,0,0,1,3.863-1.3c.781.414,1.561.828,2.322,1.3A31.907,31.907,0,0,1,513.43,173.521Z" transform="translate(-446.18 -162.342)" fill="#004dbe"/>
            <path id="Path_2160" data-name="Path 2160" d="M506.38,166.182a39.449,39.449,0,0,1-3.719,1.657,59.3,59.3,0,0,0-8.1,3.649,39.989,39.989,0,0,0-6.554,4.143c-1.171.987-2.589,3.315-3.575,3.315-2.342,3.432-7.232,3.275-10.622,1.755-1.992-.887-2.506-2.328-.247-3.49,2.466-1.264,5.507-1.224,8.075-2.388,2.014-.927,3.843-2.545,3.062-4.833-.493-1.421-2.136-3.572.348-4.1,1.891-.394,4.089,1.441,5.96,1.777a3.039,3.039,0,0,0,3.594-1.421,7.206,7.206,0,0,1,2.322-2.446A37.854,37.854,0,0,1,506.38,166.182Z" transform="translate(-451.58 -163.466)" fill="#004dbe"/>
          </g>
          <g id="Group_1286" data-name="Group 1286" transform="translate(6.606 35.381)">
            <path id="Path_2161" data-name="Path 2161" d="M468.9,203.121c.3,1.872-.4,3.535-1.582,3.71s-2.379-1.2-2.683-3.072.4-3.535,1.581-3.71S468.594,201.249,468.9,203.121Z" transform="translate(-461.405 -183.332)"/>
            <path id="Path_2162" data-name="Path 2162" d="M486.227,200.918c.316,1.939-.533,3.677-1.9,3.882s-2.722-1.2-3.036-3.143.533-3.679,1.894-3.883S485.911,198.978,486.227,200.918Z" transform="translate(-454.271 -184.309)"/>
            <path id="Path_2163" data-name="Path 2163" d="M471.983,212.5a22.741,22.741,0,0,0,7.856-1.962,27.1,27.1,0,0,0,6.5-4.5c.169-.15.468.046.33.244-3.089,4.421-9.244,6.953-14.689,6.751A.267.267,0,1,1,471.983,212.5Z" transform="translate(-458.344 -180.784)" fill="#c72c19"/>
            <path id="Path_2164" data-name="Path 2164" d="M473.181,211.726c-1.569-.363-3.167-1.544-3.127-3.239a2.373,2.373,0,0,1,1.024-1.948c.516-.334,1.16-.433,1.689-.744,1.35-.79.691-2.178.317-3.342a20.681,20.681,0,0,0-1.945-5.108c-.137-.207-.556-.149-.523.136a12.565,12.565,0,0,0,.768,2.716q.508,1.433.987,2.873c.16.481.6,1.26.3,1.744a1.839,1.839,0,0,1-.89.554,4.24,4.24,0,0,0-1.7,1.008,3.216,3.216,0,0,0-.441,3.5,4.382,4.382,0,0,0,3.489,2.168C473.326,212.067,473.363,211.769,473.181,211.726Z" transform="translate(-459.368 -184.537)" fill="#c72c19"/>
            <path id="Path_2165" data-name="Path 2165" d="M469.337,191.863c.425,1.06-1.13.93-3.453,1.588s-2.471,2.688-3.172,2.606-.605-3.649,2.4-4.876C467.4,190.243,469.055,191.163,469.337,191.863Z" transform="translate(-462.352 -187.293)"/>
            <path id="Path_2166" data-name="Path 2166" d="M477.411,190.37c-.211.953,2.662.56,5.844.346s5.471,2.055,5.831,1.227-1.912-3.509-5.774-3.6S477.553,189.741,477.411,190.37Z" transform="translate(-455.91 -188.339)"/>
          </g>
          <g id="Group_1287" data-name="Group 1287" transform="translate(57.631 41.682)">
            <path id="Path_2167" data-name="Path 2167" d="M499.21,199.344c1.678-4.313,5.181-7.77,10.2-6.214a5.539,5.539,0,0,1,3.416,3.453,9.9,9.9,0,0,1,.293,4.88,14.952,14.952,0,0,1-6.428,10.4,5.535,5.535,0,0,1-4.628.951c-2.111-.737-3.195-2.989-3.68-4.951A14.991,14.991,0,0,1,499.21,199.344Z" transform="translate(-498.082 -192.751)" fill="#ffc9b0"/>
            <path id="Path_2168" data-name="Path 2168" d="M504.557,195.364c-1.225,1.23-1.892,2.931-3.068,4.13-.825.844-1.354,2.088-2.766.66-.013-.013-.024-.036-.037-.05.086-.256.168-.51.266-.76,1.571-4.04,4.745-7.329,9.263-6.449A10.668,10.668,0,0,0,504.557,195.364Z" transform="translate(-497.823 -192.751)" fill="#ffc9b0" opacity="0.3" style="mix-blend-mode: multiply;isolation: isolate"/>
            <path id="Path_2169" data-name="Path 2169" d="M508.269,196a2.571,2.571,0,0,0-1.615-.424,4.287,4.287,0,0,0-3.138,2,14.369,14.369,0,0,0-1.632,3.559,10.518,10.518,0,0,0-.534,3.956c.016.266.481.261.486-.009a13.618,13.618,0,0,1,2-6.334,7.449,7.449,0,0,1,.576-.848,5.909,5.909,0,0,1,1.118,3.108,9.69,9.69,0,0,1-.677,3.829.126.126,0,0,0,.219.117,6.1,6.1,0,0,0-.3-7.488,3.269,3.269,0,0,1,1.4-.887,2.461,2.461,0,0,1,2.6.791c.1.144.37.027.321-.14A2.134,2.134,0,0,0,508.269,196Z" transform="translate(-496.691 -191.545)" fill="#c72c19"/>
          </g>
        </g>
      </g>
    </g>
    <g id="Group_1303" data-name="Group 1303" transform="translate(269.175 251.605)">
      <g id="Group_1293" data-name="Group 1293" transform="translate(0 107.787)">
        <g id="Group_1291" data-name="Group 1291" transform="translate(0 27.312)">
          <path id="Path_2170" data-name="Path 2170" d="M227.821,522.18h-6.774l22.889-230.7h18.848Z" transform="translate(-221.046 -291.485)"/>
          <path id="Path_2171" data-name="Path 2171" d="M501.741,522.18h6.774l-22.889-230.7H466.779Z" transform="translate(-115.847 -291.485)"/>
        </g>
        <g id="Group_1292" data-name="Group 1292" transform="translate(4.166)">
          <rect id="Rectangle_901" data-name="Rectangle 901" width="368.305" height="25.223" transform="translate(8.016 7.274)" fill="#004dbe"/>
          <rect id="Rectangle_902" data-name="Rectangle 902" width="368.302" height="9.87" transform="translate(8.018 7.269)" fill="#004dbe" opacity="0.45" style="mix-blend-mode: multiply;isolation: isolate"/>
          <rect id="Rectangle_903" data-name="Rectangle 903" width="384.337" height="12.474" fill="#004dbe"/>
        </g>
      </g>
      <g id="Group_1299" data-name="Group 1299" transform="translate(123.199 25.888)">
        <g id="Group_1296" data-name="Group 1296">
          <path id="Path_2172" data-name="Path 2172" d="M312.988,215.012h100.24a4.721,4.721,0,0,1,4.419,3.063l26.934,71.9h-108l-26.508-70.763A3.109,3.109,0,0,1,312.988,215.012Z" transform="translate(-306.217 -215.012)" fill="#94d5ff"/>
          <rect id="Rectangle_904" data-name="Rectangle 904" width="159.501" height="7.479" transform="translate(186.21 82.442) rotate(180)" fill="#94d5ff"/>
          <path id="Path_2173" data-name="Path 2173" d="M426.15,273.969c4.056-.8,11.893-2.785,16.348-6.466h2.646v7.479H420.325C422.293,274.688,424.241,274.348,426.15,273.969Z" transform="translate(-258.933 -192.54)" fill="#50bcff"/>
          <rect id="Rectangle_905" data-name="Rectangle 905" width="107.995" height="7.479" transform="translate(134.705 82.442) rotate(180)" fill="#50bcff"/>
          <g id="Group_1294" data-name="Group 1294" transform="translate(30.214 77.247)" style="mix-blend-mode: multiply;isolation: isolate">
            <rect id="Rectangle_906" data-name="Rectangle 906" width="31.063" height="3.213" transform="translate(61.912)" fill="#50bcff" opacity="0.8"/>
            <rect id="Rectangle_907" data-name="Rectangle 907" width="7.177" height="3.213" fill="#50bcff" opacity="0.8"/>
            <rect id="Rectangle_908" data-name="Rectangle 908" width="7.177" height="3.213" transform="translate(9.533)" fill="#50bcff" opacity="0.8"/>
          </g>
          <path id="Path_2174" data-name="Path 2174" d="M310.426,215.012H410.665a4.718,4.718,0,0,1,4.419,3.063l26.935,71.9h-108l-26.508-70.763A3.109,3.109,0,0,1,310.426,215.012Z" transform="translate(-307.314 -215.012)" fill="#50bcff"/>
          <path id="Path_2175" data-name="Path 2175" d="M310.426,215.012h84.452c-41.068,1.044-63.018,2.288-71.461,3.532s-14.13,3.11-12.656,9.338l-3.248-8.67A3.109,3.109,0,0,1,310.426,215.012Z" transform="translate(-307.314 -215.012)" fill="#94d5ff" opacity="0.51"/>
          <path id="Path_2176" data-name="Path 2176" d="M326.211,284.011c22.1,6,50.421,4.509,68.083-11.682,9.371-8.59,13.931-21.709,13.748-34.245-.1-7.065-1.408-15.8-4.7-23.072h.041a4.718,4.718,0,0,1,4.419,3.063l26.936,71.9h-108l-2.438-6.507C324.944,283.655,325.58,283.84,326.211,284.011Z" transform="translate(-300.038 -215.012)" fill="#50bcff" opacity="0.35" style="mix-blend-mode: multiply;isolation: isolate"/>
          <g id="Group_1295" data-name="Group 1295" transform="translate(126.141 76.641)" style="mix-blend-mode: multiply;isolation: isolate">
            <path id="Path_2177" data-name="Path 2177" d="M395.641,270.74a2.061,2.061,0,1,0,2.062-2.062A2.061,2.061,0,0,0,395.641,270.74Z" transform="translate(-395.641 -268.678)" fill="#50bcff" opacity="0.46"/>
            <path id="Path_2178" data-name="Path 2178" d="M396.119,270.535a1.379,1.379,0,1,0,1.38-1.38A1.378,1.378,0,0,0,396.119,270.535Z" transform="translate(-395.436 -268.473)" fill="#50bcff" opacity="0.8"/>
          </g>
        </g>
        <g id="Group_1298" data-name="Group 1298" transform="translate(47.908 13.618)">
          <g id="Group_1297" data-name="Group 1297" transform="translate(4.222)">
            <path id="Path_2179" data-name="Path 2179" d="M370.837,261.659l-7.6-6.1a2.88,2.88,0,0,0-2.358-.663l-7.9,1.737a3.236,3.236,0,0,1-3.577-3.6l1.8-7.879a2.87,2.87,0,0,0-.644-2.361l-6.041-7.638c-1.449-1.832-.524-4.054,1.565-3.76l8.712,1.225a1.926,1.926,0,0,0,1.959-.8l4.169-6.458c1-1.548,3.685-.794,4.544,1.278l3.58,8.637a3.557,3.557,0,0,0,1.857,1.869l8.617,3.646c2.066.875,2.8,3.563,1.242,4.55l-6.5,4.112a1.925,1.925,0,0,0-.813,1.951l1.158,8.712C374.89,262.214,372.659,263.121,370.837,261.659Z" transform="translate(-343.817 -224.548)" fill="#414379"/>
            <path id="Path_2180" data-name="Path 2180" d="M369.846,257.739l-8.209-6.586a.983.983,0,0,0-.8-.226L352.3,252.8a1.1,1.1,0,0,1-1.214-1.224l1.948-8.514a.98.98,0,0,0-.22-.8l-6.528-8.253c-.491-.623-.177-1.377.531-1.277l9.414,1.325a.654.654,0,0,0,.666-.271l4.5-6.978c.338-.525,1.251-.27,1.542.434l3.87,9.333a1.207,1.207,0,0,0,.63.635l9.313,3.94c.7.3.951,1.21.421,1.545l-7.022,4.443a.655.655,0,0,0-.276.663l1.251,9.414C371.222,257.927,370.464,258.236,369.846,257.739Z" transform="translate(-342.863 -223.698)" fill="#ffd245"/>
            <path id="Path_2181" data-name="Path 2181" d="M361.424,243.952l-2.845-2.282a.345.345,0,0,0-.279-.079l-2.959.651a.38.38,0,0,1-.42-.424l.674-2.951a.334.334,0,0,0-.076-.277l-2.262-2.86c-.17-.216-.061-.477.184-.443l3.262.46a.229.229,0,0,0,.231-.094l1.561-2.418c.117-.183.433-.094.534.15l1.341,3.235a.421.421,0,0,0,.218.22l3.228,1.365c.243.1.328.42.146.536l-2.434,1.54a.226.226,0,0,0-.1.23l.434,3.262C361.9,244.017,361.638,244.124,361.424,243.952Z" transform="translate(-339.81 -220.87)" fill="#fff"/>
          </g>
          <path id="Path_2182" data-name="Path 2182" d="M341.511,255.459c2.241,7.85,9.614,13.917,16.469,13.551s10.594-7.026,8.352-14.877-9.614-13.917-16.469-13.551S339.269,247.609,341.511,255.459Z" transform="translate(-340.86 -217.69)" fill="#fff"/>
          <path id="Path_2183" data-name="Path 2183" d="M343.061,254.559c1.832,6.417,7.86,11.376,13.463,11.078s8.66-5.744,6.828-12.16-7.86-11.376-13.463-11.078S341.229,248.143,343.061,254.559Z" transform="translate(-340.146 -216.911)" fill="#d44459"/>
          <path id="Path_2184" data-name="Path 2184" d="M359.6,251.575a.449.449,0,0,0-.737-.194c-.96.783-2.055-1.2-2.519-1.768l-2.913-3.559a.852.852,0,0,0-1.417.374,8.734,8.734,0,0,0,.063,2.451c-.137-.208-.26-.424-.406-.624a2.066,2.066,0,0,0-2.332-1.06c-1.017.4-1.054,1.578-1.05,2.513a23.012,23.012,0,0,0,1.284,6.675c.17.551.357,1.1.537,1.647a13.177,13.177,0,0,0,.483,1.557c-.039-.017-.076-.034-.113-.054a3.5,3.5,0,0,1-.543-.431,11.359,11.359,0,0,1-1.041-1.055,10.923,10.923,0,0,1-1.815-2.962c-.349-.851-.99-2.358-.3-3.176a.408.408,0,0,0-.577-.577c-1.469,1.291-.5,3.743.17,5.2a11.609,11.609,0,0,0,1.691,2.638A5.712,5.712,0,0,0,350.225,261a1.338,1.338,0,0,0,1.934-1,4.558,4.558,0,0,0-.287-1.565c-.169-.635-.347-1.27-.527-1.9A23.991,23.991,0,0,1,350,249.465c0-.156,0-.331.021-.488l0-.016c.08.089.181.186.234.254a13.957,13.957,0,0,1,1.051,1.7,17.521,17.521,0,0,1,1.482,3.717.859.859,0,0,0,1.678-.227,20.043,20.043,0,0,0-.685-5.223c.848,1.068,1.705,2.134,2.633,3.115a2.388,2.388,0,0,0,2.2.87A1.213,1.213,0,0,0,359.6,251.575Z" transform="translate(-338.898 -215.446)" fill="#ffd245"/>
        </g>
      </g>
      <g id="Group_1302" data-name="Group 1302" transform="translate(71.095)">
        <g id="Group_1300" data-name="Group 1300">
          <path id="Path_2185" data-name="Path 2185" d="M289.992,238.9c-4.359-3.587-4.713-10.251-3.186-15.262a49.6,49.6,0,0,0,1.924-7.982,14.588,14.588,0,0,0-.286-6.785c.59.954,1.265,1.618,1.869,2.565a20.476,20.476,0,0,1,2.052,4.683,24.323,24.323,0,0,1,1.5,7.79,47.368,47.368,0,0,1-1.07,7.666,29.35,29.35,0,0,1-1.071,5.056C291.552,237.1,290.7,239.483,289.992,238.9Z" transform="translate(-264.341 -191.754)" fill="#94d5ff"/>
          <path id="Path_2186" data-name="Path 2186" d="M289.951,236.272c-5.223-2.124-8.959-5.59-10.8-10.439a35.828,35.828,0,0,1-1.72-6.478,22.112,22.112,0,0,1-.513-3.315,2.811,2.811,0,0,0,.957,1.578,31.156,31.156,0,0,0,2.878,2.6,37.78,37.78,0,0,0,3.316,2.648,34.8,34.8,0,0,1,3.807,2.709,15.822,15.822,0,0,1,4.913,7.6c.283,1.078.169,2.483-.288,2.89A2.628,2.628,0,0,1,289.951,236.272Z" transform="translate(-268.222 -188.684)" fill="#94d5ff"/>
          <path id="Path_2187" data-name="Path 2187" d="M288.753,234.807c-.8-1.205.483-3.493,1.151-4.427a19.573,19.573,0,0,1,6.628-5.51,62.029,62.029,0,0,1,8.71-3.513,15.648,15.648,0,0,0,3.69-1.585c.584-.4,1.484-.983,1.652-1.727-.013,3.243-2.361,6.074-4.356,8.42a20.818,20.818,0,0,1-7.288,5.642c-1.749.808-3.46,1.505-5.27,2.136a11.535,11.535,0,0,1-3.173.764C289.859,235.039,289.08,235.3,288.753,234.807Z" transform="translate(-263.265 -187.826)" fill="#94d5ff"/>
          <path id="Path_2188" data-name="Path 2188" d="M308.376,203.889a50.51,50.51,0,0,0-6.506,8.584,101.565,101.565,0,0,0-5.6,9.84,83.688,83.688,0,0,0-7.336,20.81.234.234,0,0,0,.451.124,132.351,132.351,0,0,1,7.987-20.546,102.447,102.447,0,0,1,5.274-9.258c2-3.11,4.3-6.01,6.282-9.124A.356.356,0,0,0,308.376,203.889Z" transform="translate(-263.079 -193.929)" fill="#004dbe"/>
          <path id="Path_2189" data-name="Path 2189" d="M288.759,222.816c-1.752-5.838-4.136-12-8.527-16.37-.144-.144-.421.051-.291.224a49.365,49.365,0,0,1,7.743,16.693c1.758,6.386,2.284,12.823,2.982,19.378a.306.306,0,0,0,.613,0C291.959,236.141,290.655,229.13,288.759,222.816Z" transform="translate(-266.943 -192.813)" fill="#004dbe"/>
          <path id="Path_2190" data-name="Path 2190" d="M282.6,214.969a6.157,6.157,0,0,1-3.366-1,4.054,4.054,0,0,1-1.442-2.365,5.2,5.2,0,0,0-1.827-2.569,7.4,7.4,0,0,0-3.933-1.889c-.289-.036-1.108.049-1.194-.326-.11-.477,1.12-1.178,1.427-1.33a7.973,7.973,0,0,1,3.337-.747c.808-.01,1.662.448,2.438.341a4.68,4.68,0,0,1-1.558-3.068c-.068-1.02.281-3.115,1.442-3.519.85-.3.823,1.031.927,1.568a6.322,6.322,0,0,0,1.381,3.23c-.007-1.514.828-3.742,2.4-4.23.09.967-.663,2.076-.287,3.053a4.588,4.588,0,0,1,1.211-1.538c.328-.266.843-.891,1.308-.857a6.559,6.559,0,0,0-.346,2.3c-.07,1.559,1.184,2.168,2.165,3.17a7.127,7.127,0,0,1,1.531,1.681,6.425,6.425,0,0,1,.34,3.517C288.293,212.29,286.664,214.846,282.6,214.969Z" transform="translate(-270.829 -196.21)" fill="#d44459"/>
          <path id="Path_2191" data-name="Path 2191" d="M312.747,202.362c.191-.063.568-.076.623-.3.159-.648-1.921-.974-2.252-1.044a5.718,5.718,0,0,0-2.256.041c-.244.046-.68.287-.778.019-.09-.24.411-1.02.51-1.227.159-.333.476-.755.417-1.141-.918-.151-2.695.8-2.886,1.739-.527-.737-.716-1.707-1.3-2.445a3.146,3.146,0,0,0-1.1-.99c-.223-.093-.827-.22-1.047-.044s-.149.634-.13.871a8.293,8.293,0,0,1-.007,2.563c-.261,1.063-1.033,1.294-1.884,1.789a5.974,5.974,0,0,0-1.487,1.284,4.394,4.394,0,0,0-1.077,2.565,5.865,5.865,0,0,0,2.362,4.677,7.4,7.4,0,0,0,1.217.813c2.688,1.43,6.718,2.076,8.3-1.237a8.32,8.32,0,0,0,.533-4.43,1.389,1.389,0,0,1,.083-.734,1.735,1.735,0,0,1,1.205-.714c.351-.081,1-.237.416-.586-.464-.28-1.124-.077-1.629-.1a5.911,5.911,0,0,1,1.252-.934A4.642,4.642,0,0,1,312.747,202.362Z" transform="translate(-259.162 -196.885)" fill="#d44459"/>
        </g>
        <g id="Group_1301" data-name="Group 1301" transform="translate(4.945 46.098)">
          <path id="Path_2192" data-name="Path 2192" d="M315.981,263.306c0-6.795-3.258-11.383-8.292-14.007a10.009,10.009,0,0,1-5.572-8.814v-10.8H288.156v10.8a10.009,10.009,0,0,1-5.572,8.814c-5.034,2.623-8.292,7.212-8.292,14.007a27.417,27.417,0,0,0,3.867,13.474c2.209,3.79,7.483,8.1,7.483,12.492h18.987c0-4.387,5.275-8.7,7.483-12.492A27.4,27.4,0,0,0,315.981,263.306Z" transform="translate(-274.292 -228.94)" fill="#ffd245"/>
          <rect id="Rectangle_909" data-name="Rectangle 909" width="16.963" height="2.567" rx="0.622" transform="translate(12.363)" fill="#f59711"/>
          <rect id="Rectangle_910" data-name="Rectangle 910" width="21.756" height="2.513" rx="0.609" transform="translate(9.967 59.403)" fill="#f59711"/>
        </g>
      </g>
    </g>
  </g>
</svg>
