<svg xmlns="http://www.w3.org/2000/svg" xmlns:xlink="http://www.w3.org/1999/xlink" width="245.437" height="265.188" viewBox="0 0 245.437 265.188">
  <defs>
    <clipPath id="clip-path">
      <path id="Path_2264" data-name="Path 2264" d="M468.573,185.872V172.841a67.637,67.637,0,0,0-67.638-67.635H290.774a67.637,67.637,0,0,0-67.638,67.635v13.031Z" transform="translate(-223.136 -105.206)" fill="#2b79e6"/>
    </clipPath>
  </defs>
  <g id="Group_1383" data-name="Group 1383" transform="translate(-8524.301 5236.382)">
    <g id="Group_1345" data-name="Group 1345" transform="translate(8676.98 -5120.807)">
      <g id="Group_1344" data-name="Group 1344">
        <path id="Path_2258" data-name="Path 2258" d="M313,94.409a15.65,15.65,0,1,1-15.651-15.648A15.649,15.649,0,0,1,313,94.409Z" transform="translate(-281.697 -78.761)" fill="#fca89e"/>
      </g>
    </g>
    <g id="Group_1347" data-name="Group 1347" transform="translate(8682.612 -5115.174)">
      <g id="Group_1346" data-name="Group 1346">
        <circle id="Ellipse_110" data-name="Ellipse 110" cx="10.016" cy="10.016" r="10.016" fill="#f7958d"/>
      </g>
    </g>
    <g id="Group_1349" data-name="Group 1349" transform="translate(8584.332 -5120.807)">
      <g id="Group_1348" data-name="Group 1348">
        <path id="Path_2259" data-name="Path 2259" d="M277.46,94.409a15.65,15.65,0,1,1-15.648-15.648A15.65,15.65,0,0,1,277.46,94.409Z" transform="translate(-246.161 -78.761)" fill="#fca89e"/>
      </g>
    </g>
    <g id="Group_1351" data-name="Group 1351" transform="translate(8591.217 -5113.921)">
      <g id="Group_1350" data-name="Group 1350">
        <path id="Path_2260" data-name="Path 2260" d="M266.33,90.165a8.764,8.764,0,1,1-8.763-8.763A8.762,8.762,0,0,1,266.33,90.165Z" transform="translate(-248.802 -81.402)" fill="#f7958d"/>
      </g>
    </g>
    <g id="Group_1359" data-name="Group 1359" transform="translate(8524.301 -5051.86)">
      <path id="Path_2261" data-name="Path 2261" d="M468.573,185.872V172.841a67.637,67.637,0,0,0-67.638-67.635H290.774a67.637,67.637,0,0,0-67.638,67.635v13.031Z" transform="translate(-223.136 -105.206)" fill="#2b79e6"/>
      <g id="Group_1358" data-name="Group 1358" clip-path="url(#clip-path)">
        <g id="Group_1354" data-name="Group 1354" transform="translate(28.04 -9.556)">
          <g id="Group_1353" data-name="Group 1353">
            <g id="Group_1352" data-name="Group 1352">
              <path id="Path_2262" data-name="Path 2262" d="M233.891,120.722c5.113,11.685,56.232,29.943,72.3,34.326s24.1-28.483,24.1-28.483-35.056-30.673-65.727-24.1S233.891,120.722,233.891,120.722Z" transform="translate(-233.891 -101.541)" fill="#0a5dc1"/>
            </g>
          </g>
        </g>
        <g id="Group_1357" data-name="Group 1357" transform="translate(121.153 -9.556)">
          <g id="Group_1356" data-name="Group 1356">
            <g id="Group_1355" data-name="Group 1355">
              <path id="Path_2263" data-name="Path 2263" d="M366.008,120.722c-5.113,11.685-56.234,29.943-72.3,34.326s-24.1-28.483-24.1-28.483,35.056-30.673,65.73-24.1S366.008,120.722,366.008,120.722Z" transform="translate(-269.605 -101.541)" fill="#0a5dc1"/>
            </g>
          </g>
        </g>
      </g>
    </g>
    <g id="Group_1361" data-name="Group 1361" transform="translate(8616.832 -5083.047)">
      <g id="Group_1360" data-name="Group 1360">
        <path id="Path_2265" data-name="Path 2265" d="M320.623,130.274s-7.683,14.233-29.112,13.539c-27.083-.876-32.884-16.895-32.884-16.895V93.244h60.108Z" transform="translate(-258.627 -93.244)" fill="#f7958d"/>
      </g>
    </g>
    <g id="Group_1364" data-name="Group 1364" transform="translate(8592.931 -5183.597)">
      <g id="Group_1363" data-name="Group 1363">
        <g id="Group_1362" data-name="Group 1362">
          <path id="Path_2266" data-name="Path 2266" d="M283.643,169.971c24.481,19.593,40.834,5.757,57.626-20.722,19.953-31.463,20.073-62.531-4.411-82.123a56.775,56.775,0,0,0-79.8,8.854C237.465,100.461,259.162,150.381,283.643,169.971Z" transform="translate(-249.46 -54.677)" fill="#fca89e"/>
        </g>
      </g>
    </g>
    <g id="Group_1366" data-name="Group 1366" transform="translate(8531.915 -5203.157)">
      <g id="Group_1365" data-name="Group 1365">
        <path id="Path_2267" data-name="Path 2267" d="M231.648,133.616,226.712,86.65c-1.695-16.146-1.46-29.3,17.825-39.475l.441.832c-18.806,9.915-19.045,22.229-17.332,38.544l4.935,46.966Z" transform="translate(-226.056 -47.175)" fill="#2a2873"/>
      </g>
    </g>
    <g id="Group_1368" data-name="Group 1368" transform="translate(8583.214 -5206.42)">
      <g id="Group_1367" data-name="Group 1367">
        <path id="Path_2268" data-name="Path 2268" d="M245.732,48.672l129.892-2.748L356.746,99.317l-99.275-.154Z" transform="translate(-245.732 -45.923)" fill="#2b79e6"/>
      </g>
    </g>
    <g id="Group_1371" data-name="Group 1371" transform="translate(8548.451 -5236.382)">
      <g id="Group_1370" data-name="Group 1370">
        <g id="Group_1369" data-name="Group 1369">
          <path id="Path_2269" data-name="Path 2269" d="M329.225,91.765l92.864-24.509L325.781,34.431,232.4,68.221Z" transform="translate(-232.399 -34.431)" fill="#2758bd"/>
        </g>
      </g>
    </g>
    <g id="Group_1373" data-name="Group 1373" transform="translate(8530.813 -5120.911)">
      <g id="Group_1372" data-name="Group 1372">
        <path id="Path_2270" data-name="Path 2270" d="M241.437,95.554l-9.48-16.833-6.323,18.255Z" transform="translate(-225.633 -78.721)" fill="#2a2873"/>
      </g>
    </g>
    <g id="Group_1376" data-name="Group 1376" transform="translate(8586.515 -5153.18)">
      <g id="Group_1375" data-name="Group 1375">
        <g id="Group_1374" data-name="Group 1374">
          <path id="Path_2271" data-name="Path 2271" d="M255.437,66.344S237.3,78.058,254.2,92.455s72.3-25.665,72.3-25.665Z" transform="translate(-246.998 -66.344)" fill="#823024"/>
        </g>
      </g>
    </g>
    <g id="Group_1381" data-name="Group 1381" transform="translate(8674.005 -5153.204)">
      <g id="Group_1380" data-name="Group 1380">
        <g id="Group_1379" data-name="Group 1379">
          <path id="Path_2273" data-name="Path 2273" d="M300.777,66.512s7.949,9.211,8.419,15.786-10.33,12.676-17.372,2.816a137.575,137.575,0,0,1-11.268-18.78Z" transform="translate(-280.556 -66.335)" fill="#823024"/>
        </g>
      </g>
    </g>
  </g>
</svg>
