<svg xmlns="http://www.w3.org/2000/svg" width="313.005" height="267.38" viewBox="0 0 313.005 267.38">
  <g id="Group_1382" data-name="Group 1382" transform="translate(-7875.331 5293.753)">
    <line id="Line_36" data-name="Line 36" x2="31.479" y2="91.352" transform="translate(8056.32 -5117.888)" fill="none" stroke="#0065ff" stroke-miterlimit="10" stroke-width="1"/>
    <line id="Line_37" data-name="Line 37" x1="31.479" y2="91.352" transform="translate(7969.175 -5117.888)" fill="none" stroke="#0065ff" stroke-miterlimit="10" stroke-width="1"/>
    <line id="Line_38" data-name="Line 38" x2="182.523" transform="translate(7987.502 -5079.06)" fill="none" stroke="#0065ff" stroke-miterlimit="10" stroke-width="1"/>
    <line id="Line_39" data-name="Line 39" x2="31.479" y2="91.352" transform="translate(8156.384 -5117.888)" fill="none" stroke="#0065ff" stroke-miterlimit="10" stroke-width="1"/>
    <line id="Line_40" data-name="Line 40" x1="31.479" y2="91.352" transform="translate(8069.238 -5117.888)" fill="none" stroke="#0065ff" stroke-miterlimit="10" stroke-width="1"/>
    <path id="Path_2215" data-name="Path 2215" d="M220.715,283.186h0a41.268,41.268,0,0,0-41.268,41.269V365.3a10,10,0,0,0,10,10H363.721c14.718,0,26.65-30.744,26.65-45.462V226.653H298.139a32.449,32.449,0,0,0-28.931,17.755l-6.655,13.1A46.925,46.925,0,0,1,220.715,283.186Z" transform="translate(7787.57 -5479.366)" fill="#3e63e0"/>
    <rect id="Rectangle_924" data-name="Rectangle 924" width="86.935" height="103.485" rx="40.533" transform="translate(8072.06 -5225.896)" fill="#3146b5"/>
    <rect id="Rectangle_925" data-name="Rectangle 925" width="127.127" height="18.23" rx="8.5" transform="translate(7978.983 -5122.302)" fill="#2758bd"/>
    <path id="Path_2216" data-name="Path 2216" d="M266.683,251.29l-12.567,3.873a31.589,31.589,0,0,0-21.965,25.68L228.1,308.914h81.65l-4.664-27.771a31.589,31.589,0,0,0-22.2-25.062Z" transform="translate(7787.141 -5479.583)" fill="#2b2b2b"/>
    <path id="Path_2217" data-name="Path 2217" d="M266.531,273.9l9.081-8.877a11.77,11.77,0,0,0-1.03-17.731l-.645-.5a11.771,11.771,0,0,0-15.576,1.046h0a11.771,11.771,0,0,0-.539,15.951Z" transform="translate(7786.904 -5479.522)" fill="#d17c5e"/>
    <path id="Path_2218" data-name="Path 2218" d="M283.336,224.613c13.665,7.687,19.49-15.064,4.5-16.315,9.581-5.936-6.587-31.213-18.951-10.907-4.129-18.6-31.536-14.342-26.992,2.7-14.484-9.94-28.518,12.293-8.931,20.086Z" transform="translate(7787.182 -5479)" fill="#954500"/>
    <circle id="Ellipse_104" data-name="Ellipse 104" cx="9.982" cy="9.982" r="9.982" transform="translate(8010.167 -5249.775)" fill="#d17c5e"/>
    <path id="Path_2219" data-name="Path 2219" d="M239.445,210c-7.319,7.038-11.886,12.33-9.965,23.245,2.626,14.925,14.063-16.235,14.734-17.858Z" transform="translate(7787.132 -5479.219)" fill="#954500"/>
    <path id="Path_2220" data-name="Path 2220" d="M286.142,237.084a28.5,28.5,0,1,1-.063-1.931C286.123,235.793,286.142,236.433,286.142,237.084Z" transform="translate(7787.133 -5479.206)" fill="#e59e7a"/>
    <path id="Path_2257" data-name="Path 2257" d="M0,4.314Z" transform="translate(8050.155 -5246.438)" fill="#080616"/>
    <path id="Path_2228" data-name="Path 2228" d="M286.457,235.185l-3.72,4.26L271.9,212.171C280.219,216.843,289.186,215.96,286.457,235.185Z" transform="translate(7786.754 -5479.238)" fill="#954500"/>
    <circle id="Ellipse_106" data-name="Ellipse 106" cx="9.982" cy="9.982" r="9.982" transform="translate(8067.001 -5249.775)" fill="#e59e7a"/>
    <path id="Path_2229" data-name="Path 2229" d="M290.375,236.082c-3.664,4.108-1.776,6.663,2.222,6.219" transform="translate(7786.609 -5479.449)" fill="none" stroke="#d17c5e" stroke-miterlimit="10" stroke-width="1"/>
    <path id="Path_2230" data-name="Path 2230" d="M279.242,220.486" transform="translate(7786.689 -5479.312)" fill="#954500"/>
    <path id="Path_2231" data-name="Path 2231" d="M279.244,215.255c-2.722,7.327-19.16,8.032-20.4-4.8-1.786,11.841-22.907,10.04-22.846-.923.087-15.544,30.206-8.746,30.206-8.746Z" transform="translate(7787.071 -5479.125)" fill="#954500"/>
    <path id="Path_2232" data-name="Path 2232" d="M283.379,256.124c16.586,6.316,24.841,14.214,33.113,36.5a23.961,23.961,0,0,1-17.785,31.807l-3.034.607Z" transform="translate(7786.653 -5479.626)" fill="#2b2b2b"/>
    <path id="Path_2233" data-name="Path 2233" d="M243.492,289.052l-15.307-10.469s-3.224,3.682-.921,7.466l3.225,3.691Z" transform="translate(7787.155 -5479.824)" fill="#cf7b63"/>
    <path id="Path_2234" data-name="Path 2234" d="M249.8,289.489l-29.224-5.375.84,11.421s10.918,22.338,27.712,6.382Z" transform="translate(7787.207 -5479.874)" fill="#e59e7a"/>
    <path id="Path_2235" data-name="Path 2235" d="M226.256,285.142l-20.013-5.524s-2.625,8.716,17.974,10.942Z" transform="translate(7787.334 -5479.833)" fill="#e59e7a"/>
    <path id="Path_2236" data-name="Path 2236" d="M223.323,286.116l-19.917,11.922s7.855,8.7,19.917-4.909Z" transform="translate(7787.358 -5479.891)" fill="#e59e7a"/>
    <path id="Path_2237" data-name="Path 2237" d="M224.9,289.145l-15.133,17.6s10.2,5.771,17.348-10.947Z" transform="translate(7787.303 -5479.917)" fill="#e59e7a"/>
    <path id="Path_2238" data-name="Path 2238" d="M250.038,289.537,310.59,302.41s-1.339,20.187-23.61,20-39.89-21.609-39.89-21.609Z" transform="translate(7786.973 -5479.921)" fill="#e59e7a"/>
    <path id="Rectangle_926" data-name="Rectangle 926" d="M15.179,0H56.465a0,0,0,0,1,0,0V32.555a0,0,0,0,1,0,0H15.179A15.179,15.179,0,0,1,0,17.376v-2.2A15.179,15.179,0,0,1,15.179,0Z" transform="translate(8003.53 -5154.857)" fill="#1e315a"/>
    <path id="Path_2239" data-name="Path 2239" d="M218.836,403.313l18.807-1.045,5.9-58.729a12.51,12.51,0,0,0-12.51-12.511h0a12.51,12.51,0,0,0-12.51,12.511Z" transform="translate(7787.226 -5480.287)" fill="#e59e7a"/>
    <path id="Rectangle_927" data-name="Rectangle 927" d="M15.179,0H56.465a0,0,0,0,1,0,0V32.555a0,0,0,0,1,0,0H15.179A15.179,15.179,0,0,1,0,17.376v-2.2A15.179,15.179,0,0,1,15.179,0Z" transform="translate(8037.433 -5154.857)" fill="#1e315a"/>
    <path id="Path_2240" data-name="Path 2240" d="M260.814,399.24l19.865-1.6V343.539a12.511,12.511,0,0,0-12.511-12.511h0a12.51,12.51,0,0,0-12.51,12.511Z" transform="translate(7786.897 -5480.287)" fill="#e59e7a"/>
    <path id="Path_2241" data-name="Path 2241" d="M260.85,399.8c-3.013,15.791,1.208,30.566,1.208,30.566l18.657-1.485s3.009-3.346,1.257-9.242,9.915-13.386-1.257-25.178Z" transform="translate(7786.862 -5480.847)" fill="#e59e7a"/>
    <path id="Path_2242" data-name="Path 2242" d="M262.074,430.655l-.492,2.219a3.093,3.093,0,0,0,4.319,3.491,4.47,4.47,0,0,0,2.319-2.66l.1.121a4.452,4.452,0,0,0,4.135,1.592l5.783-.893a3.958,3.958,0,0,0,3.171-5.1l-.676-2.146Z" transform="translate(7786.846 -5481.136)" fill="#e59e7a"/>
    <path id="Path_2243" data-name="Path 2243" d="M218.908,401.231c-6.549,14.683-5.822,30.031-5.822,30.031l18.5,2.827s3.7-2.569,3.339-8.709,10.755-11.5,2.579-25.532Z" transform="translate(7787.273 -5480.894)" fill="#e59e7a"/>
    <path id="Path_2244" data-name="Path 2244" d="M231.971,432.458l.479,1.835a3.242,3.242,0,0,1-5.149,3.367,4.605,4.605,0,0,1-1.359-1.924l-.712.946a2.659,2.659,0,0,1-2.432,1.043l-8.336-.972a2.659,2.659,0,0,1-2.257-3.345l1-3.628Z" transform="translate(7787.282 -5481.157)" fill="#e59e7a"/>
    <path id="Path_2245" data-name="Path 2245" d="M333.857,283.186h0a41.268,41.268,0,0,0-41.268,41.269v41.367a9.473,9.473,0,0,0,9.473,9.473H373.28A18.089,18.089,0,0,0,391.369,357.2V226.653L375.7,257.51A46.928,46.928,0,0,1,333.857,283.186Z" transform="translate(7786.572 -5479.366)" fill="#2758bd"/>
    <rect id="Rectangle_928" data-name="Rectangle 928" width="296.241" height="10.506" transform="translate(7875.331 -5163.779)" fill="#fcfcfc"/>
    <path id="Path_2246" data-name="Path 2246" d="M223.529,227.275H100.844a5.081,5.081,0,0,0-4.635,3l-1,2.219,21.816,82.679H246.257L227.49,230.455A4.057,4.057,0,0,0,223.529,227.275Z" transform="translate(7788.313 -5479.372)" fill="#fcfcfc"/>
    <path id="Path_2247" data-name="Path 2247" d="M220.493,229.976H98.724a3.7,3.7,0,0,0-3.616,4.5L112.989,315.2H242.344l-18.235-82.318A3.7,3.7,0,0,0,220.493,229.976Z" transform="translate(7788.315 -5479.395)" fill="#2b2b2b"/>
    <path id="Path_2248" data-name="Path 2248" d="M177.908,272.885c1.114,5.032-2.062,9.112-7.094,9.112a12.013,12.013,0,0,1-11.13-9.112c-1.114-5.032,2.062-9.112,7.094-9.112A12.013,12.013,0,0,1,177.908,272.885Z" transform="translate(7787.747 -5479.694)" fill="#fcfcfc"/>
    <path id="Rectangle_929" data-name="Rectangle 929" d="M0,0H57.983a4.152,4.152,0,0,1,4.152,4.152V6.419a0,0,0,0,1,0,0H0a0,0,0,0,1,0,0V0A0,0,0,0,1,0,0Z" transform="translate(8031.763 -5170.618)" fill="#fcfcfc"/>
    <line id="Line_41" data-name="Line 41" x2="192.593" transform="translate(7901.304 -5164.198)" fill="none" stroke="#2b2b2b" stroke-miterlimit="10" stroke-width="1"/>
    <path id="Path_2249" data-name="Path 2249" d="M291.977,306.352a6.256,6.256,0,0,0,1.309,3.935,4.046,4.046,0,0,0,3.143,1.624h83.133v4.311H294.557a7.166,7.166,0,0,1-5.587-2.894,11.133,11.133,0,0,1-2.318-6.975c0-5.45,3.54-9.87,7.906-9.87h85.005v4.312H296.429C293.975,300.794,291.977,303.276,291.977,306.352Z" transform="translate(7786.625 -5479.982)" fill="#436fcf"/>
    <path id="Path_2250" data-name="Path 2250" d="M377.294,300.832v11.117H296.476a4.046,4.046,0,0,1-3.143-1.624,6.256,6.256,0,0,1-1.309-3.935c0-3.077,2-5.559,4.452-5.559Z" transform="translate(7786.577 -5480.021)" fill="#fcfcfc"/>
    <path id="Path_2251" data-name="Path 2251" d="M307.19,310.642l-4.543-2.544-4.543,2.544v-9.007h9.086Z" transform="translate(7786.523 -5480.027)" fill="#de315e"/>
    <path id="Path_2252" data-name="Path 2252" d="M299.644,288.188a4.612,4.612,0,0,0,1.31,3.249,4.37,4.37,0,0,0,3.142,1.34H372.03v3.559H302.225a7.736,7.736,0,0,1-5.588-2.39,8.219,8.219,0,0,1-2.318-5.759,8.032,8.032,0,0,1,7.907-8.148H372.03V283.6H304.1A4.522,4.522,0,0,0,299.644,288.188Z" transform="translate(7786.557 -5479.837)" fill="#ebb4b6"/>
    <path id="Path_2253" data-name="Path 2253" d="M369.95,283.631v9.178H302.625a4.374,4.374,0,0,1-3.143-1.34,4.616,4.616,0,0,1-1.309-3.249,4.522,4.522,0,0,1,4.452-4.589Z" transform="translate(7786.522 -5479.869)" fill="#fcfcfc"/>
  </g>
</svg>
