<svg id="b12601fe-d580-4c34-96ea-fd9385fd61ef" xmlns="http://www.w3.org/2000/svg" xmlns:xlink="http://www.w3.org/1999/xlink" viewBox="0 0 787.17 730"><defs><style>.cls-1{fill:url(#linear-gradient);}.cls-2{fill:#fff;}.cls-3{fill:#6c63ff;}.cls-4{opacity:0.5;}.cls-5{fill:url(#linear-gradient-2);}.cls-6{fill:url(#linear-gradient-3);}.cls-7{fill:url(#linear-gradient-4);}.cls-8{opacity:0.7;}.cls-19,.cls-9{opacity:0.1;}.cls-10{fill:url(#linear-gradient-5);}.cls-11{fill:url(#linear-gradient-6);}.cls-12{fill:url(#linear-gradient-7);}.cls-13{fill:#4db6ac;}.cls-14,.cls-21,.cls-22{fill:none;stroke:#535461;stroke-miterlimit:10;}.cls-14,.cls-21{opacity:0.6;}.cls-14,.cls-19,.cls-21,.cls-22,.cls-40{isolation:isolate;}.cls-15{fill:url(#linear-gradient-8);}.cls-16{fill:url(#linear-gradient-9);}.cls-17{fill:url(#linear-gradient-10);}.cls-18{fill:#535461;}.cls-20{fill:url(#linear-gradient-11);}.cls-21{stroke-width:3px;}.cls-22{opacity:0.3;}.cls-23{fill:#e0e0e0;}.cls-24{fill:#f35244;}.cls-25{fill:#4d00e5;}.cls-26{fill:#ed908b;}.cls-27{fill:#ff9f9b;}.cls-28{fill:#ffdad2;}.cls-29{fill:#3005cd;}.cls-30{fill:#5fdbff;}.cls-31{fill:#231f20;}.cls-32{fill:#362d7e;}.cls-33{fill:#fefefe;}.cls-34{fill:#e65c1b;}.cls-35{fill:#ecae0e;}.cls-36{fill:#e31d25;}.cls-37{fill:#185c37;}.cls-38{fill:#21a366;}.cls-39{fill:#107c41;}.cls-40{opacity:0.2;}.cls-41{fill:url(#linear-gradient-12);}.cls-42{fill:#33c481;}</style><linearGradient id="linear-gradient" x1="278.97" y1="280.08" x2="278.97" y2="550.76" gradientTransform="matrix(1, 0, 0, -1, 0, 750.38)" gradientUnits="userSpaceOnUse"><stop offset="0" stop-color="gray" stop-opacity="0.25"/><stop offset="0.54" stop-color="gray" stop-opacity="0.12"/><stop offset="1" stop-color="gray" stop-opacity="0.1"/></linearGradient><linearGradient id="linear-gradient-2" x1="191.8" y1="587.34" x2="191.8" y2="750.38" xlink:href="#linear-gradient"/><linearGradient id="linear-gradient-3" x1="563.67" y1="534.91" x2="563.67" y2="749.5" xlink:href="#linear-gradient"/><linearGradient id="linear-gradient-4" x1="629.11" y1="280.09" x2="629.11" y2="494.68" xlink:href="#linear-gradient"/><linearGradient id="linear-gradient-5" x1="-1616.39" y1="-30.52" x2="-1616.39" y2="100.34" gradientTransform="translate(-1030.51 665.38) rotate(180)" xlink:href="#linear-gradient"/><linearGradient id="linear-gradient-6" x1="-1581.36" y1="-30.52" x2="-1581.36" y2="100.34" gradientTransform="translate(-1030.51 665.38) rotate(180)" xlink:href="#linear-gradient"/><linearGradient id="linear-gradient-7" x1="259.46" y1="52.07" x2="357.9" y2="52.07" gradientTransform="matrix(1, 0, 0, -1, -206.42, 665.38)" xlink:href="#linear-gradient"/><linearGradient id="linear-gradient-8" x1="235.32" y1="53.48" x2="235.32" y2="184.34" xlink:href="#linear-gradient"/><linearGradient id="linear-gradient-9" x1="270.35" y1="53.48" x2="270.35" y2="184.34" xlink:href="#linear-gradient"/><linearGradient id="linear-gradient-10" x1="319.81" y1="53.5" x2="319.81" y2="188.44" xlink:href="#linear-gradient"/><linearGradient id="linear-gradient-11" x1="840.16" y1="68.37" x2="972.2" y2="68.37" gradientTransform="matrix(1, 0, 0, -1, -206.42, 665.38)" xlink:href="#linear-gradient"/><linearGradient id="linear-gradient-12" x1="-1014.25" y1="911.47" x2="-1013.71" y2="912.41" gradientTransform="matrix(72.38, 0, 0, -72.38, 73922.54, 66117.46)" gradientUnits="userSpaceOnUse"><stop offset="0" stop-color="#18884f"/><stop offset="0.5" stop-color="#117e43"/><stop offset="1" stop-color="#0b6631"/></linearGradient></defs><title>finance</title><rect class="cls-1" x="136.93" y="199.62" width="284.09" height="270.68"/><rect class="cls-2" x="143.02" y="205.71" width="271.9" height="258.49"/><rect class="cls-3" x="152.78" y="215.47" width="252.39" height="238.98"/><g class="cls-4"><rect class="cls-5" x="5.25" width="373.1" height="163.04"/></g><rect class="cls-2" x="10.12" y="2.09" width="363.34" height="156.07"/><rect class="cls-3" x="20.56" y="11.85" width="342.46" height="136.56"/><rect class="cls-6" x="456.38" y="0.88" width="214.59" height="214.59"/><rect class="cls-2" x="462.47" y="6.97" width="202.4" height="202.4"/><rect class="cls-3" x="472.23" y="16.73" width="182.89" height="182.89"/><rect class="cls-7" x="487.06" y="255.7" width="284.09" height="214.59"/><rect class="cls-2" x="493.16" y="261.8" width="271.9" height="202.4"/><rect class="cls-3" x="502.91" y="271.55" width="252.39" height="182.89"/><g class="cls-8"><g class="cls-9"><polygon class="cls-10" points="602.37 565.04 602.37 583.59 602.37 589.77 602.37 672.2 602.37 678.39 602.37 695.9 577.64 695.9 569.4 695.9 569.4 678.39 569.4 672.2 569.4 589.77 569.4 583.59 569.4 565.04 577.64 565.04 602.37 565.04"/></g><g class="cls-9"><polygon class="cls-11" points="567.34 565.04 567.34 583.59 567.34 589.77 567.34 672.2 567.34 678.39 567.34 695.9 542.61 695.9 534.36 695.9 534.36 678.39 534.36 672.2 534.36 589.77 534.36 583.59 534.36 565.04 542.61 565.04 567.34 565.04"/></g></g><g class="cls-8"><path class="cls-12" d="M150.91,589.11a19.11,19.11,0,0,0-7.58-20.26,56.39,56.39,0,0,1-5.08-3.28c-2.57-2.16-4-5.35-5.09-8.53-2.54-7.64-3.34-16.2-7.8-23.1-4.06-6.28-12-8.12-19-8.74-2.55-.23-5.23-.35-7.57.71-3.91,1.77-5.77,6.38-5.94,10.66s.94,8.51,1.22,12.79-.48,9-3.64,11.88-7.68,3.24-11.86,3.82a78,78,0,0,0-16.08,4c-4.37,1.59-9.23,4.46-9.44,9.1-.17,3.8,2.89,6.82,5.2,9.84,4.3,5.65,6.45,13.09,5,20s-6.45,13.14-7.35,20.3a8.77,8.77,0,0,0,.72,5.36,10,10,0,0,0,2.72,2.88c2.7,2.09,5.71,3.76,8.26,6,5.32,4.71,8.21,11.56,10.43,18.32.21.65.4,1.31.61,2H73.41a19.41,19.41,0,0,0-19.36,19.36h0a19.41,19.41,0,0,0,19.36,19.36h52.27A19.41,19.41,0,0,0,145,682.22h0a19.41,19.41,0,0,0-19.36-19.36H111.35c3.39-4.54,6.93-8.8,12.16-10.55s11.56-.72,15.66-4.37a12.28,12.28,0,0,0,3.55-7A21,21,0,0,0,140.43,627c-1.65-2.94-4.06-5.61-4.58-8.94-.45-2.85.58-5.73,2-8.25C141.78,602.61,148.77,597,150.91,589.11Z"/></g><path class="cls-13" d="M106.2,529.39c-2.43-.22-5-.33-7.21.68-3.72,1.68-5.49,6.08-5.66,10.16s.9,8.1,1.16,12.18S94,561,91,563.73s-7.31,3.09-11.3,3.64a74.88,74.88,0,0,0-15.31,3.8c-4.16,1.51-8.79,4.25-9,8.67-.16,3.61,2.76,6.5,5,9.38,4.1,5.38,6.14,12.47,4.75,19.09s-6.14,12.51-7,19.33a8.42,8.42,0,0,0,.69,5.11,9.4,9.4,0,0,0,2.59,2.74c2.57,2,5.44,3.58,7.87,5.73,5.07,4.49,7.81,11,9.93,17.44A141.5,141.5,0,0,1,84.08,678c4.37-2.81,10-2.77,14.68-5,9.93-4.87,13.26-19,23.74-22.47,5-1.66,11-.69,14.91-4.16a11.71,11.71,0,0,0,3.38-6.7,20,20,0,0,0-2.21-13.27c-1.57-2.8-3.86-5.34-4.36-8.51-.43-2.71.56-5.46,1.88-7.86,3.77-6.85,10.43-12.16,12.46-19.71A18.21,18.21,0,0,0,141.37,571a54.57,54.57,0,0,1-4.83-3.13c-2.44-2.06-3.84-5.09-4.85-8.13-2.42-7.27-3.19-15.43-7.43-22C120.39,531.74,112.87,530,106.2,529.39Z"/><path class="cls-14" d="M106.13,529.64s9.22,123.5-14.75,144.7"/><rect class="cls-3" x="56.36" y="660.52" width="86.64" height="36.87" rx="14.3"/><path class="cls-14" d="M55.44,577.57s23.56-2.75,52.33,14.75"/><path class="cls-14" d="M107.31,607.06a60.88,60.88,0,0,1,41.21-25.8"/><path class="cls-14" d="M57.74,627.8s32.66-5.54,47.67,3.68"/><path class="cls-14" d="M103.58,644.15s17.1-7.76,36.33-1.46"/><g class="cls-8"><g class="cls-9"><polygon class="cls-15" points="218.83 566.04 218.83 584.59 218.83 590.77 218.83 673.2 218.83 679.39 218.83 696.9 243.56 696.9 251.81 696.9 251.81 679.39 251.81 673.2 251.81 590.77 251.81 584.59 251.81 566.04 243.56 566.04 218.83 566.04"/></g><g class="cls-9"><polygon class="cls-16" points="253.87 566.04 253.87 584.59 253.87 590.77 253.87 673.2 253.87 679.39 253.87 696.9 278.6 696.9 286.84 696.9 286.84 679.39 286.84 673.2 286.84 590.77 286.84 584.59 286.84 566.04 278.6 566.04 253.87 566.04"/></g><g class="cls-9"><polygon class="cls-17" points="352.6 688.38 325.25 585.84 325.25 585.84 323.66 579.87 323.66 579.87 318.88 561.94 287.02 570.44 291.8 588.36 291.8 588.36 293.07 593.12 314.63 673.98 314.63 673.98 316.23 679.96 316.23 679.96 320.74 696.88 352.6 688.38"/></g></g><rect class="cls-18" x="222.21" y="569.24" width="31.31" height="124.26"/><rect class="cls-3" x="222.21" y="586.85" width="31.31" height="5.87"/><rect class="cls-3" x="222.21" y="670.99" width="31.31" height="5.87"/><rect class="cls-19" x="245.69" y="569.24" width="7.83" height="124.26"/><rect class="cls-18" x="255.47" y="569.24" width="31.31" height="124.26"/><rect class="cls-3" x="255.47" y="586.85" width="31.31" height="5.87"/><rect class="cls-3" x="255.47" y="670.99" width="31.31" height="5.87"/><rect class="cls-19" x="278.95" y="569.24" width="7.83" height="124.26"/><rect class="cls-18" x="302.39" y="567.33" width="31.31" height="124.26" transform="translate(-151.44 103.19) rotate(-14.93)"/><rect class="cls-3" x="291.68" y="586.35" width="31.31" height="5.87" transform="translate(-141.45 99.08) rotate(-14.93)"/><rect class="cls-3" x="313.37" y="667.64" width="31.31" height="5.87" transform="translate(-161.66 107.41) rotate(-14.93)"/><rect class="cls-19" x="325.49" y="564.31" width="7.83" height="124.26" transform="translate(-150.27 106.02) rotate(-14.93)"/><rect class="cls-18" x="566.86" y="569.24" width="31.31" height="124.26"/><rect class="cls-3" x="566.86" y="586.86" width="31.31" height="5.87"/><rect class="cls-3" x="566.86" y="671" width="31.31" height="5.87"/><rect class="cls-19" x="566.86" y="569.24" width="7.83" height="124.26"/><rect class="cls-18" x="533.6" y="569.24" width="31.31" height="124.26"/><rect class="cls-3" x="533.6" y="586.86" width="31.31" height="5.87"/><rect class="cls-3" x="533.6" y="671" width="31.31" height="5.87"/><rect class="cls-19" x="533.6" y="569.24" width="7.83" height="124.26"/><g class="cls-8"><path class="cls-20" d="M758.44,636.52H702.52l.74-6.29c15.8-14.18,26-52,26-52a5,5,0,0,0-.67.14c-9.3,1.87-15.86,5.68-20.47,10.25l2-16.73c29.19-6.29,40.76-44.9,40.76-44.9-18.63,4.13-30.24,10.53-37.45,16.59L716.27,519c19.73,6.77,40.16-29.21,40.16-29.21l-.78-.16.38-.25-.58.21c-21.81-4.7-33.47,7.77-37.26,13l.28-2.41q-.87,2.28-1.68,4.54h0v.06q-2.28,6.28-4.24,12.4h0q-1.68,5.24-3.14,10.34h0s-.9-22-24.07-27.76c0,0,2.43,47.93,20.79,40.08h0q-2.55,10.38-4.29,20.13h0q-1.15,6.35-2,12.39l-.11.12.11-.09v.32h0q-.76,5.46-1.32,10.64c.36-6.65-.86-25.88-23.51-44,0,0-30.09,52.93,21.23,63.34l.34.29-.08-.24.47.1.21-2.72a284.43,284.43,0,0,0,.18,34h0c0,.78.11,1.54.16,2.28H641c-21.57,44.63,12,69.08,12,69.08h92.69C781.58,660.15,758.44,636.52,758.44,636.52ZM698.19,585.8Z"/></g><path class="cls-21" d="M699.38,653.47s-14.67-64.09,17.76-146.72"/><path class="cls-3" d="M642.23,634.16H755.75s22.39,28.57-12.36,71H653.82S621.39,675.86,642.23,634.16Z"/><path class="cls-13" d="M715.51,511s11.28-20.08,38.31-13.9c0,0-22.34,38-42.44,25.58Z"/><path class="cls-13" d="M708.35,532.3s-.87-20.53-23.26-25.94c0,0,2.35,44.79,20.09,37.45Z"/><path class="cls-13" d="M701,562.63s4.13-21.51,47.38-30.78c0,0-13.79,44.49-49.36,42.71Z"/><path class="cls-13" d="M697.58,586.77s4.55-22.49-22.48-43.34c0,0-29.37,49.93,21.22,59.33Z"/><path class="cls-13" d="M696.72,617.69s-3.14-31.79,30.86-38c0,0-12.41,44.39-30.91,52.31Z"/><path class="cls-22" d="M711.73,523s29.34-22.39,41.7-26.25"/><path class="cls-22" d="M699,574.32s35.52-37.84,49.42-42.47"/><path class="cls-22" d="M685.09,506.37s21.62,29.34,20.08,37.07"/><path class="cls-22" d="M675.05,543.43s11.58,52.51,20.85,59.46"/><path class="cls-22" d="M696.67,632.23s18.53-51,30.89-52.51"/><g class="cls-9"><path d="M755.75,634.16H642.23c-.26.52-.5,1-.75,1.54h110.4s21.84,27.88-11.12,69.5h2.62C778.14,662.73,755.75,634.16,755.75,634.16Z"/></g><rect class="cls-23" y="692.4" width="787.17" height="26.68"/><rect class="cls-23" x="33.35" y="719.08" width="720.46" height="10.92"/><rect class="cls-19" x="33.35" y="719.08" width="720.46" height="3.64"/><path id="Path_695" data-name="Path 695" class="cls-2" d="M237.79,320.9h9.93v27.32h-9.93Z"/><path id="Path_696" data-name="Path 696" class="cls-2" d="M277.52,323.39h9.93v34.76h-9.93Z"/><path id="Path_697" data-name="Path 697" class="cls-2" d="M267.59,358.15v-44.7h-9.93v39.73Z"/><path id="Path_698" data-name="Path 698" class="cls-2" d="M297.39,340.77V313.45h9.93v24.84Z"/><path id="Path_699" data-name="Path 699" class="cls-2" d="M317.25,298.56h9.93V335.8h-9.93Z"/><path id="Path_700" data-name="Path 700" class="cls-24" d="M230.34,303.52l7.45,7.45,22.35-22.35,22.35,24.83,37.24-37.24v12.41h9.94V258.83h-29.8v9.93h12.41l-29.79,29.8-22.35-24.83Z"/><path id="Path_701" data-name="Path 701" class="cls-25" d="M217.93,353.18h9.93V395.4h-9.93Z"/><path id="Path_702" data-name="Path 702" class="cls-26" d="M315.53,349.74l1.72,5.93L294.9,380.5l-2.48-9.94,1.55-3.17L301.34,351a8.17,8.17,0,0,1,10.81-4.1,8.07,8.07,0,0,1,3.38,2.82Z"/><path id="Path_703" data-name="Path 703" class="cls-27" d="M331.21,349.16l-18.93,21.4L294.9,383v-7.45s2.49-1.38,2.48-1.44h0l18.15-24.35,2.8-3.76a7.2,7.2,0,0,1,12.88,3.18Z"/><path id="Path_704" data-name="Path 704" class="cls-28" d="M342.08,358.15l-27.14,27.14a59.94,59.94,0,0,1-84.77,0h0L227.86,383V360.63a17.57,17.57,0,0,1,24.83,0l5,5h31a8.67,8.67,0,0,1,5.28,1.79,7.81,7.81,0,0,1,.87.75,8.69,8.69,0,0,1,2.54,5.95h0a1.27,1.27,0,0,1,0,.2,8.7,8.7,0,0,1-2,5.52h0a44.87,44.87,0,0,0,15.06-9.92l21.67-21.68a7,7,0,1,1,10.07,9.8l-.14.14Z"/><path id="Path_705" data-name="Path 705" class="cls-29" d="M198.06,348.22h19.87v54.62H198.06Z"/><path id="Path_706" data-name="Path 706" class="cls-27" d="M288.69,388h-31a2.49,2.49,0,1,1,0-5h31a8.69,8.69,0,0,0,7.23-3.86,2.48,2.48,0,1,1,4.12,2.76h0A13.65,13.65,0,0,1,288.69,388Z"/><rect id="Rectangle_3" data-name="Rectangle 3" class="cls-30" x="621.55" y="388.8" width="58.84" height="11.54"/><rect id="Rectangle_4" data-name="Rectangle 4" class="cls-30" x="614.07" y="400.34" width="58.84" height="11.54"/><circle id="Ellipse_1" data-name="Ellipse 1" class="cls-30" cx="647.23" cy="338.41" r="29.75"/><path id="Path_718" data-name="Path 718" class="cls-31" d="M640.08,365.88a32.68,32.68,0,1,0-32.67-32.67h0A32.67,32.67,0,0,0,640.08,365.88Zm0-59.49a27,27,0,1,1-27,27,27,27,0,0,1,27-27Z"/><path id="Path_719" data-name="Path 719" class="cls-31" d="M676.65,381h-2.28v-8.77a2.91,2.91,0,0,0-2.9-2.93H612.61a2.91,2.91,0,0,0-2.93,2.9v11.57a2.9,2.9,0,0,0,2.9,2.92h2.47v5.85h-4.56a2.93,2.93,0,0,0-2.92,2.91v8.8h-7.8a2.91,2.91,0,0,0-2.93,2.9V418.7a2.93,2.93,0,0,0,2.9,2.93H603v8.78a2.9,2.9,0,0,0,2.9,2.92h58.7a2.91,2.91,0,0,0,2.93-2.9V418.87a2.91,2.91,0,0,0-2.9-2.93h-3.28v-5.85h7.8a2.91,2.91,0,0,0,2.93-2.9v-8.8h4.55a2.91,2.91,0,0,0,2.93-2.9V383.92a2.92,2.92,0,0,0-2.9-2.93Zm-61.28-5.69h53.15v5.86H615.37Zm46.49,52H608.71v-5.85h53.15Zm-6.18-11.54H602.53v-5.85h53.15Zm10.73-11.54H613.26v-5.85h53.15Zm7.48-11.54H620.73v-5.86h53.32v5.86Z"/><path id="Path_720" data-name="Path 720" d="M632,349.3c-.49-.16-1-.49-1.46-.65l-.65-.33.16-.81.49-4.06.16-1.47,1.3.65c.16.17.33.17.65.33.16.16.33.16.65.32l1.46.49a4.68,4.68,0,0,0,1.47.33c.49,0,.81.16,1.3.16s.81.16,1.3.16h1.62c.33,0,.82-.16,1.14-.16h0c.33-.16.65-.16,1-.32h0a1.67,1.67,0,0,0,.81-.65h0a4,4,0,0,0,.65-.82h0a2.23,2.23,0,0,0,.32-1c0-.33.17-.65,0-1h0c0-.32-.16-.65-.16-1h0a3.79,3.79,0,0,0-.49-.82,1.29,1.29,0,0,0-.65-.65,3.68,3.68,0,0,0-.81-.48l-1-.49a2.38,2.38,0,0,0-1-.33h0a9.79,9.79,0,0,1-2-.81h0l-1.95-1c-.65-.33-1.14-.65-1.79-1a8.55,8.55,0,0,1-1.46-1.14h0a8.88,8.88,0,0,1-1.3-1.3h0l-1-1.46h0a8.16,8.16,0,0,1-.65-1.79,7.19,7.19,0,0,1-.16-1.79h0a10.17,10.17,0,0,1,.16-2.27,10.4,10.4,0,0,1,.65-2.12h0a17.09,17.09,0,0,1,1-1.78,6.88,6.88,0,0,1,1.46-1.63h0a17.77,17.77,0,0,1,1.79-1.3h0a9.79,9.79,0,0,1,2-.81l.32-.16v-4.88h5.53V316h.32c.33,0,.65.16,1.14.16.33.16.81.16,1.14.33a5.8,5.8,0,0,1,.81.16h0a2.59,2.59,0,0,1,.81.32l.82.33-.17.81-.48,3.74-.17,1.3-1.13-.32a2.94,2.94,0,0,1-.82-.33h0a7.73,7.73,0,0,0-.81-.16h0a3.2,3.2,0,0,0-1.3-.17c-.33,0-.81-.16-1.14-.16h-1.62c-.49,0-.82.16-1.14.16h0l-1,.49c-.32.17-.48.49-.81.65-.16.33-.32.49-.49.82h0c-.16.32-.16.65-.32,1v1.14a2.23,2.23,0,0,0,.32,1,3.79,3.79,0,0,0,.49.82h0l.65.65h0c.33.16.49.32.81.48h0l1,.49a2.43,2.43,0,0,0,1,.33h0a9.87,9.87,0,0,1,2,.81,17.09,17.09,0,0,1,1.78,1c.49.32,1.14.65,1.63,1s1,.81,1.46,1.14a4.32,4.32,0,0,1,1.14,1.3h0l1,1.46a5.5,5.5,0,0,1,.65,1.79h0a6.76,6.76,0,0,1,.17,1.79h0a10.81,10.81,0,0,1-.17,2.27h0a10.4,10.4,0,0,1-.65,2.12,6.64,6.64,0,0,1-1.13,1.78c-.49.49-1,1.14-1.47,1.63h0a16.21,16.21,0,0,1-1.78,1.3,11.58,11.58,0,0,1-2.12.81l-.32.17V355h-5.53V350.6H637a6.81,6.81,0,0,1-1.79-.33c-.65-.16-1.14-.32-1.79-.48h0L632,349.3"/><path id="Path_675" data-name="Path 675" class="cls-32" d="M191.88,84.8h0L169.7,49.55H159.2v55.22h11.68l-.61-35.25,21.93,35.25h10.21V49.55H190.73Z"/><path id="Path_676" data-name="Path 676" class="cls-32" d="M238.44,71.28h0L232.8,70c-4.9-1-7.47-1.59-8.49-3.43a3.26,3.26,0,0,1-.58-2,5.3,5.3,0,0,1,.45-2c1.88-3.32,7.48-3.6,8.66-3.6H233c8.38,0,11.81,5.76,13.11,7.64l.45.74,9.81-7.19-.57-.74A26.11,26.11,0,0,0,233.45,48.2c-12.94,0-18.13,6.45-19.88,9.19a17.85,17.85,0,0,0-2.17,8.33A14.42,14.42,0,0,0,219.61,79a26.79,26.79,0,0,0,7.76,2.45l6.9,1.59a7.71,7.71,0,0,0,1.15.28c2.45.45,6.21,1.31,7.63,3a4.69,4.69,0,0,1,.74,2.74c0,4.45-5,5.6-5.64,5.76a14.86,14.86,0,0,1-3.75.45c-9.64,0-13.69-4.45-15.85-7.64l-.57-.85-9.81,6.9.45.73a21.32,21.32,0,0,0,2.73,3.6c3.6,3.75,10.21,8.21,21.49,8.21,9.35,0,15-3,18.17-5.76a15.11,15.11,0,0,0,5.47-12.38c0-5.31-1.71-7.92-3.31-9.64C249.39,74,243.62,72.42,238.44,71.28Z"/><path id="Path_677" data-name="Path 677" class="cls-32" d="M274.87,94h0V81.49h24.5V71h-24.5V60.21h26.95V49.55H263.23v55.22H303.7V94Z"/><path id="Path_678" data-name="Path 678" class="cls-33" d="M100.15,95.41h0L81.85,77.16l18.3-18.26,18.29,18.26Z"/><path id="Path_679" data-name="Path 679" class="cls-34" d="M129.68,47.71h0L100.27,35.79l-29.53,12L100.15,58.9Z"/><path id="Path_680" data-name="Path 680" class="cls-32" d="M118.44,77.16h0l11.23-29.45L100.15,58.9Z"/><path id="Path_681" data-name="Path 681" class="cls-35" d="M100.15,95.42h0l29.52,11.06L118.44,77.16Z"/><path id="Path_682" data-name="Path 682" class="cls-35" d="M100.15,58.9h0L70.74,47.83,81.85,77.16Z"/><path id="Path_683" data-name="Path 683" class="cls-36" d="M70.74,47.84h0c-.16-.17-12.09,29.32-12.09,29.32l12.09,29.32L81.85,77.16Z"/><path id="Path_684" data-name="Path 684" class="cls-35" d="M81.85,77.16h0L70.74,106.48l29.41-11.06Z"/><path id="Path_685" data-name="Path 685" class="cls-36" d="M70.74,106.48h0l29.41,12,29.53-12L100.15,95.42Z"/><path id="Path_686" data-name="Path 686" class="cls-34" d="M129.68,47.71h0L118.44,77.16l11.24,29.32,12.09-29.32Z"/><path id="Path_707" data-name="Path 707" class="cls-37" d="M572.43,107.24,525.94,99v60.61a5,5,0,0,0,5,5h80.22a5,5,0,0,0,5-5h0V137.32Z"/><path id="Path_708" data-name="Path 708" class="cls-38" d="M572.43,55.28H531a5,5,0,0,0-5,5h0V82.63L572.43,110,597,118.18,616.18,110V82.63Z"/><path id="Path_709" data-name="Path 709" class="cls-39" d="M525.94,82.63h46.49V110H525.94Z"/><path id="Path_710" data-name="Path 710" class="cls-19" d="M559.21,77.16H525.94v68.37h33.27a5,5,0,0,0,5-5V82.17A5,5,0,0,0,559.21,77.16Z"/><path id="Path_711" data-name="Path 711" class="cls-40" d="M556.48,79.89H525.94v68.37h30.54a5,5,0,0,0,5-5V84.91A5,5,0,0,0,556.48,79.89Z"/><path id="Path_712" data-name="Path 712" class="cls-40" d="M556.48,79.89H525.94v62.9h30.54a5,5,0,0,0,5-5V84.91A5,5,0,0,0,556.48,79.89Z"/><path id="Path_713" data-name="Path 713" class="cls-40" d="M553.74,79.89h-27.8v62.9h27.8a5,5,0,0,0,5-5V84.91A5,5,0,0,0,553.74,79.89Z"/><path id="Path_714" data-name="Path 714" class="cls-41" d="M503.6,79.89h50.14a5,5,0,0,1,5,5h0V135a5,5,0,0,1-5,5H503.6a5,5,0,0,1-5-5h0V84.91A5,5,0,0,1,503.6,79.89Z"/><path id="Path_715" data-name="Path 715" class="cls-2" d="M514.12,126.27l10.54-16.34L515,93.68h7.77L528,104.07c.49,1,.82,1.72,1,2.2h.07c.34-.79.71-1.55,1.09-2.29l5.64-10.3H543l-9.9,16.16,10.16,16.43h-7.6l-6.09-11.41a9.2,9.2,0,0,1-.72-1.52h-.09a7.38,7.38,0,0,1-.71,1.47l-6.27,11.46Z"/><path id="Path_716" data-name="Path 716" class="cls-42" d="M611.17,55.28H572.43V82.63h43.75V60.29a5,5,0,0,0-5-5Z"/><path id="Path_717" data-name="Path 717" class="cls-39" d="M572.43,110h43.75v27.35H572.43Z"/></svg>