<svg id="b12601fe-d580-4c34-96ea-fd9385fd61ef" xmlns="http://www.w3.org/2000/svg" xmlns:xlink="http://www.w3.org/1999/xlink" viewBox="0 0 787.17 730"><defs><style>.cls-1{fill:url(#linear-gradient);}.cls-2{fill:#fff;}.cls-3{fill:#6c63ff;}.cls-4{fill:url(#linear-gradient-2);}.cls-5{fill:url(#linear-gradient-3);}.cls-6{opacity:0.7;}.cls-17,.cls-7{opacity:0.1;}.cls-8{fill:url(#linear-gradient-4);}.cls-9{fill:url(#linear-gradient-5);}.cls-10{fill:url(#linear-gradient-6);}.cls-11{fill:#4db6ac;}.cls-12,.cls-19,.cls-20,.cls-29{fill:none;}.cls-12,.cls-19,.cls-20{stroke:#535461;stroke-miterlimit:10;}.cls-12,.cls-19{opacity:0.6;}.cls-12,.cls-17,.cls-19,.cls-20{isolation:isolate;}.cls-13{fill:url(#linear-gradient-7);}.cls-14{fill:url(#linear-gradient-8);}.cls-15{fill:url(#linear-gradient-9);}.cls-16{fill:#535461;}.cls-18{fill:url(#linear-gradient-10);}.cls-19{stroke-width:3px;}.cls-20{opacity:0.3;}.cls-21{fill:#e0e0e0;}.cls-22{fill:#f9f7f8;}.cls-23{fill:#c9bfc8;}.cls-24{fill:#efedef;}.cls-25{fill:#baafb9;}.cls-26{fill:#fedf30;}.cls-27{fill:#f47c7c;}.cls-28{fill:#e5e1e5;}.cls-29{stroke:#000;stroke-linecap:round;stroke-linejoin:round;stroke-width:3.54px;}.cls-30{fill:#261300;}.cls-31{fill:#ff7c00;}.cls-32{fill:url(#radial-gradient);}.cls-33{fill:#31c5f0;}</style><linearGradient id="linear-gradient" x1="204.31" y1="348.18" x2="204.31" y2="618.86" gradientTransform="matrix(1, 0, 0, -1, 0, 756.51)" gradientUnits="userSpaceOnUse"><stop offset="0" stop-color="gray" stop-opacity="0.25"/><stop offset="0.54" stop-color="gray" stop-opacity="0.12"/><stop offset="1" stop-color="gray" stop-opacity="0.1"/></linearGradient><linearGradient id="linear-gradient-2" x1="527.19" y1="510.85" x2="527.19" y2="740.21" xlink:href="#linear-gradient"/><linearGradient id="linear-gradient-3" x1="549.11" y1="247.81" x2="549.11" y2="487.09" xlink:href="#linear-gradient"/><linearGradient id="linear-gradient-4" x1="-9748.82" y1="-24.39" x2="-9748.82" y2="106.47" gradientTransform="translate(-9162.93 671.51) rotate(180)" xlink:href="#linear-gradient"/><linearGradient id="linear-gradient-5" x1="-9713.78" y1="-24.39" x2="-9713.78" y2="106.47" gradientTransform="translate(-9162.93 671.51) rotate(180)" xlink:href="#linear-gradient"/><linearGradient id="linear-gradient-6" x1="259.46" y1="58.2" x2="357.9" y2="58.2" gradientTransform="matrix(1, 0, 0, -1, -206.42, 671.51)" xlink:href="#linear-gradient"/><linearGradient id="linear-gradient-7" x1="235.32" y1="59.61" x2="235.32" y2="190.47" xlink:href="#linear-gradient"/><linearGradient id="linear-gradient-8" x1="270.35" y1="59.61" x2="270.35" y2="190.47" xlink:href="#linear-gradient"/><linearGradient id="linear-gradient-9" x1="319.81" y1="59.63" x2="319.81" y2="194.57" xlink:href="#linear-gradient"/><linearGradient id="linear-gradient-10" x1="840.16" y1="74.5" x2="972.2" y2="74.5" gradientTransform="matrix(1, 0, 0, -1, -206.42, 671.51)" xlink:href="#linear-gradient"/><radialGradient id="radial-gradient" cx="-5282.86" cy="589.38" r="0.04" gradientTransform="matrix(2291.67, 0, 0, -2218.75, 12107116.41, 1308048.18)" gradientUnits="userSpaceOnUse"><stop offset="0" stop-color="#34364e" stop-opacity="0.98"/><stop offset="1" stop-color="#0c0824"/></radialGradient></defs><title>graphic design</title><rect class="cls-1" x="62.26" y="137.65" width="284.09" height="270.68"/><rect class="cls-2" x="68.36" y="143.75" width="271.9" height="258.49"/><rect class="cls-3" x="78.11" y="153.5" width="252.39" height="238.98"/><rect class="cls-4" x="412.5" y="16.3" width="229.36" height="229.36"/><rect class="cls-2" x="419.02" y="22.81" width="216.33" height="216.33"/><rect class="cls-3" x="429.45" y="33.24" width="195.48" height="195.48"/><rect class="cls-5" x="429.47" y="269.43" width="239.27" height="239.27"/><rect class="cls-2" x="436.26" y="276.22" width="225.68" height="225.68"/><rect class="cls-3" x="447.15" y="287.1" width="203.93" height="203.93"/><g class="cls-6"><g class="cls-7"><polygon class="cls-8" points="602.37 565.04 602.37 583.59 602.37 589.77 602.37 672.2 602.37 678.39 602.37 695.9 577.64 695.9 569.4 695.9 569.4 678.39 569.4 672.2 569.4 589.77 569.4 583.59 569.4 565.04 577.64 565.04 602.37 565.04"/></g><g class="cls-7"><polygon class="cls-9" points="567.34 565.04 567.34 583.59 567.34 589.77 567.34 672.2 567.34 678.39 567.34 695.9 542.61 695.9 534.36 695.9 534.36 678.39 534.36 672.2 534.36 589.77 534.36 583.59 534.36 565.04 542.61 565.04 567.34 565.04"/></g></g><g class="cls-6"><path class="cls-10" d="M150.91,589.11a19.11,19.11,0,0,0-7.58-20.26,56.39,56.39,0,0,1-5.08-3.28c-2.57-2.16-4-5.35-5.09-8.53-2.54-7.64-3.34-16.2-7.8-23.1-4.06-6.28-12-8.12-19-8.74-2.55-.23-5.23-.35-7.57.71-3.91,1.77-5.77,6.38-5.94,10.66s.94,8.51,1.22,12.79-.48,9-3.64,11.88-7.68,3.24-11.86,3.82a78,78,0,0,0-16.08,4c-4.37,1.59-9.23,4.46-9.44,9.1-.17,3.8,2.89,6.82,5.2,9.84,4.3,5.65,6.45,13.09,5,20s-6.45,13.14-7.35,20.3a8.77,8.77,0,0,0,.72,5.36,10,10,0,0,0,2.72,2.88c2.7,2.09,5.71,3.76,8.26,6,5.32,4.71,8.21,11.56,10.43,18.32.21.65.4,1.31.61,2H73.41a19.41,19.41,0,0,0-19.36,19.36h0a19.41,19.41,0,0,0,19.36,19.36h52.27A19.41,19.41,0,0,0,145,682.22h0a19.41,19.41,0,0,0-19.36-19.36H111.35c3.39-4.54,6.93-8.8,12.16-10.55s11.56-.72,15.66-4.37a12.28,12.28,0,0,0,3.55-7A21,21,0,0,0,140.43,627c-1.65-2.94-4.06-5.61-4.58-8.94-.45-2.85.58-5.73,2-8.25C141.78,602.61,148.77,597,150.91,589.11Z"/></g><path class="cls-11" d="M106.2,529.39c-2.43-.22-5-.33-7.21.68-3.72,1.68-5.49,6.08-5.66,10.16s.9,8.1,1.16,12.18S94,561,91,563.73s-7.31,3.09-11.3,3.64a74.88,74.88,0,0,0-15.31,3.8c-4.16,1.51-8.79,4.25-9,8.67-.16,3.61,2.76,6.5,5,9.38,4.1,5.38,6.14,12.47,4.75,19.09s-6.14,12.51-7,19.33a8.42,8.42,0,0,0,.69,5.11,9.4,9.4,0,0,0,2.59,2.74c2.57,2,5.44,3.58,7.87,5.73,5.07,4.49,7.81,11,9.93,17.44A141.5,141.5,0,0,1,84.08,678c4.37-2.81,10-2.77,14.68-5,9.93-4.87,13.26-19,23.74-22.47,5-1.66,11-.69,14.91-4.16a11.71,11.71,0,0,0,3.38-6.7,20,20,0,0,0-2.21-13.27c-1.57-2.8-3.86-5.34-4.36-8.51-.43-2.71.56-5.46,1.88-7.86,3.77-6.85,10.43-12.16,12.46-19.71A18.21,18.21,0,0,0,141.37,571a54.57,54.57,0,0,1-4.83-3.13c-2.44-2.06-3.84-5.09-4.85-8.13-2.42-7.27-3.19-15.43-7.43-22C120.39,531.74,112.87,530,106.2,529.39Z"/><path class="cls-12" d="M106.13,529.64s9.22,123.5-14.75,144.7"/><rect class="cls-3" x="56.36" y="660.52" width="86.64" height="36.87" rx="14.3"/><path class="cls-12" d="M55.44,577.57s23.56-2.75,52.33,14.75"/><path class="cls-12" d="M107.31,607.06a60.88,60.88,0,0,1,41.21-25.8"/><path class="cls-12" d="M57.74,627.8s32.66-5.54,47.67,3.68"/><path class="cls-12" d="M103.58,644.15s17.1-7.76,36.33-1.46"/><g class="cls-6"><g class="cls-7"><polygon class="cls-13" points="218.83 566.04 218.83 584.59 218.83 590.77 218.83 673.2 218.83 679.39 218.83 696.9 243.56 696.9 251.81 696.9 251.81 679.39 251.81 673.2 251.81 590.77 251.81 584.59 251.81 566.04 243.56 566.04 218.83 566.04"/></g><g class="cls-7"><polygon class="cls-14" points="253.87 566.04 253.87 584.59 253.87 590.77 253.87 673.2 253.87 679.39 253.87 696.9 278.6 696.9 286.84 696.9 286.84 679.39 286.84 673.2 286.84 590.77 286.84 584.59 286.84 566.04 278.6 566.04 253.87 566.04"/></g><g class="cls-7"><polygon class="cls-15" points="352.6 688.38 325.25 585.84 325.25 585.84 323.66 579.87 323.66 579.87 318.88 561.94 287.02 570.44 291.8 588.36 291.8 588.36 293.07 593.12 314.63 673.98 314.63 673.98 316.23 679.96 316.23 679.96 320.74 696.88 352.6 688.38"/></g></g><rect class="cls-16" x="222.21" y="569.24" width="31.31" height="124.26"/><rect class="cls-3" x="222.21" y="586.85" width="31.31" height="5.87"/><rect class="cls-3" x="222.21" y="670.99" width="31.31" height="5.87"/><rect class="cls-17" x="245.69" y="569.24" width="7.83" height="124.26"/><rect class="cls-16" x="255.47" y="569.24" width="31.31" height="124.26"/><rect class="cls-3" x="255.47" y="586.85" width="31.31" height="5.87"/><rect class="cls-3" x="255.47" y="670.99" width="31.31" height="5.87"/><rect class="cls-17" x="278.95" y="569.24" width="7.83" height="124.26"/><rect class="cls-16" x="302.39" y="567.33" width="31.31" height="124.26" transform="translate(-151.44 103.19) rotate(-14.93)"/><rect class="cls-3" x="291.68" y="586.35" width="31.31" height="5.87" transform="translate(-141.45 99.08) rotate(-14.93)"/><rect class="cls-3" x="313.37" y="667.64" width="31.31" height="5.87" transform="matrix(0.97, -0.26, 0.26, 0.97, -161.66, 107.41)"/><rect class="cls-17" x="325.49" y="564.31" width="7.83" height="124.26" transform="matrix(0.97, -0.26, 0.26, 0.97, -150.27, 106.02)"/><rect class="cls-16" x="566.86" y="569.24" width="31.31" height="124.26"/><rect class="cls-3" x="566.86" y="586.86" width="31.31" height="5.87"/><rect class="cls-3" x="566.86" y="671" width="31.31" height="5.87"/><rect class="cls-17" x="566.86" y="569.24" width="7.83" height="124.26"/><rect class="cls-16" x="533.6" y="569.24" width="31.31" height="124.26"/><rect class="cls-3" x="533.6" y="586.86" width="31.31" height="5.87"/><rect class="cls-3" x="533.6" y="671" width="31.31" height="5.87"/><rect class="cls-17" x="533.6" y="569.24" width="7.83" height="124.26"/><g class="cls-6"><path class="cls-18" d="M758.44,636.52H702.52l.74-6.29c15.8-14.18,26-52,26-52a5,5,0,0,0-.67.14c-9.3,1.87-15.86,5.68-20.47,10.25l2-16.73c29.19-6.29,40.76-44.9,40.76-44.9-18.63,4.13-30.24,10.53-37.45,16.59L716.27,519c19.73,6.77,40.16-29.21,40.16-29.21l-.78-.16.38-.25-.58.21c-21.81-4.7-33.47,7.77-37.26,13l.28-2.41q-.87,2.28-1.68,4.54h0v.06q-2.28,6.28-4.24,12.4h0q-1.68,5.24-3.14,10.34h0s-.9-22-24.07-27.76c0,0,2.43,47.93,20.79,40.08h0q-2.55,10.38-4.29,20.13h0q-1.15,6.35-2,12.39l-.11.12.11-.09v.32h0q-.76,5.46-1.32,10.64c.36-6.65-.86-25.88-23.51-44,0,0-30.09,52.93,21.23,63.34l.34.29-.08-.24.47.1.21-2.72a284.43,284.43,0,0,0,.18,34h0c0,.78.11,1.54.16,2.28H641c-21.57,44.63,12,69.08,12,69.08h92.69C781.58,660.15,758.44,636.52,758.44,636.52ZM698.19,585.8Z"/></g><path class="cls-19" d="M699.38,653.47s-14.67-64.09,17.76-146.72"/><path class="cls-3" d="M642.23,634.16H755.75s22.39,28.57-12.36,71H653.82S621.39,675.86,642.23,634.16Z"/><path class="cls-11" d="M715.51,511s11.28-20.08,38.31-13.9c0,0-22.34,38-42.44,25.58Z"/><path class="cls-11" d="M708.35,532.3s-.87-20.53-23.26-25.94c0,0,2.35,44.79,20.09,37.45Z"/><path class="cls-11" d="M701,562.63s4.13-21.51,47.38-30.78c0,0-13.79,44.49-49.36,42.71Z"/><path class="cls-11" d="M697.58,586.77s4.55-22.49-22.48-43.34c0,0-29.37,49.93,21.22,59.33Z"/><path class="cls-11" d="M696.72,617.69s-3.14-31.79,30.86-38c0,0-12.41,44.39-30.91,52.31Z"/><path class="cls-20" d="M711.73,523s29.34-22.39,41.7-26.25"/><path class="cls-20" d="M699,574.32s35.52-37.84,49.42-42.47"/><path class="cls-20" d="M685.09,506.37s21.62,29.34,20.08,37.07"/><path class="cls-20" d="M675.05,543.43s11.58,52.51,20.85,59.46"/><path class="cls-20" d="M696.67,632.23s18.53-51,30.89-52.51"/><g class="cls-7"><path d="M755.75,634.16H642.23c-.26.52-.5,1-.75,1.54h110.4s21.84,27.88-11.12,69.5h2.62C778.14,662.73,755.75,634.16,755.75,634.16Z"/></g><rect class="cls-21" y="692.4" width="787.17" height="26.68"/><rect class="cls-21" x="33.35" y="719.08" width="720.46" height="10.92"/><rect class="cls-17" x="33.35" y="719.08" width="720.46" height="3.64"/><path class="cls-22" d="M551.56,132.43l-21-28.39a4.79,4.79,0,0,0-.91-.94l-15.25,19.09-8.28,14.44,10.8,12.7,5.46,10.13h11.55l7.35-8.79,10-11.47a5.51,5.51,0,0,0,.25-6.77Z"/><path class="cls-23" d="M511.86,153.86V166.6l.49,14.09a1.43,1.43,0,0,0,1.42,1.38h7.9l1.15-.7.51-4.89h7.08l.37,4.24,1.68,1.35h8.14a1.43,1.43,0,0,0,1.42-1.38l.49-14.09V153.86Z"/><path class="cls-24" d="M510.1,139.2a5.51,5.51,0,0,1-.25-6.77l20.86-28.17-.16-.22a4.22,4.22,0,0,0-7,0l-21,28.39a5.51,5.51,0,0,0,.25,6.77l10.05,11.47,7.51,8.8h7.28l-7.51-8.8Z"/><path class="cls-25" d="M516.26,153.86h-4.4V166.6l.49,14.09a1.43,1.43,0,0,0,1.42,1.38h4.35l-.19-5.52a5.15,5.15,0,0,1,5.14-5.33h19.2l.08-.07.16-4.55V153.86Z"/><path class="cls-23" d="M542.27,150.67h-22l-3.62.49-4.4,1.53-.43,5.68.32,7.53s3.66.21,3.73.32,3.78.77,3.78.77l.07.2h22.53a4,4,0,0,0,4-4v-8.48a4,4,0,0,0-4-4Z"/><path class="cls-25" d="M516.91,163.17v-8.48a4,4,0,0,1,4-4h-9.08a4,4,0,0,0-4,4v8.48a4,4,0,0,0,4,4h9.08A4,4,0,0,1,516.91,163.17Z"/><path class="cls-24" d="M531.06,124.38V104.74l-.51-.7a4.48,4.48,0,0,0-1.13-1.09l-6.11,8.34v12.94a7.28,7.28,0,1,0,7.75.15Z"/><path class="cls-25" d="M532.46,177.93v4.14H521.67v-4.14a3,3,0,0,1,3-3h4.77a3,3,0,0,1,3,3Z"/><circle class="cls-26" cx="564.5" cy="126.84" r="5.31"/><circle class="cls-26" cx="489.87" cy="126.84" r="5.31"/><path class="cls-26" d="M530,89h-5.71a2,2,0,0,1-2-2V81.29a2,2,0,0,1,2-2H530a2,2,0,0,1,2,2V87A2,2,0,0,1,530,89Z"/><path class="cls-27" d="M583.83,89h-5.71a2,2,0,0,1-2-2V81.29a2,2,0,0,1,2-2h5.71a2,2,0,0,1,2,2V87A2,2,0,0,1,583.83,89Z"/><path class="cls-27" d="M470.54,89h5.71a2,2,0,0,0,2-2V81.29a2,2,0,0,0-2-2h-5.71a2,2,0,0,0-2,2V87A2,2,0,0,0,470.54,89Z"/><path class="cls-28" d="M523.31,104.42v9.83l7.4-10h0l-.16-.22a4.22,4.22,0,0,0-7,0Z"/><path class="cls-29" d="M521.67,182.66v-4.73a3,3,0,0,1,3-3h4.77a3,3,0,0,1,3,3v4.73"/><path d="M544.16,119.44a1.78,1.78,0,0,0-2.86,2.12l8.83,11.92A3.72,3.72,0,0,1,550,138l-9.51,10.86H513.67L504.16,138a3.75,3.75,0,0,1-.16-4.55l17.53-23.67V123.3a9.06,9.06,0,1,0,11.31.19V110.13l3.91,5.27a1.78,1.78,0,1,0,2.85-2.12L532,103a6,6,0,0,0-9.82,0l-21,28.39a7.32,7.32,0,0,0,.35,9l7.93,9.05a5.8,5.8,0,0,0-3.36,5.26v8.48a5.82,5.82,0,0,0,4.08,5.54l.48,14a1.78,1.78,0,0,0,1.78,1.72h.06a1.77,1.77,0,0,0,1.71-1.84L513.7,169h27l-.47,13.63a1.77,1.77,0,0,0,1.71,1.84H542a1.78,1.78,0,0,0,1.78-1.72l.49-14.09a5.82,5.82,0,0,0,3.83-5.46v-8.48a5.8,5.8,0,0,0-3.36-5.26l7.94-9.05a7.33,7.33,0,0,0,.34-9ZM527.07,104a2.53,2.53,0,0,1,2,1.11l.16.22v19.06a1.79,1.79,0,0,0,.81,1.49,5.51,5.51,0,1,1-5.86-.11,1.8,1.8,0,0,0,.86-1.53V105a2.5,2.5,0,0,1,2-1Zm17.45,59.18a2.24,2.24,0,0,1-2.25,2.24H511.86a2.24,2.24,0,0,1-2.24-2.24v-8.48a2.24,2.24,0,0,1,2.24-2.25h30.41a2.25,2.25,0,0,1,2.25,2.25Z"/><path d="M491.68,120a35.51,35.51,0,0,1,4.57-16,1.78,1.78,0,1,0-3.09-1.75,39.12,39.12,0,0,0-5,17.77,7.1,7.1,0,1,0,3.56,0Zm-1.81,10.39a3.54,3.54,0,1,1,3.53-3.54A3.55,3.55,0,0,1,489.87,130.38Z"/><path d="M583.83,77.52h-5.71a3.77,3.77,0,0,0-3.77,3.77v1.08H533.81V81.29A3.77,3.77,0,0,0,530,77.52h-5.71a3.77,3.77,0,0,0-3.77,3.77v1.08H480V81.29a3.77,3.77,0,0,0-3.77-3.77h-5.71a3.77,3.77,0,0,0-3.77,3.77V87a3.77,3.77,0,0,0,3.77,3.77h5.71A3.77,3.77,0,0,0,480,87V85.92h30.86a39.23,39.23,0,0,0-13.05,9.72A1.78,1.78,0,0,0,500.5,98a35.52,35.52,0,0,1,20.06-11.45V87a3.77,3.77,0,0,0,3.77,3.77H530A3.77,3.77,0,0,0,533.81,87v-.46A35.61,35.61,0,0,1,562.69,120a7.08,7.08,0,1,0,3.56,0,39.23,39.23,0,0,0-22.76-34h30.86V87a3.77,3.77,0,0,0,3.77,3.77h5.71A3.77,3.77,0,0,0,587.6,87V81.29a3.77,3.77,0,0,0-3.77-3.77ZM476.46,87a.21.21,0,0,1-.21.21h-5.71a.21.21,0,0,1-.21-.21V81.29a.21.21,0,0,1,.21-.21h5.71a.21.21,0,0,1,.21.21ZM568,126.84a3.54,3.54,0,1,1-3.54-3.53A3.55,3.55,0,0,1,568,126.84ZM530.25,87a.21.21,0,0,1-.21.21h-5.71a.21.21,0,0,1-.21-.21V81.29a.21.21,0,0,1,.21-.21H530a.21.21,0,0,1,.21.21ZM584,87a.21.21,0,0,1-.21.21h-5.71a.21.21,0,0,1-.21-.21V81.29a.21.21,0,0,1,.21-.21h5.71a.21.21,0,0,1,.21.21Z"/><path class="cls-30" d="M137.19,207.7H271.43V338.28H137.19Z"/><path class="cls-31" d="M131.08,201.6V344.38H277.53V201.6Zm6.11,6.1H271.43V338.28H137.19Z"/><path class="cls-31" d="M181.91,282.45l-4.82,18.3c-.12.49-.3.61-.91.61h-9c-.61,0-.73-.18-.61-.91l17.33-60.66a19.8,19.8,0,0,0,.61-5.06c0-.43.18-.61.49-.61h12.81c.43,0,.61.12.73.61L218,300.57c.12.49,0,.79-.49.79H207.36c-.49,0-.79-.12-.92-.54l-5.06-18.37Zm17-9.89c-1.71-6.77-5.74-21.54-7.26-28.68h-.13c-1.28,7.14-4.51,19.22-7.07,28.68Zm27.46-33.92a6.23,6.23,0,1,1,12.45,0c0,4-2.63,6.22-6.35,6.22-3.54,0-6.1-2.2-6.1-6.22Zm.73,13.85c0-.49.18-.74.73-.74h9.58c.49,0,.73.19.73.74v48.14c0,.49-.12.73-.73.73h-9.46c-.61,0-.79-.3-.79-.79V252.49Z"/><path class="cls-32" d="M491.41,332.94H606.8V445.18H491.41Z"/><path class="cls-33" d="M491.41,332.94H606.8V445.18H491.41Zm-5.24,117.49H612.05V327.7H486.17ZM571,378.05c-4.14,0-5.56,2.1-5.56,3.83s.95,3.2,6.51,6.08c8.23,4,10.8,7.82,10.8,13.43,0,8.39-6.4,12.9-15,12.9-4.56,0-8.5-.94-10.75-2.25-.37-.16-.42-.42-.42-.84v-7.71c0-.53.26-.69.63-.42a19.45,19.45,0,0,0,10.54,3.09c4.14,0,5.87-1.73,5.87-4.09,0-1.89-1.2-3.57-6.5-6.29-7.45-3.57-10.54-7.19-10.54-13.22,0-6.77,5.29-12.38,14.47-12.38,4.51,0,7.66.68,9.39,1.47a1.16,1.16,0,0,1,.53,1.05v7.18c0,.42-.27.69-.79.53a17.72,17.72,0,0,0-9.13-2.36Zm-45.1,6.24c1.2.1,2.15.1,4.24.1,6.14,0,11.91-2.15,11.91-10.49,0-6.66-4.14-10-11.12-10-2.1,0-4.09.1-5,.15Zm-9.34-27.85c0-.37.73-.63,1.15-.63,3.36-.16,8.34-.26,13.54-.26,14.52,0,20.19,8,20.19,18.14,0,13.33-9.65,19-21.51,19-2,0-2.67-.1-4.09-.1v20.14c0,.42-.15.63-.63.63h-8c-.42,0-.63-.16-.63-.63V356.44Z"/></svg>