<svg id="b12601fe-d580-4c34-96ea-fd9385fd61ef" xmlns="http://www.w3.org/2000/svg" xmlns:xlink="http://www.w3.org/1999/xlink" viewBox="0 0 787.17 730"><defs><style>.cls-1{opacity:0.7;}.cls-13,.cls-2{opacity:0.1;}.cls-3{fill:url(#linear-gradient);}.cls-4{fill:url(#linear-gradient-2);}.cls-5{fill:url(#linear-gradient-3);}.cls-6{fill:#4db6ac;}.cls-15,.cls-16,.cls-7{fill:none;stroke:#535461;stroke-miterlimit:10;}.cls-15,.cls-7{opacity:0.6;}.cls-13,.cls-15,.cls-16,.cls-7{isolation:isolate;}.cls-8{fill:#6c63ff;}.cls-9{fill:url(#linear-gradient-4);}.cls-10{fill:url(#linear-gradient-5);}.cls-11{fill:url(#linear-gradient-6);}.cls-12{fill:#535461;}.cls-14{fill:url(#linear-gradient-7);}.cls-15{stroke-width:3px;}.cls-16{opacity:0.3;}.cls-17{fill:#e0e0e0;}.cls-18{fill:url(#linear-gradient-8);}.cls-19{fill:#fff;}.cls-20{fill:url(#linear-gradient-9);}.cls-21{fill:#e6e7e8;}.cls-22{fill:#d4fbff;}.cls-23{fill:#ffd7e5;}.cls-24{fill:#0089ef;}.cls-25{fill:#fa759e;}.cls-26{fill:#6dc9f7;}.cls-27{fill:#3a2c60;}.cls-28{fill:#53c1de;}</style><linearGradient id="linear-gradient" x1="-5902.69" y1="-48.9" x2="-5902.69" y2="81.96" gradientTransform="translate(-5316.8 647) rotate(180)" gradientUnits="userSpaceOnUse"><stop offset="0" stop-color="gray" stop-opacity="0.25"/><stop offset="0.54" stop-color="gray" stop-opacity="0.12"/><stop offset="1" stop-color="gray" stop-opacity="0.1"/></linearGradient><linearGradient id="linear-gradient-2" x1="-5867.65" y1="-48.9" x2="-5867.65" y2="81.96" xlink:href="#linear-gradient"/><linearGradient id="linear-gradient-3" x1="259.46" y1="33.69" x2="357.9" y2="33.69" gradientTransform="matrix(1, 0, 0, -1, -206.42, 647)" xlink:href="#linear-gradient"/><linearGradient id="linear-gradient-4" x1="235.32" y1="35.1" x2="235.32" y2="165.96" gradientTransform="matrix(1, 0, 0, -1, 0, 732)" xlink:href="#linear-gradient"/><linearGradient id="linear-gradient-5" x1="270.35" y1="35.1" x2="270.35" y2="165.96" gradientTransform="matrix(1, 0, 0, -1, 0, 732)" xlink:href="#linear-gradient"/><linearGradient id="linear-gradient-6" x1="319.81" y1="35.12" x2="319.81" y2="170.06" gradientTransform="matrix(1, 0, 0, -1, 0, 732)" xlink:href="#linear-gradient"/><linearGradient id="linear-gradient-7" x1="840.16" y1="49.98" x2="972.2" y2="49.98" gradientTransform="matrix(1, 0, 0, -1, -206.42, 647)" xlink:href="#linear-gradient"/><linearGradient id="linear-gradient-8" x1="228.18" y1="298.82" x2="228.18" y2="610.21" gradientTransform="matrix(1, 0, 0, -1, 0, 732)" xlink:href="#linear-gradient"/><linearGradient id="linear-gradient-9" x1="585.06" y1="410.06" x2="585.06" y2="678.68" gradientTransform="matrix(1, 0, 0, -1, 0, 732)" xlink:href="#linear-gradient"/></defs><title>react</title><g class="cls-1"><g class="cls-2"><polygon class="cls-3" points="602.37 565.04 602.37 583.59 602.37 589.77 602.37 672.2 602.37 678.39 602.37 695.9 577.64 695.9 569.4 695.9 569.4 678.39 569.4 672.2 569.4 589.77 569.4 583.59 569.4 565.04 577.64 565.04 602.37 565.04"/></g><g class="cls-2"><polygon class="cls-4" points="567.34 565.04 567.34 583.59 567.34 589.77 567.34 672.2 567.34 678.39 567.34 695.9 542.61 695.9 534.36 695.9 534.36 678.39 534.36 672.2 534.36 589.77 534.36 583.59 534.36 565.04 542.61 565.04 567.34 565.04"/></g></g><g class="cls-1"><path class="cls-5" d="M150.91,589.11a19.11,19.11,0,0,0-7.58-20.26,56.39,56.39,0,0,1-5.08-3.28c-2.57-2.16-4-5.35-5.09-8.53-2.54-7.64-3.34-16.2-7.8-23.1-4.06-6.28-12-8.12-19-8.74-2.55-.23-5.23-.35-7.57.71-3.91,1.77-5.77,6.38-5.94,10.66s.94,8.51,1.22,12.79-.48,9-3.64,11.88-7.68,3.24-11.86,3.82a78,78,0,0,0-16.08,4c-4.37,1.59-9.23,4.46-9.44,9.1-.17,3.8,2.89,6.82,5.2,9.84,4.3,5.65,6.45,13.09,5,20s-6.45,13.14-7.35,20.3a8.77,8.77,0,0,0,.72,5.36,10,10,0,0,0,2.72,2.88c2.7,2.09,5.71,3.76,8.26,6,5.32,4.71,8.21,11.56,10.43,18.32.21.65.4,1.31.61,2H73.41a19.41,19.41,0,0,0-19.36,19.36h0a19.41,19.41,0,0,0,19.36,19.36h52.27A19.41,19.41,0,0,0,145,682.22h0a19.41,19.41,0,0,0-19.36-19.36H111.35c3.39-4.54,6.93-8.8,12.16-10.55s11.56-.72,15.66-4.37a12.28,12.28,0,0,0,3.55-7A21,21,0,0,0,140.43,627c-1.65-2.94-4.06-5.61-4.58-8.94-.45-2.85.58-5.73,2-8.25C141.78,602.61,148.77,597,150.91,589.11Z"/></g><path class="cls-6" d="M106.2,529.39c-2.43-.22-5-.33-7.21.68-3.72,1.68-5.49,6.08-5.66,10.16s.9,8.1,1.16,12.18S94,561,91,563.73s-7.31,3.09-11.3,3.64a74.88,74.88,0,0,0-15.31,3.8c-4.16,1.51-8.79,4.25-9,8.67-.16,3.61,2.76,6.5,5,9.38,4.1,5.38,6.14,12.47,4.75,19.09s-6.14,12.51-7,19.33a8.42,8.42,0,0,0,.69,5.11,9.4,9.4,0,0,0,2.59,2.74c2.57,2,5.44,3.58,7.87,5.73,5.07,4.49,7.81,11,9.93,17.44A141.5,141.5,0,0,1,84.08,678c4.37-2.81,10-2.77,14.68-5,9.93-4.87,13.26-19,23.74-22.47,5-1.66,11-.69,14.91-4.16a11.71,11.71,0,0,0,3.38-6.7,20,20,0,0,0-2.21-13.27c-1.57-2.8-3.86-5.34-4.36-8.51-.43-2.71.56-5.46,1.88-7.86,3.77-6.85,10.43-12.16,12.46-19.71A18.21,18.21,0,0,0,141.37,571a54.57,54.57,0,0,1-4.83-3.13c-2.44-2.06-3.84-5.09-4.85-8.13-2.42-7.27-3.19-15.43-7.43-22C120.39,531.74,112.87,530,106.2,529.39Z"/><path class="cls-7" d="M106.13,529.64s9.22,123.5-14.75,144.7"/><rect class="cls-8" x="56.36" y="660.52" width="86.64" height="36.87" rx="14.3"/><path class="cls-7" d="M55.44,577.57s23.56-2.75,52.33,14.75"/><path class="cls-7" d="M107.31,607.06a60.88,60.88,0,0,1,41.21-25.8"/><path class="cls-7" d="M57.74,627.8s32.66-5.54,47.67,3.68"/><path class="cls-7" d="M103.58,644.15s17.1-7.76,36.33-1.46"/><g class="cls-1"><g class="cls-2"><polygon class="cls-9" points="218.83 566.04 218.83 584.59 218.83 590.77 218.83 673.2 218.83 679.39 218.83 696.9 243.56 696.9 251.81 696.9 251.81 679.39 251.81 673.2 251.81 590.77 251.81 584.59 251.81 566.04 243.56 566.04 218.83 566.04"/></g><g class="cls-2"><polygon class="cls-10" points="253.87 566.04 253.87 584.59 253.87 590.77 253.87 673.2 253.87 679.39 253.87 696.9 278.6 696.9 286.84 696.9 286.84 679.39 286.84 673.2 286.84 590.77 286.84 584.59 286.84 566.04 278.6 566.04 253.87 566.04"/></g><g class="cls-2"><polygon class="cls-11" points="352.6 688.38 325.25 585.84 325.25 585.84 323.66 579.87 323.66 579.87 318.88 561.94 287.02 570.44 291.8 588.36 291.8 588.36 293.07 593.12 314.63 673.98 314.63 673.98 316.23 679.96 316.23 679.96 320.74 696.88 352.6 688.38"/></g></g><rect class="cls-12" x="222.21" y="569.24" width="31.31" height="124.26"/><rect class="cls-8" x="222.21" y="586.85" width="31.31" height="5.87"/><rect class="cls-8" x="222.21" y="670.99" width="31.31" height="5.87"/><rect class="cls-13" x="245.69" y="569.24" width="7.83" height="124.26"/><rect class="cls-12" x="255.47" y="569.24" width="31.31" height="124.26"/><rect class="cls-8" x="255.47" y="586.85" width="31.31" height="5.87"/><rect class="cls-8" x="255.47" y="670.99" width="31.31" height="5.87"/><rect class="cls-13" x="278.95" y="569.24" width="7.83" height="124.26"/><rect class="cls-12" x="302.39" y="567.33" width="31.31" height="124.26" transform="translate(-151.44 103.19) rotate(-14.93)"/><rect class="cls-8" x="291.68" y="586.35" width="31.31" height="5.87" transform="translate(-141.45 99.08) rotate(-14.93)"/><rect class="cls-8" x="313.37" y="667.64" width="31.31" height="5.87" transform="matrix(0.97, -0.26, 0.26, 0.97, -161.66, 107.41)"/><rect class="cls-13" x="325.49" y="564.31" width="7.83" height="124.26" transform="matrix(0.97, -0.26, 0.26, 0.97, -150.27, 106.02)"/><rect class="cls-12" x="566.86" y="569.24" width="31.31" height="124.26"/><rect class="cls-8" x="566.86" y="586.86" width="31.31" height="5.87"/><rect class="cls-8" x="566.86" y="671" width="31.31" height="5.87"/><rect class="cls-13" x="566.86" y="569.24" width="7.83" height="124.26"/><rect class="cls-12" x="533.6" y="569.24" width="31.31" height="124.26"/><rect class="cls-8" x="533.6" y="586.86" width="31.31" height="5.87"/><rect class="cls-8" x="533.6" y="671" width="31.31" height="5.87"/><rect class="cls-13" x="533.6" y="569.24" width="7.83" height="124.26"/><g class="cls-1"><path class="cls-14" d="M758.44,636.52H702.52l.74-6.29c15.8-14.18,26-52,26-52a5,5,0,0,0-.67.14c-9.3,1.87-15.86,5.68-20.47,10.25l2-16.73c29.19-6.29,40.76-44.9,40.76-44.9-18.63,4.13-30.24,10.53-37.45,16.59L716.27,519c19.73,6.77,40.16-29.21,40.16-29.21l-.78-.16.38-.25-.58.21c-21.81-4.7-33.47,7.77-37.26,13l.28-2.41q-.87,2.28-1.68,4.54h0v.06q-2.28,6.28-4.24,12.4h0q-1.68,5.24-3.14,10.34h0s-.9-22-24.07-27.76c0,0,2.43,47.93,20.79,40.08h0q-2.55,10.38-4.29,20.13h0q-1.15,6.35-2,12.39l-.11.12.11-.09v.32h0q-.76,5.46-1.32,10.64c.36-6.65-.86-25.88-23.51-44,0,0-30.09,52.93,21.23,63.34l.34.29-.08-.24.47.1.21-2.72a284.43,284.43,0,0,0,.18,34h0c0,.78.11,1.54.16,2.28H641c-21.57,44.63,12,69.08,12,69.08h92.69C781.58,660.15,758.44,636.52,758.44,636.52ZM698.19,585.8Z"/></g><path class="cls-15" d="M699.38,653.47s-14.67-64.09,17.76-146.72"/><path class="cls-8" d="M642.23,634.16H755.75s22.39,28.57-12.36,71H653.82S621.39,675.86,642.23,634.16Z"/><path class="cls-6" d="M715.51,511s11.28-20.08,38.31-13.9c0,0-22.34,38-42.44,25.58Z"/><path class="cls-6" d="M708.35,532.3s-.87-20.53-23.26-25.94c0,0,2.35,44.79,20.09,37.45Z"/><path class="cls-6" d="M701,562.63s4.13-21.51,47.38-30.78c0,0-13.79,44.49-49.36,42.71Z"/><path class="cls-6" d="M697.58,586.77s4.55-22.49-22.48-43.34c0,0-29.37,49.93,21.22,59.33Z"/><path class="cls-6" d="M696.72,617.69s-3.14-31.79,30.86-38c0,0-12.41,44.39-30.91,52.31Z"/><path class="cls-16" d="M711.73,523s29.34-22.39,41.7-26.25"/><path class="cls-16" d="M699,574.32s35.52-37.84,49.42-42.47"/><path class="cls-16" d="M685.09,506.37s21.62,29.34,20.08,37.07"/><path class="cls-16" d="M675.05,543.43s11.58,52.51,20.85,59.46"/><path class="cls-16" d="M696.67,632.23s18.53-51,30.89-52.51"/><g class="cls-2"><path d="M755.75,634.16H642.23c-.26.52-.5,1-.75,1.54h110.4s21.84,27.88-11.12,69.5h2.62C778.14,662.73,755.75,634.16,755.75,634.16Z"/></g><rect class="cls-17" y="692.4" width="787.17" height="26.68"/><rect class="cls-17" x="33.35" y="719.08" width="720.46" height="10.92"/><rect class="cls-13" x="33.35" y="719.08" width="720.46" height="3.64"/><rect class="cls-18" x="64.78" y="121.79" width="326.81" height="311.39"/><rect class="cls-19" x="71.79" y="128.8" width="312.79" height="297.36"/><rect class="cls-8" x="83.01" y="140.02" width="290.35" height="274.92"/><rect class="cls-20" x="450.75" y="53.32" width="268.62" height="268.62"/><rect class="cls-19" x="458.38" y="60.95" width="253.36" height="253.36"/><rect class="cls-8" x="470.59" y="73.16" width="228.94" height="228.94"/><path class="cls-21" d="M664,115.06h-74.7v-8.42a1.43,1.43,0,0,0-2.85,0v8.42H511.8a7.16,7.16,0,0,0-7.14,7.14V258.78a7.14,7.14,0,0,0,7.14,7.13h74.69v8.42a1.43,1.43,0,1,0,2.85,0v-8.42H664a7.13,7.13,0,0,0,7.13-7.13V122.2a7.15,7.15,0,0,0-7.13-7.14Z"/><path class="cls-22" d="M500.38,133.63H664V253.07a5.71,5.71,0,0,1-5.71,5.71H506.09a5.71,5.71,0,0,1-5.71-5.71V133.63Z"/><path class="cls-23" d="M582.21,258.77h76.12a5.71,5.71,0,0,0,5.71-5.7V133.63H582.21Z"/><path class="cls-24" d="M500.38,116.49v17.14H664V116.49a5.71,5.71,0,0,0-5.71-5.71H506.09A5.71,5.71,0,0,0,500.38,116.49Z"/><path class="cls-25" d="M658.33,110.78H582.21v22.85H664V116.49A5.71,5.71,0,0,0,658.33,110.78Z"/><path class="cls-19" d="M658.33,110.78H506.09a5.71,5.71,0,0,0-5.71,5.71v4.28a5.71,5.71,0,0,1,5.71-5.71H658.33a5.71,5.71,0,0,1,5.71,5.71v-4.28A5.71,5.71,0,0,0,658.33,110.78Z"/><circle class="cls-19" cx="551.21" cy="122.81" r="4.65"/><circle class="cls-22" cx="534.33" cy="122.81" r="4.65"/><circle class="cls-25" cx="517.44" cy="122.81" r="4.65"/><path class="cls-25" d="M554.84,182.64h-9.72a1.43,1.43,0,1,1,0-2.86h9.72a1.43,1.43,0,0,1,0,2.86Z"/><path class="cls-25" d="M536.56,182.64h-24a1.43,1.43,0,0,1,0-2.86h24a1.43,1.43,0,0,1,0,2.86Z"/><path class="cls-25" d="M554.84,212.61H540.12a1.43,1.43,0,0,1,0-2.86h14.72a1.43,1.43,0,0,1,0,2.86Z"/><path class="cls-25" d="M534.42,212.61H512.53a1.43,1.43,0,0,1,0-2.86h21.89a1.43,1.43,0,0,1,0,2.86Z"/><path class="cls-25" d="M554.84,242.58H540.12a1.43,1.43,0,0,1,0-2.86h14.72a1.43,1.43,0,0,1,0,2.86Z"/><path class="cls-25" d="M534.42,242.58H512.53a1.43,1.43,0,0,1,0-2.86h21.89a1.43,1.43,0,0,1,0,2.86Z"/><rect class="cls-26" x="592.23" y="146.77" width="59.87" height="27.97" rx="2.85"/><rect class="cls-22" x="592.23" y="182.49" width="59.87" height="41.13" rx="2.85"/><path class="cls-27" d="M525.73,168.38a1.74,1.74,0,0,0,1.31-.53,1.86,1.86,0,0,0,.54-1.35,1.56,1.56,0,0,0-.26-.87,1.61,1.61,0,0,0-.74-.6l-11.2-4.49,11.2-4.49a1.51,1.51,0,0,0,1-1.47,1.85,1.85,0,0,0-.51-1.34,1.77,1.77,0,0,0-1.3-.51,2.42,2.42,0,0,0-1,.21l-12.09,4.93a2.81,2.81,0,0,0-1.82,2.67,2.86,2.86,0,0,0,.48,1.63,3.09,3.09,0,0,0,1.34,1.08l12.09,4.93a2.43,2.43,0,0,0,1,.2Z"/><path class="cls-27" d="M531.21,172.93a2,2,0,0,0,1.18-.36,1.86,1.86,0,0,0,.73-1.07L541,146.84a2.55,2.55,0,0,0,.1-.72,1.7,1.7,0,0,0-.61-1.35,2.12,2.12,0,0,0-1.44-.53,2,2,0,0,0-1.92,1.44l-7.85,24.66a2.44,2.44,0,0,0-.1.71,1.7,1.7,0,0,0,.61,1.35,2.07,2.07,0,0,0,1.42.53Z"/><path class="cls-27" d="M543,165.63a1.56,1.56,0,0,0-.26.87,1.81,1.81,0,0,0,.53,1.35,1.76,1.76,0,0,0,1.32.53,2.46,2.46,0,0,0,1-.2l12.09-4.93a3.06,3.06,0,0,0,1.33-1.08,2.78,2.78,0,0,0,.48-1.63,2.82,2.82,0,0,0-1.81-2.67l-12.09-4.93a2.49,2.49,0,0,0-1-.21,1.74,1.74,0,0,0-1.3.51,1.82,1.82,0,0,0-.52,1.34,1.51,1.51,0,0,0,1,1.47L555,160.54,543.75,165a1.55,1.55,0,0,0-.74.6Z"/><path class="cls-27" d="M664,156.21a1.43,1.43,0,0,0-1.43,1.42v12.16a1.43,1.43,0,1,0,2.85,0V157.63A1.43,1.43,0,0,0,664,156.21Z"/><path class="cls-27" d="M658.33,109.36h-74.7v-8.43a1.43,1.43,0,0,0-2.85,0v8.43H506.09a7.14,7.14,0,0,0-7.14,7.13V253.07a7.14,7.14,0,0,0,7.14,7.13h74.69v8.42a1.43,1.43,0,1,0,2.85,0V260.2h74.7a7.13,7.13,0,0,0,7.13-7.13V175.74a1.43,1.43,0,1,0-2.85,0v77.33a4.28,4.28,0,0,1-4.28,4.28h-74.7V135.06h79V151.3a1.43,1.43,0,1,0,2.85,0V116.49a7.13,7.13,0,0,0-7.13-7.13Zm-156.52,7.13a4.28,4.28,0,0,1,4.28-4.28h74.69v20h-79Zm4.28,140.86a4.28,4.28,0,0,1-4.28-4.28v-118h79v54.71H567.24a1.43,1.43,0,0,0,0,2.86h13.54v7.13H522.52a1.43,1.43,0,0,0,0,2.86h58.26v17.12H553a1.43,1.43,0,0,0,0,2.86h27.81v7.13H561.66a1.43,1.43,0,1,0,0,2.86h19.12v24.76Zm77.54-125.14v-20h74.7a4.28,4.28,0,0,1,4.28,4.28v15.72Z"/><path class="cls-27" d="M558.44,189.77H522.52a1.43,1.43,0,0,0,0,2.86h35.92a1.43,1.43,0,0,0,0-2.86Z"/><path class="cls-27" d="M522.52,222.6h21.65a1.43,1.43,0,0,0,0-2.86H522.52a1.43,1.43,0,0,0,0,2.86Z"/><path class="cls-27" d="M554.4,229.73H522.52a1.43,1.43,0,0,0,0,2.86H554.4a1.43,1.43,0,0,0,0-2.86Z"/><path class="cls-27" d="M653.53,149.63a4.29,4.29,0,0,0-4.28-4.29H595.09a4.29,4.29,0,0,0-4.29,4.29v22.26a4.29,4.29,0,0,0,4.29,4.28h54.16a4.28,4.28,0,0,0,4.28-4.28Zm-2.85,22.26a1.43,1.43,0,0,1-1.43,1.43H595.09a1.43,1.43,0,0,1-1.43-1.43V149.63a1.43,1.43,0,0,1,1.43-1.43h54.16a1.43,1.43,0,0,1,1.43,1.43Z"/><path class="cls-27" d="M653.53,220.76V185.34a4.28,4.28,0,0,0-4.28-4.28H595.09a4.29,4.29,0,0,0-4.29,4.28v35.42a4.29,4.29,0,0,0,4.29,4.28h54.16a4.28,4.28,0,0,0,4.28-4.28Zm-58.44-36.85h54.16a1.43,1.43,0,0,1,1.43,1.43v21.87L643,201.7a1.41,1.41,0,0,0-1.73.05l-7.94,6.43-20-14.8a1.43,1.43,0,0,0-1.71,0l-17.89,13.7V185.34a1.43,1.43,0,0,1,1.43-1.43Zm54.16,38.27H595.09a1.42,1.42,0,0,1-1.43-1.42V210.7l18.77-14.38,20.07,14.82a1.43,1.43,0,0,0,1.75,0l8-6.45,8.48,6.07v10a1.42,1.42,0,0,1-1.43,1.42Z"/><path class="cls-27" d="M632.51,199.88a6.42,6.42,0,1,0-6.42-6.42A6.42,6.42,0,0,0,632.51,199.88Zm0-10a3.57,3.57,0,1,1-3.56,3.57A3.57,3.57,0,0,1,632.51,189.89Z"/><path class="cls-27" d="M649.7,232.16H594.64a1.43,1.43,0,1,0,0,2.85H649.7a1.43,1.43,0,1,0,0-2.85Z"/><path class="cls-27" d="M649.7,244.19H594.64a1.43,1.43,0,1,0,0,2.86H649.7a1.43,1.43,0,0,0,0-2.86Z"/><path class="cls-19" d="M124.41,276.8c0,15.67,15.22,30.36,39.3,38.68-4.9,24.24-1,43.82,12.19,51.49,13.55,7.87,33.81,2.52,53.06-14.21,18.67,16.16,37.56,22.57,50.78,14.9,13.55-7.82,17.79-28.68,12.92-53.71,25.16-8.22,39.29-20.66,39.29-36.58,0-15.31-15.24-28.61-39-36.89,5.42-26,1-45.13-12.78-53.11-13.24-7.7-32.4-1.08-51.49,15.38-19.7-17.61-38.64-23-52.41-15.11-13.28,7.63-17.12,27.53-12.37,52.26C140.62,248.05,124.45,261.54,124.41,276.8Z"/><path class="cls-28" d="M287.9,248.7q-2.94-1-5.93-1.89c.33-1.34.64-2.7.93-4.06,4.57-21.79,1.68-39.38-8.33-45.19-9.59-5.58-25.35.16-41.27,13.93-1.58,1.36-3.11,2.76-4.61,4.2-1-1-2-1.91-3.05-2.83C209,198,192.38,191.75,182.28,197.51c-9.62,5.52-12.52,22-8.55,42.72.4,2.05.85,4.08,1.36,6.11-2.36.66-4.65,1.35-6.78,2.13-19.54,6.77-32,17.37-32.07,28.45,0,11.42,13.31,22.93,33.62,29.94q2.46.86,5,1.58c-.55,2.17-1,4.36-1.46,6.57-3.92,20.32-1,36.43,8.6,42,9.88,5.75,26.51-.08,42.74-14.16q1.92-1.67,3.86-3.54,2.43,2.35,5,4.57c15.63,13.55,31.09,19,40.65,13.55,9.91-5.69,13.17-23,9.07-44.09q-.48-2.41-1.09-4.93c1.17-.34,2.31-.7,3.43-1.06,21.15-7,35-18.28,35-29.86,0-11.1-12.79-21.88-32.68-28.79Z"/><path class="cls-19" d="M283.14,299.8c-1,.33-2,.65-3.1,1a185.58,185.58,0,0,0-9.25-23.42,184.31,184.31,0,0,0,9-23c1.88.55,3.71,1.14,5.42,1.75,17,5.92,27.42,14.64,27.4,21.32,0,7.13-11.29,16.34-29.56,22.33Zm-7.61,15c1.82,9.32,2.05,17.75.81,24.39-1.11,5.92-3.33,9.85-6.07,11.42C264.45,354,252,349.53,238.68,338q-2.31-2-4.62-4.24a186.47,186.47,0,0,0,15.51-19.58,184.75,184.75,0,0,0,25-3.82c.37,1.52.7,3,1,4.46Zm-76.68,35c-5.67,2-10.2,2-12.92.44-5.8-3.37-8.13-16.25-4.83-33.68q.6-3.08,1.36-6.11a185.59,185.59,0,0,0,24.83,3.67,191.46,191.46,0,0,0,15.76,19.58c-1.14,1.1-2.32,2.18-3.52,3.23-7.17,6.23-14.35,10.63-20.68,12.85Zm-26.43-50.33c-9-3.1-16.4-7.11-21.46-11.49-4.57-3.92-6.86-7.83-6.85-11,0-6.77,10.06-15.24,26.76-21q3.15-1.08,6.36-2a188.54,188.54,0,0,0,8.91,23.3A194.9,194.9,0,0,0,177,300.85c-1.54-.44-3.06-.93-4.56-1.45Zm9.1-60.64c-3.41-17.73-1.07-31.07,4.73-34.4,6.18-3.55,19.8,1.58,34.13,14.38.92.82,1.85,1.68,2.71,2.57a186.92,186.92,0,0,0-15.77,19.39,192.7,192.7,0,0,0-24.6,3.73q-.69-2.82-1.25-5.69ZM261,258.64q-2.72-4.68-5.58-9.24c5.88.76,11.52,1.76,16.8,3a165.2,165.2,0,0,1-5.95,15.86Q263.71,263.39,261,258.64ZM228.65,227a168.21,168.21,0,0,1,10.84,13.13q-10.85-.56-21.79-.07c3.59-4.71,7.28-9.09,11-13.06ZM196,258.49q-2.7,4.71-5.23,9.49c-2.27-5.42-4.22-10.84-5.81-16q7.89-1.74,16.72-2.82Q198.66,253.79,196,258.49Zm5.68,47.09a168.28,168.28,0,0,1-17-2.79c1.64-5.26,3.68-10.71,6-16.26q2.49,4.83,5.21,9.55t5.7,9.5Zm27,22.43c-3.72-4.06-7.42-8.5-11.05-13.3q5.29.23,10.84.24t11.12-.21A167.11,167.11,0,0,1,228.55,328Zm37.73-41.51a168.41,168.41,0,0,1,6.13,16.26,169.49,169.49,0,0,1-17.2,2.87q2.94-4.62,5.69-9.36t5.42-9.76Zm-12.2,5.8q-4.22,7.26-8.89,14.24c-5.42.38-11.12.55-16.88.54s-11.31-.22-16.69-.58q-4.75-7-9-14.32t-7.82-14.91q3.66-7.56,7.89-14.9h0q4.22-7.26,9-14.2c5.42-.4,11.11-.6,16.79-.59s11.34.26,16.81.7q4.68,6.94,8.84,14.21t7.87,14.86q-3.72,7.59-8,14.91Zm16.53-87.9c6.17,3.58,8.53,17.94,4.58,36.76q-.39,1.84-.84,3.66a189.69,189.69,0,0,0-24.63-4,185.45,185.45,0,0,0-15.53-19.5c1.38-1.32,2.8-2.62,4.26-3.87,13.64-11.8,26.38-16.44,32.16-13.08Z"/><path class="cls-28" d="M228.47,260.74A16.47,16.47,0,1,1,212,277.15a16.47,16.47,0,0,1,16.51-16.41h0"/></svg>