<svg id="b12601fe-d580-4c34-96ea-fd9385fd61ef" xmlns="http://www.w3.org/2000/svg" xmlns:xlink="http://www.w3.org/1999/xlink" viewBox="0 0 787.17 730"><defs><style>.cls-1{fill:url(#linear-gradient);}.cls-2{fill:#fff;}.cls-3{fill:#6c63ff;}.cls-4{fill:url(#linear-gradient-2);}.cls-5{fill:url(#linear-gradient-3);}.cls-6{opacity:0.7;}.cls-17,.cls-30,.cls-7{opacity:0.1;}.cls-8{fill:url(#linear-gradient-4);}.cls-9{fill:url(#linear-gradient-5);}.cls-10{fill:url(#linear-gradient-6);}.cls-11{fill:#4db6ac;}.cls-12,.cls-19,.cls-20{fill:none;stroke:#535461;stroke-miterlimit:10;}.cls-12,.cls-19{opacity:0.6;}.cls-12,.cls-17,.cls-19,.cls-20,.cls-30{isolation:isolate;}.cls-13{fill:url(#linear-gradient-7);}.cls-14{fill:url(#linear-gradient-8);}.cls-15{fill:url(#linear-gradient-9);}.cls-16{fill:#535461;}.cls-18{fill:url(#linear-gradient-10);}.cls-19{stroke-width:3px;}.cls-20{opacity:0.3;}.cls-21{fill:#e0e0e0;}.cls-22{fill:#2e001e;}.cls-23{fill:#ff2bc2;}.cls-24,.cls-26{fill:#a4c2f7;}.cls-25,.cls-27{fill:#e8edfc;}.cls-26,.cls-27,.cls-28{fill-rule:evenodd;}.cls-28{fill:#7facfa;}.cls-29{fill:#428dff;}.cls-30,.cls-32{fill:#2626bc;}.cls-31{fill:#6583fe;}.cls-33{fill:#b7c5ff;}.cls-34{fill:#9fb0fe;}.cls-35{fill:#8399fe;}.cls-36{fill:#02ffb3;}.cls-37{fill:#97ffd2;}.cls-38{fill:#ff7eb8;}.cls-39{fill:#ffc4df;}.cls-40{fill:#01eca5;}.cls-41{fill:#ff5ba8;}</style><linearGradient id="linear-gradient" x1="206.36" y1="342.05" x2="206.36" y2="612.73" gradientTransform="matrix(1, 0, 0, -1, 0, 750.38)" gradientUnits="userSpaceOnUse"><stop offset="0" stop-color="gray" stop-opacity="0.25"/><stop offset="0.54" stop-color="gray" stop-opacity="0.12"/><stop offset="1" stop-color="gray" stop-opacity="0.1"/></linearGradient><linearGradient id="linear-gradient-2" x1="526.31" y1="503.85" x2="526.31" y2="733.21" xlink:href="#linear-gradient"/><linearGradient id="linear-gradient-3" x1="547.37" y1="241.68" x2="547.37" y2="480.95" xlink:href="#linear-gradient"/><linearGradient id="linear-gradient-4" x1="-3739.62" y1="-30.52" x2="-3739.62" y2="100.34" gradientTransform="translate(-3153.74 665.38) rotate(180)" xlink:href="#linear-gradient"/><linearGradient id="linear-gradient-5" x1="-3704.59" y1="-30.52" x2="-3704.59" y2="100.34" gradientTransform="translate(-3153.74 665.38) rotate(180)" xlink:href="#linear-gradient"/><linearGradient id="linear-gradient-6" x1="259.46" y1="52.07" x2="357.9" y2="52.07" gradientTransform="matrix(1, 0, 0, -1, -206.42, 665.38)" xlink:href="#linear-gradient"/><linearGradient id="linear-gradient-7" x1="235.32" y1="53.48" x2="235.32" y2="184.34" xlink:href="#linear-gradient"/><linearGradient id="linear-gradient-8" x1="270.35" y1="53.48" x2="270.35" y2="184.34" xlink:href="#linear-gradient"/><linearGradient id="linear-gradient-9" x1="319.81" y1="53.5" x2="319.81" y2="188.44" xlink:href="#linear-gradient"/><linearGradient id="linear-gradient-10" x1="840.16" y1="68.37" x2="972.2" y2="68.37" gradientTransform="matrix(1, 0, 0, -1, -206.42, 665.38)" xlink:href="#linear-gradient"/></defs><title>ui</title><rect class="cls-1" x="64.31" y="137.65" width="284.09" height="270.68"/><rect class="cls-2" x="70.4" y="143.74" width="271.9" height="258.49"/><rect class="cls-3" x="80.16" y="153.5" width="252.39" height="238.98"/><rect class="cls-4" x="411.63" y="17.17" width="229.36" height="229.36"/><rect class="cls-2" x="418.14" y="23.68" width="216.33" height="216.33"/><rect class="cls-3" x="428.57" y="34.11" width="195.48" height="195.48"/><rect class="cls-5" x="427.73" y="269.43" width="239.27" height="239.27"/><rect class="cls-2" x="434.52" y="276.22" width="225.68" height="225.68"/><rect class="cls-3" x="445.4" y="287.1" width="203.93" height="203.93"/><g class="cls-6"><g class="cls-7"><polygon class="cls-8" points="602.37 565.04 602.37 583.59 602.37 589.77 602.37 672.2 602.37 678.39 602.37 695.9 577.64 695.9 569.4 695.9 569.4 678.39 569.4 672.2 569.4 589.77 569.4 583.59 569.4 565.04 577.64 565.04 602.37 565.04"/></g><g class="cls-7"><polygon class="cls-9" points="567.34 565.04 567.34 583.59 567.34 589.77 567.34 672.2 567.34 678.39 567.34 695.9 542.61 695.9 534.36 695.9 534.36 678.39 534.36 672.2 534.36 589.77 534.36 583.59 534.36 565.04 542.61 565.04 567.34 565.04"/></g></g><g class="cls-6"><path class="cls-10" d="M150.91,589.11a19.11,19.11,0,0,0-7.58-20.26,56.39,56.39,0,0,1-5.08-3.28c-2.57-2.16-4-5.35-5.09-8.53-2.54-7.64-3.34-16.2-7.8-23.1-4.06-6.28-12-8.12-19-8.74-2.55-.23-5.23-.35-7.57.71-3.91,1.77-5.77,6.38-5.94,10.66s.94,8.51,1.22,12.79-.48,9-3.64,11.88-7.68,3.24-11.86,3.82a78,78,0,0,0-16.08,4c-4.37,1.59-9.23,4.46-9.44,9.1-.17,3.8,2.89,6.82,5.2,9.84,4.3,5.65,6.45,13.09,5,20s-6.45,13.14-7.35,20.3a8.77,8.77,0,0,0,.72,5.36,10,10,0,0,0,2.72,2.88c2.7,2.09,5.71,3.76,8.26,6,5.32,4.71,8.21,11.56,10.43,18.32.21.65.4,1.31.61,2H73.41a19.41,19.41,0,0,0-19.36,19.36h0a19.41,19.41,0,0,0,19.36,19.36h52.27A19.41,19.41,0,0,0,145,682.22h0a19.41,19.41,0,0,0-19.36-19.36H111.35c3.39-4.54,6.93-8.8,12.16-10.55s11.56-.72,15.66-4.37a12.28,12.28,0,0,0,3.55-7A21,21,0,0,0,140.43,627c-1.65-2.94-4.06-5.61-4.58-8.94-.45-2.85.58-5.73,2-8.25C141.78,602.61,148.77,597,150.91,589.11Z"/></g><path class="cls-11" d="M106.2,529.39c-2.43-.22-5-.33-7.21.68-3.72,1.68-5.49,6.08-5.66,10.16s.9,8.1,1.16,12.18S94,561,91,563.73s-7.31,3.09-11.3,3.64a74.88,74.88,0,0,0-15.31,3.8c-4.16,1.51-8.79,4.25-9,8.67-.16,3.61,2.76,6.5,5,9.38,4.1,5.38,6.14,12.47,4.75,19.09s-6.14,12.51-7,19.33a8.42,8.42,0,0,0,.69,5.11,9.4,9.4,0,0,0,2.59,2.74c2.57,2,5.44,3.58,7.87,5.73,5.07,4.49,7.81,11,9.93,17.44A141.5,141.5,0,0,1,84.08,678c4.37-2.81,10-2.77,14.68-5,9.93-4.87,13.26-19,23.74-22.47,5-1.66,11-.69,14.91-4.16a11.71,11.71,0,0,0,3.38-6.7,20,20,0,0,0-2.21-13.27c-1.57-2.8-3.86-5.34-4.36-8.51-.43-2.71.56-5.46,1.88-7.86,3.77-6.85,10.43-12.16,12.46-19.71A18.21,18.21,0,0,0,141.37,571a54.57,54.57,0,0,1-4.83-3.13c-2.44-2.06-3.84-5.09-4.85-8.13-2.42-7.27-3.19-15.43-7.43-22C120.39,531.74,112.87,530,106.2,529.39Z"/><path class="cls-12" d="M106.13,529.64s9.22,123.5-14.75,144.7"/><rect class="cls-3" x="56.36" y="660.52" width="86.64" height="36.87" rx="14.3"/><path class="cls-12" d="M55.44,577.57s23.56-2.75,52.33,14.75"/><path class="cls-12" d="M107.31,607.06a60.88,60.88,0,0,1,41.21-25.8"/><path class="cls-12" d="M57.74,627.8s32.66-5.54,47.67,3.68"/><path class="cls-12" d="M103.58,644.15s17.1-7.76,36.33-1.46"/><g class="cls-6"><g class="cls-7"><polygon class="cls-13" points="218.83 566.04 218.83 584.59 218.83 590.77 218.83 673.2 218.83 679.39 218.83 696.9 243.56 696.9 251.81 696.9 251.81 679.39 251.81 673.2 251.81 590.77 251.81 584.59 251.81 566.04 243.56 566.04 218.83 566.04"/></g><g class="cls-7"><polygon class="cls-14" points="253.87 566.04 253.87 584.59 253.87 590.77 253.87 673.2 253.87 679.39 253.87 696.9 278.6 696.9 286.84 696.9 286.84 679.39 286.84 673.2 286.84 590.77 286.84 584.59 286.84 566.04 278.6 566.04 253.87 566.04"/></g><g class="cls-7"><polygon class="cls-15" points="352.6 688.38 325.25 585.84 325.25 585.84 323.66 579.87 323.66 579.87 318.88 561.94 287.02 570.44 291.8 588.36 291.8 588.36 293.07 593.12 314.63 673.98 314.63 673.98 316.23 679.96 316.23 679.96 320.74 696.88 352.6 688.38"/></g></g><rect class="cls-16" x="222.21" y="569.24" width="31.31" height="124.26"/><rect class="cls-3" x="222.21" y="586.85" width="31.31" height="5.87"/><rect class="cls-3" x="222.21" y="670.99" width="31.31" height="5.87"/><rect class="cls-17" x="245.69" y="569.24" width="7.83" height="124.26"/><rect class="cls-16" x="255.47" y="569.24" width="31.31" height="124.26"/><rect class="cls-3" x="255.47" y="586.85" width="31.31" height="5.87"/><rect class="cls-3" x="255.47" y="670.99" width="31.31" height="5.87"/><rect class="cls-17" x="278.95" y="569.24" width="7.83" height="124.26"/><rect class="cls-16" x="302.39" y="567.33" width="31.31" height="124.26" transform="translate(-151.44 103.19) rotate(-14.93)"/><rect class="cls-3" x="291.68" y="586.35" width="31.31" height="5.87" transform="translate(-141.45 99.08) rotate(-14.93)"/><rect class="cls-3" x="313.37" y="667.64" width="31.31" height="5.87" transform="translate(-161.66 107.41) rotate(-14.93)"/><rect class="cls-17" x="325.49" y="564.31" width="7.83" height="124.26" transform="translate(-150.27 106.02) rotate(-14.93)"/><rect class="cls-16" x="566.86" y="569.24" width="31.31" height="124.26"/><rect class="cls-3" x="566.86" y="586.86" width="31.31" height="5.87"/><rect class="cls-3" x="566.86" y="671" width="31.31" height="5.87"/><rect class="cls-17" x="566.86" y="569.24" width="7.83" height="124.26"/><rect class="cls-16" x="533.6" y="569.24" width="31.31" height="124.26"/><rect class="cls-3" x="533.6" y="586.86" width="31.31" height="5.87"/><rect class="cls-3" x="533.6" y="671" width="31.31" height="5.87"/><rect class="cls-17" x="533.6" y="569.24" width="7.83" height="124.26"/><g class="cls-6"><path class="cls-18" d="M758.44,636.52H702.52l.74-6.29c15.8-14.18,26-52,26-52a5,5,0,0,0-.67.14c-9.3,1.87-15.86,5.68-20.47,10.25l2-16.73c29.19-6.29,40.76-44.9,40.76-44.9-18.63,4.13-30.24,10.53-37.45,16.59L716.27,519c19.73,6.77,40.16-29.21,40.16-29.21l-.78-.16.38-.25-.58.21c-21.81-4.7-33.47,7.77-37.26,13l.28-2.41q-.87,2.28-1.68,4.54h0v.06q-2.28,6.28-4.24,12.4h0q-1.68,5.24-3.14,10.34h0s-.9-22-24.07-27.76c0,0,2.43,47.93,20.79,40.08h0q-2.55,10.38-4.29,20.13h0q-1.15,6.35-2,12.39l-.11.12.11-.09v.32h0q-.76,5.46-1.32,10.64c.36-6.65-.86-25.88-23.51-44,0,0-30.09,52.93,21.23,63.34l.34.29-.08-.24.47.1.21-2.72a284.43,284.43,0,0,0,.18,34h0c0,.78.11,1.54.16,2.28H641c-21.57,44.63,12,69.08,12,69.08h92.69C781.58,660.15,758.44,636.52,758.44,636.52ZM698.19,585.8Z"/></g><path class="cls-19" d="M699.38,653.47s-14.67-64.09,17.76-146.72"/><path class="cls-3" d="M642.23,634.16H755.75s22.39,28.57-12.36,71H653.82S621.39,675.86,642.23,634.16Z"/><path class="cls-11" d="M715.51,511s11.28-20.08,38.31-13.9c0,0-22.34,38-42.44,25.58Z"/><path class="cls-11" d="M708.35,532.3s-.87-20.53-23.26-25.94c0,0,2.35,44.79,20.09,37.45Z"/><path class="cls-11" d="M701,562.63s4.13-21.51,47.38-30.78c0,0-13.79,44.49-49.36,42.71Z"/><path class="cls-11" d="M697.58,586.77s4.55-22.49-22.48-43.34c0,0-29.37,49.93,21.22,59.33Z"/><path class="cls-11" d="M696.72,617.69s-3.14-31.79,30.86-38c0,0-12.41,44.39-30.91,52.31Z"/><path class="cls-20" d="M711.73,523s29.34-22.39,41.7-26.25"/><path class="cls-20" d="M699,574.32s35.52-37.84,49.42-42.47"/><path class="cls-20" d="M685.09,506.37s21.62,29.34,20.08,37.07"/><path class="cls-20" d="M675.05,543.43s11.58,52.51,20.85,59.46"/><path class="cls-20" d="M696.67,632.23s18.53-51,30.89-52.51"/><g class="cls-7"><path d="M755.75,634.16H642.23c-.26.52-.5,1-.75,1.54h110.4s21.84,27.88-11.12,69.5h2.62C778.14,662.73,755.75,634.16,755.75,634.16Z"/></g><rect class="cls-21" y="692.4" width="787.17" height="26.68"/><rect class="cls-21" x="33.35" y="719.08" width="720.46" height="10.92"/><rect class="cls-17" x="33.35" y="719.08" width="720.46" height="3.64"/><g id="Group_803" data-name="Group 803"><g id="adobe-xd"><path id="Path_741" data-name="Path 741" class="cls-22" d="M135.21,203.78H277.5V342.19H135.21Z"/><path id="Path_742" data-name="Path 742" class="cls-23" d="M128.74,197.31V348.66H284V197.31Zm6.47,6.47H277.5V342.19H135.21Z"/><path id="Path_743" data-name="Path 743" class="cls-23" d="M241.47,260.89a9.05,9.05,0,0,0-3.75-.65c-8.15,0-13.58,6.28-13.58,16.69,0,11.9,5.56,16.69,12.81,16.69a12.3,12.3,0,0,0,4.46-.71v-32Zm-29,16.56c0-15.07,9.7-26.84,25.61-26.84a29,29,0,0,1,3.36.13V233.92a.65.65,0,0,1,.65-.65h10.41c.52,0,.65.2.65.52v59.12a46.43,46.43,0,0,0,.32,6.34c0,.45,0,.51-.38.71a38.6,38.6,0,0,1-16.56,3.75C222.52,303.71,212.5,295,212.5,277.45ZM190.45,267l18.1,35.12c.33.52.14,1-.39,1H196.91a1.27,1.27,0,0,1-1.35-.84q-6.23-12.81-12.69-26.59h-.14c-3.88,8.66-8.15,18.11-12.28,26.65a1.24,1.24,0,0,1-1.17.71H158.56c-.65,0-.72-.52-.39-.9l17.72-34.09-17.14-33.89a.57.57,0,0,1,0-.81.6.6,0,0,1,.44-.16h11.13c.65,0,1,.13,1.16.71,4.08,8.6,8.22,17.08,12.1,25.74h.13c3.75-8.53,7.89-17.14,11.83-25.61.33-.52.52-.84,1.17-.84h10.41c.52,0,.71.39.39,1Z"/></g></g><g id="Page-1"><path id="Shape" class="cls-24" d="M557.07,155.84a36.55,36.55,0,0,0-2.83,18.92,71.44,71.44,0,0,0,2.48,12.38,40.12,40.12,0,0,0,2.42,6.1,53.48,53.48,0,0,1,3.25,5.76l-51,.14v0c-.17-.61-3.24-12.57-10-15.64-1.26.45-2.6.9-4,1.36a136.36,136.36,0,0,1-13.77,4,5.19,5.19,0,0,1-3.78-.53,6.33,6.33,0,0,1-2.74-3.52,10,10,0,0,1-.57-4.53,12.57,12.57,0,0,0,.46-4.84c-.52-2.06-2.48-2.56-4-3.66-1.26-.9,1-3.77,1-3.77s-2.4-1.76-3.25-2.54.37-2,1.48-4.37a5.5,5.5,0,0,0,.39-3.3c-.43-2.17-3.72-3-5.35-4.2-.77-.57-2-1.43-2.15-2.47-.23-1.44,1.48-3.47,2.32-4.49a80.82,80.82,0,0,0,9.07-14.75,4.27,4.27,0,0,0,.57-1.81c-.05-2.9-4.26-4.1-4.64-6.93a4.92,4.92,0,0,1,.43-2.42,63.51,63.51,0,0,0,3-7.69,60.36,60.36,0,0,1,1.93-7.12,37.06,37.06,0,0,1,7.73-12.61c5-5.26,12.34-7.87,19.3-9.25a136.31,136.31,0,0,1,18.77-2.75l.61,0c13-.65,23.31,3.77,33.39,11.66A31.62,31.62,0,0,1,569,109.35,59.05,59.05,0,0,1,571,126a29.21,29.21,0,0,1-4.68,15.66C563.33,146.47,559.36,150.62,557.07,155.84Z"/><path class="cls-2" d="M551,155.84a36.65,36.65,0,0,0-2.82,18.92,71.44,71.44,0,0,0,2.48,12.38,40.12,40.12,0,0,0,2.42,6.1,53.48,53.48,0,0,1,3.25,5.76l-39.11.1-5.83,0c-.15-.55-2.61-10.11-8-14.36a9.79,9.79,0,0,0-2.07-1.28l-.16.06c-1.22.43-2.5.86-3.81,1.3l-.08-.06a8.78,8.78,0,0,0-2-1.3c-3.44,1.2-7.4,2.52-11,3.6-1.54.47-3,.88-4.39,1.22a6.33,6.33,0,0,1-2.74-3.52,10,10,0,0,1-.57-4.53,12.57,12.57,0,0,0,.46-4.84c-.52-2.06-2.48-2.56-4-3.66-1.26-.9,1-3.77,1-3.77s-2.4-1.76-3.25-2.54.37-2,1.48-4.37a5.5,5.5,0,0,0,.39-3.3c-.43-2.17-3.72-3-5.35-4.2-.77-.57-2-1.43-2.15-2.47-.23-1.44,1.48-3.47,2.32-4.49a80.82,80.82,0,0,0,9.07-14.75,4.27,4.27,0,0,0,.57-1.81c-.05-2.9-4.26-4.1-4.64-6.93a4.92,4.92,0,0,1,.43-2.42,63.51,63.51,0,0,0,3-7.69,60.36,60.36,0,0,1,1.93-7.12,37.06,37.06,0,0,1,7.73-12.61c5-5.26,12.34-7.87,19.3-9.25a136.31,136.31,0,0,1,18.77-2.75c.91.06,1.81.15,2.68.27A50.08,50.08,0,0,1,551.43,92.9a31.62,31.62,0,0,1,11.45,16.45A59.05,59.05,0,0,1,564.94,126a29.21,29.21,0,0,1-4.68,15.66C557.23,146.47,553.26,150.62,551,155.84Z"/><path class="cls-25" d="M551,155.84a36.65,36.65,0,0,0-2.82,18.92,71.44,71.44,0,0,0,2.48,12.38,40.12,40.12,0,0,0,2.42,6.1,53.48,53.48,0,0,1,3.25,5.76l-39.11.1c-.2-.77-3.29-12.57-10-15.62-1.2.43-2.46.86-3.77,1.28a.5.5,0,0,1-.2.08,9,9,0,0,0-2-1.3l-.1-.06c-1.2.43-2.49.86-3.79,1.3-4,1.33-8.21,2.67-11.63,3.52a5.3,5.3,0,0,1-1.45-1.22,6.89,6.89,0,0,1-1.3-2.3,10.26,10.26,0,0,1-.57-4.53,12.57,12.57,0,0,0,.47-4.84c-.53-2.06-2.48-2.56-4-3.66-1.26-.9,1-3.77,1-3.77s-2.4-1.76-3.25-2.54.36-2,1.48-4.37a5.57,5.57,0,0,0,.39-3.3c-.43-2.17-3.72-3-5.35-4.2-.77-.57-2-1.43-2.16-2.47-.22-1.44,1.49-3.47,2.32-4.49a79.73,79.73,0,0,0,9.07-14.75,4.14,4.14,0,0,0,.57-1.81c0-2.9-4.25-4.1-4.63-6.93a4.91,4.91,0,0,1,.42-2.42,60.38,60.38,0,0,0,3-7.69,62.35,62.35,0,0,1,1.93-7.12,37.37,37.37,0,0,1,7.73-12.61c5-5.26,12.35-7.87,19.3-9.25a145,145,0,0,1,15.62-2.48A50.08,50.08,0,0,1,551.43,92.9a31.62,31.62,0,0,1,11.45,16.45A59.05,59.05,0,0,1,564.94,126a29.21,29.21,0,0,1-4.68,15.66C557.23,146.47,553.26,150.62,551,155.84Z"/><path class="cls-26" d="M568.74,120.29a25.8,25.8,0,0,1-6.35,17.49c-4,4.44-11.95,7.49-11.95,14.59H538.23c0-7.1-8-10.15-12-14.59a25.94,25.94,0,0,1-6.34-17.49,25.31,25.31,0,0,1,21.35-24.67,20.74,20.74,0,0,1,3.05-.2A25.09,25.09,0,0,1,568.74,120.29Z"/><path class="cls-27" d="M562.64,120.29a25.8,25.8,0,0,1-6.35,17.49c-4,4.44-12,7.49-12,14.59h-6.1c0-7.1-8-10.15-12-14.59a25.94,25.94,0,0,1-6.34-17.49,25.31,25.31,0,0,1,21.35-24.67A25.29,25.29,0,0,1,562.64,120.29Z"/><path class="cls-2" d="M538.23,164.57h12.21v2a6.11,6.11,0,0,1-12.21,0Z"/><path class="cls-28" d="M554.5,156.43v4.07a4.07,4.07,0,0,1-4.06,4.07H538.23a4.08,4.08,0,0,1-4.06-4.07v-4.07a4.06,4.06,0,0,1,4.06-4.06h12.21A4.06,4.06,0,0,1,554.5,156.43Z"/><path class="cls-26" d="M548.4,156.43v4.07a4.07,4.07,0,0,1-4.07,4.07h-6.1a4.08,4.08,0,0,1-4.06-4.07v-4.07a4.06,4.06,0,0,1,4.06-4.06h6.1A4.07,4.07,0,0,1,548.4,156.43Z"/><path class="cls-2" d="M470.88,120c.86-2.21,1.89-4.15,2.53-6,.16-.47.29-.93.4-1.39l.38-1.61c.25-1.08.52-2.18.84-3.29a39.1,39.1,0,0,1,6.17-12.43A35.53,35.53,0,0,1,484,91.89l2.95,2.79a34.89,34.89,0,0,0-2.47,3,35.4,35.4,0,0,0-5.52,11.12c-.29,1-.54,2-.79,3.11l-.38,1.61a16.67,16.67,0,0,1-.52,1.78c-.79,2.29-1.85,4.27-2.57,6.16Z"/><path class="cls-29" d="M476.23,111.16a2,2,0,0,0-2.44,1.5,66.69,66.69,0,0,1-2.9,7.32l3.8,1.44a65.32,65.32,0,0,0,3.05-7.8,2,2,0,0,0-1.51-2.46Z"/><path class="cls-29" d="M486.93,94.68,484,91.89a35.53,35.53,0,0,0-2.78,3.33c-.43.57-.84,1.16-1.24,1.76a2,2,0,0,0,.63,2.84,2.08,2.08,0,0,0,2.77-.61c.35-.54.72-1.06,1.1-1.57A34.89,34.89,0,0,1,486.93,94.68Z"/><path class="cls-29" d="M476.05,104.57a2.19,2.19,0,0,0,0,1.63l.2.34a1.59,1.59,0,0,0,.29.29,1.39,1.39,0,0,0,.31.23l.38.16a2.24,2.24,0,0,0,1.55-.11,2.05,2.05,0,0,0,.61-.45,2,2,0,0,0,.39-2.13,2.06,2.06,0,0,0-.45-.64,2,2,0,0,0-2.21-.5A2.25,2.25,0,0,0,476.05,104.57Z"/><path class="cls-29" d="M482.33,191a7.63,7.63,0,0,1-7.19-5.54,12.19,12.19,0,0,1-.67-5.48c.07-.54.18-1.08.3-1.63a5.6,5.6,0,0,0,.21-2.44c-.17-.64-.64-1-1.83-1.64a15.7,15.7,0,0,1-1.41-.87,2.94,2.94,0,0,1-1.21-2,5.09,5.09,0,0,1,.66-2.93c-.69-.53-1.45-1.13-1.89-1.53-1.88-1.53-.63-3.74.12-5,.27-.49.59-1.05.89-1.7a3.51,3.51,0,0,0,.23-2c-.1-.53-1.57-1.28-2.45-1.73A13.54,13.54,0,0,1,466,155.2a6.23,6.23,0,0,1-3-3.82c-.32-2.09,1.22-4.17,2.69-6a78.13,78.13,0,0,0,8.9-14.47,3.24,3.24,0,0,0,.35-.89c0-.55-.66-1.2-1.65-2.11a7.74,7.74,0,0,1-3-4.54,6.86,6.86,0,0,1,.54-3.41,2,2,0,1,1,3.81,1.41,3.72,3.72,0,0,0-.32,1.43c.09.66.86,1.37,1.69,2.12a7.12,7.12,0,0,1,3,5.09,6,6,0,0,1-.79,2.74,82,82,0,0,1-9.31,15.11c-1.55,1.89-1.87,2.64-1.88,2.94a8.25,8.25,0,0,0,1.22,1,11.16,11.16,0,0,0,1.67,1c1.74.89,4.11,2.11,4.6,4.59a7.65,7.65,0,0,1-.54,4.55c-.36.75-.72,1.4-1,2l-.31.55c.85.68,2,1.54,2.48,1.9a2.05,2.05,0,0,1,.82,1.37,2.09,2.09,0,0,1-.43,1.54,7.69,7.69,0,0,0-.78,1.25l.42.24a6.78,6.78,0,0,1,3.77,4.16,9.07,9.07,0,0,1-.18,4.33c-.1.42-.19.85-.25,1.27a8.29,8.29,0,0,0,.48,3.63,3.6,3.6,0,0,0,4.19,2.71,156.52,156.52,0,0,0,17.49-5.29A2,2,0,0,1,502,185.4a163.45,163.45,0,0,1-18,5.42A8.55,8.55,0,0,1,482.33,191ZM472,163.87l.07.06-.06-.06Z"/><path class="cls-29" d="M485.46,95.32A2,2,0,0,1,484,91.89c4.54-4.81,11.21-8,20.38-9.86A136.05,136.05,0,0,1,524,79.21a47.14,47.14,0,0,1,10.48.6,2,2,0,0,1-.69,4,43.26,43.26,0,0,0-9.58-.55A132.29,132.29,0,0,0,505.16,86c-8.2,1.63-14.34,4.55-18.23,8.66A2,2,0,0,1,485.46,95.32Z"/><path class="cls-29" d="M511.35,201.18a2,2,0,0,1-2-1.55c-.79-3.22-3.92-12-8.89-14.3a2,2,0,0,1,.18-3.77c2.12-.72,4-1.39,5.56-1.92s2.47-.87,3-1c8.45-2.68,10.17-5.73,10.12-7.82a2.07,2.07,0,0,1,.56-1.46,2,2,0,0,1,1.43-.62,2,2,0,0,1,1.47.54,2,2,0,0,1,.62,1.44c.11,5.07-4.24,9-13,11.8-.52.17-1.55.52-2.91,1l-1.83.64a32.39,32.39,0,0,1,7.14,13L559,197l-.13-.2a23,23,0,0,1-1.58-2.66,42.61,42.61,0,0,1-2.52-6.37,72.25,72.25,0,0,1-2.54-12.61,2,2,0,1,1,4-.49,68.9,68.9,0,0,0,2.38,11.9,38.87,38.87,0,0,0,2.3,5.78,18.84,18.84,0,0,0,1.32,2.2,16.29,16.29,0,0,1,2.06,3.86,2.07,2.07,0,0,1-.3,1.82,2,2,0,0,1-1.64.83l-51,.14Z"/><path class="cls-24" d="M483.71,116.91a2.4,2.4,0,0,1-.46,0,2,2,0,0,1-1.52-2.44l.21-.88a47.17,47.17,0,0,1,1.5-5.51,30.82,30.82,0,0,1,6.45-10.55A25.1,25.1,0,0,1,501,91.23a2,2,0,1,1,1.19,3.89,21.34,21.34,0,0,0-9.38,5.15,27.1,27.1,0,0,0-5.58,9.15,43.42,43.42,0,0,0-1.35,5l-.21.91A2,2,0,0,1,483.71,116.91Z"/><circle id="Oval" class="cls-24" cx="481.29" cy="121.86" r="2.03"/><path class="cls-29" d="M550.44,166.6H538.23a6.1,6.1,0,0,1-6.1-6.1v-4.07a6.1,6.1,0,0,1,6.1-6.1h12.21a6.1,6.1,0,0,1,6.1,6.1v4.07A6.1,6.1,0,0,1,550.44,166.6Zm-12.21-12.2a2,2,0,0,0-2,2v4.07a2,2,0,0,0,2,2h12.21a2,2,0,0,0,2-2v-4.07a2,2,0,0,0-2-2Z"/><path class="cls-29" d="M544.33,174.74a8.14,8.14,0,0,1-8.13-8.14v-2a2,2,0,0,1,2-2h12.21a2,2,0,0,1,2,2v2A8.14,8.14,0,0,1,544.33,174.74Zm-4.06-8.14a4.07,4.07,0,1,0,8.13,0Z"/><path class="cls-24" d="M548.4,154.4a2,2,0,0,1-2-2V128H542.3v24.41a2,2,0,0,1-4.07,0V128h-2a6.1,6.1,0,1,1,6.1-6.1v2h4.07v-2a6.1,6.1,0,1,1,6.1,6.1h-2v24.41A2,2,0,0,1,548.4,154.4Zm2-30.51h2a2,2,0,1,0-2-2Zm-14.24-4.07a2,2,0,0,0,0,4.07h2v-2A2,2,0,0,0,536.2,119.82Z"/><path class="cls-29" d="M550.44,154.4H538.23a2,2,0,0,1-2-2c0-3.94-3.28-6.47-6.75-9.16a34.77,34.77,0,0,1-4.68-4.06,27.89,27.89,0,0,1-6.87-18.9,26.44,26.44,0,1,1,52.87,0,27.9,27.9,0,0,1-6.86,18.9,34.77,34.77,0,0,1-4.68,4.06c-3.48,2.69-6.76,5.22-6.76,9.16A2,2,0,0,1,550.44,154.4Zm-10.36-4.07h8.51c.87-4.71,4.71-7.68,8.14-10.34a31.38,31.38,0,0,0,4.15-3.57,23.84,23.84,0,0,0,5.83-16.11c-.2-12.39-10.44-22.86-22.38-22.86S522.17,107.92,522,120.31a23.79,23.79,0,0,0,5.83,16.11,32.13,32.13,0,0,0,4.14,3.58c3.46,2.65,7.28,5.62,8.16,10.33Z"/><path class="cls-29" d="M583,121.86h-6.1a2,2,0,1,1,0-4.07H583a2,2,0,0,1,0,4.07Z"/><path class="cls-29" d="M567.34,98.85a2,2,0,0,1-1.44-3.47l4.32-4.32a2,2,0,1,1,2.88,2.88l-4.32,4.31A2,2,0,0,1,567.34,98.85Z"/><path class="cls-29" d="M544.33,89.32a2,2,0,0,1-2-2v-6.1a2,2,0,0,1,4.07,0v6.1A2,2,0,0,1,544.33,89.32Z"/><path class="cls-29" d="M521.33,98.85a2,2,0,0,1-1.44-.6l-4.32-4.31a2,2,0,1,1,2.88-2.88l4.31,4.32a2,2,0,0,1,.45,2.21A2,2,0,0,1,521.33,98.85Z"/><path class="cls-29" d="M511.79,121.86h-6.1a2,2,0,0,1,0-4.07h6.1a2,2,0,1,1,0,4.07Z"/></g><path class="cls-30" d="M577.08,467.39H520.85a9,9,0,0,1-9-9V344.85a9,9,0,0,1,9-9h56.23a9,9,0,0,1,8.95,9V458.43A9,9,0,0,1,577.08,467.39Z"/><path class="cls-31" d="M577.08,460.22H520.85a8.94,8.94,0,0,1-9-9V337.69a9,9,0,0,1,9-8.95h56.23a9,9,0,0,1,8.95,8.95V451.27A9,9,0,0,1,577.08,460.22Z"/><path class="cls-2" d="M511.9,341.54H586V447.42H511.9Z"/><path class="cls-32" d="M577.08,461.72H520.85a10.46,10.46,0,0,1-10.44-10.45V337.69a10.45,10.45,0,0,1,10.44-10.44h56.23a10.45,10.45,0,0,1,10.44,10.44V451.27a10.46,10.46,0,0,1-10.44,10.45ZM520.85,330.23a7.47,7.47,0,0,0-7.46,7.46V451.27a7.47,7.47,0,0,0,7.46,7.46h56.23a7.47,7.47,0,0,0,7.46-7.46V337.69a7.47,7.47,0,0,0-7.46-7.46Z"/><path class="cls-33" d="M554.18,336.9H543.75a1.49,1.49,0,0,1,0-3h10.43a1.49,1.49,0,1,1,0,3Z"/><circle class="cls-33" cx="561.14" cy="335.41" r="1.49"/><path class="cls-34" d="M577.44,351.64V377a3,3,0,0,1-3,3h-51a3,3,0,0,1-3-3V351.64a3,3,0,0,1,3-3h51A3,3,0,0,1,577.44,351.64Z"/><path class="cls-35" d="M577.44,357.32V377a3,3,0,0,1-3,3H538.1a22.53,22.53,0,0,1-.17-2.86,24.71,24.71,0,0,1,39.51-19.78Z"/><path class="cls-36" d="M577.44,435.58v11.84h-57V435.58a3,3,0,0,1,3-3h51A3,3,0,0,1,577.44,435.58Z"/><path class="cls-37" d="M543.91,440a16.29,16.29,0,0,1-1.77,7.41H520.49V435.58a3,3,0,0,1,3-3h18.67A16.29,16.29,0,0,1,543.91,440Z"/><path class="cls-38" d="M545.47,401.85H522a1.48,1.48,0,0,1-1.49-1.49V388.51A1.49,1.49,0,0,1,522,387h23.49a1.49,1.49,0,0,1,1.49,1.5v11.85A1.48,1.48,0,0,1,545.47,401.85Z"/><path class="cls-36" d="M576,401.85H552.46a1.48,1.48,0,0,1-1.49-1.49V388.51a1.49,1.49,0,0,1,1.49-1.5H576a1.49,1.49,0,0,1,1.49,1.5v11.85A1.48,1.48,0,0,1,576,401.85Z"/><path class="cls-35" d="M545.47,420.17H522a1.49,1.49,0,0,1-1.49-1.49V406.82a1.49,1.49,0,0,1,1.49-1.49h23.49a1.49,1.49,0,0,1,1.49,1.49v11.86a1.49,1.49,0,0,1-1.49,1.49Z"/><path class="cls-39" d="M576,420.17H552.46a1.49,1.49,0,0,1-1.49-1.49V406.82a1.49,1.49,0,0,1,1.49-1.49H576a1.49,1.49,0,0,1,1.49,1.49v11.86a1.49,1.49,0,0,1-1.49,1.49Z"/><path class="cls-2" d="M547.67,366.18h-19.6a1.5,1.5,0,0,0,0,3h19.6a1.5,1.5,0,0,0,0-3Z"/><path class="cls-2" d="M547.67,360.39h-19.6a1.49,1.49,0,0,0,0,3h19.6a1.49,1.49,0,0,0,0-3Z"/><path class="cls-39" d="M531.56,353.42h-3.49a1.49,1.49,0,0,0,0,3h3.49a1.49,1.49,0,1,0,0-3Z"/><path class="cls-35" d="M534.41,426.5H522a1.49,1.49,0,0,0,0,3h12.43a1.49,1.49,0,1,0,0-3Z"/><path class="cls-40" d="M577.44,435.58v7.34a10.25,10.25,0,0,1-10.24-10.24v-.08h7.26A3,3,0,0,1,577.44,435.58Z"/><path class="cls-41" d="M598.41,369a4.27,4.27,0,1,1,4.26-4.27,4.27,4.27,0,0,1-4.26,4.27Zm0-5.55a1.29,1.29,0,1,0,1.28,1.29A1.28,1.28,0,0,0,598.41,363.45Z"/><path class="cls-31" d="M601.18,381.76a4.27,4.27,0,1,1,4.26-4.26,4.27,4.27,0,0,1-4.26,4.26Zm0-5.54a1.28,1.28,0,1,0,1.28,1.28A1.28,1.28,0,0,0,601.18,376.22Z"/><path class="cls-40" d="M497.35,355.83a1.49,1.49,0,0,1-1.49-1.49,1.79,1.79,0,0,0-1.79-1.79,1.49,1.49,0,1,1,0-3,1.8,1.8,0,0,0,1.79-1.79,1.49,1.49,0,1,1,3,0,1.79,1.79,0,0,0,1.79,1.79,1.49,1.49,0,0,1,0,3,1.79,1.79,0,0,0-1.79,1.79A1.49,1.49,0,0,1,497.35,355.83Z"/><path class="cls-40" d="M498.77,443.62a1.5,1.5,0,0,1-1.5-1.49,1.79,1.79,0,0,0-1.79-1.79,1.49,1.49,0,0,1,0-3,1.79,1.79,0,0,0,1.79-1.79,1.5,1.5,0,1,1,3,0,1.79,1.79,0,0,0,1.79,1.79,1.49,1.49,0,1,1,0,3,1.79,1.79,0,0,0-1.79,1.79A1.49,1.49,0,0,1,498.77,443.62Z"/><path class="cls-41" d="M494.07,429.31a1.49,1.49,0,0,1-1.5-1.49,1.79,1.79,0,0,0-1.79-1.79,1.49,1.49,0,0,1,0-3,1.79,1.79,0,0,0,1.79-1.79,1.5,1.5,0,0,1,3,0,1.79,1.79,0,0,0,1.79,1.79,1.49,1.49,0,0,1,0,3,1.79,1.79,0,0,0-1.79,1.79A1.49,1.49,0,0,1,494.07,429.31Z"/></svg>