<svg xmlns="http://www.w3.org/2000/svg" xmlns:xlink="http://www.w3.org/1999/xlink" width="655.121" height="372.252" viewBox="0 0 655.121 372.252">
  <defs>
    <linearGradient id="linear-gradient" x1="0.5" y1="-0.039" x2="0.5" y2="0.958" gradientUnits="objectBoundingBox">
      <stop offset="0.237" stop-color="#8cc6ff"/>
      <stop offset="1" stop-color="#0060ff" stop-opacity="0"/>
    </linearGradient>
    <linearGradient id="linear-gradient-2" x1="-0.708" y1="-0.039" x2="-0.708" y2="0.958" xlink:href="#linear-gradient"/>
    <linearGradient id="linear-gradient-3" x1="0.725" y1="-0.581" x2="0.361" y2="1.043" gradientUnits="objectBoundingBox">
      <stop offset="0.08" stop-color="#385fd4"/>
      <stop offset="0.212" stop-color="#3257c8"/>
      <stop offset="0.446" stop-color="#2344ab"/>
      <stop offset="0.751" stop-color="#0c247b"/>
      <stop offset="0.898" stop-color="#001462"/>
    </linearGradient>
    <linearGradient id="linear-gradient-4" x1="0.82" y1="0.205" x2="0.293" y2="0.736" gradientUnits="objectBoundingBox">
      <stop offset="0" stop-color="#f6b3b5"/>
      <stop offset="1" stop-color="#fad1d3"/>
    </linearGradient>
    <linearGradient id="linear-gradient-5" x1="0.366" y1="-0.117" x2="0.567" y2="0.831" xlink:href="#linear-gradient-4"/>
    <linearGradient id="linear-gradient-6" x1="1.32" y1="-1.661" x2="-0.244" y2="2.59" gradientUnits="objectBoundingBox">
      <stop offset="0" stop-color="#385fd4"/>
      <stop offset="0.16" stop-color="#3257c8"/>
      <stop offset="0.443" stop-color="#2344ab"/>
      <stop offset="0.813" stop-color="#0c247b"/>
      <stop offset="0.991" stop-color="#001462"/>
    </linearGradient>
    <linearGradient id="linear-gradient-7" x1="0.024" y1="-1.963" x2="0.817" y2="2.263" xlink:href="#linear-gradient-6"/>
    <linearGradient id="linear-gradient-8" x1="0.78" y1="-0.114" x2="0.167" y2="1.33" xlink:href="#linear-gradient-4"/>
    <linearGradient id="linear-gradient-9" x1="1.058" y1="-1.914" x2="-0.051" y2="2.919" xlink:href="#linear-gradient-6"/>
    <linearGradient id="linear-gradient-10" x1="1.837" y1="0.278" x2="-1.16" y2="0.756" xlink:href="#linear-gradient-6"/>
    <linearGradient id="linear-gradient-11" x1="-0.374" y1="0.5" x2="1.105" y2="0.5" xlink:href="#linear-gradient-4"/>
    <linearGradient id="linear-gradient-12" x1="0.5" y1="1.34" x2="0.5" y2="-0.151" gradientUnits="objectBoundingBox">
      <stop offset="0" stop-color="#385fd4"/>
      <stop offset="0.279" stop-color="#2c5fdc"/>
      <stop offset="0.77" stop-color="#0f5ff3"/>
      <stop offset="0.991" stop-color="#0060ff"/>
    </linearGradient>
    <linearGradient id="linear-gradient-13" x1="0.493" y1="1.236" x2="0.514" y2="-0.278" gradientUnits="objectBoundingBox">
      <stop offset="0" stop-color="#001462"/>
      <stop offset="0.069" stop-color="#071e71"/>
      <stop offset="0.252" stop-color="#183594"/>
      <stop offset="0.437" stop-color="#2647b0"/>
      <stop offset="0.623" stop-color="#3054c4"/>
      <stop offset="0.81" stop-color="#365cd0"/>
      <stop offset="1" stop-color="#385fd4"/>
    </linearGradient>
    <linearGradient id="linear-gradient-14" x1="1.773" y1="0.5" x2="-0.088" y2="0.5" gradientUnits="objectBoundingBox">
      <stop offset="0" stop-color="#385fd4"/>
      <stop offset="0.174" stop-color="#416ad8"/>
      <stop offset="0.48" stop-color="#5987e5"/>
      <stop offset="0.88" stop-color="#80b7f8"/>
      <stop offset="0.991" stop-color="#8cc6ff"/>
    </linearGradient>
    <linearGradient id="linear-gradient-15" x1="0.5" y1="-0.19" x2="0.5" y2="1.216" gradientUnits="objectBoundingBox">
      <stop offset="0" stop-color="#385fd4"/>
      <stop offset="0.17" stop-color="#4f7ce0"/>
      <stop offset="0.397" stop-color="#699ced"/>
      <stop offset="0.616" stop-color="#7cb3f7"/>
      <stop offset="0.822" stop-color="#88c1fd"/>
      <stop offset="1" stop-color="#8cc6ff"/>
    </linearGradient>
    <linearGradient id="linear-gradient-16" x1="0.496" y1="0.999" x2="0.504" y2="0.003" xlink:href="#linear-gradient-12"/>
    <linearGradient id="linear-gradient-17" x1="1.087" y1="0.417" x2="-0.153" y2="0.767" gradientUnits="objectBoundingBox">
      <stop offset="0" stop-color="#f6b3b5"/>
      <stop offset="0.991" stop-color="#fad1d3"/>
    </linearGradient>
    <linearGradient id="linear-gradient-18" x1="0.561" y1="0.433" x2="0.105" y2="0.79" xlink:href="#linear-gradient-17"/>
    <linearGradient id="linear-gradient-19" x1="0.5" y1="-2.309" x2="0.5" y2="2.879" gradientUnits="objectBoundingBox">
      <stop offset="0" stop-color="#8cc6ff"/>
      <stop offset="1" stop-color="#385fd4"/>
    </linearGradient>
    <linearGradient id="linear-gradient-20" x1="0.5" y1="-1.142" x2="0.5" y2="1.465" gradientUnits="objectBoundingBox">
      <stop offset="0" stop-color="#8cc6ff"/>
      <stop offset="0.174" stop-color="#82bafa"/>
      <stop offset="0.48" stop-color="#6a9ded"/>
      <stop offset="0.88" stop-color="#436dda"/>
      <stop offset="0.991" stop-color="#385fd4"/>
    </linearGradient>
    <linearGradient id="linear-gradient-21" x1="1.154" y1="0.34" x2="-0.141" y2="0.687" xlink:href="#linear-gradient-17"/>
    <linearGradient id="linear-gradient-22" x1="0.567" y1="-0.104" x2="0.42" y2="0.968" xlink:href="#linear-gradient-17"/>
    <linearGradient id="linear-gradient-23" x1="-3.555" y1="6.748" x2="0.835" y2="-0.016" gradientUnits="objectBoundingBox">
      <stop offset="0" stop-color="#8cc6ff"/>
      <stop offset="1" stop-color="#f6b3b5"/>
    </linearGradient>
    <linearGradient id="linear-gradient-24" x1="0.5" y1="2.747" x2="0.5" y2="-0.819" xlink:href="#linear-gradient-19"/>
    <linearGradient id="linear-gradient-25" x1="0.5" y1="2.586" x2="0.5" y2="-0.703" xlink:href="#linear-gradient-19"/>
    <linearGradient id="linear-gradient-26" x1="0.5" y1="-2.667" x2="0.5" y2="3.58" xlink:href="#linear-gradient-19"/>
    <linearGradient id="linear-gradient-27" x1="0.5" y1="-8.332" x2="0.5" y2="6.442" xlink:href="#linear-gradient-19"/>
    <linearGradient id="linear-gradient-28" x1="0.5" y1="1.073" x2="0.5" y2="-0.165" xlink:href="#linear-gradient-17"/>
    <linearGradient id="linear-gradient-29" x1="0.493" y1="1.237" x2="0.508" y2="-0.28" xlink:href="#linear-gradient-12"/>
    <linearGradient id="linear-gradient-30" x1="0.6" y1="1.4" x2="0.415" y2="-0.007" xlink:href="#linear-gradient-17"/>
    <linearGradient id="linear-gradient-31" x1="2.266" y1="0.145" x2="0.035" y2="0.647" gradientUnits="objectBoundingBox">
      <stop offset="0" stop-color="#8cc6ff"/>
      <stop offset="0.006" stop-color="#97c4f7"/>
      <stop offset="0.016" stop-color="#b4bee2"/>
      <stop offset="0.029" stop-color="#e4b6c1"/>
      <stop offset="0.033" stop-color="#f6b3b5"/>
      <stop offset="0.991" stop-color="#0060ff"/>
    </linearGradient>
    <linearGradient id="linear-gradient-32" x1="2.889" y1="0.358" x2="-0.099" y2="0.57" xlink:href="#linear-gradient-31"/>
    <linearGradient id="linear-gradient-33" x1="-2.302" y1="0.233" x2="4.871" y2="0.924" gradientUnits="objectBoundingBox">
      <stop offset="0.105" stop-color="#001462"/>
      <stop offset="0.297" stop-color="#132e89"/>
      <stop offset="0.49" stop-color="#2343aa"/>
      <stop offset="0.675" stop-color="#2e52c1"/>
      <stop offset="0.849" stop-color="#355bcf"/>
      <stop offset="1" stop-color="#385fd4"/>
    </linearGradient>
    <linearGradient id="linear-gradient-34" x1="-2.16" y1="0.268" x2="5.982" y2="0.959" xlink:href="#linear-gradient-33"/>
    <linearGradient id="linear-gradient-35" x1="-0.999" y1="-0.736" x2="2.936" y2="2.477" xlink:href="#linear-gradient-33"/>
    <linearGradient id="linear-gradient-36" x1="1.493" y1="-0.435" x2="0.155" y2="0.849" gradientUnits="objectBoundingBox">
      <stop offset="0" stop-color="#f6b3b5"/>
      <stop offset="0.088" stop-color="#eaafb8"/>
      <stop offset="0.243" stop-color="#cda5c1"/>
      <stop offset="0.448" stop-color="#9c94cf"/>
      <stop offset="0.694" stop-color="#597ee3"/>
      <stop offset="0.973" stop-color="#0561fd"/>
      <stop offset="0.991" stop-color="#0060ff"/>
    </linearGradient>
    <linearGradient id="linear-gradient-37" x1="0.414" y1="0.064" x2="0.577" y2="1.038" xlink:href="#linear-gradient-4"/>
    <linearGradient id="linear-gradient-38" x1="1.006" y1="-0.155" x2="-0.018" y2="0.867" xlink:href="#linear-gradient-4"/>
    <linearGradient id="linear-gradient-39" x1="2.22" y1="-2.095" x2="-0.329" y2="1.451" xlink:href="#linear-gradient-36"/>
    <linearGradient id="linear-gradient-40" x1="-0.163" y1="1.197" x2="1.109" y2="-0.229" gradientUnits="objectBoundingBox">
      <stop offset="0" stop-color="#001462"/>
      <stop offset="0.118" stop-color="#0e277f"/>
      <stop offset="0.267" stop-color="#1d3b9e"/>
      <stop offset="0.424" stop-color="#294bb5"/>
      <stop offset="0.591" stop-color="#3156c6"/>
      <stop offset="0.773" stop-color="#365cd0"/>
      <stop offset="1" stop-color="#385fd4"/>
    </linearGradient>
    <linearGradient id="linear-gradient-41" x1="0.5" y1="0.963" x2="0.5" y2="0.053" xlink:href="#linear-gradient-4"/>
    <linearGradient id="linear-gradient-42" x1="0.49" y1="0.576" x2="0.645" y2="-2.904" xlink:href="#linear-gradient-40"/>
    <linearGradient id="linear-gradient-43" x1="-13.998" y1="0.933" x2="-13.92" y2="-0.689" xlink:href="#linear-gradient-40"/>
    <linearGradient id="linear-gradient-44" x1="1.778" y1="0.5" x2="-0.958" y2="0.5" gradientUnits="objectBoundingBox">
      <stop offset="0" stop-color="#0060ff"/>
      <stop offset="0.089" stop-color="#0b63fb"/>
      <stop offset="0.245" stop-color="#286df2"/>
      <stop offset="0.451" stop-color="#587de4"/>
      <stop offset="0.699" stop-color="#9b94d0"/>
      <stop offset="0.979" stop-color="#efb0b6"/>
      <stop offset="1" stop-color="#f6b3b5"/>
    </linearGradient>
    <linearGradient id="linear-gradient-45" x1="2.139" y1="0.5" x2="-0.597" y2="0.5" xlink:href="#linear-gradient-44"/>
  </defs>
  <g id="Group_1985" data-name="Group 1985" transform="translate(-178.787 -173.657)">
    <path id="Path_3247" data-name="Path 3247" d="M311.572,309.933l-.752.345-1.369.665c-.9.439-1.7.882-2.537,1.328q-2.427,1.348-4.7,2.782a102.372,102.372,0,0,0-8.667,6.124A117.455,117.455,0,0,0,278.352,335.4a130.692,130.692,0,0,0-12.489,16.364,145.754,145.754,0,0,0-9.733,17.906A158.556,158.556,0,0,0,249,388.53c-.9,3.209-1.907,6.4-2.613,9.642l-1.14,4.846-.935,4.868a203.264,203.264,0,0,0-2.97,24.036V401.448a148.9,148.9,0,0,1,5.955-22.133c4.344-12.995,10.76-28.042,17.885-44.319,5.839-13.309,10.826-25.019,15.448-34.519,4.6-9.485,9.191-16.492,12.94-20.234-3.7,3.706-10.676,8.511-18.2,16.566A117.234,117.234,0,0,0,253.456,329.8a156.817,156.817,0,0,0-12.113,45.306V309.388a59.075,59.075,0,0,1,5.953-13.1c4.333-7.453,10.321-15.706,16.332-25.191a164.687,164.687,0,0,0,11.224-21.513c2.766-6.305,5.017-11.262,6.876-14.027-1.873,2.782-6.572,5.663-11.958,10.116a77.462,77.462,0,0,0-16.985,18.57,81.61,81.61,0,0,0-11.443,29.426V268.5c1.767-11.6,5.5-29.092,5.5-49.323,0-21.668-6.413-37.868-6.413-45.522,0,7.653-6.413,23.854-6.413,45.522,0,20.238,3.734,37.732,5.5,49.334v27.414a175.441,175.441,0,0,0-13.159-49.679A138.38,138.38,0,0,0,203.2,210.17c-7.893-8.923-15.119-14.555-19.4-18.293,4.356,3.8,9.136,11.566,14.081,21.871,4.991,10.324,10.341,23.151,16.728,37.639,7.667,17.781,14.391,34.208,18.919,48.385a157.678,157.678,0,0,1,5.991,24.294v42.314q-.836-7.871-2.2-15.6a253.411,253.411,0,0,0-8.472-33.909,291.691,291.691,0,0,0-12.6-32.409c-2.408-5.292-5.075-10.512-7.891-15.71a151.115,151.115,0,0,0-9.9-15.669c4.607,6.218,5.235,12.7,4.675,18.927a51.464,51.464,0,0,1-1.965,9.06c-.93,2.918-2.009,5.693-3.048,8.27-1.534,3.725-1.293,6.539-.038,8.882,1.191,2.37,3.325,4.306,5.536,6.155,4.292,3.718,8.841,7.223,5.668,12.371-3.079,5.1-6.843,9.9-6.541,15.448.109,2.8,1.141,5.8,3.8,9.3,2.481,3.537,6.666,7.525,12.593,12.711A71.118,71.118,0,0,1,228.9,364.59a88.762,88.762,0,0,1,6.772,10.386c1.729,3.206,2.9,6.032,3.746,8.026l.1.246v48.387c-.174-1.083-5.505-31.589-23.63-48.462-17.029-15.853-32.922-20.9-37.1-23.216,4.212,2.329,28.189,31.937,36.02,42.138,12.086,15.737,24.706,35.437,24.706,57.24l0,.029v66.021h1.827v-83.4a29.552,29.552,0,0,1,1.492-5.582,37.237,37.237,0,0,1,5.006-8.829A55.823,55.823,0,0,1,254.6,420.4c2.455-2.127,4.948-4.01,7.291-5.721,3.448-2.443,4.885-5.1,5.317-7.957.537-2.821-.123-5.9-.574-8.907-.258-1.509-.537-3.018-.723-4.477a18.213,18.213,0,0,1-.005-4.116,6.508,6.508,0,0,1,4.477-5.758c5.823-2.182,11.845-3.4,15.58-7.749a13.721,13.721,0,0,0,2.473-3.927,25.459,25.459,0,0,0,1.733-5.581c.9-4.439,1.36-10.257,2.085-18.586a58.827,58.827,0,0,1,10.011-27.1c4.687-6.908,9.523-10.732,10.336-11.028Z" transform="translate(0 0)" fill="url(#linear-gradient)"/>
    <path id="Path_3248" data-name="Path 3248" d="M501.445,324.824l.591.272,1.075.521c.7.345,1.334.694,1.994,1.044q1.909,1.061,3.7,2.187a80.647,80.647,0,0,1,6.813,4.812,92.575,92.575,0,0,1,11.942,11.183,102.911,102.911,0,0,1,9.815,12.861,114.439,114.439,0,0,1,7.65,14.075,124.33,124.33,0,0,1,5.6,14.818c.707,2.522,1.5,5.034,2.055,7.578l.9,3.81.733,3.826a159.946,159.946,0,0,1,2.336,18.891V396.75a117.19,117.19,0,0,0-4.682-17.395c-3.414-10.213-8.456-22.041-14.056-34.832-4.59-10.462-8.509-19.664-12.142-27.131-3.616-7.455-7.224-12.964-10.17-15.9,2.912,2.912,8.391,6.688,14.3,13.019a92.177,92.177,0,0,1,17.226,25.93,123.279,123.279,0,0,1,9.521,35.609V324.395a46.48,46.48,0,0,0-4.68-10.295c-3.406-5.857-8.111-12.345-12.836-19.8a129.408,129.408,0,0,1-8.822-16.908,83.184,83.184,0,0,0-5.4-11.025c1.473,2.185,5.166,4.451,9.4,7.951a60.789,60.789,0,0,1,13.35,14.6,64.15,64.15,0,0,1,8.995,23.126v-19.78c-1.391-9.119-4.323-22.864-4.323-38.765,0-17.031,5.041-29.764,5.041-35.779,0,6.015,5.041,18.748,5.041,35.779,0,15.9-2.934,29.655-4.323,38.774v21.547a137.907,137.907,0,0,1,10.341-39.046,108.824,108.824,0,0,1,18.2-28.356,139.12,139.12,0,0,1,15.252-14.377c-3.424,2.989-7.18,9.09-11.067,17.19-3.923,8.113-8.128,18.2-13.147,29.583-6.027,13.976-11.312,26.887-14.871,38.029a123.825,123.825,0,0,0-4.708,19.093V369.19q.656-6.187,1.733-12.263a198.877,198.877,0,0,1,6.657-26.651,229.615,229.615,0,0,1,9.9-25.472c1.893-4.161,3.988-8.262,6.2-12.347a118.751,118.751,0,0,1,7.781-12.316c-3.619,4.887-4.115,9.982-3.674,14.878a40.382,40.382,0,0,0,1.545,7.12c.731,2.293,1.579,4.473,2.4,6.5,1.206,2.927,1.017,5.138.029,6.98a16.345,16.345,0,0,1-4.35,4.837c-3.373,2.922-6.949,5.678-4.455,9.724,2.419,4.01,5.377,7.776,5.141,12.142A12.782,12.782,0,0,1,584,349.631c-1.95,2.78-5.239,5.914-9.9,9.991a55.818,55.818,0,0,0-7.68,8.161,69.73,69.73,0,0,0-5.321,8.161c-1.36,2.52-2.281,4.742-2.944,6.309-.029.068-.053.128-.079.193v38.031c.135-.851,4.326-24.828,18.57-38.089,13.384-12.46,25.877-16.424,29.161-18.247-3.312,1.83-22.157,25.1-28.312,33.118-9.5,12.369-19.418,27.852-19.418,44.989l0,.022v51.89h-1.435V428.609a23.322,23.322,0,0,0-1.174-4.388,29.282,29.282,0,0,0-3.933-6.939,44.021,44.021,0,0,0-5.311-5.639c-1.931-1.671-3.889-3.153-5.731-4.5a9.085,9.085,0,0,1-4.179-6.254c-.422-2.216.1-4.641.453-7,.2-1.186.42-2.37.566-3.517a14.235,14.235,0,0,0,.005-3.236,5.116,5.116,0,0,0-3.52-4.526c-4.576-1.714-9.309-2.674-12.243-6.09a10.8,10.8,0,0,1-1.944-3.086,20,20,0,0,1-1.362-4.386c-.707-3.489-1.068-8.062-1.639-14.608a46.235,46.235,0,0,0-7.867-21.3c-3.684-5.429-7.486-8.432-8.125-8.667Z" transform="translate(228.099 31.226)" fill="url(#linear-gradient-2)"/>
    <path id="Path_3249" data-name="Path 3249" d="M316.605,431.493c2.8,11.84,6.924,25.132,11.2,37.67h70.939c1.6-5.155,3.188-10.693,4.7-16.571,8.716-33.943-.458-63.3-8.714-76.6s-15.366-29.128-2.773-48.529,13.782-34.5,13.782-34.5c-1.835-7.339-7.57-9.863-22.461-16.969,0,0-.889-.3-2.269-.764-3.154,12.81-9.81,23-21.6,25.072-15.363,2.707-29.229-6.664-36.243-23.115-6.763,2-14.3,4.125-17.883,6.145,0,0,18.806,40.824,22.393,63.909S308.031,395.255,316.605,431.493Z" transform="translate(89.646 71.985)" fill="url(#linear-gradient-3)"/>
    <path id="Path_3250" data-name="Path 3250" d="M351.989,311.116c11.79-2.076,18.446-12.262,21.6-25.072-4.935-1.669-16.539-5.654-19.765-7.267-4.128-2.064-2.982-18.806-2.982-18.806l-21.8,6.221v16.255c0,1.524-6.23,3.467-13.3,5.553C322.76,304.452,336.626,313.823,351.989,311.116Z" transform="translate(97.064 61.171)" fill="url(#linear-gradient-4)"/>
    <path id="Path_3251" data-name="Path 3251" d="M345.327,260.129l-21.8,6.221v13.815a44.44,44.44,0,0,1,23.057,31.085c11.718-2.122,18.345-12.28,21.487-25.048-4.935-1.669-16.539-5.654-19.765-7.267C344.18,276.871,345.327,260.129,345.327,260.129Z" transform="translate(102.58 61.283)" fill="#cb9eae"/>
    <path id="Path_3252" data-name="Path 3252" d="M369.109,320.1c-9.728,2.975-18.907,6.245-23.766,6.245-9.634,0-23.854-13.531-30.579-5.258S307.04,334.836,312.3,338.5s22.029-1.376,30.056.229c3.583.718,15.8,1.34,28.783,1.14C372.249,334.713,372.089,325.281,369.109,320.1Z" transform="translate(92.243 102.589)" fill="url(#linear-gradient-5)"/>
    <path id="Path_3253" data-name="Path 3253" d="M371.345,286.672c-2.261-9.044-20.872,7.57-16.284,22.707,3.933,12.979,2.5,30.42,2.5,30.42l18.22,18.432C381.979,350.661,373.181,294.011,371.345,286.672Z" transform="translate(124.413 78.276)" fill="url(#linear-gradient-6)"/>
    <path id="Path_3254" data-name="Path 3254" d="M370.845,316.843c-7.045-1.03-17.133,1.61-26.69,4.533,2.98,5.177,3.141,14.609,2.035,19.77,16.1-.248,33.383-1.765,36.811-5.955C383,335.191,391.259,319.825,370.845,316.843Z" transform="translate(117.197 101.316)" fill="url(#linear-gradient-7)"/>
    <path id="Path_3255" data-name="Path 3255" d="M321.5,246.8c-3.826,7.441-3.4,32.739,7.228,35.078,9.285,2.042,14.457-7.016,14.457-7.016v-16.78a12.271,12.271,0,0,1-5.953-9.157c-.572-5.142-3.614-5.687-3.614-5.687S327.238,247.011,321.5,246.8Z" transform="translate(99.579 49.311)" fill="url(#linear-gradient-8)"/>
    <path id="Path_3256" data-name="Path 3256" d="M317.112,344.4c-4.8-9.663-7.987-21.844-10.8-28.718-5.3-12.974-6.167-31.063,1.174-35.191,13.531-6.931,19.266,16.9,20.183,23.816s2.751,23.081,7.8,28.875Z" transform="translate(87.436 74.827)" fill="url(#linear-gradient-9)"/>
    <path id="Path_3257" data-name="Path 3257" d="M365.581,290.791c-9.172-5.733,1.051-37.354-14.331-49.52-12.665-10.016-32.865-2.484-32.865,16.433v45.339c5.008-1.565,8.79-3.006,8.79-4.193V285.531c-8.443-5.374-8.617-27.221-5.032-34.193,5.741.214,12.118-3.561,12.118-3.561s3.041.545,3.614,5.687a12.271,12.271,0,0,0,5.953,9.157V279.4c0,15.754,3.792,32.981,12.773,33.937s10.509-10.891,17.388-10.128C373.988,303.21,374.752,296.522,365.581,290.791Z" transform="translate(98.934 44.769)" fill="#001462"/>
    <path id="Path_3258" data-name="Path 3258" d="M324.029,303.993c-5.01,6.848-12.856,12.832-13.118,22.868,4.262,8.571,9.787,15.158,17.441,14.3,11.284-1.271,15.189-14.546,16.521-26.7C337.338,315.035,327.737,309.07,324.029,303.993Z" transform="translate(93.637 92.37)" fill="url(#linear-gradient-10)"/>
    <path id="Path_3259" data-name="Path 3259" d="M335.624,267.85c-2.151.979-9.779,7.628-9.779,9.29s3.423,14.182,3.423,18-3.5,20.431-8.086,30.265a25.542,25.542,0,0,1-2.594,4.255c3.708,5.077,13.309,11.042,20.844,10.462a132.641,132.641,0,0,0,.68-14.355s.772-27.8,2.032-29.774c1.152-1.8,1.141-4.778,1.141-7.312v-5.152s1.751-.111,1.852-3.122q.005-.133.005-.277C345.143,276.848,337.775,266.872,335.624,267.85Z" transform="translate(99.078 66.708)" fill="url(#linear-gradient-11)"/>
    <path id="Path_3260" data-name="Path 3260" d="M436.6,275.02v81.143s27.081.825,26.254,0,0-37.7,0-37.7Z" transform="translate(182.714 71.837)" fill="url(#linear-gradient-12)"/>
    <path id="Path_3261" data-name="Path 3261" d="M476.252,329.727c2.238,15.187.837,32.493,0,39.03s-20.094,64.972-20.094,64.972H503.1l12.928-61.9-17.157-47.292Z" transform="translate(196.575 106.927)" fill="url(#linear-gradient-13)"/>
    <path id="Path_3262" data-name="Path 3262" d="M477.845,329.727c2.238,15.187.837,32.493,0,39.03s-23.934,65.464-23.934,65.464H504.7l12.928-62.4-17.157-47.292Z" transform="translate(194.982 106.927)" fill="url(#linear-gradient-14)"/>
    <path id="Path_3263" data-name="Path 3263" d="M520.2,318.149c6.915,21.677,37.906,28.686,29.356,63.7-6.17,25.273-18.76,56.9-18.76,56.9H472.2s18.375-55.1,18.375-62.4-11.537-44.8-11.537-44.8Z" transform="translate(207.946 102.402)" fill="url(#linear-gradient-15)"/>
    <path id="Path_3264" data-name="Path 3264" d="M446.093,264.278c-6.917,3.3-13.234,17.976-6.917,31.756s7.216,11.318,9.611,22.136,1.456,16.812,21.249,30.292,19.2,17.077,20.094,23.968,56.623,5.393,55.724-20.373.523-55.518-16.067-69.551S446.093,264.278,446.093,264.278Z" transform="translate(182.696 64.224)" fill="url(#linear-gradient-16)"/>
    <path id="Path_3265" data-name="Path 3265" d="M438.1,245.608v77.336s28.078-15.066,27.828-29.807-12.7-47.529-12.7-47.529Z" transform="translate(183.775 50.992)" fill="#001462"/>
    <path id="Path_3266" data-name="Path 3266" d="M449.638,279.511s3.739,6.052,5.007,8.653-4.359,14.1-2.5,23.96,14.051,8.178,16.778,0c.82-2.464,3-19.953,3-19.953V263.249Z" transform="translate(191.954 63.494)" fill="url(#linear-gradient-17)"/>
    <path id="Path_3267" data-name="Path 3267" d="M454.645,288.164c7.889-8.839,16.058,28.59,3.123,30.488.031.009.063.01.094.019l1.852.205a9.888,9.888,0,0,0,9.2-6.753c.82-2.464,3-19.953,3-19.953V263.249l-22.283,16.262S453.377,285.563,454.645,288.164Z" transform="translate(191.954 63.494)" fill="#cb9eae"/>
    <path id="Path_3268" data-name="Path 3268" d="M440.588,253.1c-3.836,23.794.383,45.727,11.855,48.326s27.92-9.95,27.92-21.019,11.091-39.91-1.531-46.494S443.033,237.938,440.588,253.1Z" transform="translate(184.561 41.293)" fill="url(#linear-gradient-18)"/>
    <path id="Path_3269" data-name="Path 3269" d="M451.018,252.29a100.929,100.929,0,0,1-10.389,7.647c-4.395,2.613-3.318-12.474,5.194-19.563s19.676-13.125,24.2-9.053c0,0,14.181-3.921,22.779,10.562s9.2,27.455,11.918,31.075,7.242,5.885,5.13,12.673c0,0,15.084-3.018,17.348,7.392S528.71,306.8,528.71,306.8s-4.687-3.667-14.3-7.033c0,0-6.476,5.1-12.661,5.1s-13.977,24.956-24.839,24.956l-.091-59.425S452.279,267.264,451.018,252.29Z" transform="translate(183.775 39.934)" fill="#001462"/>
    <path id="Path_3270" data-name="Path 3270" d="M387.095,317.034c-28.5,29.679-53.054,120.211-53.054,120.211h40.918l25.574-60.105Z" transform="translate(110.029 101.612)" fill="url(#linear-gradient-19)"/>
    <path id="Path_3271" data-name="Path 3271" d="M513.965,331.032c-5.962-6.777-37.725-29.072-78.223-26.649-35.709,2.138-64.591,13.167-70.221,21.747-4.118,6.274,4.9,48.632,11.178,65.5a147.9,147.9,0,0,1,9.02,50.2s100.988-.589,101.577,0,12.549-37.258,14.117-56.083S499.455,346.132,513.965,331.032Z" transform="translate(131.603 92.517)" fill="url(#linear-gradient-20)"/>
    <path id="Path_3272" data-name="Path 3272" d="M436.416,283.74s.5,31.385,0,40.756S421.391,342.3,416,342.53,398.67,334.8,396.8,321.451V293.109Z" transform="translate(154.504 78.017)" fill="url(#linear-gradient-21)"/>
    <path id="Path_3273" data-name="Path 3273" d="M436.607,300.791c-.063-9.1-.191-17.051-.191-17.051l-39.62,9.369v23.24c3.3,14.526,25.212,10.555,30.429-3.211C430.215,305.247,432.769,302.9,436.607,300.791Z" transform="translate(154.504 78.017)" fill="#cb9eae"/>
    <path id="Path_3274" data-name="Path 3274" d="M390.681,288.183c1.487,23,10.859,45.257,25.709,42.909,18.42-2.912,24.012-30.846,23.285-46.072s-9.4-24.74-22.61-24.754C404.5,260.254,389.42,268.714,390.681,288.183Z" transform="translate(150.118 61.38)" fill="url(#linear-gradient-22)"/>
    <path id="Path_3275" data-name="Path 3275" d="M424.7,284.76c-.984,4.584-3.216,8.062-4.983,7.768s-2.4-4.251-1.415-8.836,3.216-8.063,4.983-7.769S425.687,280.173,424.7,284.76Z" transform="translate(169.418 72.464)" fill="url(#linear-gradient-23)"/>
    <path id="Path_3276" data-name="Path 3276" d="M392.008,293.424c-2.806-4.292-3-5.98-2.794-13.113s6.223-7.382,6.1-10.428,3.761-11.236,19.638-11.894,14.922,6.618,19.84,7.091,12.54,5.517,8.827,23.57c0,0-4.316.413-6.016,9.138a.782.782,0,0,1-1.384.261,11.452,11.452,0,0,1-1.456-3.344c-1.184-4.361-5.936,2.192-6.8-6.5-.615-6.2-15.732,5.174-26.946-4.877,0,0-1.666,2.218-6.444,2.076C391.8,285.321,392.008,293.424,392.008,293.424Z" transform="translate(149.088 59.736)" fill="#001462"/>
    <path id="Path_3277" data-name="Path 3277" d="M402.421,343.112s1.307,1.671,3.749-2.057,10.792-15.049,13.688-13.931l-.014-.019c-5.875-1.222-15.736-8.856-17.424-20.891v-.976c-4.672.651-9.15,1.446-13.4,2.346C387.839,314.235,392.829,335.762,402.421,343.112Z" transform="translate(148.871 93.253)" fill="#385fd4"/>
    <path id="Path_3278" data-name="Path 3278" d="M427.4,309.38c-.437,8.147-11.474,15.583-17.888,17.538h0c3.028-1.177,14.157,13.463,16.086,16.689s5.471-1.141,8.995-10.141c2.56-6.534,6.515-17.795,4.856-25.745a114,114,0,0,0-11.906-2.652C427.5,306.762,427.458,308.24,427.4,309.38Z" transform="translate(163.513 93.133)" fill="#385fd4"/>
    <path id="Path_3279" data-name="Path 3279" d="M401.845,308.641v-6.825c-5.921,2.6-11.406,4.8-12.009,8.186-1.184,6.64,4.147,25.936,12.009,32.751,0,0,1.309,1.671,3.751-2.057s10.792-12.263,13.689-11.146l-.014-.019C413.4,328.311,403.535,320.675,401.845,308.641Z" transform="translate(149.455 90.827)" fill="url(#linear-gradient-24)"/>
    <path id="Path_3280" data-name="Path 3280" d="M437.3,308.452c-1.639-3.708-6.954-6.719-9.675-8.007-.014,5.039-.075,9.529-.22,12.212-.437,8.147-11.476,15.583-17.888,17.538h0c3.028-1.177,14.157,10.676,16.086,13.9s4.313-.533,8.227-9.372C437.812,325.727,439.972,314.5,437.3,308.452Z" transform="translate(163.518 89.855)" fill="url(#linear-gradient-25)"/>
    <path id="Path_3281" data-name="Path 3281" d="M482.081,411.881c0-26.025-7.582-78.185-19.609-91.978,0,0-18.825,10.069-24.78,41.985-1.781,9.535,1.249,36.78,2.033,48.285Z" transform="translate(183.096 103.645)" fill="url(#linear-gradient-26)"/>
    <path id="Path_3282" data-name="Path 3282" d="M420.655,404.856h57.124c8.461,0,17.562-6.908,16.284-25.622s-31.9-16.089-42.355-1.709l-31.474,4.807Z" transform="translate(171.114 136.292)" fill="url(#linear-gradient-27)"/>
    <path id="Path_3283" data-name="Path 3283" d="M418.144,398.21l2.7-2.534,8.217,2.913a13.294,13.294,0,0,0,4.443.764h16.306s7.716-1.652,7.969-10.76-7.59-11.764-11-11.764H428.9a13.058,13.058,0,0,1-2.666-.275L413.517,373.9a7.84,7.84,0,0,0-5.5.875l-7.206,4.14A18.209,18.209,0,0,0,397,381.834l-13.075,13.1a2.588,2.588,0,0,0,1.832,4.415h29.5A4.223,4.223,0,0,0,418.144,398.21Z" transform="translate(144.842 141.795)" fill="url(#linear-gradient-28)"/>
    <path id="Path_3284" data-name="Path 3284" d="M530.5,277.458c-12.246-7.077-33.708,13.053-29.091,36.848s-21.516,53.32-21.516,53.32-29.619,11.893-41.508,14.146a46.012,46.012,0,0,1,7.58,17.81c19.45-1.6,47.36-5.557,58.639-14.956,17.048-14.206,35.157-66.592,35.16-83.236C539.771,282.024,530.5,277.458,530.5,277.458Z" transform="translate(183.98 72.546)" fill="url(#linear-gradient-29)"/>
    <path id="Path_3285" data-name="Path 3285" d="M464.56,338.278H426.268s-27.348,9.263-28.057,10.847-2.131,11,0,13.219,15.982,6.122,19.532,5.412S449,356.746,455.389,356.746c2.163,0,9.9-.205,19.848-1.025a46.011,46.011,0,0,0-7.58-17.81A17.6,17.6,0,0,1,464.56,338.278Z" transform="translate(154.709 116.408)" fill="url(#linear-gradient-30)"/>
    <path id="Path_3286" data-name="Path 3286" d="M292.953,331.763s9.594,7.592,19.407,0,3.053-20.559,3.053-20.559L292.953,323.17Z" transform="translate(80.91 97.48)" fill="url(#linear-gradient-31)"/>
    <path id="Path_3287" data-name="Path 3287" d="M308.711,281.6v56.771H290.25V284.708Z" transform="translate(78.995 76.5)" fill="url(#linear-gradient-32)"/>
    <path id="Path_3288" data-name="Path 3288" d="M291.028,380.578c-1.777,9.473-11.872,22.78-18.293,41.99h36.688c3.518-23.079,6.7-54.057,1.681-81.591H289.948C291.9,350.257,292.7,371.665,291.028,380.578Z" transform="translate(66.582 118.581)" fill="url(#linear-gradient-33)"/>
    <path id="Path_3289" data-name="Path 3289" d="M262.85,378.524S267.1,399.138,270,422.568h9.743c6.421-19.209,16.516-32.517,18.293-41.99,1.671-8.913.873-30.321-1.08-39.6H263.725Z" transform="translate(59.576 118.581)" fill="url(#linear-gradient-34)"/>
    <path id="Path_3290" data-name="Path 3290" d="M309.594,342.194a19.829,19.829,0,0,0-.806-2.934H245.015c.878,30.7,3.3,61.242,4.75,84.525H292.38c6.421-19.209,16.516-32.517,18.293-41.99C312.345,372.882,311.547,351.474,309.594,342.194Z" transform="translate(46.936 117.364)" fill="url(#linear-gradient-35)"/>
    <path id="Path_3291" data-name="Path 3291" d="M298.553,253.275c-37.723-10.122-63.2,6.719-67.385,30.9-3.821,22.088,23.915,90.485,23.915,118.142,0,0,44.712,23.049,85.734,2.934,0,0-6.153-29.333,0-55.316s14.333-40.867,7.383-59.506C342.131,274.149,316.2,258.008,298.553,253.275Z" transform="translate(36.867 54.303)" fill="url(#linear-gradient-36)"/>
    <path id="Path_3292" data-name="Path 3292" d="M287.811,237.473s-14.237,17.906-20.245,23.613,5.078,17.383,13.489,22.338c5.555,3.274,17.268,6.907,13.815-3.3,0,0-1.953-5.705,7.508-13.815C302.378,266.3,291.866,234.92,287.811,237.473Z" transform="translate(61.706 45.122)" fill="url(#linear-gradient-37)"/>
    <path id="Path_3293" data-name="Path 3293" d="M294.561,263.836s-4.873-14.546-9.265-23.027L280.659,243c-5.4,11.084-6.373,31.97,6.394,34.653C287.053,277.65,285.1,271.945,294.561,263.836Z" transform="translate(69.523 47.591)" fill="#cb9eae"/>
    <path id="Path_3294" data-name="Path 3294" d="M285.169,240.861c1.206-6.828-4.9-7.339-6.809-1.642-2.185,6.512.222,11.023,2.729,9.521,0,0-4.863,14.7,1.258,23.558s13.935,5.452,23.7-4.168c8.4-8.27,13.868-18.375,14.715-22.268,2.214-10.158-8.333-18.374-18.232-17.841C290.419,228.673,285.169,240.861,285.169,240.861Z" transform="translate(69.962 38.512)" fill="url(#linear-gradient-38)"/>
    <path id="Path_3295" data-name="Path 3295" d="M283.4,245.206c-.381,4.021.277,7.134,2.642,5.765s7.964-9.458,13.065-3.609,9.239,11.291,18.293,10.329c11.7-1.246,14.41-17.077,4.106-19.91,0,0,4.48-5.441-3.484-7.964-7.291-2.312-7.583-.878-12.685-6.6-2.937-3.3-20.54-1.538-25.34,16.547C280,239.762,284,238.942,283.4,245.206Z" transform="translate(71.729 34.167)" fill="#001462"/>
    <path id="Path_3296" data-name="Path 3296" d="M261.871,337.779c.376-7.865,5.241-28.274,12.1-41.311s3.494-29.8-5.833-36.368c-9.263-6.52-22.253-5.364-28.4,3.716-16.544,24.417-11.739,79.315-2.819,97.842,1.772,3.679,6.042,6.069,11.836,7.5C236.194,363.427,248.787,334.789,261.871,337.779Z" transform="translate(35.419 58.332)" fill="url(#linear-gradient-39)"/>
    <path id="Path_3297" data-name="Path 3297" d="M276.8,330.014l24.781-29.986A4.263,4.263,0,0,1,306,298.633l42.044,11.587a1.362,1.362,0,0,1,.55,2.324L316.8,341.25a2.76,2.76,0,0,1-2.485.637l-36.411-8.61A2.027,2.027,0,0,1,276.8,330.014Z" transform="translate(69.135 88.463)" fill="url(#linear-gradient-40)"/>
    <path id="Path_3298" data-name="Path 3298" d="M334.118,314.435a13.864,13.864,0,0,0-7.959-7.893c-1.745-.5-14.712-.272-21.678-.111a14.977,14.977,0,0,0-7.641,2.279c-2.194,1.379-4.93,2.9-6.288,2.9h-21.9a76.408,76.408,0,0,0-12.923-7.679c-13.084-2.99-25.677,25.648-13.118,31.384,21.118,5.237,62.8-2.408,80.316-8.395a19.179,19.179,0,0,0,9.656-7.122C333.831,318,334.678,316.036,334.118,314.435Z" transform="translate(41.56 92.175)" fill="url(#linear-gradient-41)"/>
    <line id="Line_78" data-name="Line 78" x2="562.893" transform="translate(227.291 541.133)" fill="none" stroke="#001462" stroke-miterlimit="10" stroke-width="1"/>
    <path id="Path_3299" data-name="Path 3299" d="M382.207,395.275h60a6.229,6.229,0,0,0,6.23-6.23h0A2.843,2.843,0,0,0,445.6,386.2h-63.39a2.841,2.841,0,0,0-2.84,2.842v3.388A2.84,2.84,0,0,0,382.207,395.275Z" transform="translate(142.152 150.633)" fill="url(#linear-gradient-42)"/>
    <path id="Path_3300" data-name="Path 3300" d="M332.966,432.415H458.293a7.322,7.322,0,0,0,7.062-9.263l-22.121-80.526a12.007,12.007,0,0,0-11.578-8.827H306.328a7.323,7.323,0,0,0-7.06,9.265l22.119,80.524A12.011,12.011,0,0,0,332.966,432.415Z" transform="translate(85.197 113.494)" fill="url(#linear-gradient-43)"/>
    <path id="Path_3301" data-name="Path 3301" d="M550.224,355.028c-1.891.514-4.511,2.607-7.4,5.386a114.323,114.323,0,0,1-10.1,9.015c-2.426,1.873-4.825,3.57-7.141,5.222-2.262,1.69-4.511,3.265-6.452,4.88-3.954,3.161-6.972,6.281-8.01,8.624,1.039-2.317,1.481-6.62,3.453-11.834a38.226,38.226,0,0,1,4.19-8.145,34.237,34.237,0,0,1,7.238-7.64,27.614,27.614,0,0,1,14.656-5.256C545.016,354.913,548.349,355.544,550.224,355.028Z" transform="translate(235.527 128.539)" fill="#0060ff"/>
    <path id="Path_3302" data-name="Path 3302" d="M511.213,398.848c.185-2.334-.957-6.081-1.712-11.023a47.01,47.01,0,0,1,.313-17.767,65.664,65.664,0,0,1,8.868-20.477c3.412-5.406,6.638-9.318,7.872-12.115-1.239,2.8-1.905,7.838-2.623,13.993a196.538,196.538,0,0,1-3.245,21.065,84.2,84.2,0,0,1-5.656,16.011C513.039,392.965,511.4,396.509,511.213,398.848Z" transform="translate(233.884 116.092)" fill="#0060ff"/>
    <path id="Path_3303" data-name="Path 3303" d="M489.831,349.767c1.878.873,5.475.89,9.926,2.223a30.149,30.149,0,0,1,14.131,8.573,38.714,38.714,0,0,1,8.957,18.623c1.128,5.815.8,10.4,1.375,13.043-.567-2.681-3-6.587-6.445-10.726-3.409-4.2-7.812-8.559-12.173-13.482-3.616-3.976-6.344-8-8.925-11.385C494.152,353.224,491.734,350.644,489.831,349.767Z" transform="translate(220.439 124.81)" fill="#0060ff"/>
    <path id="Path_3304" data-name="Path 3304" d="M540.055,365.545h-37a3.273,3.273,0,0,0-3.25,3.662l4.513,37.824a3.273,3.273,0,0,0,3.252,2.886h27.97a3.273,3.273,0,0,0,3.252-2.886l4.513-37.824A3.274,3.274,0,0,0,540.055,365.545Z" transform="translate(227.493 135.992)" fill="url(#linear-gradient-44)"/>
    <path id="Path_3305" data-name="Path 3305" d="M498.739,366.34l1.671,14a1.542,1.542,0,0,0,1.531,1.36h40.73a1.542,1.542,0,0,0,1.531-1.36l1.671-14a1.541,1.541,0,0,0-1.531-1.724H500.27A1.541,1.541,0,0,0,498.739,366.34Z" transform="translate(226.744 135.334)" fill="url(#linear-gradient-45)"/>
  </g>
</svg>
