<svg id="Application" xmlns="http://www.w3.org/2000/svg" width="202.851" height="202.851" viewBox="0 0 202.851 202.851">
  <path id="Path_3435" data-name="Path 3435" d="M25,44H72.332v6.762H25Z" transform="translate(52.76 97.996)" fill="#004e92"/>
  <path id="Path_3436" data-name="Path 3436" d="M21,44h6.762v6.762H21Z" transform="translate(43.236 97.996)" fill="#004e92"/>
  <path id="Path_3437" data-name="Path 3437" d="M201.47,15.523H154.138V12.143A10.173,10.173,0,0,0,144,2H62.855A10.173,10.173,0,0,0,52.713,12.143V25.666H5.381A3.381,3.381,0,0,0,2,29.047v40.57A3.381,3.381,0,0,0,5.381,73H52.713V79.76a16.9,16.9,0,0,0-16.9,16.9v13.828L42.57,181.32v20.15a3.381,3.381,0,0,0,3.381,3.381H120.33a3.381,3.381,0,0,0,3.381-3.381v-19.2l12.577-17.986H144a10.173,10.173,0,0,0,10.143-10.143v-3.381h3.381a13.473,13.473,0,0,0,8.858-23.666,13.358,13.358,0,0,0,0-20.285,13.358,13.358,0,0,0,0-20.285,13.473,13.473,0,0,0-8.858-23.666h-3.381V56.094H201.47a3.381,3.381,0,0,0,3.381-3.381V18.9A3.381,3.381,0,0,0,201.47,15.523ZM129.526,8.762l-1.048,4.192a3.381,3.381,0,0,1-3.279,2.569H81.653a3.381,3.381,0,0,1-3.279-2.569L77.325,8.762ZM8.762,66.236V32.428H69.617V66.236ZM116.949,198.089H49.332V184.566h67.617Zm1.623-20.285H49.028L42.57,110.187V96.664A10.173,10.173,0,0,1,52.713,86.521H76.379a10.143,10.143,0,1,1,0,20.285H56.094a3.381,3.381,0,0,0-3.381,3.381v43.951a10.173,10.173,0,0,0,10.143,10.143h65.183Zm28.8-23.666A3.381,3.381,0,0,1,144,157.519H62.855a3.381,3.381,0,0,1-3.381-3.381v-40.57h16.9a16.9,16.9,0,1,0,0-33.809h-16.9V73H73a3.381,3.381,0,0,0,3.381-3.381V29.047A3.381,3.381,0,0,0,73,25.666H59.475V12.143a3.381,3.381,0,0,1,3.381-3.381h7.505l1.454,5.849a10.143,10.143,0,0,0,9.838,7.675H125.2a10.143,10.143,0,0,0,9.838-7.675l1.454-5.848H144a3.381,3.381,0,0,1,3.381,3.381v3.381h-6.762a3.381,3.381,0,0,0-3.381,3.381V52.713a3.381,3.381,0,0,0,3.381,3.381h6.762v6.762H144a13.473,13.473,0,0,0-8.858,23.666,13.358,13.358,0,0,0,0,20.285,13.358,13.358,0,0,0,0,20.285A13.473,13.473,0,0,0,144,150.757h3.381ZM157.519,144H144a6.762,6.762,0,0,1,0-13.523h13.523a6.762,6.762,0,1,1,0,13.523Zm0-20.285H144a6.762,6.762,0,0,1,0-13.523h13.523a6.762,6.762,0,1,1,0,13.523Zm0-20.285H144A6.762,6.762,0,0,1,144,89.9h13.523a6.762,6.762,0,0,1,0,13.523Zm0-33.809a6.762,6.762,0,1,1,0,13.523H144a6.762,6.762,0,0,1,0-13.523Zm40.57-20.285H144V22.285H198.09Z" transform="translate(-2 -2)" fill="#004e92"/>
  <path id="Path_3438" data-name="Path 3438" d="M6,13h6.762v6.762H6Z" transform="translate(7.523 24.189)" fill="#004e92"/>
  <path id="Path_3439" data-name="Path 3439" d="M10,13H43.809v6.762H10Z" transform="translate(17.047 24.189)" fill="#004e92"/>
  <path id="Path_3440" data-name="Path 3440" d="M6,17H53.332v6.762H6Z" transform="translate(7.523 33.713)" fill="#004e92"/>
  <path id="Path_3441" data-name="Path 3441" d="M46,11H59.523v6.762H46Z" transform="translate(102.758 19.428)" fill="#004e92"/>
  <path id="Path_3442" data-name="Path 3442" d="M52,11H72.285v6.762H52Z" transform="translate(117.043 19.428)" fill="#004e92"/>
</svg>
