<svg id="_005-browsing" data-name="005-browsing" xmlns="http://www.w3.org/2000/svg" xmlns:xlink="http://www.w3.org/1999/xlink" width="210.109" height="210.933" viewBox="0 0 210.109 210.933">
  <defs>
    <linearGradient id="linear-gradient" x1="0.5" x2="0.5" y2="1" gradientUnits="objectBoundingBox">
      <stop offset="0" stop-color="#6a11cb"/>
      <stop offset="1" stop-color="#4a00e0"/>
    </linearGradient>
  </defs>
  <path id="Path_592" data-name="Path 592" d="M211.625,143.64a3.114,3.114,0,0,0,3.114-3.114v-3.482a3.114,3.114,0,0,0-6.228,0v3.482A3.113,3.113,0,0,0,211.625,143.64Zm0,0" transform="translate(-122.815 -78.754)" fill="url(#linear-gradient)"/>
  <path id="Path_593" data-name="Path 593" d="M281.718,143.64a3.113,3.113,0,0,0,3.114-3.114v-3.482a3.113,3.113,0,1,0-6.226,0v3.482A3.113,3.113,0,0,0,281.718,143.64Zm0,0" transform="translate(-164.032 -78.754)" fill="url(#linear-gradient)"/>
  <path id="Path_594" data-name="Path 594" d="M223.211,344.414c0,6.236,5.634,11.308,12.559,11.308s12.57-5.072,12.57-11.308-5.639-11.3-12.57-11.3S223.211,338.186,223.211,344.414Zm12.559-5.069c3.5,0,6.342,2.274,6.342,5.069s-2.845,5.08-6.342,5.08-6.331-2.279-6.331-5.08S232.279,339.345,235.77,339.345Zm0,0" transform="translate(-131.459 -195.88)" fill="url(#linear-gradient)"/>
  <path id="Path_595" data-name="Path 595" d="M208.2,175.911l-5.974-8.524c-2.5-3.574-5.81-8.294-10.668-9.783,1.654-4.123.985-9.078-2-14.764l-.016-.031c-.01-.019-.018-.037-.027-.055l-12.4-23.4c-7.094-13.407-13.384-22.965-29.812-23.851-6.588-.346-10.8-1.527-15.583-7.037-.465-.528-1.213-1.305-1.962-2.068a47.729,47.729,0,0,0,12.693-20.349,13.957,13.957,0,0,0,6.579-3.734,12.4,12.4,0,0,0,3.951-8.6V50.024a6.864,6.864,0,0,0-6.856-6.857h-2.47V39.421a22.151,22.151,0,0,0,8.256-13.541,21.569,21.569,0,0,0-3.141-14.954c-5.707-9.121-18.261-14.751-31.214-7.858-4.688,2.5-10.325,1.8-16.294,1.065-6.329-.781-12.873-1.587-19.173,1.183A29.145,29.145,0,0,0,68.061,17.942c-3.077,5.489-4.638,12.2-4.638,19.957v5.269h-2.47A6.864,6.864,0,0,0,54.1,50.024v3.695a12.389,12.389,0,0,0,3.954,8.6,13.933,13.933,0,0,0,6.574,3.732C66.842,73.8,71.977,81.6,78.649,87.656c-.288.306-.55.589-.758.827a18.334,18.334,0,0,1-7.91,5.748,27,27,0,0,1-7.659,1.27C45.894,96.375,39.6,105.939,32.5,119.352l-12.384,23.4c-.011.021-.021.042-.032.063s-.008.014-.011.023c-3.106,5.9-3.7,11.017-1.8,15.234-4.157,1.852-7.111,6.059-9.393,9.313l-5.974,8.526a12.733,12.733,0,0,0-2.377,6.361,3.394,3.394,0,0,0-.029.409v18.726a9.535,9.535,0,0,0,9.524,9.525H201.061a9.536,9.536,0,0,0,9.525-9.525V183.719s0-.006,0-.01a12.233,12.233,0,0,0-2.38-7.8ZM62.421,57.883a6.3,6.3,0,0,1-2.1-4.163V50.024a.637.637,0,0,1,.628-.629h2.47v8.611c0,.245.014.492.021.74a9.154,9.154,0,0,1-1.024-.864Zm122.932,98.265c-1.971,3.272-8.505,7.169-28.425,7.184l1.791-17.739c11.762-2.647,19.4-2.375,25.712.9,2,4.1,2.316,7.346.922,9.659ZM146.132,49.4a.637.637,0,0,1,.628.629V53.72a6.3,6.3,0,0,1-2.094,4.16,9.216,9.216,0,0,1-1.025.866c.008-.246.021-.494.021-.739V49.4ZM84.6,11.017c4.733-2.079,10.159-1.41,15.9-.7,6.667.822,13.558,1.672,19.983-1.748,10.034-5.338,18.961-.806,23.008,5.663,3.462,5.536,4.334,14.29-4.455,20.909-23.369,8.808-32.421,5.375-42,1.743-5.175-1.962-10.465-3.967-17.775-3.967a47.5,47.5,0,0,0-9.443,1.009C70.553,25.4,73.95,15.7,84.6,11.017ZM70.2,62.8a3.2,3.2,0,0,0-.069-.354,22.14,22.14,0,0,1-.48-4.44V40.329c11.766-2.705,18.013-.34,25.177,2.377,5.314,2.013,11.009,4.171,19.217,4.171,6.11,0,13.615-1.2,23.388-4.543V58.007a21.932,21.932,0,0,1-.454,4.3,3.118,3.118,0,0,0-.117.578c-2.535,11.292-13.2,23.547-25.147,28-6.019,2.247-10.29,2.253-16.313.023-12-4.459-22.7-16.777-25.2-28.111Zm12.39,29.77c.224-.256.558-.613.937-1.006a43.156,43.156,0,0,0,9.709,5.185,26.775,26.775,0,0,0,20.655-.027,43.885,43.885,0,0,0,11.149-6.25c.766.779,1.584,1.619,2,2.09a26.95,26.95,0,0,0,6.774,5.79c-5.377,6.024-15.827,9.986-27.834,10.335-13.108.383-24.4-3.5-30.247-10.28a26.862,26.862,0,0,0,6.859-5.837ZM38,122.265c7.12-13.452,11.872-19.865,24.646-20.544a38.419,38.419,0,0,0,7.025-.927c6.408,8.829,19.423,14.147,34.574,14.147.632,0,1.27-.01,1.909-.027,14.918-.436,27.535-5.793,33.7-14.144a38.224,38.224,0,0,0,7.116.951c12.775.69,17.525,7.1,24.64,20.546l8.52,16.083c-5.69-1.263-12.3-1.007-20.76.729l1.35-13.38a6.926,6.926,0,0,0-1.82-5.388,7.872,7.872,0,0,0-5.824-2.581H112.721a3.114,3.114,0,1,0,0,6.228h40.363a1.7,1.7,0,0,1,1.207.533.77.77,0,0,1,.241.587l-4.677,46.3c-.082.834-.571,1.73-1.447,1.73H61.214c-.927,0-1.366-1.035-1.435-1.733L56.9,142.913a3.137,3.137,0,0,0-.034-.348l-1.77-17.482a.767.767,0,0,1,.241-.589,1.7,1.7,0,0,1,1.205-.536H98.3a3.114,3.114,0,0,0,0-6.228H56.539a7.868,7.868,0,0,0-5.822,2.585,6.937,6.937,0,0,0-1.822,5.389l1.355,13.373c-8.457-1.735-15.069-1.991-20.757-.729ZM25.2,146.488c6.3-3.272,13.936-3.544,25.705-.9l1.8,17.741c-16.162-.011-23.515-2.578-26.766-5.293a2.837,2.837,0,0,0-.267-.233,7.347,7.347,0,0,1-1.4-1.656c-1.392-2.313-1.08-5.56.929-9.661Zm86.244,46.532h87.586a14.138,14.138,0,0,0,5.327-.977v9.363a3.3,3.3,0,0,1-3.3,3.3H10.024a3.3,3.3,0,0,1-3.3-3.3v-9.376a14.152,14.152,0,0,0,5.364.99l84.977-.048a3.114,3.114,0,0,0,0-6.228h0l-84.976.048c-2.443,0-4.268-.814-5.006-2.235a3.319,3.319,0,0,1-.356-1.31v-.523a6.515,6.515,0,0,1,1.278-3.24l5.974-8.524c2.264-3.23,5.081-7.243,8.2-7.583l.488-.008c5.628,4.157,15.575,6.189,30.14,6.189h.526L53.581,172a7.78,7.78,0,0,0,7.631,7.338h87.2A7.785,7.785,0,0,0,156.053,172l.246-2.441h.515c14.572,0,24.521-2.034,30.15-6.194.743,0,1.64.01,1.9.015,3.161.291,5.988,4.331,8.264,7.58l5.974,8.526c1.3,1.855,1.638,3.706.925,5.077-.737,1.418-2.559,2.23-5,2.23H111.446a3.114,3.114,0,1,0,0,6.228Zm0,0" transform="translate(-0.5 0)" fill="url(#linear-gradient)"/>
</svg>
