<svg xmlns="http://www.w3.org/2000/svg" width="626.691" height="404.547" viewBox="0 0 626.691 404.547">
  <g id="Group_2097" data-name="Group 2097" transform="translate(-121.936 -320.963)">
    <ellipse id="Ellipse_121" data-name="Ellipse 121" cx="313.345" cy="19.862" rx="313.345" ry="19.862" transform="translate(121.936 685.785)" fill="#3b4fa1" opacity="0.34"/>
    <path id="Path_3446" data-name="Path 3446" d="M545.629,603.02s-.314,8.386-.181,11.387-1.968,6.01-.3,6.522,3.712-4.894,3.712-4.894,3.021,5.315,3.7,7.089,2.7,4.637,4.041,4.241-2.527-8.691-2.527-8.691,3.94,6.664,5.252,6.561-2.455-9.319-2.455-9.319,3.856,7.314,4.658,7.623,1.231-.705.495-3.626a28.628,28.628,0,0,0-2.241-5.714,64.856,64.856,0,0,0,3.672,5.4c.578.462,1.711.678.163-3.533s-6.175-12.6-10.326-15.9Z" transform="translate(-105.846 -69.936)" fill="#f48e92"/>
    <g id="Group_2082" data-name="Group 2082" transform="translate(329.282 360.747)">
      <path id="Path_3447" data-name="Path 3447" d="M471.149,753.343s-3.715,47.62,1.351,52.686,12.494,9.794,13.17,12.834-21.952-.338-23.978-3.377S460,807.38,457.978,793.2s-5.066-39.852-5.066-39.852Z" transform="translate(-412.186 -469.051)" fill="#f48e92"/>
      <path id="Path_3448" data-name="Path 3448" d="M487.967,837.154c-.461-2.069-4.048-4.919-7.889-8.126-.848,6.5-13.616-.165-18-2.665.441,3.691.855,5.829,1.911,7.414C466.015,836.816,488.643,840.193,487.967,837.154Z" transform="translate(-414.482 -487.341)" fill="#0d0e1b"/>
      <path id="Path_3449" data-name="Path 3449" d="M514.176,753.343s-3.715,47.62,1.351,52.686,12.494,9.794,13.171,12.834-21.952-.338-23.978-3.377S503.031,807.38,501,793.2s-5.066-39.852-5.066-39.852Z" transform="translate(-422.964 -469.051)" fill="#f48e92"/>
      <path id="Path_3450" data-name="Path 3450" d="M530.994,837.154c-.461-2.069-4.048-4.919-7.889-8.126-.848,6.5-13.615-.165-18-2.665.441,3.691.855,5.829,1.911,7.414C509.042,836.816,531.67,840.193,530.994,837.154Z" transform="translate(-425.26 -487.341)" fill="#0d0e1b"/>
      <path id="Path_3451" data-name="Path 3451" d="M458.8,375.644s16.787-7.38,25.149,9.536,12.5,36.653,7.616,45.026-21.211,5.919-21.211,5.919-19.587,3.988-27.3-4.448S438.97,380.287,458.8,375.644Z" transform="translate(-408.775 -374.042)" fill="#10112e"/>
      <path id="Path_3452" data-name="Path 3452" d="M440.013,460.588s-33.153,9.243-38.559,19.7-3.124,71.908,6.248,72.268,22.668-3.964,22.668-3.964Z" transform="translate(-398.576 -395.721)" fill="#28286f"/>
      <path id="Path_3453" data-name="Path 3453" d="M500.218,608.153l6.308,116.422-66.361,2.163-2.484-118.585,5.767-22.347,33.521-6.848Z" transform="translate(-408.371 -425.37)" fill="#4e5ea9"/>
      <path id="Path_3454" data-name="Path 3454" d="M434.8,461.03l23.762-9.757,14.756-.157s21.556,9.915,23.718,12.318,30.277,93.955,33.882,98.521c0,0-6.007,8.65-16.58,8.65,0,0-12.5-23.068-15.139-37.486l5.286,51.663s-32.44,8.891-50.7,2.162l-7.209-26.192-2.4,25.952a26.633,26.633,0,0,1-9.372.72Z" transform="translate(-407.649 -393.348)" fill="#f2716b"/>
      <path id="Path_3455" data-name="Path 3455" d="M513.448,499.979s2.2-25.34-.712-35.824c0,0-1.392-3.377-6.236-3.567,0,0,1.827,19.515.564,35.855Z" transform="translate(-425.609 -395.721)" fill="#28286f"/>
      <g id="Group_2081" data-name="Group 2081" transform="translate(47.077 93.214)">
        <rect id="Rectangle_976" data-name="Rectangle 976" width="37.666" height="48.749" transform="translate(1.422 9.701) rotate(-14.925)" fill="#10112e"/>
        <g id="Group_2080" data-name="Group 2080" transform="translate(0 11.813)">
          <path id="Path_3456" data-name="Path 3456" d="M465.5,515.152l-3.482.929a.5.5,0,1,1-.259-.968l3.483-.928a.5.5,0,1,1,.258.967Z" transform="translate(-461.386 -514.168)" fill="#e5edf8"/>
          <g id="Group_2079" data-name="Group 2079" transform="translate(1.742 6.535)">
            <path id="Path_3457" data-name="Path 3457" d="M467.823,523.871l-3.482.929a.5.5,0,1,1-.258-.968l3.482-.928a.5.5,0,1,1,.258.967Z" transform="translate(-463.71 -522.887)" fill="#e5edf8"/>
            <path id="Path_3458" data-name="Path 3458" d="M469.825,531.384l-3.482.928a.5.5,0,1,1-.258-.968l3.482-.928a.5.5,0,1,1,.258.968Z" transform="translate(-464.212 -524.769)" fill="#e5edf8"/>
            <path id="Path_3459" data-name="Path 3459" d="M471.931,539.283l-3.482.929a.5.5,0,1,1-.258-.968l3.482-.929a.5.5,0,1,1,.258.968Z" transform="translate(-464.739 -526.747)" fill="#e5edf8"/>
            <path id="Path_3460" data-name="Path 3460" d="M474.037,547.182l-3.483.929a.5.5,0,0,1-.258-.968l3.483-.928a.5.5,0,0,1,.258.967Z" transform="translate(-465.267 -528.726)" fill="#e5edf8"/>
            <path id="Path_3461" data-name="Path 3461" d="M476.142,555.082l-3.482.929a.5.5,0,1,1-.258-.968l3.482-.929a.5.5,0,1,1,.258.968Z" transform="translate(-465.794 -530.705)" fill="#e5edf8"/>
            <path id="Path_3462" data-name="Path 3462" d="M478.888,565.382l-3.483.929a.5.5,0,0,1-.258-.968l3.483-.929a.5.5,0,0,1,.258.968Z" transform="translate(-466.482 -533.285)" fill="#e5edf8"/>
          </g>
        </g>
        <rect id="Rectangle_977" data-name="Rectangle 977" width="15.537" height="4.14" transform="matrix(0.966, -0.258, 0.258, 0.966, 13.843, 12.918)" fill="#fff"/>
      </g>
      <path id="Path_3463" data-name="Path 3463" d="M493.117,531.362s5.157-7.221,7.6-9.417,3.179-6.137,4.854-5.232-.971,6.643-.971,6.643,6.459-1.715,8.363-2.544,5.687-1.444,6.4-.1-8.712,4.687-8.712,4.687,4.685-1.409,5.61-.307-5.617,4.6-5.617,4.6,4.828-1.812,5.684-1.423.393,1.5-2.449,3.164-2.343,1.845-2.343,1.845,2.708-1.466,3.511-1.37,1.084,1.715-3.386,3.734-9.964,4.151-15.714,3.44Z" transform="translate(-422.257 -409.746)" fill="#f48e92"/>
      <path id="Path_3464" data-name="Path 3464" d="M427.643,464.343c-12.015,8.892-37.005,58.392-7.689,73.531s57.671-8.41,57.671-8.41l-7.209-13.457s-31.479,9.131-36.284-.721-.241-19.463-.241-19.463-5.527-28.835-6.248-31.479Z" transform="translate(-400.496 -396.661)" fill="#f2716b"/>
      <path id="Path_3465" data-name="Path 3465" d="M441.914,459.682s8.544,39.308-2.99,48.314l-.271-4.083s-.064-28.235-5.6-39.652C433.05,464.261,435.293,460.394,441.914,459.682Z" transform="translate(-407.211 -395.494)" fill="#28286f"/>
      <path id="Path_3466" data-name="Path 3466" d="M496.344,412.572s1.338-2.238,2.515-1.407c3,2.119,0,5.254-1.9,5.987Z" transform="translate(-423.065 -383.295)" fill="#f1676b"/>
      <path id="Path_3467" data-name="Path 3467" d="M465.12,376.115a17.721,17.721,0,0,0-13.83,25.568c2.726,6.052,4.974,10.925,7.651,14.425A17.638,17.638,0,0,1,462.6,428.5l-.431,4.49c10.538,4.674,14.806-.684,14.806-.684L476.5,422h0c11.079-1.844,8.643-22.334,8.362-28.411l-.017,0c0-.229,0-.457-.014-.687A17.724,17.724,0,0,0,465.12,376.115Z" transform="translate(-411.307 -374.533)" fill="#f48e92"/>
      <path id="Path_3468" data-name="Path 3468" d="M491.411,410.052a1.547,1.547,0,1,0-1.622,1.467A1.546,1.546,0,0,0,491.411,410.052Z" transform="translate(-421.055 -382.655)" fill="#10112e"/>
      <path id="Path_3469" data-name="Path 3469" d="M472.055,413.134a1.547,1.547,0,1,0-1.623,1.467A1.547,1.547,0,0,0,472.055,413.134Z" transform="translate(-416.207 -383.427)" fill="#10112e"/>
      <path id="Path_3470" data-name="Path 3470" d="M485.845,425.508s-1.4-.826-2.166-.529a2.305,2.305,0,0,0-1.1,1.291,1.787,1.787,0,0,0-1.524-.817,22.238,22.238,0,0,0-3.565,1.09s2.892,3.82,5.678,2.817a3.878,3.878,0,0,0,2.65-3.709Z" transform="translate(-418.343 -386.785)" fill="#f1676b"/>
      <path id="Path_3471" data-name="Path 3471" d="M483.02,427.506c-3.209,1.028-6.64-1.066-6.686-1.094a.218.218,0,0,1,.231-.37c.226.141,5.58,3.4,8.906-.794a.218.218,0,0,1,.342.271A5.781,5.781,0,0,1,483.02,427.506Z" transform="translate(-418.028 -386.848)" fill="#260b37"/>
      <path id="Path_3472" data-name="Path 3472" d="M465.957,410.149a.643.643,0,0,1-.4-1.14,7.718,7.718,0,0,1,4.936-1.5.643.643,0,0,1,.61.675.659.659,0,0,1-.674.61A6.425,6.425,0,0,0,466.369,410,.643.643,0,0,1,465.957,410.149Z" transform="translate(-415.294 -382.422)" fill="#10112e"/>
      <path id="Path_3473" data-name="Path 3473" d="M486.805,405.834a.643.643,0,0,1-.193-1.194,7.638,7.638,0,0,1,5.124-.592.643.643,0,1,1-.292,1.252,6.405,6.405,0,0,0-4.207.465A.644.644,0,0,1,486.805,405.834Z" transform="translate(-420.545 -381.508)" fill="#10112e"/>
      <path id="Path_3474" data-name="Path 3474" d="M482.228,418.3a2.753,2.753,0,0,0,2.377-2.556.541.541,0,0,0-.139-.377,8,8,0,0,1-1.7-4.887.541.541,0,0,0-1.082-.022,9.083,9.083,0,0,0,1.812,5.445c-.087.432-.482,1.406-2.221,1.4a.542.542,0,1,0,0,1.083A4.835,4.835,0,0,0,482.228,418.3Z" transform="translate(-419.155 -383.032)" fill="#f1676b"/>
      <path id="Path_3475" data-name="Path 3475" d="M465.383,386.512s6.947,5.2,12.961,9.957,4.424,23.668,4.424,23.668l6.456-16.213s-2.272-32.775-24.542-29.272-16.249,26.984-12.607,31.657,3.815,1.1,3.815,1.1S464.76,390.824,465.383,386.512Z" transform="translate(-411.08 -374.13)" fill="#10112e"/>
      <path id="Path_3476" data-name="Path 3476" d="M457.164,416.019a2.637,2.637,0,0,0-1.436-1.185c-1.246-.436-3.426-.875-4.84.676-2.074,2.275,2.567,7.837,6.758,4.772C457.647,420.282,458.825,418.989,457.164,416.019Z" transform="translate(-411.552 -384.157)" fill="#f48e92"/>
      <path id="Path_3477" data-name="Path 3477" d="M455.371,535.756c-4.746,0-8.44-1.12-11.029-3.356a11.107,11.107,0,0,1-3.789-8.355.233.233,0,0,1,.261-.238.251.251,0,0,1,.239.261,10.8,10.8,0,0,0,3.622,7.959c3.766,3.244,9.991,4.049,18.507,2.4a.241.241,0,0,1,.294.2.25.25,0,0,1-.2.294A41.791,41.791,0,0,1,455.371,535.756Z" transform="translate(-409.09 -411.556)" fill="#10112e"/>
      <path id="Path_3478" data-name="Path 3478" d="M449.619,567.911a68.8,68.8,0,0,1-14.969-1.685.25.25,0,0,1-.181-.3.244.244,0,0,1,.3-.181c.187.048,18.87,4.664,31.778-1.652a.251.251,0,0,1,.221.45C461.463,567.137,455.2,567.911,449.619,567.911Z" transform="translate(-407.565 -421.64)" fill="#10112e"/>
      <path id="Path_3479" data-name="Path 3479" d="M463.04,511.451a12.487,12.487,0,0,1-2.334-.217,13.312,13.312,0,0,1-8.17-5.319.25.25,0,0,1,.419-.274,13.042,13.042,0,0,0,7.852,5.1c3.924.745,8.207-.51,12.726-3.729a.251.251,0,0,1,.29.409C470.059,510.1,466.444,511.451,463.04,511.451Z" transform="translate(-412.082 -406.977)" fill="#10112e"/>
    </g>
    <g id="Group_2085" data-name="Group 2085" transform="translate(163.668 320.963)">
      <path id="Path_3480" data-name="Path 3480" d="M209.368,432.415s-25.409,10.161-25.409,19.674,3.042,17.983,2.93,23.084-23.715,53.761,4.821,54.092,36.264-25,36.452-26.248S209.368,432.415,209.368,432.415Z" transform="translate(-177.614 -348.88)" fill="#f05b58"/>
      <path id="Path_3481" data-name="Path 3481" d="M343.128,783.368s4.138,24.216,4.3,24.512-1.513,2.889-1.513,2.889l-6.535,1.172-5.965-2.742s-3.442-19.521-4.066-22.559S343.128,783.368,343.128,783.368Z" transform="translate(-215.616 -436.788)" fill="#f48e92"/>
      <path id="Path_3482" data-name="Path 3482" d="M334.429,817.254s7.533,2.635,13.972-1.725c0,0,25.082,9.4,24.316,16.549,0,0,1.068,2.129-9.8,1.67s-27.757-.944-28.21-1.195S332.128,833.451,334.429,817.254Z" transform="translate(-216.631 -444.844)" fill="#fff"/>
      <path id="Path_3483" data-name="Path 3483" d="M241.608,783.367s-6.392,24.216-6.231,24.512-1.513,2.889-1.513,2.889l-6.535,1.172-5.965-2.742s3.253-19.921,2.629-22.958S241.608,783.367,241.608,783.367Z" transform="translate(-188.573 -436.788)" fill="#f48e92"/>
      <path id="Path_3484" data-name="Path 3484" d="M221.014,817.254s7.533,2.635,13.971-1.725c0,0,25.083,9.4,24.317,16.549,0,0,1.068,2.129-9.8,1.67s-27.757-.944-28.21-1.195S218.713,833.451,221.014,817.254Z" transform="translate(-188.222 -444.844)" fill="#fff"/>
      <path id="Path_3485" data-name="Path 3485" d="M308.692,579.985l13.1,165.723h-22.52s-23.807-130.955-27.185-131.53-27.5,131.53-27.5,131.53H218.742L231.952,575.7Z" transform="translate(-187.916 -384.77)" fill="#4e5ea9"/>
      <path id="Path_3486" data-name="Path 3486" d="M257.13,409.132s34.391,4.034,41.666,9.011,14.34,86.676,14.34,86.676l.994,36.612s-50.179,15.307-86.938,0l-1.915-36.367s-17.179-83.082-5.309-86.481S257.13,409.132,257.13,409.132Z" transform="translate(-187.176 -343.048)" fill="#fff"/>
      <path id="Path_3487" data-name="Path 3487" d="M208.823,603.7s2.449,10.076,3.029,13.744,3.864,6.792,1.974,7.823-5.7-5.01-5.7-5.01-2.349,7.181-2.735,9.5-2.13,6.282-3.847,6.132.916-11.148.916-11.148-3.126,9.042-4.741,9.241.675-11.89.675-11.89-2.865,9.807-3.76,10.381-1.665-.551-1.494-4.27a35.4,35.4,0,0,1,1.3-7.472s-2.529,6.741-3.114,7.444-1.905,1.243-1.07-4.239,4.37-16.784,8.582-21.8Z" transform="translate(-180.714 -391.392)" fill="#f48e92"/>
      <path id="Path_3488" data-name="Path 3488" d="M379.889,568.564s9.27,4.647,12.443,6.577,7.68,1.444,7.245,3.553-7.509,1.111-7.509,1.111,3.959,6.435,5.476,8.227,3.415,5.687,2.19,6.9-7.911-7.907-7.911-7.907,4.875,8.231,3.984,9.592-8.634-8.2-8.634-8.2,5.629,8.527,5.486,9.58-1.5.914-4.222-1.621a35.428,35.428,0,0,1-4.857-5.826s3.507,6.288,3.664,7.189-.283,2.258-3.924-1.924-9.977-14.187-11.079-20.643Z" transform="translate(-226.365 -382.983)" fill="#f48e92"/>
      <g id="Group_2084" data-name="Group 2084" transform="translate(46.731)">
        <g id="Group_2083" data-name="Group 2083" transform="translate(2.325 8.778)">
          <path id="Path_3489" data-name="Path 3489" d="M295.124,367.109s1.307-2.426,2.59-1.6c3.269,2.1.495,5.426-1.479,6.291Z" transform="translate(-256.105 -340.855)" fill="#f1676b"/>
          <path id="Path_3490" data-name="Path 3490" d="M282.486,350.427l-.018.005c-.013-.241-.025-.482-.048-.725a18.733,18.733,0,1,0-35,10.851c2.126,4.206,3.987,7.8,5.88,10.757a26.76,26.76,0,0,1,4.068,16.487l-.349,4.553c12.02,5.058,16.731-1.094,16.731-1.094l-.54-8.25a2.08,2.08,0,0,1,1.765-2.186l.02,0C289.126,378.6,283.069,356.831,282.486,350.427Z" transform="translate(-243.557 -332.674)" fill="#f48e92"/>
          <path id="Path_3491" data-name="Path 3491" d="M269.387,371.23a1.743,1.743,0,1,0-1.578,1.895A1.743,1.743,0,0,0,269.387,371.23Z" transform="translate(-248.786 -341.935)" fill="#0d0e1b"/>
          <path id="Path_3492" data-name="Path 3492" d="M289.6,365.232a1.744,1.744,0,1,0-1.578,1.895A1.744,1.744,0,0,0,289.6,365.232Z" transform="translate(-253.85 -340.432)" fill="#0d0e1b"/>
          <path id="Path_3493" data-name="Path 3493" d="M261.55,367.433a1.022,1.022,0,0,1-1.012-1.462c.739-1.532,3.209-4.009,7.274-2.421a1.022,1.022,0,0,1-.744,1.9c-3.338-1.306-4.636,1.294-4.69,1.406A1.021,1.021,0,0,1,261.55,367.433Z" transform="translate(-247.416 -340.28)" fill="#0d0e1b"/>
          <path id="Path_3494" data-name="Path 3494" d="M282.942,361.833a1.022,1.022,0,0,1-1.012-1.462c.74-1.532,3.21-4.01,7.274-2.421a1.022,1.022,0,0,1-.744,1.9c-3.338-1.306-4.636,1.294-4.69,1.405A1.021,1.021,0,0,1,282.942,361.833Z" transform="translate(-252.774 -338.877)" fill="#0d0e1b"/>
          <path id="Path_3495" data-name="Path 3495" d="M243.065,360.085l6.212,12.16,3.33-.987.552-16.466Z" transform="translate(-243.065 -338.214)" fill="#28286f"/>
          <path id="Path_3496" data-name="Path 3496" d="M254.064,375.653a2.78,2.78,0,0,0-1.572-1.184c-1.336-.4-3.658-.763-5.078.941-2.083,2.5,3.08,8.155,7.362,4.72C254.775,380.132,255.958,378.711,254.064,375.653Z" transform="translate(-244.035 -343.059)" fill="#f48e92"/>
          <path id="Path_3497" data-name="Path 3497" d="M282.1,376.328a3.489,3.489,0,0,1-3.176.194.3.3,0,0,1,.272-.542,2.845,2.845,0,0,0,3.333-.791,1.074,1.074,0,0,0,.363-.63c-.01-.208-.283-.453-.66-.792a8.92,8.92,0,0,1-3.025-5.266.3.3,0,1,1,.592-.132,8.274,8.274,0,0,0,2.838,4.947c.468.42.838.753.86,1.213a1.512,1.512,0,0,1-.522,1.069A4.025,4.025,0,0,1,282.1,376.328Z" transform="translate(-252.006 -341.556)" fill="#f1676b"/>
          <path id="Path_3498" data-name="Path 3498" d="M274.259,383.382s7.164.226,11.46-2.274c0,0-.618,5.549-4.693,6.358S274.259,383.382,274.259,383.382Z" transform="translate(-250.878 -344.806)" fill="#fff"/>
          <path id="Path_3499" data-name="Path 3499" d="M290.121,346.578s2.852,1.639,4.542,12.9c0,0-.239-12.7-1.77-13.966S290.121,346.578,290.121,346.578Z" transform="translate(-254.851 -335.796)" fill="#28286f"/>
        </g>
        <path id="Path_3500" data-name="Path 3500" d="M247.151,328.2c3.724-4.173,10.576-3.811,15-7.234a25.951,25.951,0,0,1-5.689,7.635l19.7-5.709a43.856,43.856,0,0,1-6.638,5.537,83.78,83.78,0,0,0,15.384-.1,3,3,0,0,1-.182,2.69c-1.919,4.753-4.288,9.975-9.039,11.9a14.445,14.445,0,0,1-4.664.9c-6.286.34-13.233-1.2-18.431,2.351-2.41,1.647-5.4,7.354-8.831,6.53C240.707,351.968,235.6,341.135,247.151,328.2Z" transform="translate(-239.962 -320.963)" fill="#28286f"/>
      </g>
      <rect id="Rectangle_978" data-name="Rectangle 978" width="62.212" height="21.766" transform="translate(45.73 108.588)" fill="#f05b58"/>
      <path id="Path_3501" data-name="Path 3501" d="M323.515,421.155c10.917,7.772,24.454,61.321,28.59,70.833s18.613,40.722,18.613,40.722L357.77,542.7s-30.858-38.4-40.259-59.352S323.515,421.155,323.515,421.155Z" transform="translate(-211.895 -346.06)" fill="#0d0e1b"/>
      <path id="Path_3502" data-name="Path 3502" d="M250.248,411.874l7.393,141.066-35.76,1.538-2.05-134.543Z" transform="translate(-188.189 -343.735)" fill="#0d0e1b"/>
      <path id="Path_3503" data-name="Path 3503" d="M283.5,410.363l25.9,138.18,25.431-2.227-19.08-127.864S308.637,411.961,283.5,410.363Z" transform="translate(-204.138 -343.356)" fill="#0d0e1b"/>
      <path id="Path_3504" data-name="Path 3504" d="M221.035,480.074s16.782-40.325,5.155-61.463l12.83-3.108s7.7,57.277-17.715,82.334Z" transform="translate(-188.491 -344.644)" fill="#f05b58"/>
      <path id="Path_3505" data-name="Path 3505" d="M212.348,422.628c-10.444,10.805-21.133,53.062-22.261,82.627a217.275,217.275,0,0,0,5.467,55.376l13.763-.854s12.887-86.353,10.029-104.76C217.653,444.123,212.348,422.628,212.348,422.628Z" transform="translate(-180.706 -346.428)" fill="#0d0e1b"/>
    </g>
    <g id="Group_2092" data-name="Group 2092" transform="translate(447.928 330.847)">
      <path id="Path_3506" data-name="Path 3506" d="M596,526s-31.517,10.262-34.79-2.171-5.489-64.311-3.7-66.64,16.682-10.669,16.682-10.669,20.054,14.956,20.071,14.941S596,526,596,526Z" transform="translate(-556.873 -362.297)" fill="#4e5ea9"/>
      <g id="Group_2086" data-name="Group 2086" transform="translate(11.35 342.091)">
        <path id="Path_3507" data-name="Path 3507" d="M599.013,809.145l-1.464-18.579,13.974,1.15-.95,19.394S601.853,812.115,599.013,809.145Z" transform="translate(-578.412 -790.566)" fill="#fff"/>
        <path id="Path_3508" data-name="Path 3508" d="M604.337,815.043s-4.6,1.806-11.72.233c0,0-20.844,7.413-20.568,13.591,0,0-1.031,1.771,8.323,1.956s23.879.67,24.281.479S608.755,828.923,604.337,815.043Z" transform="translate(-572.016 -796.697)" fill="#10112e"/>
        <path id="Path_3509" data-name="Path 3509" d="M604.655,835.454c-.4.191-14.927-.295-24.281-.479s-8.323-1.956-8.323-1.956a3.151,3.151,0,0,1,.215-1.237l34.152-.163C606.116,834.618,604.879,835.348,604.655,835.454Z" transform="translate(-572.016 -800.849)" fill="#fff"/>
      </g>
      <g id="Group_2087" data-name="Group 2087" transform="translate(75.273 342.091)">
        <path id="Path_3510" data-name="Path 3510" d="M684.3,809.145l-1.464-18.579,13.974,1.15-.95,19.394S687.139,812.115,684.3,809.145Z" transform="translate(-663.698 -790.566)" fill="#fff"/>
        <path id="Path_3511" data-name="Path 3511" d="M689.623,815.043s-4.6,1.806-11.72.233c0,0-20.844,7.413-20.567,13.591,0,0-1.031,1.771,8.323,1.956s23.879.67,24.281.479S694.042,828.923,689.623,815.043Z" transform="translate(-657.302 -796.697)" fill="#10112e"/>
        <path id="Path_3512" data-name="Path 3512" d="M689.941,835.454c-.4.191-14.927-.295-24.281-.479s-8.324-1.956-8.324-1.956a3.15,3.15,0,0,1,.215-1.237l34.152-.163C691.4,834.618,690.165,835.348,689.941,835.454Z" transform="translate(-657.302 -800.849)" fill="#fff"/>
      </g>
      <path id="Path_3513" data-name="Path 3513" d="M706.313,464.072s13.051,46.175,13.418,76.843l-9.182.793s-17.269-70.175-22.045-77.636S706.313,464.072,706.313,464.072Z" transform="translate(-589.678 -365.863)" fill="#f48e92"/>
      <path id="Path_3514" data-name="Path 3514" d="M670.708,562.585,678.651,738.5H655.814L631.069,610.765l-16.9,129.069H593.614L595.8,557.873Z" transform="translate(-566.076 -390.189)" fill="#a5c5e8"/>
      <path id="Path_3515" data-name="Path 3515" d="M615.809,418.564l6.613-1.292H645.2l16.532,76.189-3.674,43.215s-28.288,6.515-50.7,0Z" transform="translate(-569.519 -354.971)" fill="#fff"/>
      <path id="Path_3516" data-name="Path 3516" d="M657.846,417.272l7.3,149.994,25.135-13.579-7.193-83.935,2.718,14.615,26.409-5.088s-18.043-45.147-21.934-49.941C683.09,420.475,657.846,417.272,657.846,417.272Z" transform="translate(-582.165 -354.971)" fill="#10112e"/>
      <path id="Path_3517" data-name="Path 3517" d="M609.159,417.272l-2.636,143.056-23.084-9.759,2.792-75.622-2.449,9.421-26.062-2.56s9.9-45.72,16.755-50.756S609.159,417.272,609.159,417.272Z" transform="translate(-557.085 -354.971)" fill="#10112e"/>
      <g id="Group_2089" data-name="Group 2089" transform="translate(43.568 6.778)">
        <g id="Group_2088" data-name="Group 2088">
          <path id="Path_3518" data-name="Path 3518" d="M618.82,375.288s-1.219-2.261-2.414-1.495c-3.047,1.953-.461,5.058,1.378,5.863Z" transform="translate(-615.001 -350.819)" fill="#f1676b"/>
          <path id="Path_3519" data-name="Path 3519" d="M619.653,359.739l.017.005c.012-.225.023-.449.044-.675a17.46,17.46,0,1,1,32.621,10.113c-1.982,3.921-3.716,7.27-5.481,10.026a24.944,24.944,0,0,0-3.791,15.367l.326,4.245c-10.614,9.677-15.917-.1-15.917-.1l.826-8.607a1.938,1.938,0,0,0-1.645-2.036l-.018,0C613.463,386,619.109,365.709,619.653,359.739Z" transform="translate(-615.749 -343.194)" fill="#f48e92"/>
          <path id="Path_3520" data-name="Path 3520" d="M643,379.129a1.625,1.625,0,1,1,1.471,1.766A1.625,1.625,0,0,1,643,379.129Z" transform="translate(-622.012 -351.825)" fill="#0d0e1b"/>
          <path id="Path_3521" data-name="Path 3521" d="M624.156,373.539a1.625,1.625,0,1,1,1.471,1.766A1.626,1.626,0,0,1,624.156,373.539Z" transform="translate(-617.292 -350.424)" fill="#0d0e1b"/>
          <path id="Path_3522" data-name="Path 3522" d="M648.889,375.59a.952.952,0,0,0,.943-1.363,5.106,5.106,0,0,0-6.779-2.256.952.952,0,1,0,.693,1.774c3.11-1.218,4.321,1.206,4.371,1.31A.952.952,0,0,0,648.889,375.59Z" transform="translate(-621.875 -350.283)" fill="#0d0e1b"/>
          <path id="Path_3523" data-name="Path 3523" d="M628.951,370.371a.952.952,0,0,0,.943-1.363,5.1,5.1,0,0,0-6.779-2.256.952.952,0,1,0,.693,1.774c3.11-1.217,4.321,1.206,4.371,1.31A.952.952,0,0,0,628.951,370.371Z" transform="translate(-616.881 -348.975)" fill="#0d0e1b"/>
          <path id="Path_3524" data-name="Path 3524" d="M665.473,368.741l-5.789,11.334-3.1-.92-.514-15.347Z" transform="translate(-625.287 -348.357)" fill="#f2716b"/>
          <path id="Path_3525" data-name="Path 3525" d="M655.81,383.252a2.589,2.589,0,0,1,1.465-1.1c1.245-.375,3.41-.711,4.733.878,1.941,2.33-2.871,7.6-6.861,4.4C655.147,387.426,654.045,386.1,655.81,383.252Z" transform="translate(-624.972 -352.873)" fill="#f48e92"/>
          <path id="Path_3526" data-name="Path 3526" d="M630.754,383.88a3.253,3.253,0,0,0,2.961.181.283.283,0,0,0-.253-.505,2.651,2.651,0,0,1-3.107-.737c-.231-.252-.344-.449-.337-.587.009-.194.262-.423.614-.738a8.314,8.314,0,0,0,2.82-4.909.283.283,0,1,0-.552-.122,7.707,7.707,0,0,1-2.646,4.61c-.436.392-.78.7-.8,1.132a1.413,1.413,0,0,0,.486,1A3.785,3.785,0,0,0,630.754,383.88Z" transform="translate(-618.62 -351.471)" fill="#f1676b"/>
          <path id="Path_3527" data-name="Path 3527" d="M635.973,390.455s-6.677.211-10.681-2.119c0,0,.576,5.172,4.375,5.926S635.973,390.455,635.973,390.455Z" transform="translate(-617.578 -354.501)" fill="#fff"/>
          <path id="Path_3528" data-name="Path 3528" d="M623.344,356.152s-2.658,1.527-4.232,12.024c0,0,.222-11.841,1.649-13.018S623.344,356.152,623.344,356.152Z" transform="translate(-616.03 -346.103)" fill="#f2716b"/>
        </g>
      </g>
      <path id="Path_3529" data-name="Path 3529" d="M594.205,499.072s28.395-39.021,12.758-76.753l-11.623,4.312s12.357,15.227-1.135,60.592Z" transform="translate(-566.224 -356.235)" fill="#4e5ea9"/>
      <path id="Path_3530" data-name="Path 3530" d="M562.623,493.062s-2.117,21.522,11.736,21.522,21.766-52.208,21.766-52.208l-8.675-1.62-16.564,33.118Z" transform="translate(-558.284 -365.863)" fill="#f48e92"/>
      <path id="Path_3531" data-name="Path 3531" d="M661.279,359.153a5.572,5.572,0,0,0-1.669-4.859A5.206,5.206,0,0,1,658,351.958c-.307-1.654,1.415-3.152,1.2-4.819-.341-2.584-4.333-2.485-6.058-4.437-1.507-1.7-.928-4.614-2.507-6.252-1.828-1.9-4.948-.787-7.581-.718-2.721.07-5.306-1.134-8-1.5s-6,.537-6.81,3.135a4.7,4.7,0,0,1-.714,1.911,3.2,3.2,0,0,1-1.843.726A14.924,14.924,0,0,0,620,342.367c-1.887,1.3-3.586,3.684-2.572,5.738.873,1.767,3.232,2.159,5.19,1.94s3.99-.81,5.851-.162c2.572.9,4.062,3.924,6.728,4.478,2.7.561,5.914-1.587,8.051.159a7.272,7.272,0,0,1,1.48,2.136C647.2,360.94,659.247,367.585,661.279,359.153Z" transform="translate(-571.965 -334.15)" fill="#f2716b"/>
      <path id="Path_3532" data-name="Path 3532" d="M595.78,454.74s-.264-8.331.309-11.363-1.124-6.393.643-6.672,3.06,5.514,3.06,5.514,3.845-4.961,4.795-6.665,3.423-4.319,4.724-3.721-3.835,8.464-3.835,8.464,2.7-3.721,4.014-3.426-1.573,6.635-1.573,6.635,2.573-4.1,3.434-4.3,1.148.9-.025,3.757-.7,2.712-.7,2.712,1.187-2.638,1.842-3.024,1.786.663-.4,4.717-5.075,8.777-9.773,11.523Z" transform="translate(-566.603 -358.596)" fill="#f48e92"/>
      <g id="Group_2090" data-name="Group 2090" transform="translate(100.925 165.594)">
        <path id="Path_3533" data-name="Path 3533" d="M695.77,592.8,691.527,556l1.2-.108,2.177,18.882a3.823,3.823,0,0,0,4.294,3.094h0a3.6,3.6,0,0,0,3.5-3.8l-2.177-18.882,1.124-.1,4.243,36.8c.285,2.47-1.749,4.675-4.543,4.927h0A4.963,4.963,0,0,1,695.77,592.8Z" transform="translate(-691.527 -555.084)" fill="#f2716b"/>
        <path id="Path_3534" data-name="Path 3534" d="M699.353,579.545h0c-2.794.252-5.29-1.546-5.575-4.017L691.527,556l1.2-.108,2.177,18.882a3.823,3.823,0,0,0,4.294,3.094h0a3.6,3.6,0,0,0,3.5-3.8l-2.177-18.882,1.124-.1,2.252,19.533C704.181,577.088,702.147,579.293,699.353,579.545Z" transform="translate(-691.527 -555.084)" fill="#ef514d"/>
        <path id="Path_3535" data-name="Path 3535" d="M695.31,574.8l-2.177-18.883.026,0a3.892,3.892,0,0,0,4.221,2.7h0a3.661,3.661,0,0,0,3.519-3.4l.027,0L703.1,574.1a3.6,3.6,0,0,1-3.5,3.8h0A3.822,3.822,0,0,1,695.31,574.8Z" transform="translate(-691.929 -555.118)" fill="#fff"/>
        <path id="Path_3536" data-name="Path 3536" d="M699.548,578.135a3.823,3.823,0,0,1-4.294-3.093l-2.177-18.883.026,0a3.474,3.474,0,0,0,1.6,2.1c.1,3.808,1,15.106,8.3,15.648l.05.434A3.6,3.6,0,0,1,699.548,578.135Z" transform="translate(-691.915 -555.353)" fill="#a5c5e8"/>
      </g>
      <g id="Group_2091" data-name="Group 2091" transform="translate(110.477 163.603)">
        <path id="Path_3537" data-name="Path 3537" d="M708.514,590.143l-4.243-36.8,1.2-.108,2.177,18.882a3.824,3.824,0,0,0,4.294,3.095h0a3.6,3.6,0,0,0,3.5-3.8l-2.177-18.883,1.124-.1,4.243,36.8c.285,2.47-1.749,4.676-4.543,4.928h0C711.294,594.411,708.8,592.612,708.514,590.143Z" transform="translate(-704.271 -552.428)" fill="#4e5ea9"/>
        <path id="Path_3538" data-name="Path 3538" d="M712.1,576.889h0c-2.793.252-5.289-1.546-5.573-4.016l-2.252-19.534,1.2-.108,2.177,18.882a3.823,3.823,0,0,0,4.294,3.094h0a3.6,3.6,0,0,0,3.5-3.8l-2.177-18.883,1.124-.1,2.252,19.534C716.925,574.431,714.891,576.637,712.1,576.889Z" transform="translate(-704.271 -552.428)" fill="#3b4fa1"/>
        <path id="Path_3539" data-name="Path 3539" d="M708.053,572.147l-2.177-18.882.027,0a3.892,3.892,0,0,0,4.221,2.7h0a3.662,3.662,0,0,0,3.52-3.4l.026,0,2.177,18.882a3.6,3.6,0,0,1-3.5,3.8h0A3.823,3.823,0,0,1,708.053,572.147Z" transform="translate(-704.673 -552.462)" fill="#fff"/>
        <path id="Path_3540" data-name="Path 3540" d="M712.292,575.48A3.824,3.824,0,0,1,708,572.386L705.821,553.5l.026,0a3.474,3.474,0,0,0,1.6,2.1c.1,3.807,1,15.106,8.3,15.648l.05.433A3.6,3.6,0,0,1,712.292,575.48Z" transform="translate(-704.659 -552.697)" fill="#a5c5e8"/>
      </g>
      <path id="Path_3541" data-name="Path 3541" d="M726.88,567s-1.946,17.043-2.793,18.905-4.065,6.8-5.63,6.109,2.383-6.811,2.383-6.811l-1.166-10.118s-1.6,7.136-2.95,7.455S718.5,564.9,718.5,564.9Z" transform="translate(-596.828 -391.948)" fill="#f48e92"/>
    </g>
    <g id="Group_2096" data-name="Group 2096" transform="translate(571.771 345.378)">
      <path id="Path_3542" data-name="Path 3542" d="M834.008,526.468s22.919,11.825,36.375,2.068,3.364-67.074,0-69.174-25.321-3.443-25.321-3.443-19.745,34.5-19.8,35.706S834.008,526.468,834.008,526.468Z" transform="translate(-747.944 -379.183)" fill="#f2716b"/>
      <path id="Path_3543" data-name="Path 3543" d="M835.572,364.943c.72,3.7-.546,7.988,1.73,10.989a11.156,11.156,0,0,0,3.543,2.706l5.593,3.185c1.539.876,3.251,2,3.461,3.758.193,1.6-.97,3.063-1.121,4.67-.228,2.417,1.842,4.436,3.963,5.614s4.556,2,6.119,3.853a8.316,8.316,0,0,1,1.5,6.884,17.486,17.486,0,0,1-3.072,6.547,18.762,18.762,0,0,1-3.709,4.135,12.7,12.7,0,0,1-10.437,2.325,21.62,21.62,0,0,0-4.067-.86c-3.289-.082-5.935,2.49-8.74,4.208-5.708,3.5-12.784,3.619-19.477,3.64-4.09.012-8.3,0-12.088-1.545a31.439,31.439,0,0,1-7.091-4.517l-10.708-8.253a16.9,16.9,0,0,1-4.29-4.213,11.353,11.353,0,0,1-1.153-8.075,33.774,33.774,0,0,1,2.882-7.811,7.394,7.394,0,0,1,1.548-2.429,17.336,17.336,0,0,1,2.151-1.394,6.537,6.537,0,0,0,2.762-6.169c-.162-1.185-.654-2.309-.785-3.5-.358-3.249,1.992-6.15,4.46-8.293s5.32-4.117,6.585-7.131a28.725,28.725,0,0,1,1.516-4,8.414,8.414,0,0,1,2.516-2.446c6.741-4.63,13.9-3.638,21.253-1.469C826.263,357.079,834.144,357.6,835.572,364.943Z" transform="translate(-735.422 -353.538)" fill="#10112e"/>
      <g id="Group_2093" data-name="Group 2093" transform="translate(55.234 2.741)">
        <path id="Path_3544" data-name="Path 3544" d="M799.574,392.925s-1.406-2.2-2.562-1.336c-2.946,2.21.148,5.265,2.075,5.944Z" transform="translate(-795.797 -365.759)" fill="#f48e92"/>
        <path id="Path_3545" data-name="Path 3545" d="M819.375,358.557a17.765,17.765,0,0,1,14.6,25.221c-2.557,6.144-4.668,11.093-7.249,14.678a17.685,17.685,0,0,0-3.305,12.518l.736,4.693c-10.426,4.989-14.669-.008-14.669-.008l-.184-10.791h0c-11.156-1.527-9.309-22.131-9.2-28.229l.017,0c0-.229-.01-.458-.006-.689A17.769,17.769,0,0,1,819.375,358.557Z" transform="translate(-796.831 -357.52)" fill="#f48e92"/>
        <path id="Path_3546" data-name="Path 3546" d="M820.194,376.223c3.06,3.746,6.318,7.424,8.577,11.686.25.468,2.018,3.992,1.483,4.384,2.92-2.141,4.822-5.378,6.434-8.62a18.656,18.656,0,0,0-1.08-17.741c-3.169-5.241-8.592-8.03-14.6-8.624-6.445-.637-13.525,1.407-17.564,6.726-3.791,4.992-4.07,11.384-4.6,17.373.593-6.724,9.732-11.589,15.2-13.872-.159.066,3.935,5.886,4.153,6.171C818.843,374.553,819.514,375.389,820.194,376.223Z" transform="translate(-796.56 -357.195)" fill="#10112e"/>
        <path id="Path_3547" data-name="Path 3547" d="M837.74,398.175a2.64,2.64,0,0,1,1.405-1.229c1.235-.473,3.407-.976,4.869.537,2.144,2.22-2.345,7.928-6.634,4.978C837.38,402.462,836.161,401.2,837.74,398.175Z" transform="translate(-806.1 -367.033)" fill="#f48e92"/>
        <path id="Path_3548" data-name="Path 3548" d="M804.753,393.173a1.551,1.551,0,1,1,1.668,1.423A1.551,1.551,0,0,1,804.753,393.173Z" transform="translate(-798.039 -365.788)" fill="#10112e"/>
        <path id="Path_3549" data-name="Path 3549" d="M824.24,395.7a1.551,1.551,0,1,1,1.668,1.423A1.551,1.551,0,0,1,824.24,395.7Z" transform="translate(-802.92 -366.421)" fill="#10112e"/>
        <path id="Path_3550" data-name="Path 3550" d="M808.211,407.464s1.89-1.662,2.694-1.494a2.311,2.311,0,0,1,1.3,1.1,1.792,1.792,0,0,1,1.372-1.059c.961-.075,3.2,2.382,3.2,2.382s-2.465,4.412-5.412,4.066c-3-.352-3.107-4.778-3.107-4.778Z" transform="translate(-798.906 -369.409)" fill="#f2716b"/>
        <path id="Path_3551" data-name="Path 3551" d="M828.755,392.337a.645.645,0,0,0,.448-1.127,7.744,7.744,0,0,0-4.89-1.689.645.645,0,0,0-.636.653.659.659,0,0,0,.652.636,6.451,6.451,0,0,1,4.019,1.365A.643.643,0,0,0,828.755,392.337Z" transform="translate(-802.78 -365.292)" fill="#10112e"/>
        <path id="Path_3552" data-name="Path 3552" d="M808.391,388.477a.645.645,0,0,0,.169-1.2,7.654,7.654,0,0,0-5.15-.485.645.645,0,0,0,.321,1.249,6.42,6.42,0,0,1,4.227.376A.645.645,0,0,0,808.391,388.477Z" transform="translate(-797.583 -364.549)" fill="#10112e"/>
        <path id="Path_3553" data-name="Path 3553" d="M813.975,401.174a2.761,2.761,0,0,1-2.456-2.492.546.546,0,0,1,.129-.382,8.019,8.019,0,0,0,1.559-4.946.543.543,0,0,1,1.085-.054,9.113,9.113,0,0,1-1.658,5.509c.1.43.523,1.395,2.267,1.339a.543.543,0,1,1,.035,1.085A4.829,4.829,0,0,1,813.975,401.174Z" transform="translate(-799.735 -366.11)" fill="#f1676b"/>
        <path id="Path_3554" data-name="Path 3554" d="M808.211,407.967l8.569.925s-2.946,2.368-5.258,2.247S808.211,407.967,808.211,407.967Z" transform="translate(-798.906 -369.912)" fill="#f9f9fc"/>
      </g>
      <g id="Group_2094" data-name="Group 2094" transform="translate(71.497 330.725)">
        <path id="Path_3555" data-name="Path 3555" d="M844.492,813.369l-1.465-18.58L857,795.939l-.95,19.394S847.332,816.339,844.492,813.369Z" transform="translate(-823.891 -794.789)" fill="#fff"/>
        <path id="Path_3556" data-name="Path 3556" d="M849.817,819.266s-4.6,1.806-11.72.234c0,0-20.844,7.413-20.568,13.591,0,0-1.031,1.771,8.324,1.956s23.879.67,24.281.479S854.235,833.147,849.817,819.266Z" transform="translate(-817.495 -800.92)" fill="#10112e"/>
        <path id="Path_3557" data-name="Path 3557" d="M850.135,839.677c-.4.191-14.927-.294-24.281-.478s-8.324-1.956-8.324-1.956a3.164,3.164,0,0,1,.215-1.237l34.152-.163C851.594,838.841,850.358,839.572,850.135,839.677Z" transform="translate(-817.495 -805.072)" fill="#fff"/>
      </g>
      <g id="Group_2095" data-name="Group 2095" transform="translate(14.634 331.746)">
        <path id="Path_3558" data-name="Path 3558" d="M769.114,814.732l2.622-18.58,11.863,1.313L780.675,816.7S771.954,817.7,769.114,814.732Z" transform="translate(-748.513 -796.152)" fill="#fff"/>
        <path id="Path_3559" data-name="Path 3559" d="M773.949,820.629s-4.6,1.806-11.72.234c0,0-20.844,7.413-20.568,13.59,0,0-1.031,1.772,8.323,1.956s23.879.67,24.281.479S778.368,834.509,773.949,820.629Z" transform="translate(-741.628 -802.283)" fill="#10112e"/>
        <path id="Path_3560" data-name="Path 3560" d="M774.267,841.041c-.4.191-14.927-.294-24.281-.479s-8.324-1.955-8.324-1.955a3.165,3.165,0,0,1,.215-1.237l34.152-.163C775.727,840.2,774.491,840.935,774.267,841.041Z" transform="translate(-741.628 -806.435)" fill="#fff"/>
      </g>
      <path id="Path_3561" data-name="Path 3561" d="M836.05,552.289s6.563,22.347,6.563,39.648-3.281,151.386-3.281,151.386-17.985,1.081-18.344,0-14.778-147.356-14.778-147.356L786.745,743.8H767.161s1.562-145.378,16.7-190.073Z" transform="translate(-733.39 -403.322)" fill="#10112e"/>
      <path id="Path_3562" data-name="Path 3562" d="M742.7,452.406s-.7-8.361-1.2-11.324,1.225-6.2-.49-6.511-3.093,5.307-3.093,5.307-3.643-4.909-4.533-6.588-3.245-4.275-4.524-3.72,3.561,8.321,3.561,8.321-4.718-6.138-6.008-5.878,3.565,8.953,3.565,8.953-4.712-6.793-5.546-7-1.136.849-.052,3.659a28.653,28.653,0,0,0,2.916,5.4,64.851,64.851,0,0,0-4.3-4.915c-.63-.389-1.781-.466.265,3.526s7.656,11.761,12.175,14.531Z" transform="translate(-722.104 -372.563)" fill="#f48e92"/>
      <path id="Path_3563" data-name="Path 3563" d="M797.2,433.6V426.67h23.549V434.8s17.3,6.728,21.386,9.131S865.2,486.7,865.2,486.7l-15.619,4.565s-12.015-21.386-13.457-20.665-6.247,25.23-3.6,34.122,6.488,25.711,6.488,25.711-46.136,7.329-60.073-2.463c0,0,5.527-15.079,6.007-21.086s-.721-21.386-.721-21.386l-8.41,13.216-8.651-18.847s8.17-30.654,11.054-34.979S797.2,433.6,797.2,433.6Z" transform="translate(-733.39 -371.856)" fill="#3b4fa1"/>
      <path id="Path_3564" data-name="Path 3564" d="M788.513,494.891a.25.25,0,0,1-.195-.094,20.768,20.768,0,0,1-3.9-14.124,21.412,21.412,0,0,1,6.333-12.654.25.25,0,0,1,.327.379,20.893,20.893,0,0,0-6.163,12.336,20.22,20.22,0,0,0,3.792,13.751.25.25,0,0,1-.2.407Z" transform="translate(-737.681 -382.198)" fill="#10112e"/>
      <path id="Path_3565" data-name="Path 3565" d="M824.89,496.465a19.225,19.225,0,0,1-11.148-3.686.25.25,0,1,1,.286-.411c12.129,8.437,23.015-.614,23.123-.707a.251.251,0,1,1,.325.382A21.338,21.338,0,0,1,824.89,496.465Z" transform="translate(-745.031 -388.121)" fill="#10112e"/>
      <path id="Path_3566" data-name="Path 3566" d="M851.363,492.843s-4.274-28.88,4.376-47.863l-8.517-3.565s-10.337,41.289,3.656,59.793Z" transform="translate(-752.523 -375.549)" fill="#f2716b"/>
      <path id="Path_3567" data-name="Path 3567" d="M768.585,506.949s-8.891,8.786-15.379,2.951-14.9-48.126-14.9-48.126l8.055-2.237L759.934,488.1Z" transform="translate(-726.163 -380.089)" fill="#f48e92"/>
      <path id="Path_3568" data-name="Path 3568" d="M884.548,504.729s5.759,14.445,0,18.77-30.148-11.054-37.237-20.425l3.275-5.285,25.561,8.769Z" transform="translate(-753.466 -389.67)" fill="#f48e92"/>
      <path id="Path_3569" data-name="Path 3569" d="M853.12,494.328s.263-8.331-.31-11.363,1.124-6.393-.642-6.672-3.061,5.514-3.061,5.514-3.844-4.961-4.795-6.665-3.423-4.319-4.724-3.721,3.835,8.464,3.835,8.464-2.7-3.721-4.014-3.426,1.573,6.635,1.573,6.635-2.573-4.1-3.434-4.3-1.148.9.025,3.758.7,2.712.7,2.712-1.186-2.638-1.842-3.024-1.786.663.4,4.717,5.075,8.777,9.773,11.523Z" transform="translate(-750.52 -383.044)" fill="#f48e92"/>
    </g>
  </g>
</svg>
