<svg xmlns="http://www.w3.org/2000/svg" xmlns:xlink="http://www.w3.org/1999/xlink" width="262" height="235.8" viewBox="0 0 262 235.8">
  <defs>
    <linearGradient id="linear-gradient" x1="0.5" x2="0.5" y2="1" gradientUnits="objectBoundingBox">
      <stop offset="0" stop-color="#6a11cb"/>
      <stop offset="1" stop-color="#4a00e0"/>
    </linearGradient>
  </defs>
  <g id="patent" transform="translate(0 -24)">
    <g id="Group_2002" data-name="Group 2002" transform="translate(0 24)">
      <g id="Group_2001" data-name="Group 2001">
        <path id="Path_3319" data-name="Path 3319" d="M244.533,24H43.667A17.467,17.467,0,0,0,26.2,41.467V181.2H4.367A4.367,4.367,0,0,0,0,185.567a17.467,17.467,0,0,0,17.467,17.467H144.1v52.4a4.367,4.367,0,0,0,7.454,3.087l23.113-23.113,23.113,23.113a4.366,4.366,0,0,0,3.087,1.279,4.311,4.311,0,0,0,1.672-.332,4.366,4.366,0,0,0,2.694-4.035v-52.4h13.1A17.467,17.467,0,0,0,235.8,185.567V45.833h21.833A4.367,4.367,0,0,0,262,41.467,17.467,17.467,0,0,0,244.533,24ZM227.067,41.467V181.2H209.6v8.733h16.292a8.734,8.734,0,0,1-7.559,4.367h-13.1v-4.367H196.5v54.959l-18.746-18.746a4.367,4.367,0,0,0-6.174,0l-18.746,18.746V189.933H144.1V194.3H17.467a8.734,8.734,0,0,1-7.559-4.367H139.733V181.2H34.933V41.467a8.733,8.733,0,0,1,8.733-8.733H229.495A17.289,17.289,0,0,0,227.067,41.467Zm9.908-4.367a8.733,8.733,0,0,1,15.117,0Z" transform="translate(0 -24)" fill="url(#linear-gradient)"/>
      </g>
    </g>
    <g id="Group_2004" data-name="Group 2004" transform="translate(132.917 107.026)">
      <g id="Group_2003" data-name="Group 2003">
        <path id="Path_3320" data-name="Path 3320" d="M326.426,229.738l-5.594-10.021,5.616-10.013a4.367,4.367,0,0,0-1.662-5.947c-.106-.059-.215-.115-.325-.166l-10.423-4.773-1.345-11.4a4.367,4.367,0,0,0-4.851-3.821q-.167.02-.332.052l-11.257,2.231-7.786-8.432a4.5,4.5,0,0,0-6.361-.05l-.05.05-7.786,8.432-11.257-2.231a4.367,4.367,0,0,0-5.131,3.437q-.033.165-.052.332l-1.345,11.4L246.062,203.6a4.367,4.367,0,0,0-2.153,5.788q.076.166.166.325l5.616,10-5.616,10.013a4.367,4.367,0,0,0,1.662,5.947c.106.06.215.115.325.166l10.423,4.782,1.345,11.406a4.367,4.367,0,0,0,4.851,3.821q.167-.02.332-.052l11.257-2.231L282.057,262a4.367,4.367,0,0,0,6.171.24q.124-.115.24-.24l7.786-8.432L307.51,255.8a4.305,4.305,0,0,0,3.415-.751,4.367,4.367,0,0,0,1.747-3.017l1.345-11.4,10.423-4.781a4.367,4.367,0,0,0,2.153-5.788C326.542,229.952,326.486,229.843,326.426,229.738Zm-14.406-7.891,4.493,8.017-8.349,3.83a4.367,4.367,0,0,0-2.515,3.458l-1.074,9.139-9.026-1.786a4.3,4.3,0,0,0-4.052,1.31l-6.236,6.76-6.236-6.751a4.366,4.366,0,0,0-3.205-1.4,3.942,3.942,0,0,0-.847.087l-9.026,1.786-1.074-9.139a4.366,4.366,0,0,0-2.515-3.458l-8.349-3.83,4.493-8.017a4.284,4.284,0,0,0,0-4.271v.017l-4.493-8.017,8.349-3.83a4.366,4.366,0,0,0,2.515-3.458l1.074-9.139,9.026,1.786a4.323,4.323,0,0,0,4.052-1.31l6.236-6.773,6.236,6.751a4.3,4.3,0,0,0,4.052,1.31l9.026-1.786,1.074,9.139a4.367,4.367,0,0,0,2.515,3.458l8.349,3.83-4.493,8.017A4.368,4.368,0,0,0,312.021,221.847Z" transform="translate(-243.512 -176.109)" fill="url(#linear-gradient)"/>
      </g>
    </g>
    <g id="Group_2006" data-name="Group 2006" transform="translate(152.833 128.8)">
      <g id="Group_2005" data-name="Group 2005">
        <path id="Path_3321" data-name="Path 3321" d="M301.833,216a21.833,21.833,0,1,0,21.833,21.833A21.834,21.834,0,0,0,301.833,216Zm0,34.933a13.1,13.1,0,1,1,13.1-13.1A13.1,13.1,0,0,1,301.833,250.933Z" transform="translate(-280 -216)" fill="url(#linear-gradient)"/>
      </g>
    </g>
    <g id="Group_2008" data-name="Group 2008" transform="translate(96.067 50.2)">
      <g id="Group_2007" data-name="Group 2007">
        <rect id="Rectangle_962" data-name="Rectangle 962" width="70" height="9" transform="translate(-0.067 -0.3)" fill="url(#linear-gradient)"/>
      </g>
    </g>
    <g id="Group_2010" data-name="Group 2010" transform="translate(52.4 76.4)">
      <g id="Group_2009" data-name="Group 2009">
        <rect id="Rectangle_963" data-name="Rectangle 963" width="158" height="8" transform="translate(-0.4 0.5)" fill="url(#linear-gradient)"/>
      </g>
    </g>
    <g id="Group_2012" data-name="Group 2012" transform="translate(52.4 93.867)">
      <g id="Group_2011" data-name="Group 2011">
        <rect id="Rectangle_964" data-name="Rectangle 964" width="158" height="9" transform="translate(-0.4 0.033)" fill="url(#linear-gradient)"/>
      </g>
    </g>
    <g id="Group_2014" data-name="Group 2014" transform="translate(56.767 150.633)">
      <g id="Group_2013" data-name="Group 2013">
        <rect id="Rectangle_965" data-name="Rectangle 965" width="57" height="8" transform="translate(0.233 0.267)" fill="url(#linear-gradient)"/>
      </g>
    </g>
  </g>
</svg>
