<svg xmlns="http://www.w3.org/2000/svg" xmlns:xlink="http://www.w3.org/1999/xlink" width="209.029" height="209.035" viewBox="0 0 209.029 209.035">
  <defs>
    <linearGradient id="linear-gradient" x1="0.5" x2="0.5" y2="1" gradientUnits="objectBoundingBox">
      <stop offset="0" stop-color="#8e2de2"/>
      <stop offset="1" stop-color="#4a00e0"/>
    </linearGradient>
  </defs>
  <g id="Group_1663" data-name="Group 1663" transform="translate(-1241 -1834.321)">
    <g id="Group_1659" data-name="Group 1659" transform="translate(1241 1834.321)">
      <path id="Path_2498" data-name="Path 2498" d="M407.169,308.767H399.02a49.825,49.825,0,0,0-2.842-10.579l7.065-4.076a3.042,3.042,0,0,0,1.11-4.145l-4.55-7.875a3.03,3.03,0,0,0-4.141-1.11l-7.074,4.083a50.148,50.148,0,0,0-7.741-7.741l4.083-7.071a3.033,3.033,0,0,0-1.107-4.145l-7.878-4.543a3.024,3.024,0,0,0-4.138,1.11l-4.079,7.065a49.415,49.415,0,0,0-10.582-2.842v-8.152a3.028,3.028,0,0,0-3.028-3.031h-9.1a3.028,3.028,0,0,0-3.028,3.031V266.9a49.441,49.441,0,0,0-10.579,2.842l-4.079-7.065a3.027,3.027,0,0,0-4.141-1.11l-7.875,4.543a3.032,3.032,0,0,0-1.11,4.145l4.083,7.071a50.144,50.144,0,0,0-7.741,7.741l-7.071-4.083a3.034,3.034,0,0,0-4.145,1.11l-4.546,7.875a3.036,3.036,0,0,0,1.11,4.145l7.065,4.076a49.645,49.645,0,0,0-2.845,10.579h-8.149a3.034,3.034,0,0,0-3.031,3.034v9.093a3.031,3.031,0,0,0,3.031,3.031h8.149a49.539,49.539,0,0,0,2.845,10.579l-7.065,4.079a3.029,3.029,0,0,0-1.11,4.138l4.546,7.881a3.038,3.038,0,0,0,4.145,1.107l7.071-4.086a50.317,50.317,0,0,0,7.741,7.744l-4.083,7.074a3.024,3.024,0,0,0,1.11,4.138l7.875,4.55a3.035,3.035,0,0,0,4.141-1.11l4.079-7.065a49.826,49.826,0,0,0,10.579,2.842v8.149a3.031,3.031,0,0,0,3.028,3.034h9.1a3.031,3.031,0,0,0,3.028-3.034V365.8a49.8,49.8,0,0,0,10.582-2.842l4.079,7.065a3.032,3.032,0,0,0,4.138,1.11l7.878-4.55a3.026,3.026,0,0,0,1.107-4.138l-4.083-7.074a50.32,50.32,0,0,0,7.741-7.744l7.074,4.086A3.034,3.034,0,0,0,399.8,350.6l4.55-7.881a3.035,3.035,0,0,0-1.11-4.138l-7.065-4.079a49.719,49.719,0,0,0,2.842-10.579h8.149a3.032,3.032,0,0,0,3.034-3.031V311.8A3.034,3.034,0,0,0,407.169,308.767Zm-57.6,41.088a33.507,33.507,0,1,1,33.508-33.511A33.51,33.51,0,0,1,349.567,349.855Z" transform="translate(-246.216 -232.136)" fill="url(#linear-gradient)"/>
      <path id="Path_2499" data-name="Path 2499" d="M302.15,318.667a6.383,6.383,0,0,0,6.382,6.382h22.341a6.383,6.383,0,0,0,6.382-6.382V305.9h-35.1Z" transform="translate(-216.266 -118.409)" fill="none" stroke="#6a11cb" stroke-width="4"/>
      <path id="Path_2500" data-name="Path 2500" d="M302.154,295.668l35.079-.026L319.694,267.8Z" transform="translate(-216.257 -204.756)" fill="none"/>
      <rect id="Rectangle_931" data-name="Rectangle 931" width="35.079" height="96.602" transform="translate(85.91 90.898)" fill="#fff"/>
      <path id="Path_2501" data-name="Path 2501" d="M467.657,361.319c-13.6-16.115-16.824-27.152-17.242-28.758a84.349,84.349,0,1,0-157.52,42.277c.033.052.065.111.1.163,2.548,4.409,5.392,8.969,8.146,13.381,4.795,7.679,9.318,14.933,11.98,20.815,6.091,13.443,6.457,45.631,6.464,45.955a2.393,2.393,0,0,0,2.394,2.371H322a2.393,2.393,0,0,0,2.371-2.417c-.013-1.359-.382-33.524-6.885-47.885-2.793-6.166-7.4-13.555-12.284-21.37-2.763-4.442-5.631-9.031-8.165-13.424-.033-.049-.059-.1-.1-.153a79.568,79.568,0,1,1,148.685-39.426,2.25,2.25,0,0,0,.052.49c.1.506,2.767,12.637,18.32,31.068.764.908,3.224,4.076,2.75,6.794-.242,1.382-1.235,2.567-3.041,3.612a143.156,143.156,0,0,1-17.053,8.1,2.385,2.385,0,0,0-1.509,2.548c.023.186,2.456,18.927.323,30.127-1.2,6.258-15.4,8.482-27.2,8.482-7.96,0-13.1,4.961-13.1,12.643v18.418a2.394,2.394,0,1,0,4.788,0V436.711c0-4.991,3.028-7.855,8.316-7.855,11.033,0,29.853-1.607,31.9-12.372,1.891-9.932.523-24.637-.059-29.8a140.687,140.687,0,0,0,15.994-7.728c3.064-1.777,4.863-4.106,5.36-6.931C472.243,367.557,469.414,363.4,467.657,361.319Z" transform="translate(-262.569 -248.488)" fill="url(#linear-gradient)"/>
      <path id="Path_2502" data-name="Path 2502" d="M287.442,263.256a2.4,2.4,0,0,0,1.685-.692,99,99,0,0,1,11.484-9.733,2.393,2.393,0,1,0-2.812-3.874,103.142,103.142,0,0,0-12.036,10.207,2.391,2.391,0,0,0,1.679,4.092Z" transform="translate(-255.016 -248.496)" fill="url(#linear-gradient)"/>
      <path id="Path_2503" data-name="Path 2503" d="M280.329,274.337a2.43,2.43,0,0,0,1.052.245,2.4,2.4,0,0,0,2.152-1.342,98,98,0,0,1,8.234-13.819,2.394,2.394,0,0,0-3.9-2.783,103.41,103.41,0,0,0-8.636,14.5A2.4,2.4,0,0,0,280.329,274.337Z" transform="translate(-268.75 -232.324)" fill="url(#linear-gradient)"/>
      <path id="Path_2504" data-name="Path 2504" d="M280.643,295.461a98.593,98.593,0,0,1,3.883-27.475,2.394,2.394,0,1,0-4.6-1.333,103.5,103.5,0,0,0,21.864,97.279,2.394,2.394,0,0,0,3.586-3.171A98.43,98.43,0,0,1,280.643,295.461Z" transform="translate(-275.855 -211.252)" fill="url(#linear-gradient)"/>
      <path id="Path_2505" data-name="Path 2505" d="M344.295,391.464h-.7l-.023-94.209a2.374,2.374,0,0,0-.369-1.274l-17.539-27.851a2.491,2.491,0,0,0-4.056,0L304.075,296a2.372,2.372,0,0,0-.369,1.274l.026,94.186h-.924a2.394,2.394,0,0,0,0,4.788h3.142c.062,0,.118.033.173.033h0l38.168-.033a2.394,2.394,0,1,0,0-4.788ZM323.633,273.9l13.212,20.965-26.41.01ZM308.521,391.464l-.026-91.8h12.764l.01,91.8Zm17.533-.006-.007-91.8,12.738,0,.026,91.8Z" transform="translate(-220.201 -206.367)" fill="url(#linear-gradient)"/>
    </g>
  </g>
</svg>
