<svg id="Group_2069" data-name="Group 2069" xmlns="http://www.w3.org/2000/svg" width="253.783" height="178.139" viewBox="0 0 253.783 178.139">
  <g id="Group_2068" data-name="Group 2068" transform="translate(0 0)">
    <path id="Path_3443" data-name="Path 3443" d="M217.87,219.113a12.693,12.693,0,0,0,17.945,0l14.25-14.248a12.69,12.69,0,0,0,0-17.949l-47.019-47.023a12.69,12.69,0,0,0-17.949,0l-20.232,20.234-9.831,9.829-.424.424a20.406,20.406,0,0,0-27.428,1.218l-2.035,2.031c-.263-.217-.525-.5-.786-.678a20.55,20.55,0,0,0-24.248,0c-.271.186-.554.486-.846.7L75.86,150.249a3.766,3.766,0,0,0-.393-.263l-6.8-6.8a12.993,12.993,0,0,0-17.949,0l-47,47a12.69,12.69,0,0,0,0,17.949L17.964,222.4a12.718,12.718,0,0,0,17.949,0l.846-.846,30.112,30.1c-.1.093-.221.157-.318.254a13.508,13.508,0,0,0,0,19.091,13.37,13.37,0,0,0,9.192,3.921A13.383,13.383,0,0,0,88.86,288.027a13.375,13.375,0,0,0,13.114,13.114,13.461,13.461,0,0,0,26.584,2.7,14.039,14.039,0,0,0,3.439.486,13.017,13.017,0,0,0,13.164-13.114A12.968,12.968,0,0,0,158.273,278.1a12.966,12.966,0,0,0,13.114-13,13.373,13.373,0,0,0,13.2-14.353l32.47-32.472Zm-26.808-73.221a4.229,4.229,0,0,1,5.986,0L244.083,192.9a4.228,4.228,0,0,1,0,5.978l-14.256,14.256a4.325,4.325,0,0,1-5.976,0l-50.015-50.018ZM23.967,216.41,9.7,202.154a4.229,4.229,0,0,1,0-5.986l47.019-47.015a4.23,4.23,0,0,1,5.982,0L79.946,166.4,33.787,212.556,29.941,216.4a4.233,4.233,0,0,1-5.974.01Zm48.589,41.455a5.039,5.039,0,0,1,7.124,7.128,5.158,5.158,0,0,1-7.124,0,5.049,5.049,0,0,1-.021-7.128ZM85.67,270.979A5.039,5.039,0,1,1,92.8,278.1a5.166,5.166,0,0,1-7.128,0,5.049,5.049,0,0,1-.029-7.128Zm13.114,13.114a5.039,5.039,0,1,1,7.128,7.124,5.163,5.163,0,0,1-7.128,0,5.047,5.047,0,0,1-.035-7.132Zm20.234,20.234a5.033,5.033,0,1,1,1.479-3.567,5.039,5.039,0,0,1-1.479,3.567Zm55.712-49.155a5.166,5.166,0,0,1-7.128,0l-26.227-26.229a4.232,4.232,0,0,0-5.982,5.987l25.778,25.778a5.915,5.915,0,0,1,1.778,4.007,4.713,4.713,0,0,1-1.342,3.553,5.389,5.389,0,0,1-7.564-.424l-25.774-25.778a4.23,4.23,0,1,0-5.982,5.982l25.755,25.766a5.952,5.952,0,0,1,1.776,4.01,4.718,4.718,0,0,1-1.336,3.553,5.386,5.386,0,0,1-7.564-.424l-25.78-25.778a4.23,4.23,0,0,0-5.982,5.982l25.78,25.778a5.077,5.077,0,1,1-7.128,7.124l-2.856-2.85a13.414,13.414,0,0,0-9.183-3.91,13.377,13.377,0,0,0-13.11-13.106A13.391,13.391,0,0,0,89.538,261.08a13.167,13.167,0,0,0-14.223-12.953L42.741,215.554l43.251-43.245,10.314,10.317a3.1,3.1,0,0,0,.329.215,3.524,3.524,0,0,0,.275.288,4.06,4.06,0,0,0,.424.174,4,4,0,0,0,.786.329,4.46,4.46,0,0,0,.765.153c.145,0,.275.079.424.079a3.713,3.713,0,0,0,.393-.076,3.954,3.954,0,0,0,.778-.153,3.9,3.9,0,0,0,.736-.3,3.76,3.76,0,0,0,.711-.469,4.25,4.25,0,0,0,.372-.246,3.331,3.331,0,0,0,.217-.329c.089-.106.207-.167.287-.281a7.781,7.781,0,0,1,.939-1.094,9.151,9.151,0,0,1,1.307-1.11,12.1,12.1,0,0,1,14.092-.168l-19.806,19.81a13.5,13.5,0,0,0,19.088,19.087l13.392-13.394,42.894,42.9a5.044,5.044,0,0,1-.014,7.118Zm6.235-12.831-.279-.275-22.709-22.7L144.8,206.172a20.3,20.3,0,0,0,11.313-5.66,16.883,16.883,0,0,0,2-2.364,4.23,4.23,0,0,0-6.981-4.779,8.875,8.875,0,0,1-1.007,1.168,12.014,12.014,0,0,1-15.652,1.115,5.513,5.513,0,0,0-5.664.521L112.43,212.56a5.185,5.185,0,0,1-7.124,0,4.913,4.913,0,0,1-1.45-3.621,4.845,4.845,0,0,1,1.45-3.507L127.444,183.3c.064-.041.139-.054.2-.1a4.2,4.2,0,0,0,1.189-1.268l4.328-4.328a12.008,12.008,0,0,1,16.954,0,9.384,9.384,0,0,1,1.007,1.175,4.259,4.259,0,0,0,.4.453c.043.046.054.1.1.147s.054.031.079.052a4.156,4.156,0,0,0,1.214.807,2.7,2.7,0,0,0,.281.1,4.291,4.291,0,0,0,1.412.275,4.128,4.128,0,0,0,1.425-.279,4.2,4.2,0,0,0,.424-.2,3.665,3.665,0,0,0,.54-.263c.114-.076.174-.194.275-.279a3.651,3.651,0,0,0,.331-.221l10.25-10.246,43.173,43.144Zm0,0" transform="translate(0 -136.175)" fill="#004e92"/>
    <path id="Path_3444" data-name="Path 3444" d="M52.867,255.231a4.652,4.652,0,1,0,0,6.551,4.654,4.654,0,0,0,0-6.551Zm0,0" transform="translate(-22.647 -195.517)" fill="#004e92"/>
  </g>
  <path id="Path_3445" data-name="Path 3445" d="M456.136,255.15a4.654,4.654,0,1,0-6.553,0,4.653,4.653,0,0,0,6.553,0Zm0,0" transform="translate(-226.017 -192.157)" fill="#004e92"/>
</svg>
