<svg xmlns="http://www.w3.org/2000/svg" width="41.477" height="36.902" viewBox="0 0 41.477 36.902"><defs><style>.a{fill:#fff;}</style></defs><path class="a" d="M20.739,36.9a2.432,2.432,0,0,1-1.6-.6c-1.676-1.465-3.291-2.842-4.716-4.057l-.007-.006c-4.179-3.561-7.787-6.636-10.3-9.666C1.307,19.184,0,15.973,0,12.465A12.964,12.964,0,0,1,3.29,3.611,11.153,11.153,0,0,1,11.587,0,10.433,10.433,0,0,1,18.1,2.25,13.333,13.333,0,0,1,20.739,5,13.335,13.335,0,0,1,23.374,2.25,10.433,10.433,0,0,1,29.891,0a11.154,11.154,0,0,1,8.3,3.611,12.964,12.964,0,0,1,3.29,8.854c0,3.508-1.307,6.719-4.114,10.105-2.511,3.03-6.119,6.1-10.3,9.665-1.428,1.216-3.046,2.6-4.725,4.064a2.434,2.434,0,0,1-1.6.6ZM11.587,2.43A8.75,8.75,0,0,0,5.077,5.258a10.546,10.546,0,0,0-2.647,7.207c0,2.95,1.1,5.589,3.555,8.555,2.376,2.867,5.911,5.879,10,9.367l.008.006c1.431,1.219,3.052,2.6,4.74,4.077,1.7-1.479,3.322-2.863,4.756-4.084,4.092-3.488,7.626-6.5,10-9.366,2.458-2.966,3.555-5.6,3.555-8.555A10.546,10.546,0,0,0,36.4,5.258a8.75,8.75,0,0,0-6.51-2.828A8.058,8.058,0,0,0,24.86,4.172a11.79,11.79,0,0,0-2.8,3.244,1.534,1.534,0,0,1-2.635,0,11.779,11.779,0,0,0-2.8-3.244A8.058,8.058,0,0,0,11.587,2.43Zm0,0" transform="translate(0)"/></svg>