<svg xmlns="http://www.w3.org/2000/svg" xmlns:xlink="http://www.w3.org/1999/xlink" width="868.58" height="505.652" viewBox="0 0 868.58 505.652">
  <defs>
    <clipPath id="clip-path">
      <path id="Path_1883" data-name="Path 1883" d="M735.27,2430.936h-23.7c-40.756,0-74.1,30.64-74.1,68.088s33.344,68.091,74.1,68.091h674.491c66,0,119.989-49.615,119.989-110.257S1452.056,2346.6,1386.059,2346.6c-27.9,0-53.141-20.979-53.141-46.619s22.83-46.618,50.731-46.618h28.7c29.01,0,52.746-21.811,52.746-48.469s-23.736-48.468-52.746-48.468h-81.761c-11.3,0-20.537-8.491-20.537-18.868s9.24-18.871,20.537-18.871h13.609c7.795,0,14.173-5.86,14.173-13.021v0c0-7.162-6.379-13.022-14.173-13.022h-84.758c-18.81,0-20.9,20.417-68.418,20.417H1088.9c-10.17,0-18.493,7.649-18.493,16.993h0c0,9.346,8.323,16.992,18.493,16.992h17.762c14.736,0,26.795,11.081,26.795,24.623s-12.058,24.62-26.795,24.62h-26.727c-72.174,0-82.369,17.334-95.009,51.8s-140.8,37.25-140.8,37.25H749.587c-22.21,0-40.381,16.7-40.381,37.106.09,13.263,4.629,28.711,34.427,40.318,13.541,5.274,22.782,18.1,22.782,32.477C766.415,2414.877,756.633,2430.936,735.27,2430.936Zm648.7-312.248c-7.829,0-14.174-5.83-14.174-13.021s6.345-13.025,14.174-13.025,14.172,5.829,14.172,13.025S1391.793,2118.688,1383.965,2118.688Z" transform="translate(-637.468 -2092.642)" fill="none" clip-rule="evenodd"/>
    </clipPath>
    <linearGradient id="linear-gradient" x1="0.5" y1="2.242" x2="0.5" y2="-0.117" gradientUnits="objectBoundingBox">
      <stop offset="0" stop-color="#1e9df8"/>
      <stop offset="0.009" stop-color="#209df8"/>
      <stop offset="0.374" stop-color="#76c3fb"/>
      <stop offset="0.671" stop-color="#b5dffd"/>
      <stop offset="0.888" stop-color="#ddf0fe"/>
      <stop offset="1" stop-color="#ecf7ff"/>
    </linearGradient>
    <clipPath id="clip-path-2">
      <path id="Path_1885" data-name="Path 1885" d="M1179.456,2396.855h394.915a.387.387,0,0,1,.386.386V2648.15a.388.388,0,0,1-.386.386H1179.456a.388.388,0,0,1-.386-.386V2397.241a.388.388,0,0,1,.386-.386" transform="translate(-1179.07 -2396.855)" fill="none" clip-rule="evenodd"/>
    </clipPath>
    <linearGradient id="linear-gradient-2" x1="0.5" y1="0.935" x2="0.5" y2="0.125" gradientUnits="objectBoundingBox">
      <stop offset="0" stop-color="#3d9dff"/>
      <stop offset="1" stop-color="#ceecfa"/>
    </linearGradient>
  </defs>
  <g id="Group_1211" data-name="Group 1211" transform="translate(-637.468 -2043.805)">
    <g id="Group_1206" data-name="Group 1206" transform="translate(637.468 2067.265)">
      <g id="Group_1205" data-name="Group 1205" transform="translate(0 0)" clip-path="url(#clip-path)">
        <rect id="Rectangle_861" data-name="Rectangle 861" width="868.581" height="474.472" transform="translate(0)" fill="url(#linear-gradient)"/>
      </g>
    </g>
    <path id="Path_1884" data-name="Path 1884" d="M1167.107,2358.722h381.349a24.926,24.926,0,0,1,24.853,24.853v238.612a24.927,24.927,0,0,1-24.853,24.854H1167.107a24.927,24.927,0,0,1-24.853-24.854V2383.575a24.926,24.926,0,0,1,24.853-24.853" transform="translate(-262.302 -163.641)" fill="#003398" fill-rule="evenodd"/>
    <g id="Group_1208" data-name="Group 1208" transform="translate(897.637 2213.4)">
      <g id="Group_1207" data-name="Group 1207" transform="translate(0 0)" clip-path="url(#clip-path-2)">
        <rect id="Rectangle_862" data-name="Rectangle 862" width="395.687" height="251.682" transform="translate(0)" fill="url(#linear-gradient-2)"/>
      </g>
    </g>
    <rect id="Rectangle_863" data-name="Rectangle 863" width="154.245" height="239.787" transform="translate(1116.634 2188.06)" fill="#102b6e"/>
    <rect id="Rectangle_864" data-name="Rectangle 864" width="154.245" height="239.787" transform="translate(1116.634 2188.06)" fill="none" stroke="#102b6e" stroke-miterlimit="22.926" stroke-width="0.5"/>
    <path id="Path_1886" data-name="Path 1886" d="M1479.017,2947.94c-1.751,34.115-6.382,42.742-38.479,62.183H1582.82c-32.1-19.441-36.728-28.068-38.479-62.183l-32.662-2.772Z" transform="translate(-417.3 -468.376)" fill="#4596d1" fill-rule="evenodd"/>
    <path id="Path_1887" data-name="Path 1887" d="M1573.309,2873.18v16.335a24.927,24.927,0,0,1-24.853,24.854H1167.108a24.927,24.927,0,0,1-24.854-24.854V2873.18Z" transform="translate(-262.302 -430.968)" fill="#e4f5fb" fill-rule="evenodd"/>
    <rect id="Rectangle_865" data-name="Rectangle 865" width="431.055" height="26.112" transform="translate(879.952 2426.107)" fill="#003398"/>
    <path id="Path_1888" data-name="Path 1888" d="M1625.378,2332.922h160.687a5.169,5.169,0,0,0,0-10.338H1625.378a5.169,5.169,0,0,0,0,10.338" transform="translate(-510.662 -144.862)" fill="#ee4354" fill-rule="evenodd"/>
    <path id="Path_1889" data-name="Path 1889" d="M1602.337,2582.441H1753.2l18.092-215.563h-151.1Z" transform="translate(-501.375 -167.879)" fill="#a5dbfd" fill-rule="evenodd"/>
    <path id="Path_1890" data-name="Path 1890" d="M1588.651,2344.1c-8.646,78.887-25.782,146.167-40.621,225.793,53.105.71,106.491.71,159.316.71,11.569-58.6,25.565-164.511,36.689-226.5Z" transform="translate(-473.155 -156.044)" fill="#fdfdfd" fill-rule="evenodd"/>
    <path id="Path_1891" data-name="Path 1891" d="M1616.744,2712.648H1720.8a2.683,2.683,0,0,1,2.674,2.676h0A2.684,2.684,0,0,1,1720.8,2718H1616.744a2.683,2.683,0,0,1-2.675-2.676h0a2.683,2.683,0,0,1,2.675-2.676" transform="translate(-507.472 -347.551)" fill="#b2defc" fill-rule="evenodd"/>
    <path id="Path_1892" data-name="Path 1892" d="M1608.884,2748.3h104.055a2.683,2.683,0,0,1,2.676,2.674h0a2.682,2.682,0,0,1-2.676,2.674H1608.884a2.682,2.682,0,0,1-2.675-2.674h0a2.682,2.682,0,0,1,2.675-2.674" transform="translate(-503.387 -366.078)" fill="#b2defc" fill-rule="evenodd"/>
    <path id="Path_1893" data-name="Path 1893" d="M1410.982,2544.9c9.8,21.515,21.961,46.168,50.017,50.348,22.757,3.39,56.063-39.448,59.337-46.436s-9.164-25.24-13.176-23.128-37,27.583-40.015,27.389c-3.521-.229-15.531-38.43-37.323-51-3.4-1.961-23.056,33.576-18.84,42.83" transform="translate(-401.635 -238.088)" fill="#003398" fill-rule="evenodd"/>
    <path id="Path_1894" data-name="Path 1894" d="M1257.751,2480.074c-13.841,0-25.709,4.253-34.088,12.934-11.665,12.084,8.6,93.665,10.038,159.824h118.061c.711-29.363.12-98.583-6.5-148.354-3.884-6.126-12.906-13.941-21.866-19.055-15.726-8.973-46.433-5.349-65.642-5.349" transform="translate(-302.732 -226.323)" fill="#003398" fill-rule="evenodd"/>
    <path id="Path_1895" data-name="Path 1895" d="M1342.4,2479.37c17.187,9.294,30.586,73.026,30.214,172.655h-47.378c-1.812-104.274-18.266-154.6-24.784-172.359,13.983-.924,24.589-1.769,41.948-.3" transform="translate(-344.506 -225.918)" fill="#fff" fill-rule="evenodd"/>
    <path id="Path_1896" data-name="Path 1896" d="M1311.686,2479.282a218.852,218.852,0,0,1,34.957-.008c4.191,5.682,5.751,23.548-8.637,30.934-11.974-2.271-31.344-18.361-26.32-30.926" transform="translate(-349.921 -225.918)" fill="#e4f5fb" fill-rule="evenodd"/>
    <path id="Path_1897" data-name="Path 1897" d="M1384.579,2482.214a15.248,15.248,0,0,0-3.187-2.482q.935.067,1.9.144a11.543,11.543,0,0,1,1.291,2.338" transform="translate(-386.565 -226.521)" fill="#fff" fill-rule="evenodd"/>
    <path id="Path_1898" data-name="Path 1898" d="M1364.591,2390.043c1.951,12.384-12.928,21.823-23.026,21v5.666l1.011,1.366c5.928,11.686-.448,20.708-6.578,23.86-9.591-3.44-22.847-12.234-23.063-24.469l.622-.756V2395a10.138,10.138,0,0,1-2.225-.934c-2.225-1.3-3.093-4.461-2.5-7.729s5.344-1.057,5.344-1.057h0c-4.12-9.685-9.393-18.038,1.222-23.421s32.023-4.979,32.023-4.979l14.331-1.2c-3.47,5.274,1.543,26.156,2.835,34.363" transform="translate(-348.768 -162.06)" fill="#f8babc" fill-rule="evenodd"/>
    <path id="Path_1899" data-name="Path 1899" d="M1359.006,2463.914q-1.207-.025-2.364-.119h0c-6.368-.11-13.053-4.431-18.973-6.594,0,0,3,10.6,10.575,13.944a28.676,28.676,0,0,0,8.4,2.34v-9.69l2.288.052Z" transform="translate(-363.845 -214.813)" fill="#ea8287" fill-rule="evenodd"/>
    <path id="Path_1900" data-name="Path 1900" d="M1300.208,2335.081c-5.214,4.067-1.591,14.784-.114,17.865,1.6,3.348,3.286,7.708,2.125,8.215-4.53,1.979-8.29-6.3-10.433-7.329a3.211,3.211,0,0,0-2.686-.064c-2,1.506-.908,6.265,1.377,7.861.672.469,1.708,1.386,1.708,1.386-9.192-.251-30.981-22.17-20.383-35.6,2.58-26.6,17.873-33.721,35.533-33.27,6.892.175,13.353,4.032,20.3,6.974,2.744,1.162,4.973,2.416,7.034,2.619,5.059.5,6.184-4.25,9.211-1.489,12.419,11.329,2.922,43.468-25.807,34.262-9.389-3.009-14.182-4.307-17.866-1.433" transform="translate(-328.142 -130.076)" fill="#003398" fill-rule="evenodd"/>
    <path id="Path_1901" data-name="Path 1901" d="M1219.744,2526.316c5.057-10.4-.619-21.288-11.334-25.866h0c-10.715-4.578-22.256,1.9-27.313,12.3-9.922,20.414-38.889,66.825-24.66,89.785,11.543,18.625,42.854,9.655,50.067,7.716s11.56-24.628,11.56-24.628-21.48.524-23.894-5.072c-4-9.268,22.029-46.943,25.573-54.236" transform="translate(-267.667 -236.511)" fill="#003398" fill-rule="evenodd"/>
    <path id="Path_1902" data-name="Path 1902" d="M1272.88,2682.28c-6.082,3.632-10.71,14.092-10.316,20.976,1.642-.316,15.77-5,15.77-5,4.933-5.593,6.573-12.8,5.285-17.411Z" transform="translate(-324.807 -331.024)" fill="#fff" fill-rule="evenodd"/>
    <path id="Path_1903" data-name="Path 1903" d="M1330.694,2655.823l1.559,1.223a1.192,1.192,0,0,1,.2,1.671l-26.375,33.359c-.4.514-3.5,1.991-4.016,1.588s.227-3.828.633-4.342l26.327-33.3a1.2,1.2,0,0,1,1.671-.2" transform="translate(-345.252 -317.892)" fill="#ee4354" fill-rule="evenodd"/>
    <path id="Path_1904" data-name="Path 1904" d="M1299.53,2675.121l7.447-1.227,8.511-5.646a2.27,2.27,0,0,1,2.838.3c12.372,9.518,1.426,13.018-6.724,21.486-3.781.094-3.373.109-5.934-3.33-.5-.669-11.378,3.136-11.378,3.136-.163-2.256.719-9.728,5.24-14.719" transform="translate(-341.295 -324.298)" fill="#f8babc" fill-rule="evenodd"/>
    <path id="Path_1905" data-name="Path 1905" d="M1614.08,2549.079c-1.052,6.6,5.1,17.254,9.785,19.145.522-.93,3.651-4.961,5.722-8.058,4.451-6.653-6.055-20.553-9.134-17.469Z" transform="translate(-507.415 -259.011)" fill="#fff" fill-rule="evenodd"/>
    <path id="Path_1906" data-name="Path 1906" d="M1702.251,2468.616c4.833,8.394,9.343,19.6,10.33,27.831h25.564c1.958-4.066,7.939-12.068,13.4-19.035s10.4-12.925,10.3-12.887c4.073-5.257,6.673-9.774,8.131-17.931s-.68-18.63-6-25.033-13.557-10.377-23.436-10.377-19.546,3.978-27.155,10.377-13.494,16.889-14.953,25.033-.479,12.611,1.677,17.855c.774,1.406,1.24,2.761,2.142,4.167" transform="translate(-550.949 -190.902)" fill="#f7ab2b" fill-rule="evenodd"/>
    <path id="Path_1907" data-name="Path 1907" d="M1757.056,2510.751a5.29,5.29,0,0,1,3.452-2.284,4.269,4.269,0,0,1,2.65.375,4.491,4.491,0,0,1,1.875,1.859,5.624,5.624,0,0,1,.62,3.1,9.73,9.73,0,0,1-1.057,3.788c-.906,1.849-3.818,3.125-7.412,3.853q-1.395,7.867-2.805,15.71h-2.283q1.374-7.661,2.748-15.334a41.353,41.353,0,0,1-10.189.026q-1.373,7.66-2.734,15.309h-2.437q1.395-7.849,2.8-15.71c-3.354-.728-5.777-2.008-6.031-3.853a8.776,8.776,0,0,1,.282-3.788,8.317,8.317,0,0,1,1.747-3.1,7.36,7.36,0,0,1,2.536-1.859,4.991,4.991,0,0,1,2.791-.375,3.281,3.281,0,0,1,2.635,2.284,8.511,8.511,0,0,1-.071,4.48c-.056.188-.1.376-.141.564-.789-.063-1.551-.138-2.325-.213.028-.176.085-.352.127-.527a5.8,5.8,0,0,0,.112-2.974,1.432,1.432,0,0,0-1.183-1,2.62,2.62,0,0,0-1.466.2,4.143,4.143,0,0,0-1.451,1.066,4.722,4.722,0,0,0-1.029,1.819,6.05,6.05,0,0,0-.182,2.547c.479,3.463,22.162,3.461,23.872,0a6.7,6.7,0,0,0,.732-2.547,3.476,3.476,0,0,0-.352-1.819,2.482,2.482,0,0,0-1.086-1.066,2.3,2.3,0,0,0-2.93.8,6.835,6.835,0,0,0-.959,2.974c-.014.176-.042.352-.056.527-.818.075-1.606.15-2.4.213.014-.188.05-.375.071-.564a9.844,9.844,0,0,1,1.522-4.48" transform="translate(-570.917 -241.418)" fill="#fff" fill-rule="evenodd"/>
    <path id="Path_1908" data-name="Path 1908" d="M1732.141,2592.309h16.813a3.082,3.082,0,0,1,3.1,3.776h0a4.741,4.741,0,0,1-4.453,3.777h-16.812a3.082,3.082,0,0,1-3.1-3.777h0a4.74,4.74,0,0,1,4.453-3.776" transform="translate(-566.48 -285.019)" fill="#76c5fb" fill-rule="evenodd"/>
    <path id="Path_1909" data-name="Path 1909" d="M1733.488,2609.967H1747.5a2.071,2.071,0,0,1,2.072,2.548h0a3.166,3.166,0,0,1-2.988,2.546h-14.008a2.083,2.083,0,0,1-2.1-2.546h0a3.211,3.211,0,0,1,3.016-2.548" transform="translate(-567.938 -294.195)" fill="#76c5fb" fill-rule="evenodd"/>
    <path id="Path_1910" data-name="Path 1910" d="M1736.163,2622.479h9.4a1.981,1.981,0,0,1,2,2.434h0a3.048,3.048,0,0,1-2.861,2.433h-9.414a1.985,1.985,0,0,1-2-2.433h0a3.064,3.064,0,0,1,2.875-2.434" transform="translate(-569.402 -300.697)" fill="#76c5fb" fill-rule="evenodd"/>
    <path id="Path_1911" data-name="Path 1911" d="M1746.628,2379.344h0a1.839,1.839,0,0,1,.239,2.71c-1.91,2.514-3.813,5.012-5.707,7.528a2.193,2.193,0,0,1-2.833.729h0a1.847,1.847,0,0,1-.254-2.711q2.84-3.758,5.693-7.528a2.222,2.222,0,0,1,2.861-.727m-59.217,0h0a1.77,1.77,0,0,1,2.58.727q1.484,3.762,3,7.528a2.273,2.273,0,0,1-1.226,2.711h0a1.774,1.774,0,0,1-2.579-.729c-1-2.513-2.007-5.016-3-7.528A2.282,2.282,0,0,1,1687.411,2379.344Zm-25.564,21.669h0a2.227,2.227,0,0,1,2.847-.727c2.244,1.45,4.5,2.912,6.751,4.354a1.867,1.867,0,0,1,.254,2.711h0a2.239,2.239,0,0,1-2.875.726c-2.241-1.44-4.5-2.883-6.737-4.341A1.856,1.856,0,0,1,1661.847,2401.014Zm102.565,0h0a2.289,2.289,0,0,1-1.225,2.723c-2.764,1.453-5.539,2.9-8.287,4.341a1.779,1.779,0,0,1-2.593-.726h0a2.281,2.281,0,0,1,1.212-2.711c2.764-1.439,5.535-2.905,8.3-4.354A1.8,1.8,0,0,1,1764.412,2401.014Zm2.636,29.613h0a2.507,2.507,0,0,1-2.353,2H1756a1.627,1.627,0,0,1-1.635-2h0a2.483,2.483,0,0,1,2.354-1.983h8.681A1.626,1.626,0,0,1,1767.048,2430.627Zm-105.764,0h0a2.507,2.507,0,0,1-2.354,2h-8.7a1.615,1.615,0,0,1-1.606-2h0a2.477,2.477,0,0,1,2.325-1.983h8.7A1.617,1.617,0,0,1,1661.284,2430.627Zm57.159-59.226h0a1.624,1.624,0,0,1,1.621,2q-.784,4.348-1.55,8.7a2.489,2.489,0,0,1-2.34,1.983h0a1.612,1.612,0,0,1-1.635-1.983q.768-4.346,1.55-8.7A2.506,2.506,0,0,1,1718.443,2371.4Z" transform="translate(-525.413 -170.229)" fill="#fca700" fill-rule="evenodd"/>
    <path id="Path_1912" data-name="Path 1912" d="M1634.654,2505.174c.656-3.034,3.413-15.027,5.649-17.044,1.142-1.028,1.413-.562,1.92.091a5.453,5.453,0,0,1,.7,3.187,45.876,45.876,0,0,1-.772,5.449c6.766-3.541,13.245-11.843,18.192-17.527,2.011-2.311,5.208-2.062,3.274,2.06-1.581,3.372-10.612,14.382-10.612,14.382l13.468-7.291c2.369-1.283,2.356,1.632,1.225,2.858-1.855,2.01-13.427,9.24-13.427,9.24l12.68-1.858a1.411,1.411,0,0,1-.283,2.3c-1.578.947-13.735,4.854-13.735,4.854l8.214.16s.77,1.656-1.3,2.309c-1.1.348-3.971.678-6.709,1.581a29.58,29.58,0,0,0-5.576,2.669c-4.858,2.913-7.161,7.728-10.606,11.773a22.17,22.17,0,0,1-7.226-13.6Z" transform="translate(-515.606 -225.553)" fill="#f8babc" fill-rule="evenodd"/>
    <path id="Path_1913" data-name="Path 1913" d="M1067.208,2764.509c25.757,24.726,20.626,107.521,53.362,117.834,0,0,23.382,5.4,21.807,12.273s-4.621,9.464-4.621,9.464-27.544,2.507-50.679-2.338c-13.013-2.724-14.935-19.858-19.868-21.846-13.707-5.52-20.97-60.96-20.97-60.96Z" transform="translate(-212.41 -374.5)" fill="#6aaff1" fill-rule="evenodd"/>
    <g id="Group_1209" data-name="Group 1209" transform="translate(713.349 2377.998)">
      <path id="Path_1914" data-name="Path 1914" d="M906.543,2739.5H849.635c-24.973,0-45.88,18.408-50.009,42.416-.433,0-2.312,15.841-2.444,17.225-2.808,29.632-3.025,72.922,5.315,104.1H936.3l.576-73.525v-78.2c-8.835-7.486-17.961-12.012-30.338-12.012" transform="translate(-795.431 -2739.504)" fill="#569bdd" fill-rule="evenodd"/>
    </g>
    <path id="Path_1915" data-name="Path 1915" d="M974.207,2618.859a37.622,37.622,0,0,0,1.855,13.781c3.973,11.394-4.725,30.995-19.941,29.692l.054,10.379h-.238c6.737,7.913-1.571,26.688-9.218,26.748-6.6.049-18.675-14.187-19.52-26.748v-21.28a5.991,5.991,0,0,1-2.309-1.017c-1.529-.932-9.221-8.535-8.6-12.083s7.7-3.958,7.7-3.958l1.634-1.437c-4.276-10.519-7.525-10.708,3.49-16.555s33.235-5.406,33.235-5.406l11.5,3.448Z" transform="translate(-144.865 -294.714)" fill="#f8babc" fill-rule="evenodd"/>
    <path id="Path_1916" data-name="Path 1916" d="M977.013,2713.786l.053,10.251a39.035,39.035,0,0,1-10.528-3.309,19.422,19.422,0,0,1-10.081-10.787,52.248,52.248,0,0,0,18.437,3.8Z" transform="translate(-165.756 -346.144)" fill="#ed979b" fill-rule="evenodd"/>
    <path id="Path_1917" data-name="Path 1917" d="M1148.4,2959.21s15.728-.149,20.817,1.778,6.925,4.583,6.925,4.583l5.2,1.3s.982,3.9,0,3.9-28.589,2.6-28.589,2.6l-5.883-.759s1.93-8.805,1.307-10.521-3.575-3.645-3.575-3.645Z" transform="translate(-263.522 -475.274)" fill="#f7aaac" fill-rule="evenodd"/>
    <path id="Path_1918" data-name="Path 1918" d="M860.3,2793.479c-5.412-12.017-18.047-25.958-23.941-14.167h0c-6.974,6.974-8.443,7.939-8.61,17.2-.51,28.643,10.359,100.772,41.728,108.867,16.818,4.339,45.486,8.059,64.361,7.41,7.622-.261,16.026,2.7,19.014.461,10.394-7.794-1.269-16.607-1.269-16.607s-65.266-19.393-71.909-21.418c-11.006-3.356-15.58-73.32-19.374-81.744" transform="translate(-98.866 -379.87)" fill="#f8babc" fill-rule="evenodd"/>
    <path id="Path_1919" data-name="Path 1919" d="M1089.408,3005.412a24.866,24.866,0,0,0-3.943,10.42c-.733,5.971.628,9.083.628,9.083,15.751,1.265,47.384.076,47.323.066-1.063-.159,1.473-2.428-1.917-4.171-2.438-1.254-10.466-1.657-13.289-3.534-12.528-8.326-20.954-6.693-28.8-11.865" transform="translate(-232.68 -499.68)" fill="#e88e92" fill-rule="evenodd"/>
    <path id="Path_1920" data-name="Path 1920" d="M1080.1,2891.842H1193.15c4.36,0,8.888,3.675,7.927,7.927l-16.894,74.717c-.961,4.252-3.567,7.927-7.927,7.927H1063.208c-4.36,0-8.889-3.675-7.927-7.927l16.893-74.717c.962-4.253,3.567-7.927,7.927-7.927" transform="translate(-217.041 -440.666)" fill="#8ccdfb" fill-rule="evenodd"/>
    <path id="Path_1921" data-name="Path 1921" d="M1090.65,2891.842H1203.7c4.36,0,8.888,3.675,7.927,7.927l-16.894,74.717c-.96,4.252-3.567,7.927-7.927,7.927H1073.757c-4.359,0-8.889-3.675-7.927-7.927l16.894-74.717c.961-4.253,3.566-7.927,7.927-7.927" transform="translate(-222.522 -440.666)" fill="#fff" fill-rule="evenodd"/>
    <path id="Path_1922" data-name="Path 1922" d="M1212.937,2970.375c3.417,1.1,5.118,5.313,3.8,9.412s-5.156,6.533-8.572,5.434-5.117-5.312-3.8-9.41,5.155-6.533,8.572-5.435" transform="translate(-294.345 -481.337)" fill="#76c5fb" fill-rule="evenodd"/>
    <path id="Path_1923" data-name="Path 1923" d="M914.313,3062H981l6.33,8.831H909.9v-4.417a4.429,4.429,0,0,1,4.415-4.414" transform="translate(-141.563 -529.087)" fill="#8ccdfb" fill-rule="evenodd"/>
    <path id="Path_1924" data-name="Path 1924" d="M918.408,2583.557c-3.236,6.094-1.828,16.921-.288,20.138,2.2,4.6.578,6.446-1.343,5.79-4.265-1.458-5.546-3.326-8.739-4.85-.75-.358-2.286-.638-2.8-.067-2.123,2.344,2.537,8.94,5.384,10.7-13.933,1.646-32.209-22.029-20.725-36.577-6.541-45.387,54.328-44.775,76.9-19.061,3.895,4.436,4.441,13.588,2.09,17.162-10.7,16.268-38.03-.563-47.874,4.251a5.7,5.7,0,0,0-2.6,2.51" transform="translate(-129.286 -258.902)" fill="#003398" fill-rule="evenodd"/>
    <path id="Path_1925" data-name="Path 1925" d="M714.436,3080.385h799.409a3.855,3.855,0,0,1,0,7.711H714.436a3.855,3.855,0,0,1,0-7.711" transform="translate(-37.992 -538.638)" fill="#1a47b6" fill-rule="evenodd"/>
    <path id="Path_1926" data-name="Path 1926" d="M1973.065,2776.516c-25.462,24.443-42.051,100.03-74.41,110.227,0,0-3.006,7.574-1.448,14.367s4.567,9.354,4.567,9.354,27.229,2.48,50.1-2.309c12.865-2.694,14.764-19.632,19.641-21.6,13.55-5.458,20.729-60.263,20.729-60.263Z" transform="translate(-654.366 -380.739)" fill="#f7ab2b" fill-rule="evenodd"/>
    <path id="Path_1927" data-name="Path 1927" d="M1896.616,2929.5c-.009,1.439-.5.251.448,4.372s4.566,9.355,4.566,9.355,27.23,2.478,50.1-2.311c12.864-2.692,18.829-13.044,23.705-15.006,5.89-2.37,2.821-48.852,7.211-53.894l.641-2.864-9.364-29.583s-13.941,71.347-41.724,79.945-29.1,8.5-35.583,9.987" transform="translate(-654.222 -413.505)" fill="#eca01f" fill-rule="evenodd"/>
    <path id="Path_1928" data-name="Path 1928" d="M2080.321,2585.047c6.567,47.912-25.628,62.7,5.9,107.005,0,0,19.308-21.251,27.577-22.752s9.368-27.5,9.368-28.834-7.358-53.166-7.358-53.166Z" transform="translate(-745.495 -281.246)" fill="#003398" fill-rule="evenodd"/>
    <g id="Group_1210" data-name="Group 1210" transform="translate(1317.148 2379.878)">
      <path id="Path_1929" data-name="Path 1929" d="M2089.438,2743.419h49.106c24.688,0,47.192,17.081,51.276,40.813,8.148,45.439-7.915,116.863-8.322,121.051H2052.948l-.57-72.684,1.551-73.281c7.617-8.518,23.273-15.9,35.51-15.9" transform="translate(-2052.378 -2743.419)" fill="#f7ab2b" fill-rule="evenodd"/>
    </g>
    <path id="Path_1930" data-name="Path 1930" d="M2145.345,2743.378c-7.992,22.276-18.459,7.35-28.645,0-1.975,0-5.2-.132-8.437.1-28.646,95.7-7.531,95.7-4.469,144.768l28.028,14.079c6.25-3.8,14.826-7.234,21.075-11.038.962-49.922-19.214-50.31,6.979-147.906Z" transform="translate(-756.562 -363.5)" fill="#fff" fill-rule="evenodd"/>
    <path id="Path_1931" data-name="Path 1931" d="M2101.757,2624.157a37.211,37.211,0,0,1-1.835,13.623c-3.927,11.263,4.672,30.64,19.713,29.353l-.054,10.26h.235c-3.727,12.524,3.616,24.4,9.349,24.643,5.089.216,18.366-7.9,19.061-24.643l-1.49-16.747c.742-.23,2.261-3.435,3.773-4.356s3.174-4.79,2.563-8.3-3.715-10.819-3.715-10.819c4.226-10.4,7.866-9.684-3.023-15.464s-32.855-5.345-32.855-5.345l-11.367,3.409Z" transform="translate(-759.443 -297.515)" fill="#f8babc" fill-rule="evenodd"/>
    <path id="Path_1932" data-name="Path 1932" d="M2141.927,2718l-.053,10.134a38.607,38.607,0,0,0,10.409-3.272,19.2,19.2,0,0,0,9.965-10.663,51.653,51.653,0,0,1-18.226,3.751Z" transform="translate(-781.735 -348.355)" fill="#eb8e91" fill-rule="evenodd"/>
    <path id="Path_1933" data-name="Path 1933" d="M1954.784,2960.611s-15.549-.146-20.579,1.757-6.845,4.531-6.845,4.531l-5.138,1.284s-.971,3.854,0,3.854,28.261,2.569,28.261,2.569l5.815-.75s-1.907-8.7-1.292-10.4,3.535-3.6,3.535-3.6Z" transform="translate(-667.372 -476.006)" fill="#f7aaac" fill-rule="evenodd"/>
    <path id="Path_1934" data-name="Path 1934" d="M2153.371,2791.937c5.352-11.879,21.283-18.332,30.5-9.117h0c6.894,6.893,8.345,7.848,8.51,17,.5,28.316-11.069,108.065-42.74,112.832-17.371,2.616-45.709,5.391-64.367,4.75-7.534-.258-13.608.036-16.562-2.18-10.276-7.706,4.4-19.434,4.4-19.434s56.158-20.159,62.725-22.161c10.881-3.317,13.784-73.363,17.535-81.691" transform="translate(-741.82 -381.743)" fill="#ffc86b" fill-rule="evenodd"/>
    <path id="Path_1935" data-name="Path 1935" d="M2193.924,2802.8c17.254,25.2-9.511,118.135-40.335,122.508-17.391,2.468-45.71,5.388-64.368,4.749-7.534-.258-13.606.037-16.562-2.18,0,0,55.467-7.1,81.8-14.7,23.766-6.857,40.261-82.609,39.462-110.377" transform="translate(-745.769 -394.398)" fill="#ffbc4a" fill-rule="evenodd"/>
    <path id="Path_1936" data-name="Path 1936" d="M2001.349,3006.283a24.575,24.575,0,0,1,3.9,10.3c.725,5.9-.62,8.979-.62,8.979-15.571,1.25-46.84.075-46.781.066,1.052-.159-1.456-2.4,1.9-4.124,2.41-1.239,10.346-1.638,13.137-3.493,12.383-8.231,20.714-6.617,28.472-11.729" transform="translate(-686.108 -500.133)" fill="#e88e92" fill-rule="evenodd"/>
    <path id="Path_1937" data-name="Path 1937" d="M1905.874,2894.013H1794.119c-4.31,0-8.786,3.633-7.835,7.836l16.7,73.862c.95,4.2,3.526,7.836,7.836,7.836h111.754c4.309,0,8.787-3.632,7.836-7.836l-16.7-73.862c-.951-4.2-3.526-7.836-7.835-7.836" transform="translate(-596.892 -441.794)" fill="#8ccdfb" fill-rule="evenodd"/>
    <path id="Path_1938" data-name="Path 1938" d="M1895.444,2894.013H1783.69c-4.311,0-8.786,3.633-7.836,7.836l16.7,73.862c.951,4.2,3.527,7.836,7.836,7.836h111.754c4.31,0,8.787-3.632,7.836-7.836l-16.7-73.862c-.951-4.2-3.526-7.836-7.836-7.836" transform="translate(-591.473 -441.794)" fill="#fff" fill-rule="evenodd"/>
    <path id="Path_1939" data-name="Path 1939" d="M1916.559,2971.648c-3.378,1.085-5.059,5.251-3.756,9.3s5.1,6.458,8.474,5.372,5.058-5.251,3.756-9.3-5.1-6.458-8.474-5.372" transform="translate(-662.473 -482)" fill="#76c5fb" fill-rule="evenodd"/>
    <path id="Path_1940" data-name="Path 1940" d="M2135.448,3065.164H2078.7v7.318h60.407v-3.659a3.669,3.669,0,0,0-3.658-3.659" transform="translate(-748.907 -530.729)" fill="#8ccdfb" fill-rule="evenodd"/>
    <path id="Path_1941" data-name="Path 1941" d="M1218.645,3020.865h43.925a14.3,14.3,0,1,1,0,28.593h-43.925a14.3,14.3,0,0,1,0-28.593" transform="translate(-294.569 -507.71)" fill="#992842" fill-rule="evenodd"/>
    <path id="Path_1942" data-name="Path 1942" d="M1307.483,3049.6h99.278c-6.424-2.062-9.637-14.6,0-20.016h-99.279c-3.587,0-6.531,4.51-6.531,10.008s2.942,10.008,6.532,10.008" transform="translate(-344.766 -512.243)" fill="#e4f5fb" fill-rule="evenodd"/>
    <path id="Path_1943" data-name="Path 1943" d="M1405.286,3049.245H1302.3c-5.168,0-10.632-6.563-10.632-14.481s5.464-14.308,10.632-14.308h102.985l-.048,4.313-102.579.074c-3.587,0-6.531,4.51-6.531,10.008s2.942,10.009,6.531,10.009l102.579-.074Z" transform="translate(-339.943 -507.497)" fill="#ba3954" fill-rule="evenodd"/>
    <path id="Path_1944" data-name="Path 1944" d="M1345.992,3051.039h11.624c4.46,1.689,3.171,8.383,5.819,12.768l-6.866-3.62-4.981,3.39c-3.861-3.976-1.652-10.759-5.6-12.538" transform="translate(-368.171 -523.389)" fill="#efd817" fill-rule="evenodd"/>
    <path id="Path_1945" data-name="Path 1945" d="M1466.17,2984.957h-42.5a8.836,8.836,0,0,0-8.81,8.811h0a8.837,8.837,0,0,0,8.81,8.811h42.5a8.837,8.837,0,0,0,8.81-8.811h0a8.836,8.836,0,0,0-8.81-8.811" transform="translate(-403.957 -489.051)" fill="#992842" fill-rule="evenodd"/>
    <path id="Path_1946" data-name="Path 1946" d="M1359.621,3002.667h-82.3c3.212-1.318,5.8-7.805,0-12.336h82.306c2.974,0,5.415,2.779,5.415,6.168s-2.44,6.168-5.416,6.168" transform="translate(-332.485 -491.844)" fill="#e4f5fb" fill-rule="evenodd"/>
    <path id="Path_1947" data-name="Path 1947" d="M1271.537,3002.447h85.38a9.307,9.307,0,0,0,8.813-8.925,9.207,9.207,0,0,0-8.813-8.819h-85.38l.04,2.658,85.042.046c2.974,0,5.415,2.78,5.415,6.168s-2.44,6.168-5.415,6.168l-85.042-.046Z" transform="translate(-329.482 -488.919)" fill="#ba3954" fill-rule="evenodd"/>
    <path id="Path_1948" data-name="Path 1948" d="M1737.9,2991.1c0,23.589-3.213,42.889-7.139,42.889h-24.448c-3.927,0-7.139-19.3-7.139-42.889Z" transform="translate(-551.696 -492.246)" fill="#90a7d1" fill-rule="evenodd"/>
    <path id="Path_1949" data-name="Path 1949" d="M1737.729,3000.65c-.718,19.1-3.574,33.483-6.964,33.483h-24.449c-3.9,0-7.1-19.051-7.138-42.431l.222-.328s3.989,26.467,10.75,30.581,12.344,3.232,19.544-7.642c3.076-4.645,5.858-9.558,8.034-13.663" transform="translate(-551.697 -492.386)" fill="#7c93c3" fill-rule="evenodd"/>
    <path id="Path_1950" data-name="Path 1950" d="M1718.656,2929.275c1.458-18.268,11.3-56.306,27.069-57.159,13.736,10.011-1.582,44.853-6.082,57.159Z" transform="translate(-561.818 -430.415)" fill="#00a551" fill-rule="evenodd"/>
    <rect id="Rectangle_866" data-name="Rectangle 866" width="49.663" height="0.686" transform="matrix(0.258, -0.966, 0.966, 0.258, 1167.001, 2498.771)" fill="#cbe6d2"/>
    <path id="Path_1951" data-name="Path 1951" d="M1730.568,2960.106l5.894,3.724,2.533-9.487,6.806-3.711.327.6-6.546,3.569-2.7,10.1-6.681-4.221Z" transform="translate(-567.819 -471.215)" fill="#cbe6d2"/>
    <path id="Path_1952" data-name="Path 1952" d="M1739.356,2927.311l5.894,3.723,2.533-9.487,6.806-3.711.326.6-6.546,3.57-2.7,10.1-6.682-4.221Z" transform="translate(-572.384 -454.173)" fill="#cbe6d2"/>
    <path id="Path_1953" data-name="Path 1953" d="M1744.818,2906.923l5.894,3.724,2.533-9.488,6.807-3.711.327.6-6.546,3.57-2.7,10.1-6.683-4.221Z" transform="translate(-575.223 -443.579)" fill="#cbe6d2"/>
    <path id="Path_1954" data-name="Path 1954" d="M1716.908,2950.643c-.943-11.817-7.308-36.424-17.51-36.976-8.887,6.477,1.023,29.015,3.934,36.976Z" transform="translate(-549.93 -452.007)" fill="#00a551" fill-rule="evenodd"/>
    <rect id="Rectangle_867" data-name="Rectangle 867" width="0.444" height="32.127" transform="translate(1151.687 2467.654) rotate(-14.95)" fill="#cbe6d2"/>
    <path id="Path_1955" data-name="Path 1955" d="M1720.915,2970.588,1717.1,2973l-1.638-6.138-4.4-2.4-.212.389,4.236,2.308,1.745,6.537,4.323-2.731Z" transform="translate(-557.761 -478.4)" fill="#cbe6d2"/>
    <path id="Path_1956" data-name="Path 1956" d="M1715.23,2949.373l-3.813,2.409-1.639-6.137-4.4-2.4-.212.388,4.235,2.309,1.745,6.537,4.323-2.73Z" transform="translate(-554.808 -467.376)" fill="#cbe6d2"/>
    <path id="Path_1957" data-name="Path 1957" d="M1711.7,2936.184l-3.813,2.41-1.638-6.138-4.4-2.4-.211.389,4.235,2.309,1.746,6.536,4.322-2.73Z" transform="translate(-552.971 -460.523)" fill="#cbe6d2"/>
    <rect id="Rectangle_868" data-name="Rectangle 868" width="38.492" height="2.232" transform="translate(1147.703 2498.988)" fill="#fff"/>
    <path id="Path_1958" data-name="Path 1958" d="M864.75,2783.047c-5.069-11.255-19.152-17.886-29-12.054a20.988,20.988,0,0,0-9.029,11.686c-6.994,25.8,9.2,87.7,15.45,103.2,16.23-14.456,31.959-17.44,35.613-18.3-6.314-21.932-9.971-77.737-13.033-84.535" transform="translate(-97.448 -376.747)" fill="#6aaff1" fill-rule="evenodd"/>
    <path id="Path_1959" data-name="Path 1959" d="M825.808,2794.814c-11.391,25.139,6.54,83.922,14.869,104.567a89.524,89.524,0,0,1,9.062-7.074c-12.14-26.624-23.117-75.96-23.931-97.493" transform="translate(-95.955 -390.247)" fill="#64a4e2" fill-rule="evenodd"/>
    <path id="Path_1960" data-name="Path 1960" d="M931.654,2974.4a4.187,4.187,0,0,1-.893,2.088c-.659.541-1.016.8-1.016.8l-1.072-2.19Z" transform="translate(-151.318 -483.567)" fill="#4596d1" fill-rule="evenodd"/>
    <path id="Path_1961" data-name="Path 1961" d="M952.287,2788.5a2.408,2.408,0,1,0,2.142,2.394,2.278,2.278,0,0,0-2.142-2.394m0-13.885a2.408,2.408,0,1,0,2.142,2.393A2.278,2.278,0,0,0,952.287,2774.615Zm8.052-36.027c4.3,12.192-2.817,21.321-9.457,25.456-10.294-7.467-19.549-14.744-19.549-28.785,0,0-3.553-.073-5.857,6.224-3.8,10.2,2.571,33.105,2.571,33.105s7.152-10.338,13.1-10.9a18.991,18.991,0,0,1,9.8,1.45c7.606-6.235,12.789,1.845,17.878,7.768,1.6-15.108,1.613-25.715-8.5-37.4A23.467,23.467,0,0,0,960.339,2738.588Z" transform="translate(-149.029 -359.301)" fill="#fff" fill-rule="evenodd"/>
    <rect id="Rectangle_869" data-name="Rectangle 869" width="22.888" height="5.559" transform="translate(825.83 2444.338)" fill="#76c5fb"/>
    <path id="Path_1962" data-name="Path 1962" d="M1547.855,2908.136a4.426,4.426,0,1,1-4.426,4.426,4.425,4.425,0,0,1,4.426-4.426" transform="translate(-470.765 -449.133)" fill="#ec1c24" fill-rule="evenodd"/>
    <path id="Path_1963" data-name="Path 1963" d="M1581.967,2908.136a4.426,4.426,0,1,1-4.426,4.426,4.425,4.425,0,0,1,4.426-4.426" transform="translate(-488.491 -449.133)" fill="#3dabf9" fill-rule="evenodd"/>
    <path id="Path_1964" data-name="Path 1964" d="M1616.079,2908.136a4.426,4.426,0,1,1-4.426,4.426,4.425,4.425,0,0,1,4.426-4.426" transform="translate(-506.216 -449.133)" fill="#3dabf9" fill-rule="evenodd"/>
    <path id="Path_1965" data-name="Path 1965" d="M2107.164,2360.369h46.4a.68.68,0,0,1,.678.678v1.975a.68.68,0,0,1-.678.678h-46.4a.68.68,0,0,1-.678-.678v-1.975a.68.68,0,0,1,.678-.678" transform="translate(-763.346 -164.496)" fill="#ff5269" fill-rule="evenodd"/>
    <path id="Path_1966" data-name="Path 1966" d="M2107.164,2392.732h105.251a.68.68,0,0,1,.678.678v1.976a.68.68,0,0,1-.678.678H2107.164a.68.68,0,0,1-.678-.678v-1.976a.68.68,0,0,1,.678-.678" transform="translate(-763.346 -181.313)" fill="#26a0f8" fill-rule="evenodd"/>
    <path id="Path_1967" data-name="Path 1967" d="M2107.164,2425.1h105.251a.679.679,0,0,1,.678.677v1.976a.68.68,0,0,1-.678.678H2107.164a.679.679,0,0,1-.678-.678v-1.976a.679.679,0,0,1,.678-.677" transform="translate(-763.346 -198.131)" fill="#26a0f8" fill-rule="evenodd"/>
    <path id="Path_1968" data-name="Path 1968" d="M2107.164,2457.461h105.251a.68.68,0,0,1,.678.679v1.975a.679.679,0,0,1-.678.678H2107.164a.678.678,0,0,1-.678-.678v-1.975a.679.679,0,0,1,.678-.679" transform="translate(-763.346 -214.948)" fill="#26a0f8" fill-rule="evenodd"/>
    <path id="Path_1969" data-name="Path 1969" d="M2107.164,2489.827h105.251a.679.679,0,0,1,.678.677v1.977a.679.679,0,0,1-.678.677H2107.164a.679.679,0,0,1-.678-.677V2490.5a.679.679,0,0,1,.678-.677" transform="translate(-763.346 -231.767)" fill="#26a0f8" fill-rule="evenodd"/>
    <path id="Path_1970" data-name="Path 1970" d="M1624.577,2674.281h104.055a2.684,2.684,0,0,1,2.676,2.677h0a2.684,2.684,0,0,1-2.676,2.675H1624.577a2.684,2.684,0,0,1-2.676-2.675h0a2.684,2.684,0,0,1,2.676-2.677" transform="translate(-511.541 -327.614)" fill="#b2defc" fill-rule="evenodd"/>
    <path id="Path_1971" data-name="Path 1971" d="M2114.658,2580.084s-26.15,6.846-40.883-2.082c-9.665-6.7-10.756-20.272,3.406-30.279,18.244-12.891,53.243-9.094,66.67,11.451,4.685,7.171,9.369,19.633,14.93,32.336,12.93,29.535,47.552,11.085,57.432,60.651.457,2.292-7.779-2.878-15.065-4.747a29.562,29.562,0,0,1-4.093,30.605c-7.862-35.9-40.578-37.293-65.693-40.169-3.726-3.448-4.241-13.154-4.271-18,0,0,7.563-5.32,7.192-11.5s-2.114-6.017-2.821-5.867a47.821,47.821,0,0,0-4.75,2.5c-1.433-8.023-1.11-24.01-12.054-24.9" transform="translate(-742.58 -257.972)" fill="#003398" fill-rule="evenodd"/>
    <path id="Path_1972" data-name="Path 1972" d="M2191.809,2691.94a2.871,2.871,0,1,1-2.871,2.872,2.871,2.871,0,0,1,2.871-2.872" transform="translate(-806.191 -336.791)" fill="#fff" fill-rule="evenodd"/>
    <path id="Path_1973" data-name="Path 1973" d="M1872.65,2144.781h0a2.025,2.025,0,0,1,2.02,2.019v17.655a2.026,2.026,0,0,1-2.02,2.019h0a2.026,2.026,0,0,1-2.018-2.019V2146.8a2.024,2.024,0,0,1,2.018-2.019" transform="translate(-640.789 -52.47)" fill="#219ef8" fill-rule="evenodd"/>
    <path id="Path_1974" data-name="Path 1974" d="M1873.947,2165.175h0a2.025,2.025,0,0,1-2.019,2.02h-17.655a2.026,2.026,0,0,1-2.019-2.02h0a2.025,2.025,0,0,1,2.019-2.019h17.655a2.024,2.024,0,0,1,2.019,2.019" transform="translate(-631.24 -62.018)" fill="#219ef8" fill-rule="evenodd"/>
    <path id="Path_1975" data-name="Path 1975" d="M1395.937,2186.325h0a1.647,1.647,0,0,1,1.642,1.642v14.36a1.646,1.646,0,0,1-1.642,1.641h0a1.646,1.646,0,0,1-1.642-1.641v-14.36a1.647,1.647,0,0,1,1.642-1.642" transform="translate(-393.27 -74.058)" fill="#219ef8" fill-rule="evenodd"/>
    <path id="Path_1976" data-name="Path 1976" d="M1396.993,2202.912h0a1.648,1.648,0,0,1-1.643,1.642h-14.359a1.647,1.647,0,0,1-1.642-1.642h0a1.647,1.647,0,0,1,1.642-1.642h14.359a1.648,1.648,0,0,1,1.643,1.642" transform="translate(-385.504 -81.824)" fill="#219ef8" fill-rule="evenodd"/>
    <path id="Path_1977" data-name="Path 1977" d="M1548.871,2048.228a5.2,5.2,0,0,0-7.352-.005l-.006.005a5.2,5.2,0,0,0,.006,7.351v.006a5.2,5.2,0,0,0,7.358-7.358Zm-3.675-4.422a8.078,8.078,0,0,1,5.726,2.371l0,0a8.093,8.093,0,1,1-11.446,11.445l0,0a8.093,8.093,0,0,1,0-11.447h0l0,0A8.077,8.077,0,0,1,1545.2,2043.805Z" transform="translate(-467.475)" fill="#f68c21"/>
    <path id="Path_1978" data-name="Path 1978" d="M1700.45,2241.165a4.445,4.445,0,0,0-6.276,0l0,0a4.444,4.444,0,0,0,0,6.276v.005a4.441,4.441,0,0,0,6.28-6.281Zm-3.138-3.774a6.9,6.9,0,0,1,4.888,2.024l0,0a6.908,6.908,0,1,1-9.77,9.77l0,0a6.9,6.9,0,0,1,0-9.77l0,0,0,0A6.9,6.9,0,0,1,1697.312,2237.391Z" transform="translate(-547.136 -100.593)" fill="#f68c21"/>
    <path id="Path_1979" data-name="Path 1979" d="M2074.242,2174.92a4.444,4.444,0,0,0-6.275,0l-.005,0a4.444,4.444,0,0,0,.005,6.276v0a4.441,4.441,0,0,0,6.28-6.281Zm-3.138-3.774a6.887,6.887,0,0,1,4.888,2.025l0,0a6.908,6.908,0,1,1-9.77,9.77l0,0a6.9,6.9,0,0,1,0-9.77l0,0,0,0A6.889,6.889,0,0,1,2071.1,2171.146Z" transform="translate(-741.369 -66.17)" fill="#f68c21"/>
    <path id="Path_1980" data-name="Path 1980" d="M1219.843,2161.219a4.444,4.444,0,0,0-6.276-.005l0,.005a4.443,4.443,0,0,0,0,6.275v.005a4.441,4.441,0,0,0,6.281-6.28Zm-3.137-3.774a6.891,6.891,0,0,1,4.887,2.024l0,0a6.908,6.908,0,1,1-9.77,9.77l0,0a6.9,6.9,0,0,1,0-9.77l0,0,0,0A6.9,6.9,0,0,1,1216.706,2157.444Z" transform="translate(-297.397 -59.05)" fill="#f68c21"/>
    <path id="Path_1981" data-name="Path 1981" d="M2199.3,2263.628h0a1.438,1.438,0,0,1,1.434,1.435V2277.6a1.437,1.437,0,0,1-1.434,1.434h0a1.438,1.438,0,0,1-1.435-1.434v-12.542a1.439,1.439,0,0,1,1.435-1.435" transform="translate(-810.831 -114.227)" fill="#219ef8" fill-rule="evenodd"/>
    <path id="Path_1982" data-name="Path 1982" d="M2200.223,2278.118h0a1.439,1.439,0,0,1-1.434,1.435h-12.542a1.439,1.439,0,0,1-1.435-1.435h0a1.438,1.438,0,0,1,1.435-1.435h12.542a1.438,1.438,0,0,1,1.434,1.435" transform="translate(-804.047 -121.011)" fill="#219ef8" fill-rule="evenodd"/>
    <path id="Path_1983" data-name="Path 1983" d="M1140.193,2261.378h0a1.253,1.253,0,0,1,1.249,1.249v10.916a1.252,1.252,0,0,1-1.249,1.248h0a1.252,1.252,0,0,1-1.249-1.248v-10.916a1.252,1.252,0,0,1,1.249-1.249" transform="translate(-260.582 -113.057)" fill="#219ef8" fill-rule="evenodd"/>
    <path id="Path_1984" data-name="Path 1984" d="M1141,2273.989h0a1.252,1.252,0,0,1-1.249,1.248h-10.916a1.252,1.252,0,0,1-1.248-1.248h0a1.251,1.251,0,0,1,1.248-1.248h10.916a1.251,1.251,0,0,1,1.249,1.248" transform="translate(-254.679 -118.962)" fill="#219ef8" fill-rule="evenodd"/>
  </g>
</svg>
