<svg xmlns="http://www.w3.org/2000/svg" xmlns:xlink="http://www.w3.org/1999/xlink" width="197.427" height="195.034" viewBox="0 0 197.427 195.034">
  <defs>
    <linearGradient id="linear-gradient" x1="0.5" x2="0.5" y2="1" gradientUnits="objectBoundingBox">
      <stop offset="0" stop-color="#8e2de2"/>
      <stop offset="1" stop-color="#4a00e0"/>
    </linearGradient>
  </defs>
  <g id="Group_1660" data-name="Group 1660" transform="translate(-475.596 -1840.612)">
    <path id="Path_2467" data-name="Path 2467" d="M64.789,259.759a39.575,39.575,0,0,1,16.655-3.628,40,40,0,0,1,18.725,4.649,2.26,2.26,0,1,0,2.122-3.992,44.567,44.567,0,0,0-39.39-1.141,2.262,2.262,0,0,0,1.888,4.112Z" transform="translate(492.866 1598.409)" fill="url(#linear-gradient)"/>
    <g id="Group_1658" data-name="Group 1658">
      <path id="Path_2453" data-name="Path 2453" d="M86.255,257.228a27.129,27.129,0,0,0-26.98,24.311l26.98,27.1,26.986-27.1A27.135,27.135,0,0,0,86.255,257.228Z" transform="translate(488.055 1610.124)" fill="none" stroke="#6a11cb" stroke-width="4"/>
      <path id="Path_2454" data-name="Path 2454" d="M80.618,282.7v77.24a10.332,10.332,0,0,0,20.662,0,10.332,10.332,0,0,0,20.662,0V282.7Z" transform="translate(532.551 1663.223)" fill="none" stroke="#050505" stroke-width="4"/>
      <path id="Path_2455" data-name="Path 2455" d="M58.4,250.185c-7.913,0-14.32,6.746-14.32,15.069s6.407,15.072,14.32,15.072c7.9,0,14.313-6.746,14.313-15.072S66.3,250.185,58.4,250.185Z" transform="translate(456.383 1595.44)" fill="none" stroke="#6a11cb" stroke-width="4"/>
      <path id="Path_2456" data-name="Path 2456" d="M42.031,359.938a10.33,10.33,0,0,0,20.659,0,10.332,10.332,0,0,0,20.662,0V282.7H42.031Z" transform="translate(452.105 1663.223)" fill="none" stroke="#050505" stroke-width="4"/>
      <path id="Path_2457" data-name="Path 2457" d="M96.993,249.208c-7.9,0-14.313,6.746-14.313,15.069s6.41,15.069,14.313,15.069,14.317-6.747,14.317-15.069S104.9,249.208,96.993,249.208Z" transform="translate(536.85 1593.404)" fill="none" stroke="#6a11cb" stroke-width="4"/>
      <path id="Path_2458" data-name="Path 2458" d="M66.548,279.993a8.124,8.124,0,0,0,11.491,11.488l4.43-4.43-11.5-11.5Z" transform="translate(498.255 1648.317)" fill="none" stroke="#6a11cb" stroke-width="4"/>
      <path id="Path_2459" data-name="Path 2459" d="M60.557,286.2v11.932a2.258,2.258,0,1,0,4.516,0V286.2a2.258,2.258,0,1,0-4.516,0Z" transform="translate(490.728 1665.802)" fill="url(#linear-gradient)"/>
      <path id="Path_2460" data-name="Path 2460" d="M105.641,347.071H65.073V294.947a2.258,2.258,0,0,0-4.516,0v54.385a2.26,2.26,0,0,0,2.258,2.261h42.826a2.261,2.261,0,0,0,0-4.522Z" transform="translate(490.728 1684.053)" fill="url(#linear-gradient)"/>
      <path id="Path_2461" data-name="Path 2461" d="M50.256,279.144a2.26,2.26,0,1,0-2.264-2.261A2.258,2.258,0,0,0,50.256,279.144Z" transform="translate(464.533 1646.393)" fill="url(#linear-gradient)"/>
      <path id="Path_2462" data-name="Path 2462" d="M50.256,282.82a2.261,2.261,0,0,0,0-4.522,2.261,2.261,0,1,0,0,4.522Z" transform="translate(464.533 1654.05)" fill="url(#linear-gradient)"/>
      <path id="Path_2463" data-name="Path 2463" d="M50.256,275.482a2.261,2.261,0,0,0,0-4.522,2.261,2.261,0,1,0,0,4.522Z" transform="translate(464.533 1638.752)" fill="url(#linear-gradient)"/>
      <path id="Path_2464" data-name="Path 2464" d="M50.256,271.806a2.26,2.26,0,1,0-2.264-2.258A2.257,2.257,0,0,0,50.256,271.806Z" transform="translate(464.533 1631.094)" fill="url(#linear-gradient)"/>
      <path id="Path_2465" data-name="Path 2465" d="M113.883,296.1,86.478,268.685a2.26,2.26,0,0,0-3.859,1.6V311.03H43.559a2.262,2.262,0,0,0-2.261,2.261v77.237a12.608,12.608,0,0,0,22.92,7.129,12.61,12.61,0,0,0,22.923-7.129V275.74l24.789,24.8A8.062,8.062,0,0,1,113.883,296.1ZM82.619,390.529a8.071,8.071,0,0,1-16.14,0V331.134a2.26,2.26,0,0,0-4.519,0v59.395a8.071,8.071,0,0,1-16.14,0V315.552h36.8Z" transform="translate(450.577 1632.633)" fill="url(#linear-gradient)"/>
      <path id="Path_2466" data-name="Path 2466" d="M213.11,260.511H181.081a20.17,20.17,0,0,0-14.388,5.991l-31.958,32.085L102.785,266.5a20.184,20.184,0,0,0-14.394-5.991H87.266a2.246,2.246,0,0,0-1.407.494L75.21,269.475,64.555,261a2.239,2.239,0,0,0-1.407-.494H54.53A18.533,18.533,0,0,0,36.021,279.02V319a2.265,2.265,0,0,0,2.264,2.261H54.53A2.26,2.26,0,0,0,56.791,319V281.836a2.26,2.26,0,1,0-4.519,0v34.9H40.546V279.02A14,14,0,0,1,54.53,265.033h7.832l11.438,9.1a2.262,2.262,0,0,0,2.813,0l11.442-9.1h.336a15.683,15.683,0,0,1,11.189,4.658l31.968,32.1-1.9,1.913a2.259,2.259,0,0,0,0,3.193l11.5,11.5a2.325,2.325,0,0,0,3.2,0l26.989-27V406.194a12.61,12.61,0,0,0,22.923,7.129,12.608,12.608,0,0,0,22.92-7.129V328.957a2.262,2.262,0,0,0-2.258-2.261h-39.06V285.948a2.263,2.263,0,0,0-3.862-1.6l-29.253,29.256-8.3-8.31,35.454-35.6a15.7,15.7,0,0,1,11.189-4.658H213.11a15.84,15.84,0,0,1,15.822,15.822v35.885H217.207v-34.9a2.263,2.263,0,0,0-4.525,0V319a2.262,2.262,0,0,0,2.261,2.261H231.19A2.26,2.26,0,0,0,233.448,319V280.855A20.366,20.366,0,0,0,213.11,260.511Zm-37.252,70.707h36.8v74.976a8.071,8.071,0,0,1-16.14,0V349.813a2.261,2.261,0,0,0-4.522,0v56.381a8.069,8.069,0,0,1-16.137,0Z" transform="translate(439.576 1616.968)" fill="url(#linear-gradient)"/>
      <path id="Path_2468" data-name="Path 2468" d="M58.439,266.3a2.251,2.251,0,0,0,1.835-.938,40.159,40.159,0,0,1,5.583-6.262,2.26,2.26,0,1,0-3.039-3.347,44.853,44.853,0,0,0-6.216,6.965,2.261,2.261,0,0,0,1.835,3.581Z" transform="translate(481.599 1605.819)" fill="url(#linear-gradient)"/>
      <path id="Path_2469" data-name="Path 2469" d="M67.3,276.816a2.261,2.261,0,0,0-3.205,3.19L76,291.95a2.257,2.257,0,0,0,3.2,0l33.535-33.674a2.26,2.26,0,0,0-3.2-3.193L77.6,287.153Z" transform="translate(496.727 1604.269)" fill="url(#linear-gradient)"/>
      <path id="Path_2470" data-name="Path 2470" d="M94.022,280.205v6.78a8.124,8.124,0,1,0,16.248,0v-6.78Z" transform="translate(560.496 1658.026)" fill="none" stroke="#6a11cb" stroke-width="4"/>
      <path id="Path_2471" data-name="Path 2471" d="M36.755,286.985a8.122,8.122,0,1,0,16.245,0v-6.78H36.755Z" transform="translate(441.106 1658.026)" fill="none" stroke="#6a11cb" stroke-width="4"/>
    </g>
  </g>
</svg>
