<svg xmlns="http://www.w3.org/2000/svg" xmlns:xlink="http://www.w3.org/1999/xlink" width="197.966" height="197.708" viewBox="0 0 197.966 197.708">
  <defs>
    <linearGradient id="linear-gradient" x1="0.5" x2="0.5" y2="1" gradientUnits="objectBoundingBox">
      <stop offset="0" stop-color="#8e2de2"/>
      <stop offset="1" stop-color="#4a00e0"/>
    </linearGradient>
  </defs>
  <g id="Group_1662" data-name="Group 1662" transform="translate(-1243.564 -1295.146)">
    <g id="Group_1657" data-name="Group 1657">
      <path id="Path_2447" data-name="Path 2447" d="M430.2,195.951a12.767,12.767,0,0,1,2.957.343l.028-.4a22.2,22.2,0,0,1,36.349-25.238l.071.043a33.959,33.959,0,0,1,10.087-17.5,40.763,40.763,0,1,0-62.27,52.4A13.333,13.333,0,0,1,430.2,195.951Z" transform="translate(871.315 1192.592)" fill="none" stroke="#6a11cb" stroke-width="4"/>
      <path id="Path_2448" data-name="Path 2448" d="M410.224,189.184a12.09,12.09,0,0,0,12.088,12.088h32.241a12.09,12.09,0,0,0,12.089-12.088V183.14H410.224Z" transform="translate(879.633 1289.582)" fill="none" stroke="#6a11cb" stroke-width="4"/>
      <path id="Path_2449" data-name="Path 2449" d="M537.683,171.5a23.089,23.089,0,0,0-8.08,1.451l-.043-.1a33.972,33.972,0,0,0-67.117-7.108l-.071-.043a21.962,21.962,0,0,0-17.056-8.1,22.267,22.267,0,0,0-19.292,33.339l-.028.4a12.767,12.767,0,0,0-2.957-.343,13.378,13.378,0,0,0,0,26.756H480.8l18.531-51.382,1.432,50.438,35.588-10.8-4.306,11.745h5.633a23.127,23.127,0,0,0,0-46.253Z" transform="translate(878.473 1197.547)" fill="none"/>
      <path id="Path_2450" data-name="Path 2450" d="M567.851,197.368a25.316,25.316,0,0,0-6,.711,36.4,36.4,0,0,0-25.092-31.294,74.78,74.78,0,1,0-116.627,89.459,21.173,21.173,0,0,1,6.527,11.287h0a22.053,22.053,0,0,1,.538,4.791v24.938a8.321,8.321,0,0,0,8.315,8.315h68.5a8.32,8.32,0,0,0,8.312-8.315V274.869l21.093-6.394,1.052,46.974a2.266,2.266,0,0,0,1.893,2.184,2.573,2.573,0,0,0,.371.031,2.271,2.271,0,0,0,2.131-1.485L563.8,248.156h4.049a25.394,25.394,0,0,0,0-50.788Zm-144.695,55.5a70.256,70.256,0,1,1,107.722-87.427,35.743,35.743,0,0,0-5.113-.4,36.505,36.505,0,0,0-34.27,24.474,24.236,24.236,0,0,0-16.01-6.05,24.54,24.54,0,0,0-22.847,33.407,15.648,15.648,0,0,0,.566,31.285h54.546l-6,16.617H430.629A25.573,25.573,0,0,0,423.156,252.87Zm84.637,44.391a3.783,3.783,0,0,1-3.78,3.78h-68.5a3.783,3.783,0,0,1-3.78-3.78V287.44h58.177a2.266,2.266,0,1,0,0-4.532H431.73V272.323a26.155,26.155,0,0,0-.179-3.016h68.568L497.9,275.46a2.266,2.266,0,0,0,2.79,2.939l7.1-2.153Zm30.942,6.1-.854-37.976a2.263,2.263,0,0,0-2.264-2.215,2.39,2.39,0,0,0-.659.1L503.7,272.75l23.88-66.223,1.095,38.483a2.263,2.263,0,0,0,2.923,2.1l31.235-9.481Zm29.117-59.743h-2.388l3.192-8.7a2.269,2.269,0,0,0-2.79-2.948l-32.748,9.939-1.342-47.475a2.266,2.266,0,0,0-4.4-.7l-17.993,49.888H453.2a11.114,11.114,0,0,1,0-22.228,10.445,10.445,0,0,1,1.961.229,24.639,24.639,0,0,0,7.609,7.346,2.236,2.236,0,0,0,1.175.331,2.268,2.268,0,0,0,1.182-4.2A20,20,0,0,1,475.484,188a19.75,19.75,0,0,1,14.711,6.632,35.676,35.676,0,0,0,4.924,26.011,2.266,2.266,0,1,0,3.829-2.422,31.853,31.853,0,0,1-4.123-23.852h0a31.675,31.675,0,0,1,62.557,5.333,25.469,25.469,0,0,0-14.906,23.057,2.264,2.264,0,0,0,4.529,0,20.961,20.961,0,0,1,13.561-19.552,20.859,20.859,0,1,1,7.285,40.413Z" transform="translate(848.306 1169.414)" fill="url(#linear-gradient)"/>
      <path id="Path_2451" data-name="Path 2451" d="M461.08,133.455a2.271,2.271,0,0,0-2.267-2.27,58.249,58.249,0,0,0-58.181,58.187,2.267,2.267,0,1,0,4.535,0,53.707,53.707,0,0,1,53.646-53.649A2.267,2.267,0,0,0,461.08,133.455Z" transform="translate(859.555 1180.828)" fill="url(#linear-gradient)"/>
      <path id="Path_2452" data-name="Path 2452" d="M426.588,136.741A53.589,53.589,0,0,1,440,144.192a2.266,2.266,0,0,0,2.741-3.61,57.986,57.986,0,0,0-14.544-8.076,2.265,2.265,0,1,0-1.609,4.235Z" transform="translate(910.821 1183.284)" fill="url(#linear-gradient)"/>
    </g>
  </g>
</svg>
