<svg xmlns="http://www.w3.org/2000/svg" width="47.496" height="43.3" viewBox="0 0 47.496 43.3"><defs><style>.a{fill:none;stroke:#ffcd0e;stroke-width:4px;}</style></defs><g transform="translate(2.035 2)"><path class="a" d="M22.739,1.1l5.524,12.394L42.4,14.644a1.046,1.046,0,0,1,.635,1.851l-10.726,8.81,3.214,13.106a1.1,1.1,0,0,1-1.661,1.143L21.714,32.606,9.561,39.555A1.1,1.1,0,0,1,7.9,38.411l3.214-13.106L.386,16.493a1.045,1.045,0,0,1,.635-1.851L15.162,13.49,20.686,1.1a1.138,1.138,0,0,1,2.053,0Z" transform="translate(0 -0.452)"/></g></svg>