<svg xmlns="http://www.w3.org/2000/svg" xmlns:xlink="http://www.w3.org/1999/xlink" width="200.603" height="200.559" viewBox="0 0 200.603 200.559">
  <defs>
    <linearGradient id="linear-gradient" x1="0.5" x2="0.5" y2="1" gradientUnits="objectBoundingBox">
      <stop offset="0" stop-color="#8e2de2"/>
      <stop offset="1" stop-color="#4a00e0"/>
    </linearGradient>
  </defs>
  <g id="Group_1661" data-name="Group 1661" transform="translate(-456 -1295.021)">
    <g id="Group_1656" data-name="Group 1656" transform="translate(456 1295.021)">
      <path id="Path_2407" data-name="Path 2407" d="M161.541,230.39a10.5,10.5,0,0,0,20.991,0,10.5,10.5,0,0,0,20.994,0V164.2H161.541Z" transform="translate(-142.709 -42.509)" fill="none"/>
      <path id="Path_2408" data-name="Path 2408" d="M267.458,166.255l-16.277-4.445a7.613,7.613,0,0,1-11.522,4.495l-9.491,13.754L213.743,175a7.589,7.589,0,0,1-13.237,2.511L182.65,191.775v30.981l15.3-8.428a7.642,7.642,0,1,1,14.331-3.68,7.82,7.82,0,0,1-.31,2.053l16.478,4.6,12.973-11.39a7.683,7.683,0,1,1,13.259-3.743l15.08,2.589,16.932-18.23.081-51.89Z" transform="translate(-97.654 -105.594)" fill="none"/>
      <path id="Path_2409" data-name="Path 2409" d="M286.688,151.2l-16.932,18.23-15.08-2.589a7.609,7.609,0,0,1-13.259,3.743l-12.973,11.39-16.478-4.6a7.606,7.606,0,0,1-14.02,1.627l-15.3,8.428v13.716H286.769Z" transform="translate(-97.654 -70.259)" fill="none"/>
      <path id="Path_2410" data-name="Path 2410" d="M178.138,130.707c-8.03,0-14.544,6.858-14.544,15.312s6.513,15.312,14.544,15.312,14.547-6.852,14.547-15.312S186.171,130.707,178.138,130.707Z" transform="translate(-138.327 -113.991)" fill="none" stroke="#6a11cb" stroke-width="4"/>
      <path id="Path_2411" data-name="Path 2411" d="M202.732,144.11a8.255,8.255,0,1,0-11.673-11.676l-6.122,6.125,11.682,11.688Z" transform="translate(-92.77 -115.468)" fill="none" stroke="#6a11cb" stroke-width="3"/>
      <path id="Path_2412" data-name="Path 2412" d="M196.919,134.855h14.588a2.3,2.3,0,0,0,0-4.6H196.919a2.3,2.3,0,0,0,0,4.6Z" transform="translate(-72.103 -114.945)" fill="url(#linear-gradient)"/>
      <path id="Path_2413" data-name="Path 2413" d="M196.919,139.738h39.092a2.3,2.3,0,1,0,0-4.592H196.919a2.3,2.3,0,1,0,0,4.592Z" transform="translate(-72.103 -104.516)" fill="url(#linear-gradient)"/>
      <path id="Path_2414" data-name="Path 2414" d="M205.478,134.855h22.148a2.3,2.3,0,0,0,0-4.6H205.478a2.3,2.3,0,0,0,0,4.6Z" transform="translate(-53.826 -114.945)" fill="url(#linear-gradient)"/>
      <path id="Path_2415" data-name="Path 2415" d="M353.838,253.954h-6.889V129.969h6.889a2.3,2.3,0,1,0,0-4.6h-122.5a2.3,2.3,0,1,0,0,4.6h6.886v24.718l-18.493,18.5a14.7,14.7,0,0,1-10.456,4.332H174.336a18.827,18.827,0,0,0-18.8,18.806V236.95a2.3,2.3,0,0,0,2.3,2.294h16.506a2.3,2.3,0,0,0,2.3-2.294V199.186a2.3,2.3,0,0,0-4.6,0v35.466l-11.914,0V196.325a14.228,14.228,0,0,1,14.211-14.211h34.942a19.256,19.256,0,0,0,13.7-5.68l24.715-24.721,8.444,8.444L218.87,197.582a16.418,16.418,0,0,0-4.814,11.663v35.522H174.365a2.3,2.3,0,0,0-2.294,2.294v66.193a12.81,12.81,0,0,0,23.286,7.241,12.816,12.816,0,0,0,23.295-7.241V209.245a11.86,11.86,0,0,1,3.473-8.422l16.1-16.174v69.305h-6.886a2.3,2.3,0,1,0,0,4.592h42.913l-14.509,52.219A2.3,2.3,0,1,0,264.172,312l8.234-29.639h40.362L321,312a2.3,2.3,0,0,0,2.21,1.683,2.385,2.385,0,0,0,.621-.085,2.3,2.3,0,0,0,1.6-2.83l-14.509-52.219h42.92a2.3,2.3,0,1,0,0-4.592Zm-139.783,59.3a8.2,8.2,0,0,1-16.4,0v-48.06a2.3,2.3,0,0,0-4.6,0v48.06a8.2,8.2,0,0,1-16.4,0V249.362h37.4Zm97.433-35.491h-37.8l5.335-19.211h27.132Zm-68.663-23.809V243.889l12.334-6.8a9.854,9.854,0,0,0,16-1.859l14.541,4.062a2.3,2.3,0,0,0,2.131-.483l11.447-10.049a9.841,9.841,0,0,0,5.742,1.856,9.974,9.974,0,0,0,9.156-6.053l13.064,2.238a2.273,2.273,0,0,0,2.072-.7l12.958-13.954.072,41.8Zm14.315-23.527a5.36,5.36,0,1,1,5.36,5.36A5.366,5.366,0,0,1,257.141,230.427Zm42.528-9.764a5.36,5.36,0,1,1,5.357,5.357A5.365,5.365,0,0,1,299.669,220.663Zm42.681-15.34L326.8,222.068l-11.879-2.041a9.932,9.932,0,0,0-19.844.636,9.778,9.778,0,0,0,1.2,4.63l-10.532,9.243-13.324-3.724c0-.132.041-.254.041-.386a9.955,9.955,0,0,0-19.91,0,9.772,9.772,0,0,0,.4,2.639l-10.121,5.579V212.664l15.418-12.325a9.821,9.821,0,0,0,14.635-2.774l14.5,4.467a2.294,2.294,0,0,0,2.564-.89l8.388-12.152a9.738,9.738,0,0,0,12.077-4.655l14.334,3.915a2.318,2.318,0,0,0,2.561-1.025l15.051-24.64Zm-83.369-12.795a5.358,5.358,0,1,1,5.357,5.363A5.364,5.364,0,0,1,258.981,192.529Zm37.337-12.873a5.36,5.36,0,1,1,5.357,5.36A5.367,5.367,0,0,1,296.319,179.656Zm46.032-25.884-18.073,29.589L311.605,179.9c0-.085.025-.163.025-.248a9.955,9.955,0,1,0-17.161,6.83l-7.35,10.657-12.892-3.968c.016-.219.066-.426.066-.646a9.955,9.955,0,0,0-19.91,0,9.858,9.858,0,0,0,.981,4.228l-12.538,10.024V180.038l18.186-18.267a2.3,2.3,0,0,0,0-3.244l-11.688-11.685a2.366,2.366,0,0,0-3.25,0l-3.244,3.25V129.969h99.524Z" transform="translate(-155.533 -125.374)" fill="url(#linear-gradient)"/>
      <path id="Path_2416" data-name="Path 2416" d="M232.751,187.895H214.558a2.3,2.3,0,0,0,0,4.592h18.192a2.3,2.3,0,1,0,0-4.592Z" transform="translate(-34.445 8.072)" fill="url(#linear-gradient)"/>
      <path id="Path_2417" data-name="Path 2417" d="M264.147,187.895H181.286a2.3,2.3,0,1,0,0,4.592h82.861a2.3,2.3,0,1,0,0-4.592Z" transform="translate(-105.477 8.072)" fill="url(#linear-gradient)"/>
      <path id="Path_2418" data-name="Path 2418" d="M169.826,159.476a2.3,2.3,0,1,0,0-4.6,2.3,2.3,0,1,0,0,4.6Z" transform="translate(-129.997 -62.394)" fill="url(#linear-gradient)"/>
      <path id="Path_2419" data-name="Path 2419" d="M169.826,163.768a2.3,2.3,0,0,0,0-4.6,2.3,2.3,0,1,0,0,4.6Z" transform="translate(-129.997 -53.239)" fill="url(#linear-gradient)"/>
      <path id="Path_2420" data-name="Path 2420" d="M169.826,150.895a2.3,2.3,0,1,0-2.329-2.3A2.315,2.315,0,0,0,169.826,150.895Z" transform="translate(-129.997 -80.703)" fill="url(#linear-gradient)"/>
      <path id="Path_2421" data-name="Path 2421" d="M169.826,155.184a2.3,2.3,0,1,0-2.329-2.3A2.313,2.313,0,0,0,169.826,155.184Z" transform="translate(-129.997 -71.548)" fill="url(#linear-gradient)"/>
      <path id="Path_2422" data-name="Path 2422" d="M156.266,161.7V168.6a8.253,8.253,0,1,0,16.506,0V161.7Z" transform="translate(-153.969 -48.878)" fill="none" stroke="#6a11cb" stroke-width="3"/>
    </g>
  </g>
</svg>
